<?xml version="1.0" standalone="no"?>
<!DOCTYPE svg PUBLIC "-//W3C//DTD SVG 20010904//EN"
 "http://www.w3.org/TR/2001/REC-SVG-20010904/DTD/svg10.dtd">
<svg version="1.0" xmlns="http://www.w3.org/2000/svg"
 width="336.000000pt" height="294.000000pt" viewBox="0 0 336.000000 294.000000"
 preserveAspectRatio="xMidYMid meet">

<g transform="translate(0.000000,294.000000) scale(0.100000,-0.100000)"
fill="#000000" stroke="none">
<path d="M140 2930 c-114 -14 -133 -46 -132 -222 1 -77 6 -127 15 -150 9 -19
155 -172 353 -369 336 -334 339 -337 394 -349 85 -18 777 -10 807 10 48 31 48
34 48 524 0 422 -1 464 -18 493 -36 66 -8 64 -745 66 -367 2 -692 0 -722 -3z
m540 -682 l0 -131 -22 19 c-157 140 -236 210 -253 225 -19 19 -16 19 128 19
l147 0 0 -132z"/>
<path d="M1980 2930 c-180 -5 -199 -11 -227 -63 -16 -29 -18 -72 -18 -493 0
-490 0 -493 48 -524 30 -20 722 -28 807 -10 55 12 58 15 394 349 198 197 344
350 353 369 21 49 21 255 0 305 -30 71 -21 70 -642 71 -302 1 -624 -1 -715 -4z
m975 -569 c-17 -15 -96 -85 -252 -225 l-23 -19 0 131 0 132 147 0 c144 0 147
0 128 -19z"/>
<path d="M2058 1756 c-417 -14 -380 5 -388 -193 l-5 -138 -5 127 c-5 120 -7
129 -31 153 -40 40 -123 47 -542 43 -352 -3 -374 -4 -407 -23 -19 -11 -43 -37
-53 -58 -18 -35 -19 -80 -20 -760 -2 -565 1 -731 11 -765 17 -57 62 -106 110
-120 27 -8 170 -12 470 -12 378 0 432 2 446 16 13 13 16 44 16 180 0 131 3
164 13 164 14 0 27 -119 27 -255 0 -33 4 -67 10 -75 7 -12 76 -14 484 -11 261
1 491 6 511 11 54 12 85 37 108 88 21 46 22 59 25 557 2 281 -1 608 -6 727
-11 247 -22 288 -90 330 -34 21 -49 23 -192 24 -85 1 -307 -3 -492 -10z m-711
-308 l23 -21 0 -548 0 -548 -26 -20 c-25 -20 -40 -21 -221 -21 -193 0 -194 0
-218 25 l-25 24 0 541 0 541 25 24 c24 25 25 25 221 25 189 0 199 -1 221 -22z
m1221 10 c9 -9 12 -151 12 -580 0 -551 -1 -568 -19 -578 -26 -13 -416 -13
-442 0 -18 10 -19 27 -19 578 0 429 3 571 12 580 17 17 439 17 456 0z"/>
</g>
</svg>
