<?xml version="1.0" standalone="no"?>
<!DOCTYPE svg PUBLIC "-//W3C//DTD SVG 20010904//EN"
 "http://www.w3.org/TR/2001/REC-SVG-20010904/DTD/svg10.dtd">
<svg version="1.0" xmlns="http://www.w3.org/2000/svg"
 width="239.000000pt" height="453.000000pt" viewBox="0 0 239.000000 453.000000"
 preserveAspectRatio="xMidYMid meet">

<g transform="translate(0.000000,453.000000) scale(0.100000,-0.100000)"
fill="#000000" stroke="none">
<path d="M151 4511 c-7 -5 -21 -6 -31 -4 -12 3 -32 -9 -58 -35 -50 -50 -53
-67 -53 -357 -3 -887 3 -1485 14 -1492 6 -4 51 -8 100 -9 48 -1 90 -3 92 -6 5
-5 6 -552 1 -595 -2 -17 -7 -37 -11 -43 -14 -22 -59 -35 -142 -39 -45 -2 -46
-18 -44 -506 3 -577 10 -1245 14 -1265 10 -48 64 -120 90 -120 7 0 19 -6 26
-12 17 -18 468 -17 528 0 41 12 76 42 141 120 21 26 45 43 70 49 45 12 628 9
657 -2 25 -11 40 -30 64 -81 21 -47 59 -78 116 -92 63 -17 514 -18 548 -2 15
7 27 17 27 22 0 4 5 8 11 8 19 0 40 29 54 75 11 38 13 234 9 1168 -10 2768
-12 3082 -24 3112 -13 33 -59 84 -77 85 -6 0 -13 5 -15 12 -3 9 -73 12 -285
11 l-281 0 -42 -29 c-29 -20 -48 -43 -59 -72 -32 -82 -43 -87 -194 -86 -243 3
-302 4 -317 4 -72 -1 -240 9 -249 14 -7 4 -22 24 -35 44 -34 53 -80 102 -111
118 -21 11 -83 14 -274 13 -136 0 -253 -4 -260 -8z m1825 -84 c38 -33 45 -110
14 -149 -27 -35 -53 -35 -85 -3 -20 19 -25 34 -25 75 0 41 5 56 25 75 30 31
37 31 71 2z m-1476 -9 c30 -32 24 -94 -10 -120 -22 -16 -30 -17 -58 -7 -37 13
-52 35 -52 78 0 64 77 95 120 49z m1000 -497 c3 -1 13 -14 23 -30 l17 -29 -72
-116 -73 -116 -80 0 c-44 0 -137 3 -206 7 l-127 6 -61 108 c-34 60 -61 112
-61 116 0 4 11 19 25 33 l25 26 293 -2 c160 -1 294 -2 297 -3z m455 -65 c83
-3 171 -6 197 -6 75 0 75 -1 60 -317 l-13 -268 -41 -37 -40 -38 -97 6 c-53 3
-112 7 -131 9 -19 2 -67 4 -107 4 l-71 1 -95 169 -95 170 69 135 c60 117 75
139 111 160 27 16 52 23 72 21 17 -3 99 -7 181 -9z m-1163 -136 c37 -74 67
-141 67 -149 1 -8 -38 -88 -85 -178 -112 -215 -97 -205 -319 -197 -196 7 -213
13 -258 95 l-27 47 0 233 0 233 28 29 27 29 250 -4 250 -3 67 -135z m727 -397
c57 -103 104 -192 104 -198 0 -10 -176 -320 -193 -340 -8 -9 -170 -18 -364
-19 l-60 -1 -108 190 c-59 105 -107 197 -105 205 5 35 173 318 197 333 20 12
63 15 225 16 l200 1 104 -187z m-919 -252 l84 -6 93 -165 c51 -91 93 -170 93
-175 0 -27 -81 -175 -101 -186 -15 -8 -49 -10 -103 -5 -45 3 -124 6 -177 6
l-95 0 -23 43 c-61 111 -81 136 -114 139 -25 2 -36 12 -57 49 l-27 45 14 90
c20 134 19 131 71 158 50 27 69 27 342 7z m1387 0 l181 -1 32 -57 c29 -51 32
-62 26 -112 -3 -31 -8 -144 -11 -251 -8 -273 -8 -274 -53 -300 -36 -22 -44
-22 -227 -16 -128 5 -194 11 -201 19 -17 19 -204 355 -204 367 0 9 57 111 196
351 1 3 20 4 41 3 21 -1 120 -2 220 -3z m-674 -428 l129 -6 84 -174 c46 -95
85 -177 86 -182 2 -5 -44 -92 -101 -194 l-104 -185 -41 -4 c-23 -3 -117 -6
-211 -7 l-170 -2 -105 187 c-58 103 -106 191 -108 195 -2 5 38 78 89 163 135
224 138 225 452 209z m832 -438 c17 -2 33 -3 37 -4 3 -1 18 -22 33 -48 l28
-46 -7 -211 c-4 -116 -9 -248 -13 -294 l-6 -83 -63 -35 -64 -36 -157 7 c-87 3
-167 8 -178 10 -15 3 -50 57 -120 182 -55 98 -101 185 -103 193 -5 25 165 311
206 348 l37 34 170 -7 c94 -4 184 -9 200 -10z m-1380 -180 c13 -3 36 -34 65
-87 25 -46 46 -88 48 -95 2 -7 -34 -78 -79 -158 -65 -116 -94 -156 -136 -192
-42 -36 -57 -44 -80 -39 -15 3 -85 8 -155 12 -185 9 -186 10 -222 75 -30 53
-31 60 -28 152 l3 96 84 48 83 47 7 52 c6 48 9 53 53 77 45 25 50 25 192 21
80 -3 154 -7 165 -9z m523 -251 c101 -5 138 -11 152 -23 23 -20 190 -321 190
-341 -1 -8 -45 -94 -99 -190 l-98 -175 -104 0 c-57 -1 -160 2 -228 5 l-124 5
-93 165 c-51 91 -94 171 -94 179 0 8 41 91 91 186 105 199 113 207 209 200 36
-2 125 -7 198 -11z m-779 -425 c81 0 152 -4 158 -7 9 -6 152 -253 197 -340
l17 -32 -67 -126 c-83 -156 -97 -167 -204 -160 -41 3 -141 5 -222 6 l-146 0
-31 56 -32 55 12 242 c7 146 16 248 23 256 17 21 106 60 128 56 11 -2 86 -5
167 -6z m1566 -14 c11 -2 39 -4 62 -4 41 -1 44 -4 73 -53 l30 -53 -2 -195 c-2
-299 -3 -305 -44 -331 -32 -19 -47 -20 -231 -19 -286 1 -255 -12 -341 142 -48
86 -71 136 -67 149 4 10 39 88 80 173 68 142 77 156 117 179 42 24 47 25 173
20 72 -3 139 -7 150 -8z m-579 -542 c61 -107 62 -108 45 -136 -9 -16 -21 -33
-27 -37 -10 -10 -588 -15 -602 -6 -4 2 -15 20 -25 39 l-19 34 58 104 c31 57
59 106 61 109 7 7 417 16 433 9 7 -4 42 -56 76 -116z m-991 -538 c65 -64 -7
-195 -78 -141 -28 22 -40 70 -27 111 19 58 64 72 105 30z m1488 -3 c27 -30 31
-92 8 -129 -24 -39 -52 -42 -81 -11 -25 27 -27 103 -4 136 18 27 55 29 77 4z"/>
</g>
</svg>
