<?xml version="1.0" standalone="no"?>
<!DOCTYPE svg PUBLIC "-//W3C//DTD SVG 20010904//EN"
 "http://www.w3.org/TR/2001/REC-SVG-20010904/DTD/svg10.dtd">
<svg version="1.0" xmlns="http://www.w3.org/2000/svg"
 width="600.000000pt" height="712.000000pt" viewBox="0 0 600.000000 712.000000"
 preserveAspectRatio="xMidYMid meet">

<g transform="translate(0.000000,712.000000) scale(0.100000,-0.100000)"
fill="#000000" stroke="none">
<path d="M1163 7113 c-7 -2 -13 -11 -13 -19 0 -8 -6 -14 -13 -14 -7 0 -23 -9
-35 -20 -18 -17 -22 -32 -22 -86 0 -48 4 -66 15 -70 17 -7 21 -70 4 -76 -7 -2
-10 -749 -9 -2470 l1 -2466 -520 -430 c-286 -237 -531 -438 -545 -447 -23 -16
-26 -24 -26 -81 0 -72 11 -80 57 -44 20 15 29 17 39 9 19 -15 5 -36 -50 -79
l-45 -35 -1 -137 c0 -122 2 -138 17 -138 9 0 25 7 35 16 14 14 20 14 33 4 8
-7 15 -15 15 -19 0 -3 -23 -24 -50 -46 l-50 -40 0 -68 c0 -44 4 -66 10 -62 6
4 8 11 4 16 -3 6 3 5 15 -3 19 -12 19 -13 3 -20 -10 -5 5 -7 35 -5 28 1 49 -1
46 -5 -13 -22 23 -2 78 42 60 48 89 57 70 21 -6 -10 -17 -23 -25 -31 -26 -20
-20 -43 9 -38 13 3 22 1 19 -3 -3 -5 13 -9 35 -9 37 0 54 12 223 153 101 83
259 215 352 291 l168 139 57 -2 c31 -1 427 -27 881 -57 454 -30 897 -59 985
-65 88 -5 327 -21 530 -34 204 -14 378 -25 388 -25 11 0 17 -8 17 -25 0 -28
29 -35 49 -11 17 20 49 26 61 11 7 -9 -5 -25 -50 -64 l-60 -52 0 -130 c0 -107
3 -131 15 -136 9 -3 23 1 33 9 27 23 50 28 62 13 9 -11 -1 -23 -49 -62 l-61
-48 0 -61 c0 -33 5 -65 12 -72 7 -7 39 -12 71 -12 53 0 65 4 101 33 23 19 51
39 62 45 18 10 21 9 20 -6 0 -9 -9 -23 -18 -30 -10 -7 -18 -22 -18 -33 0 -17
6 -20 33 -17 21 2 31 8 29 17 -2 11 0 12 10 4 34 -28 54 -18 194 98 567 470
1552 1284 1575 1302 27 19 29 26 29 84 0 69 -14 81 -52 46 -17 -15 -20 -15
-35 0 -15 14 -13 18 17 44 18 15 42 34 52 41 16 12 18 29 18 153 0 149 -2 155
-49 123 -21 -15 -24 -15 -39 0 -9 8 -14 17 -11 19 2 2 25 20 52 41 l47 38 0
68 c0 78 -2 80 -87 80 -49 0 -59 -4 -104 -42 -38 -32 -52 -39 -61 -30 -9 9 -6
17 10 35 12 13 22 28 22 34 0 16 -112 24 -131 10 -9 -7 -56 -45 -104 -86 -47
-40 -88 -71 -91 -69 -2 3 -5 1038 -7 2301 -2 1827 -5 2298 -14 2302 -19 6 -16
72 2 79 11 4 15 22 15 70 0 60 -2 66 -22 70 -30 6 -4184 277 -4223 275 -16 0
-36 -3 -42 -6z m2087 -573 c918 -60 1685 -110 1705 -110 l35 0 0 -1736 0
-1736 -57 6 c-32 3 -785 53 -1673 111 -888 58 -1639 108 -1667 111 l-53 5 0
1730 0 1729 21 0 c11 0 771 -49 1689 -110z m-1520 -3670 c74 -5 239 -16 365
-25 127 -8 255 -17 285 -20 30 -2 615 -40 1300 -85 685 -44 1260 -83 1278 -86
l32 -5 0 -346 0 -346 -62 6 c-35 3 -327 22 -650 43 l-588 38 0 41 c0 50 -6 58
-32 44 -13 -7 -24 -7 -30 -1 -6 6 3 19 26 37 33 25 36 32 36 76 l0 49 -47 0
c-34 0 -55 -7 -80 -26 -33 -25 -59 -26 -35 -2 24 24 13 38 -31 38 -39 0 -52
-8 -176 -110 -74 -60 -142 -110 -151 -110 -27 0 -914 58 -997 65 -64 6 -73 9
-73 26 0 29 -28 35 -54 10 -22 -20 -23 -21 -39 -3 -15 17 -13 20 38 60 l55 43
0 64 c0 76 -10 85 -90 85 -46 0 -58 -5 -101 -41 -32 -27 -55 -39 -66 -35 -14
6 -14 9 6 29 36 40 28 54 -36 59 l-57 5 -94 -81 c-52 -45 -100 -85 -108 -89
-12 -7 -14 38 -14 298 l0 305 28 0 c15 0 88 -4 162 -10z m677 -1189 c144 -9
264 -19 266 -22 3 -2 -78 -71 -179 -154 l-183 -150 -1 -42 c0 -36 3 -43 19
-43 11 0 23 5 27 11 4 8 9 8 17 0 8 -8 2 -19 -23 -41 -34 -29 -38 -30 -110
-25 -41 3 -212 14 -379 25 -167 11 -305 21 -307 22 -1 2 115 101 259 220 232
193 266 217 297 217 19 0 153 -8 297 -18z m1608 -106 c455 -30 830 -56 831
-58 2 -2 -56 -52 -129 -112 -73 -60 -192 -159 -266 -220 -73 -60 -139 -109
-145 -108 -11 2 -212 16 -471 33 -816 54 -1167 79 -1171 83 -4 4 511 437 520
437 1 0 375 -25 831 -55z"/>
</g>
</svg>
