<?xml version="1.0" standalone="no"?>
<!DOCTYPE svg PUBLIC "-//W3C//DTD SVG 20010904//EN"
 "http://www.w3.org/TR/2001/REC-SVG-20010904/DTD/svg10.dtd">
<svg version="1.0" xmlns="http://www.w3.org/2000/svg"
 width="344.000000pt" height="500.000000pt" viewBox="0 0 344.000000 500.000000"
 preserveAspectRatio="xMidYMid meet">

<g transform="translate(0.000000,500.000000) scale(0.100000,-0.100000)"
fill="#000000" stroke="none">
<path d="M910 4960 l0 -40 -332 -1 c-183 -1 -336 -1 -340 0 -13 2 -9 -579 3
-624 9 -35 58 -99 59 -78 0 4 5 0 11 -10 6 -9 14 -15 20 -12 5 4 9 2 9 -4 0
-14 55 -42 65 -33 5 4 6 3 3 -3 -5 -9 353 -221 366 -217 4 2 16 -7 28 -18 20
-18 27 -21 44 -19 4 0 10 -3 13 -8 3 -4 50 -41 103 -81 54 -41 101 -79 105
-85 3 -7 -2 -5 -13 3 -13 10 -12 7 2 -6 13 -12 20 -25 17 -28 -3 -3 2 -8 11
-12 9 -3 13 -10 10 -15 -3 -5 0 -9 6 -9 6 0 8 -4 5 -10 -3 -5 -1 -10 4 -10 6
0 10 -3 9 -7 -1 -5 4 -24 11 -43 8 -19 15 -38 16 -42 1 -5 3 -9 5 -10 7 -9 8
-107 8 -468 -1 -426 -1 -455 -13 -482 -3 -9 -7 -22 -9 -30 -1 -7 -5 -19 -9
-25 -5 -7 -5 -13 -2 -13 4 0 -3 -12 -14 -26 -11 -15 -18 -30 -15 -35 3 -5 0
-9 -5 -9 -6 0 -10 -4 -9 -9 2 -5 -6 -17 -17 -26 -11 -9 -13 -13 -5 -9 8 3 -2
-8 -23 -26 -20 -17 -35 -36 -31 -41 3 -5 1 -8 -5 -7 -5 2 -17 -6 -26 -17 -9
-11 -14 -13 -10 -5 4 8 -6 2 -20 -15 -15 -16 -24 -23 -19 -15 7 13 6 13 -12 0
-10 -8 -25 -22 -32 -30 -12 -13 -13 -13 -7 0 4 10 2 9 -8 -2 -8 -10 -17 -15
-20 -11 -4 3 -7 1 -7 -6 0 -7 -5 -9 -10 -6 -6 3 -13 -1 -16 -9 -3 -9 -10 -13
-15 -10 -5 3 -9 0 -9 -7 0 -7 -3 -9 -7 -6 -3 4 -12 -1 -20 -11 -10 -11 -12
-12 -8 -2 4 10 2 9 -8 -2 -8 -10 -17 -15 -20 -11 -4 3 -7 0 -7 -7 0 -7 -3 -10
-7 -7 -3 4 -12 -1 -20 -11 -10 -11 -12 -12 -8 -2 4 10 2 9 -8 -2 -8 -10 -17
-15 -20 -11 -4 3 -7 0 -7 -7 0 -7 -3 -10 -7 -7 -3 4 -12 -1 -20 -11 -10 -11
-12 -12 -8 -2 4 10 2 9 -8 -2 -8 -10 -17 -15 -20 -11 -4 3 -7 1 -7 -6 0 -7 -5
-9 -10 -6 -6 3 -13 -1 -16 -9 -3 -9 -10 -13 -15 -10 -5 3 -9 0 -9 -7 0 -7 -3
-9 -7 -6 -3 4 -12 -1 -20 -11 -10 -11 -12 -12 -8 -2 4 10 2 9 -8 -2 -8 -10
-17 -15 -20 -11 -4 3 -7 0 -7 -7 0 -7 -3 -10 -7 -7 -3 4 -12 -1 -20 -11 -10
-11 -12 -12 -8 -2 4 10 2 9 -8 -2 -8 -10 -17 -15 -20 -11 -4 3 -7 1 -7 -6 0
-7 -4 -10 -9 -7 -5 3 -12 -1 -15 -10 -3 -8 -10 -12 -16 -9 -5 3 -10 1 -10 -4
0 -6 -3 -10 -7 -9 -5 1 -24 -14 -44 -35 -21 -20 -35 -37 -33 -37 3 0 -2 -13
-11 -30 -13 -25 -15 -107 -15 -590 l0 -560 -77 -1 c-43 -1 -82 -1 -87 0 -13 3
-46 -31 -40 -40 3 -5 0 -9 -6 -9 -7 0 -10 -43 -9 -135 0 -89 5 -135 12 -135 6
0 8 -3 4 -6 -3 -3 2 -14 11 -25 14 -16 30 -19 104 -19 l88 0 0 -150 0 -150
1587 0 c1464 0 1588 1 1605 16 17 17 18 102 18 2436 0 1649 -3 2425 -10 2439
-10 18 -24 19 -258 19 l-248 0 -39 40 -39 40 -156 0 -156 0 -39 -40 -39 -40
-264 0 -265 0 -43 40 -44 40 -465 0 -465 0 0 -40z"/>
<path d="M274 1898 l-19 -23 23 19 c21 18 27 26 19 26 -2 0 -12 -10 -23 -22z"/>
</g>
</svg>
