<?xml version="1.0" standalone="no"?>
<!DOCTYPE svg PUBLIC "-//W3C//DTD SVG 20010904//EN"
 "http://www.w3.org/TR/2001/REC-SVG-20010904/DTD/svg10.dtd">
<svg version="1.0" xmlns="http://www.w3.org/2000/svg"
 width="666.000000pt" height="811.000000pt" viewBox="0 0 666.000000 811.000000"
 preserveAspectRatio="xMidYMid meet">

<g transform="translate(0.000000,811.000000) scale(0.100000,-0.100000)"
fill="#000000" stroke="none">
<path d="M10 4060 l0 -4050 3320 0 3320 0 0 4034 c0 2219 -3 4041 -6 4050 -6
15 -307 16 -3320 16 l-3314 0 0 -4050z m178 3908 c27 -27 -5 -73 -38 -53 -14
9 -12 52 3 58 19 8 22 8 35 -5z m6326 -11 c8 -13 6 -21 -7 -34 -13 -13 -21
-15 -34 -7 -24 15 -26 29 -7 48 19 19 33 17 48 -7z m-184 -1717 l0 -1540
-1420 0 -1420 0 0 490 0 490 1255 0 1255 0 0 160 0 160 -2675 0 -2675 0 0
-160 0 -160 1258 -2 1257 -3 3 -487 2 -488 -1420 0 -1420 0 0 1540 0 1540
3000 0 3000 0 0 -1540z m-6135 -400 c0 -18 -6 -26 -23 -28 -13 -2 -25 3 -28
12 -10 26 4 48 28 44 17 -2 23 -10 23 -28z m6320 10 c8 -27 -1 -40 -30 -40
-27 0 -36 17 -23 43 12 23 45 22 53 -3z m-3347 -3492 l-3 -2023 -1417 -3
-1418 -2 0 2025 0 2025 1420 0 1420 0 -2 -2022z m3162 -3 l0 -2025 -1420 0
-1420 0 0 2020 0 2020 1418 3 c779 1 1418 3 1420 5 1 1 2 -909 2 -2023z
m-6135 -2185 c0 -18 -6 -26 -23 -28 -13 -2 -25 3 -28 12 -10 26 4 48 28 44 17
-2 23 -10 23 -28z m6319 15 c9 -24 -4 -45 -29 -45 -27 0 -36 17 -23 43 11 21
44 23 52 2z"/>
</g>
</svg>
