<?xml version="1.0" standalone="no"?>
<!DOCTYPE svg PUBLIC "-//W3C//DTD SVG 20010904//EN"
 "http://www.w3.org/TR/2001/REC-SVG-20010904/DTD/svg10.dtd">
<svg version="1.0" xmlns="http://www.w3.org/2000/svg"
 width="493.000000pt" height="619.000000pt" viewBox="0 0 493.000000 619.000000"
 preserveAspectRatio="xMidYMid meet">

<g transform="translate(0.000000,619.000000) scale(0.100000,-0.100000)"
fill="#000000" stroke="none">
<path d="M424 6027 c-59 -89 -107 -167 -107 -174 0 -7 -5 -11 -11 -10 -6 1
-10 -6 -10 -15 1 -10 -3 -16 -10 -15 -6 1 -10 -6 -10 -15 1 -10 -3 -16 -10
-15 -6 1 -10 -6 -10 -15 1 -10 -3 -16 -10 -15 -6 1 -10 -6 -10 -15 1 -10 -2
-16 -6 -13 -4 2 -49 -58 -100 -135 -51 -77 -99 -145 -106 -151 -12 -10 -14
-439 -14 -2676 l0 -2664 67 2 c38 1 919 -16 1958 -39 1040 -23 1998 -43 2131
-46 l241 -5 21 38 c12 21 18 42 14 46 -4 5 -2 6 3 3 6 -3 52 57 103 134 52 77
88 137 80 133 -7 -4 -2 3 12 15 14 12 18 19 10 15 -8 -4 -3 3 11 16 36 32 91
117 84 128 -3 5 0 13 6 17 8 5 9 3 4 -7 -5 -9 -5 -11 2 -4 21 21 116 170 116
182 0 6 4 10 8 7 4 -2 15 6 23 18 14 20 16 283 16 2684 l0 2662 -92 0 c-95 0
-3797 78 -4120 87 l-176 4 -108 -162z m2279 -136 c1005 -21 1831 -41 1834 -45
3 -3 0 -12 -7 -21 -7 -8 -10 -15 -7 -15 3 0 -5 -11 -19 -25 -14 -14 -22 -30
-18 -37 4 -7 3 -8 -4 -4 -11 7 -17 -6 -13 -27 1 -5 -3 -6 -9 -2 -9 6 -14 -8
-11 -28 1 -5 -3 -6 -9 -2 -9 6 -14 -8 -11 -28 1 -5 -3 -6 -9 -2 -9 6 -14 -8
-11 -28 1 -5 -3 -6 -9 -2 -9 6 -14 -8 -11 -28 1 -5 -2 -6 -7 -3 -9 5 -45 -49
-40 -59 2 -4 -5 -11 -15 -16 -9 -6 -15 -14 -12 -19 3 -4 -2 -11 -11 -14 -8 -3
-13 -10 -10 -15 3 -5 -1 -12 -10 -15 -8 -3 -13 -10 -10 -15 3 -5 -1 -12 -10
-15 -8 -3 -13 -10 -10 -15 3 -5 -1 -12 -10 -15 -8 -3 -13 -10 -10 -15 4 -5 -1
-11 -11 -13 -13 -2 -3472 68 -3480 71 -6 2 -2 478 4 484 9 9 -99 11 1956 -32z
m-2203 -366 l0 -85 -55 0 c-56 0 -65 6 -42 29 10 11 9 12 -1 6 -8 -4 8 25 34
64 26 39 51 71 55 71 5 0 9 -38 9 -85z m4180 -433 c0 -329 -3 -431 -12 -441
-11 -11 -10 -13 2 -7 8 4 4 -2 -10 -13 -14 -11 -20 -21 -15 -21 6 0 2 -5 -8
-11 -9 -6 -15 -14 -12 -19 3 -4 -2 -11 -11 -14 -8 -3 -13 -10 -10 -15 3 -5 -1
-12 -10 -15 -8 -3 -13 -10 -10 -15 3 -5 -1 -12 -10 -15 -8 -3 -13 -10 -10 -15
3 -5 -1 -12 -10 -15 -8 -3 -13 -10 -10 -15 3 -5 -1 -12 -10 -15 -8 -3 -12 -10
-9 -16 3 -5 2 -10 -3 -10 -5 0 -27 -26 -48 -57 l-39 -58 -3 434 c-2 341 0 436
10 443 7 4 9 8 3 8 -5 0 -1 7 9 15 11 8 16 15 10 15 -5 0 -2 6 7 13 9 7 17 17
18 22 3 18 95 153 102 150 3 -2 6 2 6 9 0 17 61 106 73 106 6 0 10 -164 10
-428z m-4271 101 l92 -6 -1 -228 c-1 -192 -4 -228 -16 -233 -9 -3 -13 -10 -10
-15 3 -5 -1 -12 -10 -15 -8 -3 -13 -10 -10 -15 3 -5 -1 -12 -10 -15 -8 -3 -13
-10 -10 -15 3 -5 -1 -12 -10 -15 -8 -3 -13 -10 -10 -15 3 -5 -1 -12 -10 -15
-8 -3 -13 -10 -10 -15 3 -5 -1 -12 -10 -15 -8 -3 -13 -10 -10 -15 3 -5 -1 -12
-10 -15 -8 -3 -13 -10 -10 -15 3 -5 -1 -12 -10 -15 -8 -3 -12 -10 -9 -16 3 -5
2 -10 -3 -10 -5 0 -21 -18 -36 -40 -14 -22 -31 -40 -36 -40 -6 0 -10 142 -10
395 l0 395 33 0 c19 0 75 -3 126 -7z m2121 -44 c888 -17 1625 -33 1638 -35
l22 -4 0 -360 0 -360 -47 0 c-142 -1 -1253 22 -1280 26 -31 5 -33 7 -33 46 l0
41 178 -6 c97 -4 356 -10 575 -13 381 -7 398 -6 411 12 10 13 13 48 12 124
l-1 105 -115 3 c-1876 42 -2455 51 -2466 36 -8 -9 -12 -57 -12 -123 l0 -108
162 -6 c88 -4 339 -9 556 -12 217 -3 410 -8 428 -11 30 -5 32 -7 32 -46 l0
-40 -212 6 c-117 4 -442 11 -723 16 -280 5 -601 13 -712 16 l-203 6 0 357 c0
197 3 361 7 364 3 4 43 5 87 2 45 -3 808 -19 1696 -36z m-2020 -1364 l0 -445
-88 0 c-85 0 -89 -1 -102 -25 -11 -20 -11 -37 -4 -75 6 -27 7 -55 2 -62 -4 -7
-8 -27 -8 -44 l0 -31 92 -7 c51 -3 96 -10 100 -14 8 -8 5 -2031 -2 -2059 -2
-7 -10 -15 -17 -17 -8 -3 -12 -10 -9 -15 3 -5 -1 -12 -10 -15 -8 -3 -13 -10
-10 -15 3 -5 -1 -12 -10 -15 -8 -3 -13 -10 -10 -15 3 -5 -1 -12 -10 -15 -8 -3
-12 -10 -9 -16 3 -6 -1 -13 -9 -16 -9 -3 -14 -10 -11 -14 3 -5 -3 -13 -12 -19
-10 -6 -13 -11 -8 -11 6 0 -1 -10 -15 -21 -14 -11 -18 -18 -10 -14 8 4 4 -3
-10 -15 -14 -12 -18 -19 -10 -15 8 4 4 -3 -10 -14 -14 -11 -20 -21 -15 -21 6
0 2 -5 -8 -11 -9 -6 -15 -14 -13 -18 3 -4 -4 -12 -15 -19 -19 -12 -19 6 -18
1590 l0 1603 63 92 c35 51 65 91 68 88 2 -3 5 1 5 8 0 20 95 157 109 157 12 0
14 -78 14 -445z m1338 400 c387 -8 712 -15 723 -15 18 0 19 -9 19 -215 l0
-216 -37 3 -38 3 -81 -120 c-45 -66 -81 -121 -79 -123 2 -2 -8 -15 -21 -29
-13 -14 -21 -29 -19 -33 3 -4 -2 -11 -11 -14 -8 -3 -12 -10 -9 -16 3 -5 2 -10
-3 -10 -6 0 -23 -20 -39 -45 l-28 -45 -120 0 c-92 1 -1350 28 -1362 30 -7 1
-2 857 4 864 4 4 95 4 203 1 107 -3 511 -12 898 -20z m2040 -42 l302 -6 0
-434 0 -433 -47 0 c-142 -1 -1253 22 -1280 26 l-33 5 0 431 0 431 378 -6 c207
-4 513 -10 680 -14z m792 -1573 l0 -1571 -122 3 -123 3 -2 1395 -3 1395 48 73
c27 39 51 70 54 67 2 -3 5 1 5 8 0 18 61 107 74 107 6 0 7 5 4 10 -3 6 1 13 9
16 9 3 14 10 11 14 -3 5 3 13 12 19 10 6 14 11 10 11 -11 0 2 20 14 20 5 0 9
-596 9 -1570z m-3360 505 c124 -3 390 -8 592 -11 202 -4 381 -8 398 -9 16 -1
86 -2 155 -3 l125 -2 0 -1002 0 -1003 -912 18 c-502 10 -919 20 -925 22 -10 4
-13 212 -13 998 0 547 3 997 7 1001 4 3 84 4 177 1 94 -2 272 -7 396 -10z
m2590 -54 l275 -6 3 -994 c1 -547 -1 -998 -5 -1002 -8 -7 -1318 18 -1340 26
-10 3 -13 213 -13 1001 l0 997 403 -8 c221 -4 526 -11 677 -14z m-2840 -2195
c545 -10 1757 -35 1960 -41 102 -2 361 -8 575 -11 215 -4 399 -8 410 -9 11 -1
55 -3 98 -4 l77 -1 0 -245 0 -245 -37 0 c-111 -2 -3703 72 -3731 76 -30 5 -32
7 -20 22 11 13 11 15 -2 8 -8 -4 -4 2 10 14 14 12 18 19 10 15 -8 -4 -4 3 10
15 14 12 18 19 10 15 -8 -4 -4 3 10 15 14 12 18 19 10 15 -8 -4 -4 3 10 15 14
12 18 19 10 15 -8 -4 -4 3 10 15 14 12 19 19 11 15 -7 -4 14 34 48 84 34 50
66 91 72 91 6 0 7 5 4 10 -3 6 1 13 9 16 9 3 13 10 10 15 -3 5 2 12 10 15 9 3
13 10 10 15 -3 5 2 12 10 15 9 3 13 10 10 15 -3 5 2 12 10 15 9 3 13 10 10 15
-3 5 1 7 8 5 7 -3 168 -7 358 -10z"/>
</g>
</svg>
