<?xml version="1.0" standalone="no"?>
<!DOCTYPE svg PUBLIC "-//W3C//DTD SVG 20010904//EN"
 "http://www.w3.org/TR/2001/REC-SVG-20010904/DTD/svg10.dtd">
<svg version="1.0" xmlns="http://www.w3.org/2000/svg"
 width="834.000000pt" height="488.000000pt" viewBox="0 0 834.000000 488.000000"
 preserveAspectRatio="xMidYMid meet">

<g transform="translate(0.000000,488.000000) scale(0.100000,-0.100000)"
fill="#000000" stroke="none">
<path d="M2180 4860 c-11 -11 -20 -24 -20 -30 0 -7 -194 -10 -562 -10 -621 0
-605 2 -652 -63 -20 -27 -21 -45 -26 -300 -5 -230 -8 -277 -22 -303 -10 -17
-16 -33 -15 -35 1 -2 -13 -20 -32 -39 -19 -19 -31 -29 -27 -21 6 8 0 7 -18 -4
-14 -10 -26 -22 -26 -27 0 -5 -4 -6 -10 -3 -5 3 -17 -3 -27 -14 -9 -11 -20
-18 -25 -15 -4 3 -8 0 -8 -7 0 -7 -3 -9 -7 -6 -3 4 -12 -1 -20 -11 -10 -11
-12 -12 -8 -2 6 13 5 13 -7 0 -7 -8 -20 -16 -27 -18 -8 -2 -21 -11 -29 -20 -9
-12 -12 -13 -7 -2 6 13 5 13 -7 0 -7 -8 -20 -16 -27 -18 -8 -2 -21 -11 -29
-20 -9 -12 -12 -13 -7 -2 4 10 2 9 -8 -2 -8 -10 -17 -15 -20 -11 -4 3 -7 1 -7
-6 0 -7 -4 -10 -9 -7 -5 3 -12 -1 -15 -10 -3 -8 -10 -12 -16 -9 -5 3 -10 1
-10 -6 0 -7 -3 -10 -6 -6 -3 3 -14 -3 -25 -14 -11 -11 -24 -17 -29 -14 -6 4
-10 1 -10 -6 0 -7 -3 -9 -7 -6 -3 4 -12 -1 -20 -11 -10 -11 -12 -12 -8 -2 6
13 5 13 -7 0 -7 -8 -20 -16 -27 -18 -8 -2 -21 -11 -29 -20 -9 -12 -12 -13 -7
-2 6 13 5 13 -7 0 -7 -8 -20 -16 -28 -18 -8 -2 -28 -17 -43 -35 -16 -18 -26
-25 -22 -17 4 8 -1 6 -10 -5 -9 -11 -21 -19 -26 -17 -5 1 -8 -2 -7 -7 2 -5 -6
-17 -17 -26 -11 -9 -13 -14 -5 -10 8 4 1 -6 -17 -22 -17 -15 -33 -37 -35 -48
-2 -11 -7 -23 -11 -26 -4 -3 -9 -16 -10 -27 -1 -12 -5 -22 -9 -22 -11 0 -11
-6 -11 -455 0 -412 3 -487 23 -493 6 -2 8 -8 4 -13 -3 -5 0 -9 6 -9 6 0 9 -4
5 -9 -3 -5 -1 -12 5 -16 6 -4 8 -10 5 -15 -3 -5 10 -24 28 -44 19 -20 32 -37
30 -39 -2 -2 16 -20 40 -40 49 -40 117 -82 117 -73 0 3 9 -3 20 -14 12 -12 25
-18 30 -15 6 4 10 2 10 -4 0 -13 55 -42 64 -34 3 4 6 1 6 -5 0 -14 55 -44 64
-35 3 4 6 1 6 -5 0 -6 13 -18 30 -27 16 -9 30 -13 30 -10 0 3 9 -4 20 -15 12
-12 25 -18 30 -15 6 4 10 2 10 -4 0 -13 55 -42 64 -34 3 4 6 1 6 -5 0 -14 55
-44 64 -35 3 4 6 1 6 -5 0 -6 13 -18 30 -27 16 -9 30 -12 30 -8 0 4 7 -3 16
-15 8 -12 20 -19 26 -16 7 5 8 2 4 -5 -5 -8 0 -14 13 -18 11 -3 18 -9 16 -14
-3 -4 2 -17 12 -27 10 -10 20 -25 23 -33 3 -8 7 -402 10 -876 5 -852 5 -862
26 -890 11 -15 36 -36 55 -45 32 -17 226 -18 3622 -18 3036 0 3593 2 3621 14
18 7 44 29 57 47 l24 34 3 2305 c2 2179 1 2307 -15 2339 -10 19 -31 44 -46 55
-28 21 -40 21 -548 24 -328 2 -519 6 -519 12 0 6 -9 19 -20 30 -20 20 -33 20
-2500 20 -2467 0 -2480 0 -2500 -20z m-1190 -73 c0 -2 -10 -12 -22 -23 l-23
-19 19 23 c18 21 26 27 26 19z m7295 -17 c10 -11 16 -20 13 -20 -3 0 -13 9
-23 20 -10 11 -16 20 -13 20 3 0 13 -9 23 -20z m-5606 -338 c5 -8 11 -13 15
-13 3 1 6 -2 7 -6 0 -5 8 -16 17 -27 12 -13 18 -41 20 -101 3 -69 0 -90 -19
-131 -12 -27 -21 -52 -21 -56 1 -5 -4 -7 -11 -5 -6 1 -11 -4 -10 -10 2 -7 0
-12 -5 -11 -12 3 -82 -43 -82 -55 0 -6 -3 -8 -6 -4 -9 8 -64 -21 -64 -34 0 -6
-4 -7 -10 -4 -5 3 -10 1 -10 -5 0 -6 -5 -8 -10 -5 -6 3 -13 -1 -16 -9 -3 -9
-10 -13 -15 -10 -5 3 -9 0 -9 -6 0 -6 -4 -8 -10 -5 -5 3 -10 1 -10 -5 0 -6 -5
-8 -10 -5 -6 3 -13 -1 -16 -9 -3 -9 -10 -13 -15 -10 -5 3 -9 0 -9 -6 0 -6 -4
-8 -10 -5 -5 3 -10 1 -10 -5 0 -6 -5 -8 -10 -5 -6 3 -13 -1 -16 -9 -3 -9 -10
-13 -15 -10 -5 3 -9 0 -9 -6 0 -6 -4 -9 -10 -5 -5 3 -18 -3 -29 -14 -11 -11
-22 -17 -25 -14 -3 4 -6 1 -6 -6 0 -7 -5 -9 -10 -6 -6 3 -13 -1 -16 -9 -3 -9
-10 -13 -15 -10 -5 3 -9 0 -9 -6 0 -6 -4 -8 -10 -5 -5 3 -10 1 -10 -5 0 -6 -5
-8 -10 -5 -6 3 -13 -1 -16 -9 -3 -9 -10 -13 -15 -10 -5 3 -9 0 -9 -6 0 -6 -4
-8 -10 -5 -5 3 -10 1 -10 -5 0 -6 -5 -8 -10 -5 -6 3 -12 0 -15 -7 -3 -8 -15
-15 -27 -15 -12 -1 -24 -6 -27 -10 -14 -18 -111 -14 -176 7 -36 12 -65 25 -65
30 0 4 -11 11 -25 14 -14 4 -25 11 -25 17 0 6 -4 7 -10 4 -5 -3 -10 -2 -10 3
0 6 -11 13 -25 16 -14 4 -25 11 -25 17 0 6 -4 7 -10 4 -5 -3 -10 -2 -10 3 0 6
-11 13 -25 16 -14 4 -25 10 -25 15 0 5 -16 15 -35 21 -19 6 -35 15 -35 20 0 4
-11 11 -25 14 -14 4 -25 11 -25 17 0 6 -4 7 -10 4 -5 -3 -10 -1 -10 4 0 6 -6
11 -14 11 -8 0 -22 7 -30 16 -9 8 -16 12 -16 7 0 -4 -4 -3 -8 3 -4 6 -38 29
-77 52 -65 39 -146 102 -131 102 3 0 -1 12 -11 26 -17 26 -25 156 -13 213 5
26 50 79 63 73 4 -2 7 2 7 7 0 8 220 10 725 8 593 -2 727 -4 734 -15z m1811 6
c0 -6 3 -8 7 -5 3 4 20 -12 37 -35 29 -40 31 -48 31 -128 -1 -100 -15 -134
-81 -196 -24 -23 -44 -40 -44 -38 0 3 -13 -2 -30 -11 -16 -9 -30 -21 -30 -27
0 -6 -3 -9 -6 -5 -9 8 -64 -21 -64 -34 0 -6 -4 -7 -10 -4 -5 3 -10 1 -10 -5 0
-6 -5 -8 -10 -5 -6 3 -13 -1 -16 -9 -3 -9 -10 -13 -15 -10 -5 3 -9 0 -9 -6 0
-6 -4 -8 -10 -5 -5 3 -10 1 -10 -5 0 -6 -5 -8 -10 -5 -6 3 -13 -1 -16 -9 -3
-9 -10 -13 -15 -10 -5 3 -9 0 -9 -6 0 -6 -4 -8 -10 -5 -5 3 -10 1 -10 -5 0 -6
-5 -8 -10 -5 -6 3 -13 -1 -16 -9 -3 -9 -10 -13 -15 -10 -5 3 -9 0 -9 -6 0 -6
-4 -9 -10 -5 -5 3 -18 -3 -29 -14 -11 -11 -22 -17 -25 -14 -3 4 -6 1 -6 -6 0
-7 -5 -9 -10 -6 -6 3 -13 -1 -16 -9 -3 -9 -10 -13 -15 -10 -5 3 -9 0 -9 -6 0
-6 -4 -8 -10 -5 -5 3 -10 1 -10 -5 0 -6 -5 -8 -10 -5 -6 3 -13 -1 -16 -9 -3
-9 -10 -13 -15 -10 -5 3 -9 0 -9 -6 0 -6 -4 -8 -10 -5 -5 3 -10 1 -10 -5 0 -6
-4 -8 -10 -5 -5 3 -10 2 -10 -3 0 -5 -6 -9 -12 -10 -7 -1 -35 -4 -61 -8 -49
-7 -157 12 -157 27 0 4 -16 13 -35 19 -19 6 -35 15 -35 20 0 4 -11 11 -25 14
-14 4 -25 11 -25 17 0 6 -4 7 -10 4 -5 -3 -10 -2 -10 3 0 6 -11 13 -25 16 -14
4 -25 11 -25 17 0 6 -4 7 -10 4 -5 -3 -10 -1 -10 4 0 6 -6 11 -13 11 -8 0 -24
9 -37 20 -13 11 -29 20 -37 20 -7 0 -13 5 -13 11 0 5 -4 7 -10 4 -5 -3 -10 -2
-10 3 0 6 -11 13 -25 16 -14 4 -25 11 -25 17 0 6 -4 7 -10 4 -5 -3 -10 -1 -10
4 0 6 -6 11 -14 11 -8 0 -22 7 -30 16 -9 8 -16 12 -16 7 0 -4 -4 -3 -8 3 -4 5
-25 21 -47 34 -43 26 -132 92 -127 94 2 0 -5 19 -14 41 -21 49 -23 167 -4 210
7 17 13 33 12 37 -1 3 5 12 13 18 8 7 15 9 15 6 0 -4 10 0 22 9 20 13 104 15
735 15 527 0 713 -3 713 -12z m1820 2 c8 -3 21 -12 28 -20 10 -11 12 -11 6 -1
-5 10 -3 12 5 7 7 -5 10 -11 7 -14 -3 -3 2 -14 11 -25 13 -14 19 -41 21 -102
3 -69 0 -90 -19 -131 -12 -27 -21 -52 -21 -56 1 -5 -4 -7 -11 -5 -6 1 -11 -4
-10 -10 2 -7 0 -12 -5 -11 -12 3 -82 -43 -82 -55 0 -6 -3 -8 -6 -4 -9 8 -64
-21 -64 -34 0 -6 -4 -7 -10 -4 -5 3 -10 1 -10 -5 0 -6 -4 -9 -10 -5 -5 3 -18
-3 -29 -14 -11 -11 -22 -17 -25 -13 -3 3 -6 0 -6 -7 0 -7 -5 -9 -10 -6 -6 3
-13 -1 -16 -9 -3 -9 -10 -13 -15 -10 -5 3 -9 0 -9 -6 0 -6 -4 -8 -10 -5 -5 3
-10 1 -10 -5 0 -6 -5 -8 -10 -5 -6 3 -13 -1 -16 -9 -3 -9 -10 -13 -15 -10 -5
3 -9 0 -9 -6 0 -6 -4 -8 -10 -5 -5 3 -10 1 -10 -5 0 -6 -5 -8 -10 -5 -6 3 -13
-1 -16 -9 -3 -9 -10 -13 -15 -10 -5 3 -9 0 -9 -6 0 -6 -5 -8 -10 -5 -6 3 -13
-1 -16 -9 -3 -9 -10 -13 -15 -10 -5 3 -9 0 -9 -6 0 -6 -4 -8 -10 -5 -5 3 -10
1 -10 -5 0 -6 -5 -8 -10 -5 -6 3 -13 -1 -16 -9 -3 -9 -10 -13 -15 -10 -5 3 -9
0 -9 -6 0 -6 -4 -8 -10 -5 -5 3 -10 1 -10 -5 0 -6 -5 -8 -10 -5 -6 3 -12 0
-15 -7 -3 -8 -15 -15 -27 -15 -12 -1 -24 -6 -27 -10 -14 -18 -111 -14 -176 7
-36 12 -65 25 -65 30 0 5 -16 14 -35 20 -19 6 -35 15 -35 20 0 4 -11 11 -25
14 -14 4 -25 11 -25 17 0 6 -4 7 -10 4 -5 -3 -10 -2 -10 3 0 6 -11 13 -25 16
-14 4 -25 11 -25 17 0 6 -4 7 -10 4 -5 -3 -10 -1 -10 4 0 6 -6 11 -14 11 -8 0
-21 6 -28 14 -8 7 -24 17 -36 20 -12 4 -22 12 -22 17 0 6 -4 7 -10 4 -5 -3
-10 -1 -10 4 0 6 -6 11 -14 11 -8 0 -22 7 -30 16 -9 8 -16 12 -16 7 0 -4 -4
-3 -8 3 -4 6 -38 29 -77 52 -87 52 -104 67 -135 117 -21 34 -25 52 -25 120 0
44 2 91 5 104 5 26 50 79 63 73 4 -2 7 2 7 7 0 11 1408 12 1440 1z m1720 -1
c0 -6 3 -8 8 -6 4 2 17 -7 29 -20 12 -13 20 -23 16 -23 -3 0 1 -7 8 -17 10
-11 14 -48 14 -132 0 -104 -2 -121 -25 -161 -13 -25 -23 -48 -22 -52 1 -5 -1
-7 -6 -6 -7 3 -52 -26 -82 -54 -10 -9 -21 -14 -24 -10 -3 3 -6 0 -6 -7 0 -7
-5 -9 -10 -6 -6 3 -13 -1 -16 -9 -3 -9 -10 -13 -15 -10 -5 3 -9 0 -9 -6 0 -6
-4 -8 -10 -5 -5 3 -10 1 -10 -5 0 -6 -5 -8 -10 -5 -6 3 -13 -1 -16 -9 -3 -9
-10 -13 -15 -10 -5 3 -9 0 -9 -6 0 -6 -4 -8 -10 -5 -5 3 -10 1 -10 -5 0 -6 -5
-8 -10 -5 -6 3 -13 -1 -16 -9 -3 -9 -10 -13 -15 -10 -5 3 -9 0 -9 -6 0 -6 -4
-9 -10 -5 -5 3 -18 -3 -29 -14 -11 -11 -22 -17 -25 -14 -3 4 -6 1 -6 -6 0 -7
-5 -9 -10 -6 -6 3 -13 -1 -16 -9 -3 -9 -10 -13 -15 -10 -5 3 -9 0 -9 -6 0 -6
-4 -8 -10 -5 -5 3 -10 1 -10 -5 0 -6 -5 -8 -10 -5 -6 3 -13 -1 -16 -9 -3 -9
-10 -13 -15 -10 -5 3 -9 0 -9 -6 0 -6 -4 -8 -10 -5 -5 3 -10 1 -10 -5 0 -6 -4
-8 -10 -5 -5 3 -10 2 -10 -3 0 -5 -6 -9 -12 -10 -7 -1 -35 -4 -61 -8 -51 -7
-157 12 -157 28 0 5 -4 6 -10 3 -5 -3 -10 -1 -10 4 0 6 -6 11 -14 11 -8 0 -21
6 -28 14 -8 7 -24 17 -36 20 -12 4 -22 12 -22 17 0 6 -4 7 -10 4 -5 -3 -10 -2
-10 3 0 6 -11 13 -25 16 -14 4 -25 11 -25 17 0 6 -4 7 -10 4 -5 -3 -10 -2 -10
3 0 6 -11 13 -25 16 -14 4 -25 10 -25 15 0 5 -16 15 -35 21 -19 6 -35 15 -35
20 0 4 -11 11 -25 14 -14 4 -25 11 -25 17 0 6 -4 7 -10 4 -5 -3 -10 -1 -10 4
0 6 -6 11 -14 11 -7 0 -19 7 -26 15 -7 8 -16 13 -20 10 -5 -3 -10 -1 -12 3 -1
4 -30 25 -63 45 -82 50 -97 65 -120 116 -25 57 -27 172 -3 219 10 19 12 30 5
26 -7 -4 -3 2 8 12 11 11 31 25 45 31 33 16 1340 18 1340 2z m-5103 -567 c71
-27 621 -348 665 -388 21 -19 36 -34 33 -34 -3 0 2 -15 12 -32 16 -30 18 -67
18 -398 0 -403 -2 -436 -28 -462 -10 -11 -16 -22 -14 -26 2 -4 -8 -18 -21 -32
-14 -14 -22 -19 -17 -11 4 7 -6 3 -24 -10 -17 -12 -31 -26 -31 -31 0 -4 -3 -7
-7 -6 -16 4 -53 -14 -47 -23 3 -5 2 -8 -3 -7 -15 5 -73 -24 -67 -33 3 -5 2 -8
-3 -7 -16 5 -73 -24 -66 -35 3 -5 2 -8 -3 -4 -13 7 -126 -58 -117 -67 5 -4 3
-6 -2 -4 -16 5 -75 -23 -69 -33 3 -5 2 -8 -3 -7 -15 5 -73 -24 -67 -33 3 -5 2
-8 -3 -7 -5 2 -39 -12 -75 -31 -117 -59 -172 -54 -312 27 -43 25 -84 45 -92
45 -7 0 -11 4 -9 8 6 8 -56 35 -70 31 -5 -2 -7 0 -3 4 10 9 -173 115 -185 107
-6 -3 -7 -1 -4 4 7 11 -51 40 -68 35 -5 -2 -7 0 -3 4 5 4 -13 20 -40 35 -43
25 -83 60 -122 106 -23 28 -25 62 -25 443 0 349 3 432 17 424 6 -4 23 35 20
47 -1 8 29 37 40 39 21 2 37 13 32 21 -3 5 -2 8 3 7 16 -5 73 24 66 35 -3 5
-2 7 4 4 12 -8 195 98 185 107 -4 4 -2 6 3 4 17 -5 75 24 68 35 -3 5 -2 7 4 4
13 -8 126 57 116 67 -4 4 -3 6 2 4 14 -4 76 23 70 31 -2 4 1 8 8 8 7 1 39 13
72 27 72 31 99 32 162 8z m1822 3 c22 -8 41 -12 41 -9 0 3 10 -4 22 -15 11
-11 25 -18 30 -15 4 3 8 0 8 -6 0 -6 5 -8 10 -5 6 3 10 1 10 -4 0 -6 7 -11 15
-11 8 0 15 -5 15 -11 0 -5 5 -7 10 -4 6 3 10 1 10 -5 0 -6 4 -9 9 -6 5 3 12
-1 15 -10 3 -8 10 -12 16 -9 5 3 10 1 10 -6 0 -7 3 -10 6 -6 3 3 15 -3 27 -13
11 -11 24 -17 29 -14 4 3 8 0 8 -7 0 -7 3 -10 6 -6 3 3 15 -3 27 -13 11 -11
24 -17 29 -14 4 3 8 0 8 -6 0 -6 5 -8 10 -5 6 3 10 2 10 -2 0 -11 60 -47 60
-36 0 4 5 0 11 -10 6 -9 14 -15 20 -12 5 4 9 1 9 -6 0 -7 3 -10 6 -6 3 3 15
-3 27 -13 11 -11 24 -17 29 -14 4 3 8 0 8 -7 0 -7 3 -10 6 -6 3 3 15 -3 27
-13 11 -11 23 -17 27 -15 5 3 11 -2 14 -10 3 -8 10 -14 15 -13 11 4 61 -49 53
-56 -3 -3 0 -6 7 -6 7 0 10 -4 6 -9 -3 -5 0 -15 7 -23 17 -17 17 -12 17 -424
1 -345 -4 -409 -30 -440 -6 -8 -8 -14 -3 -14 4 0 -1 -7 -12 -16 -10 -8 -13
-12 -5 -8 9 5 12 3 7 -5 -4 -6 -11 -9 -16 -6 -4 3 -18 -7 -30 -22 -12 -16 -19
-21 -15 -13 4 10 2 9 -8 -2 -8 -10 -17 -15 -20 -11 -4 3 -7 1 -7 -6 0 -7 -5
-9 -10 -6 -6 3 -13 -1 -16 -9 -3 -9 -10 -13 -15 -10 -5 3 -9 0 -9 -6 0 -6 -5
-8 -10 -5 -6 3 -13 -1 -16 -9 -3 -9 -10 -13 -15 -10 -5 3 -9 0 -9 -6 0 -6 -4
-8 -10 -5 -5 3 -10 1 -10 -5 0 -6 -5 -8 -10 -5 -6 3 -13 -1 -16 -9 -3 -9 -10
-13 -15 -10 -5 3 -9 0 -9 -6 0 -6 -4 -8 -10 -5 -5 3 -10 1 -10 -5 0 -6 -5 -8
-10 -5 -6 3 -13 -1 -16 -9 -3 -9 -10 -13 -15 -10 -5 3 -9 0 -9 -6 0 -6 -4 -8
-10 -5 -5 3 -10 1 -10 -5 0 -6 -5 -8 -10 -5 -6 3 -13 -1 -16 -9 -3 -9 -10 -13
-15 -10 -5 3 -9 0 -9 -6 0 -6 -5 -8 -10 -5 -6 3 -13 -1 -16 -9 -3 -9 -10 -13
-15 -10 -5 3 -9 0 -9 -6 0 -6 -4 -8 -10 -5 -5 3 -10 1 -10 -5 0 -6 -5 -8 -10
-5 -6 3 -13 -1 -16 -9 -3 -9 -10 -13 -15 -10 -5 3 -9 0 -9 -6 0 -6 -4 -8 -10
-5 -5 3 -10 1 -10 -5 0 -6 -5 -8 -10 -5 -6 3 -13 -1 -16 -9 -3 -9 -10 -13 -15
-10 -5 3 -9 0 -9 -6 0 -6 -4 -9 -8 -6 -5 3 -20 -2 -33 -12 -13 -9 -33 -18 -44
-20 -11 -1 -21 -6 -22 -10 -3 -6 -103 -7 -110 -1 -2 1 -6 2 -10 3 -5 1 -18 7
-29 14 -12 6 -24 8 -28 5 -3 -3 -6 -2 -6 4 0 6 -11 14 -25 17 -14 4 -25 10
-25 15 0 5 -16 15 -35 21 -19 6 -35 15 -35 20 0 4 -11 11 -25 14 -14 4 -25 11
-25 17 0 6 -4 7 -10 4 -5 -3 -10 -2 -10 3 0 6 -11 13 -25 16 -14 4 -25 11 -25
17 0 6 -4 7 -10 4 -5 -3 -10 -2 -10 3 0 6 -11 13 -25 16 -14 4 -25 10 -25 15
0 5 -16 15 -35 21 -19 6 -35 15 -35 20 0 4 -11 11 -25 14 -14 4 -25 11 -25 17
0 6 -4 7 -10 4 -5 -3 -10 -2 -10 3 0 6 -11 13 -25 16 -14 4 -25 11 -25 17 0 6
-4 7 -10 4 -5 -3 -10 -1 -10 4 0 6 -7 11 -15 11 -9 0 -26 10 -38 23 -12 13
-30 26 -39 30 -10 3 -18 13 -18 22 0 8 -5 15 -12 15 -6 0 -9 3 -5 6 3 4 0 13
-8 21 -12 12 -14 80 -12 426 2 383 3 414 21 440 10 15 16 27 13 27 -3 0 9 15
26 33 16 17 34 31 39 29 4 -1 8 2 8 8 0 5 7 10 15 10 8 0 15 5 15 11 0 5 5 7
10 4 6 -3 10 -1 10 5 0 6 5 8 10 5 6 -3 10 -1 10 4 0 6 7 11 15 11 8 0 15 5
15 11 0 5 5 7 10 4 6 -3 10 -1 10 5 0 6 4 9 8 6 5 -3 19 4 30 15 12 10 25 19
29 19 5 0 15 6 25 14 9 8 19 12 22 9 3 -4 6 -1 6 6 0 7 5 9 10 6 6 -3 10 -1
10 4 0 6 7 11 15 11 8 0 15 5 15 11 0 5 5 7 10 4 6 -3 10 -1 10 5 0 6 5 8 10
5 6 -3 10 -1 10 4 0 6 7 11 15 11 8 0 15 5 15 11 0 5 5 7 10 4 6 -3 10 -1 10
4 0 6 7 11 15 11 8 0 15 5 15 11 0 5 4 8 9 4 5 -3 16 2 24 10 9 8 20 15 26 15
6 0 11 5 11 11 0 5 5 7 10 4 6 -3 10 -1 10 5 0 6 5 8 10 5 6 -3 10 -1 10 4 0
6 7 11 15 11 8 0 15 5 15 11 0 5 5 7 10 4 6 -3 10 -1 10 5 0 6 3 9 8 7 4 -3
21 1 37 8 40 18 94 18 144 0z m1828 -3 c50 -19 589 -327 633 -361 41 -31 71
-59 70 -63 -1 -2 3 -21 9 -43 9 -29 11 -152 9 -430 -3 -352 -5 -393 -21 -416
-9 -14 -14 -29 -10 -32 3 -4 2 -7 -3 -7 -6 0 -19 -7 -30 -16 -10 -8 -12 -12
-4 -8 9 4 12 3 7 -2 -5 -5 -12 -9 -15 -10 -21 -2 -60 -28 -55 -37 3 -6 2 -8
-3 -4 -13 7 -126 -58 -117 -67 5 -4 3 -6 -2 -4 -16 5 -75 -23 -69 -33 3 -5 2
-8 -3 -7 -16 5 -73 -24 -66 -35 3 -5 2 -8 -3 -4 -13 7 -126 -58 -117 -67 5 -4
3 -6 -2 -4 -18 5 -75 -24 -68 -36 3 -6 3 -8 -2 -4 -10 9 -65 -19 -65 -34 0 -6
-2 -9 -6 -6 -3 3 -27 -3 -55 -13 -66 -25 -117 -24 -183 5 -30 13 -58 21 -62
18 -4 -4 -5 -2 -1 3 3 6 -20 24 -51 40 -31 17 -59 33 -62 36 -12 14 -68 38
-75 31 -5 -4 -5 -2 -2 4 7 11 -49 42 -66 36 -5 -1 -6 1 -4 6 6 8 -159 105
-179 105 -7 0 -11 4 -9 8 5 7 -55 35 -68 31 -5 -1 -6 2 -2 8 3 5 3 10 -2 10
-12 0 -98 84 -102 100 -18 71 -22 157 -17 468 5 371 6 393 17 386 8 -4 25 35
21 49 -1 4 3 6 10 5 7 -2 12 4 13 12 0 8 5 15 10 16 22 2 45 17 39 25 -3 5 -2
8 3 7 16 -5 73 24 66 35 -3 5 -2 7 4 4 10 -6 196 97 188 105 -3 2 1 5 8 5 21
0 186 97 180 105 -2 5 -1 7 4 6 17 -6 73 25 66 36 -3 6 -3 8 2 4 4 -4 22 0 39
9 40 21 105 41 133 42 13 1 44 -7 70 -17z m1512 -159 c21 -26 21 -31 21 -729
l-1 -702 -33 -16 c-19 -9 -38 -16 -43 -16 -22 0 -412 234 -440 264 -17 19 -34
31 -38 28 -4 -4 -5 -2 -4 3 1 6 -3 29 -10 53 -9 31 -11 144 -8 430 5 397 5
414 17 407 4 -2 12 6 18 20 6 13 23 31 36 41 14 9 23 20 20 25 -3 5 -2 8 3 7
17 -4 53 14 47 24 -4 6 -3 8 3 5 5 -3 83 37 174 89 95 55 175 94 191 94 17 0
34 -10 47 -27z m-6565 -156 c-4 -7 -16 -24 -26 -39 -11 -16 -16 -28 -12 -28 4
0 -1 -7 -12 -16 -10 -8 -12 -12 -4 -8 8 4 2 -5 -13 -19 -16 -15 -25 -32 -21
-39 4 -6 3 -8 -3 -5 -5 3 -17 -7 -27 -24 -9 -16 -14 -29 -9 -29 4 0 0 -5 -10
-11 -9 -6 -15 -14 -12 -19 3 -4 -2 -11 -11 -14 -8 -3 -13 -10 -10 -15 3 -5 -1
-12 -10 -15 -8 -3 -13 -10 -10 -15 3 -5 -1 -12 -10 -15 -8 -3 -13 -10 -10 -15
3 -5 -1 -12 -10 -15 -8 -3 -13 -10 -10 -15 3 -5 -1 -12 -10 -15 -8 -3 -13 -10
-10 -15 3 -5 -1 -12 -10 -15 -9 -4 -14 -9 -11 -13 4 -3 -1 -12 -11 -20 -10 -9
-11 -12 -2 -7 8 4 2 -5 -13 -19 -16 -15 -25 -32 -21 -39 4 -6 3 -8 -3 -5 -5 3
-17 -7 -27 -24 -9 -16 -14 -29 -9 -29 4 0 0 -5 -10 -11 -9 -6 -15 -14 -12 -19
3 -4 -2 -11 -11 -14 -8 -3 -13 -10 -10 -15 3 -5 -1 -12 -10 -15 -8 -3 -13 -10
-10 -15 3 -5 -1 -12 -10 -15 -9 -4 -14 -9 -11 -12 2 -3 -6 -17 -19 -31 -13
-14 -21 -29 -19 -33 3 -4 -2 -11 -11 -14 -8 -3 -13 -10 -10 -15 3 -5 -1 -12
-10 -15 -9 -4 -14 -9 -11 -13 4 -3 -1 -12 -11 -20 -10 -9 -11 -12 -2 -7 8 4 2
-5 -13 -19 -16 -15 -25 -32 -21 -39 4 -6 3 -8 -3 -5 -5 3 -17 -7 -27 -24 -9
-16 -14 -29 -9 -29 4 0 0 -5 -10 -11 -9 -6 -15 -14 -12 -19 3 -4 -2 -11 -11
-14 -8 -3 -13 -10 -10 -15 3 -5 -1 -12 -10 -15 -8 -3 -12 -10 -9 -16 3 -5 2
-10 -3 -10 -6 0 -23 -20 -39 -45 l-28 -45 -132 0 c-124 0 -132 1 -130 19 0 11
5 17 9 15 8 -5 12 11 9 29 -1 5 3 6 9 2 9 -6 14 8 11 28 -1 5 2 6 7 3 5 -3 16
8 26 25 9 16 14 29 9 29 -4 0 0 5 10 11 9 6 15 14 12 19 -3 4 2 11 11 14 8 3
13 10 10 15 -3 5 1 12 10 15 8 3 13 10 10 15 -3 5 1 12 10 15 9 4 14 9 11 13
-4 3 1 12 11 20 11 10 12 12 2 8 -8 -4 -4 3 10 15 14 12 18 19 10 15 -8 -4 -4
3 10 15 14 12 18 18 10 14 -8 -4 -2 5 13 19 16 15 25 32 21 39 -4 7 -3 8 4 4
11 -7 17 6 13 27 -1 5 2 6 7 3 5 -3 16 8 26 25 9 16 14 29 9 29 -4 0 0 5 10
11 9 6 15 14 12 19 -3 4 2 11 11 14 8 3 13 10 10 15 -3 5 1 12 10 15 8 3 13
10 10 15 -3 5 1 12 10 15 9 4 14 9 11 13 -4 3 1 12 11 20 11 10 12 12 2 8 -8
-4 -4 3 10 15 14 12 18 19 10 15 -8 -4 -4 3 10 15 14 12 18 18 10 14 -8 -4 -2
5 13 19 16 15 25 32 21 39 -4 7 -3 8 4 4 11 -7 17 6 13 27 -1 5 2 6 7 3 5 -3
16 8 26 25 9 16 14 29 9 29 -4 0 0 5 10 11 9 6 15 14 12 19 -3 4 2 11 11 14 8
3 13 10 10 15 -3 5 1 12 10 15 8 3 13 10 10 15 -3 5 1 12 10 15 8 3 13 10 10
15 -3 5 1 12 10 15 9 4 14 9 11 13 -4 3 1 12 11 20 11 10 12 12 2 8 -8 -4 -4
3 10 15 14 12 18 18 10 14 -8 -4 -2 5 13 19 16 15 25 32 21 39 -4 7 -3 8 4 4
10 -6 16 3 14 24 0 3 62 4 139 2 105 -2 138 -6 133 -15z m-500 4 c3 -5 -1 -12
-10 -15 -8 -3 -13 -10 -10 -15 3 -5 -1 -12 -10 -15 -8 -3 -13 -10 -10 -15 3
-5 -1 -12 -10 -15 -8 -3 -13 -10 -10 -15 3 -5 -1 -12 -10 -15 -9 -4 -14 -9
-11 -13 4 -3 -1 -12 -11 -20 -11 -10 -12 -12 -2 -8 8 4 6 -1 -4 -9 -11 -9 -16
-16 -10 -16 5 0 1 -5 -9 -11 -9 -6 -15 -14 -12 -19 3 -4 -2 -11 -11 -14 -8 -3
-13 -10 -10 -15 3 -5 -1 -12 -10 -15 -8 -3 -13 -10 -10 -15 3 -5 -1 -12 -10
-15 -8 -3 -13 -10 -10 -15 3 -5 -1 -12 -10 -15 -8 -3 -13 -10 -10 -15 3 -5 -1
-12 -10 -15 -8 -3 -13 -10 -10 -15 3 -5 -1 -12 -10 -15 -8 -3 -13 -10 -10 -15
3 -5 -1 -12 -10 -15 -8 -3 -13 -10 -10 -15 3 -5 -1 -12 -10 -15 -8 -3 -13 -10
-10 -15 3 -5 -1 -12 -10 -15 -9 -4 -14 -9 -11 -13 4 -3 -1 -12 -11 -20 -11
-10 -12 -12 -2 -8 8 4 6 -1 -4 -9 -11 -9 -16 -16 -10 -16 5 0 1 -5 -9 -11 -9
-6 -15 -14 -12 -19 3 -4 -57 -9 -134 -9 -113 -2 -140 1 -144 13 -3 8 4 21 16
31 12 9 15 13 7 10 -8 -4 -4 3 10 15 14 12 18 19 10 15 -8 -4 -6 1 4 9 11 9
16 16 10 16 -5 0 -1 5 9 11 9 6 15 14 12 19 -3 4 2 11 11 14 8 3 13 10 10 15
-3 5 1 12 10 15 8 3 13 10 10 15 -3 5 1 12 10 15 8 3 13 10 10 15 -3 5 1 12
10 15 8 3 13 10 10 15 -3 5 1 12 10 15 8 3 13 10 10 15 -3 5 1 12 10 15 8 3
13 10 10 15 -3 5 1 12 10 15 9 4 14 9 11 13 -4 3 1 12 11 20 11 10 12 12 2 8
-8 -4 -4 3 10 15 14 12 18 19 10 15 -8 -4 -4 3 10 15 14 12 18 19 10 15 -8 -4
-6 1 4 9 11 9 16 16 10 16 -5 0 -1 5 9 11 9 6 15 14 12 19 -3 4 2 11 11 14 8
3 13 10 10 15 -3 5 1 12 10 15 8 3 13 10 10 15 -4 5 0 12 6 14 23 9 277 7 282
-2z m636 -570 c0 -6 -5 -13 -10 -16 -6 -4 -8 -10 -5 -15 3 -4 -2 -11 -11 -14
-8 -3 -12 -10 -9 -16 3 -5 2 -10 -3 -10 -11 0 -65 -80 -65 -97 0 -7 -4 -10 -9
-7 -7 5 -12 -10 -9 -29 1 -5 -3 -6 -9 -2 -9 6 -14 -8 -11 -28 1 -5 -2 -6 -7
-3 -5 3 -16 -8 -26 -25 -9 -16 -14 -29 -9 -29 4 0 0 -5 -10 -11 -9 -6 -15 -14
-12 -19 3 -4 -2 -11 -11 -14 -8 -3 -13 -10 -10 -15 3 -5 -1 -12 -10 -15 -8 -3
-13 -10 -10 -15 3 -5 -1 -12 -10 -15 -8 -3 -12 -10 -9 -16 3 -5 2 -10 -3 -10
-11 0 -65 -80 -65 -97 0 -7 -4 -10 -9 -7 -7 5 -12 -9 -10 -28 1 -3 -61 -7
-137 -7 -118 -2 -139 0 -145 14 -3 9 -2 13 4 10 9 -6 14 8 11 28 -1 5 3 6 9 2
9 -6 14 8 11 28 -1 5 3 6 9 2 9 -6 14 8 11 28 -1 5 3 6 9 2 9 -6 14 8 11 28
-1 5 2 6 7 3 5 -3 16 8 26 25 9 16 14 29 9 29 -4 0 0 5 10 11 9 6 15 14 12 19
-3 4 2 11 11 14 8 3 12 10 9 16 -3 5 -2 10 3 10 12 0 45 50 45 67 0 7 4 10 9
7 7 -5 12 10 9 29 -1 5 3 6 9 2 9 -6 14 8 11 28 -1 5 3 6 9 2 9 -6 14 8 11 28
-1 5 3 6 9 2 9 -6 14 8 11 28 -1 5 3 6 9 2 9 -6 14 8 11 28 -1 5 2 6 7 3 5 -3
16 8 26 25 9 16 14 29 9 29 -4 0 -1 5 7 10 19 13 280 13 280 1z m348 -695 c22
-8 75 -35 118 -60 42 -25 82 -42 88 -39 6 3 8 3 4 -2 -4 -4 88 -63 205 -130
193 -112 312 -198 300 -217 -2 -5 0 -8 6 -8 7 0 9 -138 8 -412 -2 -374 -4
-416 -20 -445 -9 -18 -17 -36 -17 -39 1 -4 -7 -12 -18 -18 -56 -33 -81 -54
-74 -60 4 -4 3 -6 -3 -4 -16 5 -75 -23 -69 -33 3 -5 2 -8 -3 -7 -16 5 -73 -24
-66 -35 3 -5 2 -8 -3 -4 -13 7 -126 -58 -117 -67 5 -4 3 -6 -2 -4 -17 5 -75
-24 -68 -35 3 -5 2 -7 -4 -4 -11 7 -195 -97 -188 -106 3 -4 3 -5 -1 -3 -3 2
-27 -5 -55 -15 -98 -37 -139 -26 -338 89 -57 34 -109 58 -114 55 -6 -3 -7 -1
-4 4 7 11 -51 40 -68 35 -5 -2 -6 0 -2 4 10 10 -103 75 -116 67 -6 -3 -7 -1
-4 4 7 11 -50 40 -66 35 -5 -1 -6 1 -3 6 3 5 -7 15 -21 21 -48 22 -103 72
-126 115 -21 40 -22 52 -25 405 -3 317 0 388 19 460 2 8 15 26 29 39 14 13 25
29 25 35 0 5 7 11 15 12 26 4 80 41 72 49 -4 4 -2 6 3 4 14 -4 76 23 70 31 -2
4 2 8 9 8 20 0 185 97 179 105 -2 5 -1 7 4 6 16 -5 73 24 66 35 -3 5 -2 7 4 4
11 -7 126 56 118 66 -3 4 -2 5 1 2 4 -2 25 5 47 17 98 50 140 57 205 34z
m1892 -33 c52 -26 99 -46 105 -44 5 1 7 -1 3 -5 -5 -4 27 -27 70 -52 42 -24
95 -54 117 -67 22 -12 85 -48 140 -80 55 -32 105 -58 112 -58 7 0 11 -2 9 -4
-1 -2 20 -27 48 -56 38 -37 53 -62 56 -87 3 -19 5 -204 5 -410 0 -335 -2 -378
-17 -406 -10 -17 -15 -34 -13 -38 3 -3 3 -4 0 -3 -3 2 -23 -13 -46 -34 -22
-20 -53 -43 -70 -49 -16 -7 -26 -16 -23 -21 3 -5 2 -8 -3 -7 -15 5 -73 -24
-67 -33 3 -5 2 -8 -3 -7 -16 5 -73 -24 -66 -35 3 -5 2 -8 -3 -4 -13 7 -126
-58 -117 -67 5 -4 3 -6 -2 -4 -16 5 -75 -23 -69 -33 3 -5 2 -8 -3 -7 -17 6
-73 -25 -66 -36 3 -6 3 -8 -1 -4 -4 3 -46 -14 -92 -38 -97 -50 -143 -56 -223
-25 -28 10 -53 16 -57 12 -4 -3 -4 -1 -1 5 7 12 -50 41 -68 36 -5 -2 -6 0 -2
4 10 10 -103 75 -116 67 -6 -3 -7 -1 -4 4 7 11 -51 40 -68 35 -5 -2 -7 0 -3 4
10 9 -173 115 -185 107 -6 -3 -7 -1 -4 4 7 11 -50 40 -66 35 -5 -1 -6 2 -2 8
3 5 1 10 -4 10 -6 0 -28 16 -49 35 -22 19 -42 31 -46 27 -4 -4 -6 -2 -5 3 2 6
-5 30 -14 55 -16 41 -17 83 -15 435 2 215 5 396 8 404 3 8 13 23 23 33 10 10
15 23 12 29 -4 5 -3 8 2 7 13 -4 54 28 45 36 -4 4 -2 7 3 6 21 -5 36 0 30 10
-4 6 -3 9 2 8 15 -5 73 24 67 33 -3 5 -2 8 3 7 16 -5 73 24 66 35 -3 5 -2 7 4
4 13 -8 126 57 116 67 -4 4 -3 6 2 4 17 -5 75 24 68 35 -3 5 -2 7 4 4 11 -7
195 97 188 106 -3 4 -2 5 1 3 3 -2 31 7 62 20 83 34 112 31 222 -23z m1818 6
c36 -19 71 -32 77 -31 5 2 7 0 3 -4 -8 -8 228 -147 250 -147 6 0 10 -2 7 -5
-6 -6 216 -135 232 -135 7 0 11 -3 10 -6 -1 -3 13 -21 30 -40 17 -18 38 -41
46 -52 14 -16 16 -69 14 -426 -2 -384 -3 -410 -22 -443 -10 -19 -18 -39 -16
-45 1 -5 -1 -7 -5 -2 -4 4 -19 -4 -33 -17 -14 -13 -50 -37 -78 -53 -29 -16
-50 -33 -45 -37 4 -4 2 -6 -3 -4 -16 5 -75 -23 -69 -33 3 -5 2 -8 -3 -7 -16 5
-73 -24 -66 -35 3 -5 2 -8 -3 -4 -13 7 -126 -58 -117 -67 5 -4 3 -6 -2 -4 -17
5 -75 -24 -68 -35 3 -5 2 -8 -3 -4 -11 7 -126 -57 -119 -66 3 -4 3 -5 -1 -3
-3 2 -27 -5 -55 -15 -98 -37 -141 -26 -338 89 -57 34 -109 58 -114 55 -6 -3
-7 -1 -4 4 7 11 -51 40 -68 35 -5 -2 -7 0 -3 4 10 9 -173 115 -185 107 -6 -3
-7 -1 -4 4 7 11 -50 40 -66 35 -5 -1 -6 1 -3 6 3 5 -8 19 -24 31 -17 12 -40
40 -52 64 -22 41 -23 50 -26 406 -3 317 0 387 19 461 2 8 20 30 39 49 19 19
28 31 20 26 -9 -5 -12 -5 -7 1 5 5 12 9 15 10 20 2 80 39 76 46 -3 5 -2 7 3 6
16 -5 73 24 66 35 -3 5 -2 7 4 4 13 -8 126 57 116 67 -4 4 -3 6 2 4 16 -5 75
23 69 33 -3 5 -2 8 3 7 16 -5 73 24 66 35 -3 5 -2 7 4 4 11 -7 126 56 118 66
-3 4 -2 5 1 2 4 -2 25 5 47 17 113 57 162 58 265 7z m1797 12 c35 -16 66 -27
69 -25 3 2 4 1 1 -3 -6 -7 234 -146 253 -146 6 0 10 -3 7 -5 -6 -6 145 -94
162 -95 7 0 11 -4 10 -7 -1 -4 14 -23 33 -42 19 -18 37 -40 39 -48 19 -74 22
-150 19 -522 l-3 -423 -24 -45 c-13 -25 -23 -46 -22 -47 0 -2 0 -2 -2 0 -2 1
-18 -10 -36 -25 -18 -16 -37 -28 -42 -28 -6 0 -7 -5 -4 -10 4 -6 3 -9 -2 -8
-17 6 -73 -25 -66 -36 3 -6 3 -8 -2 -4 -9 9 -65 -19 -65 -32 0 -6 -3 -9 -7 -8
-16 4 -53 -14 -47 -23 3 -5 2 -8 -3 -7 -16 5 -73 -24 -66 -35 3 -5 2 -7 -4 -4
-5 3 -41 -12 -79 -35 -145 -86 -208 -102 -285 -77 -19 7 -97 48 -173 92 -77
44 -145 80 -152 80 -7 0 -11 4 -9 8 5 7 -55 35 -68 31 -5 -1 -6 1 -4 6 6 8
-159 105 -179 105 -7 0 -11 4 -8 9 3 4 0 8 -5 8 -6 0 -28 16 -49 35 -22 19
-42 32 -46 30 -3 -3 -4 -2 -2 1 2 3 -4 24 -15 47 -17 39 -19 71 -19 425 0 312
3 389 14 417 8 19 12 35 8 35 -4 0 1 5 11 11 9 6 15 15 11 20 -3 5 -2 8 3 7
13 -4 54 28 45 36 -4 4 -2 7 3 6 21 -5 36 0 30 10 -4 6 -3 9 2 8 16 -5 73 24
66 35 -3 5 -2 7 4 4 13 -8 126 57 116 67 -4 4 -3 6 2 4 16 -5 75 23 69 33 -3
5 -2 8 3 7 16 -5 73 24 66 35 -3 5 -2 7 4 4 13 -8 126 57 116 67 -4 4 -3 6 2
4 18 -5 75 24 68 36 -3 6 -3 8 1 4 4 -3 33 5 64 18 75 31 110 30 187 -5z"/>
<path d="M2109 3483 c-13 -16 -12 -17 4 -4 9 7 17 15 17 17 0 8 -8 3 -21 -13z"/>
</g>
</svg>
