<?xml version="1.0" standalone="no"?>
<!DOCTYPE svg PUBLIC "-//W3C//DTD SVG 20010904//EN"
 "http://www.w3.org/TR/2001/REC-SVG-20010904/DTD/svg10.dtd">
<svg version="1.0" xmlns="http://www.w3.org/2000/svg"
 width="488.000000pt" height="834.000000pt" viewBox="0 0 488.000000 834.000000"
 preserveAspectRatio="xMidYMid meet">

<g transform="translate(0.000000,834.000000) scale(0.100000,-0.100000)"
fill="#000000" stroke="none">
<path d="M2587 8323 c-3 -3 -21 -7 -39 -9 -18 -2 -35 -9 -36 -14 -2 -6 -8 -8
-13 -4 -5 3 -9 0 -9 -6 0 -6 -4 -9 -9 -5 -5 3 -12 1 -16 -5 -4 -6 -10 -8 -15
-5 -5 3 -24 -10 -44 -28 -20 -19 -37 -32 -39 -30 -2 2 -20 -16 -40 -40 -40
-49 -82 -117 -73 -117 3 0 -3 -9 -14 -20 -12 -12 -18 -25 -15 -30 4 -6 2 -10
-4 -10 -13 0 -42 -55 -34 -64 4 -3 1 -6 -5 -6 -14 0 -44 -55 -35 -64 4 -3 1
-6 -5 -6 -6 0 -18 -13 -27 -30 -9 -16 -13 -30 -10 -30 3 0 -4 -9 -15 -20 -12
-12 -18 -25 -15 -30 4 -6 2 -10 -4 -10 -13 0 -42 -55 -34 -64 4 -3 1 -6 -5 -6
-14 0 -44 -55 -35 -64 4 -3 1 -6 -5 -6 -6 0 -18 -13 -27 -30 -9 -16 -12 -30
-8 -30 4 0 -3 -7 -15 -16 -12 -8 -19 -20 -16 -26 5 -7 2 -8 -5 -4 -8 5 -14 0
-18 -13 -3 -11 -9 -18 -14 -16 -4 3 -17 -2 -27 -12 -10 -10 -25 -20 -33 -23
-8 -3 -402 -7 -876 -10 -852 -5 -862 -5 -890 -26 -15 -11 -36 -36 -45 -55 -17
-32 -18 -226 -18 -3622 0 -3036 2 -3593 14 -3621 7 -18 29 -44 47 -57 l34 -24
2305 -3 c2179 -2 2307 -1 2339 15 19 10 44 31 55 46 21 28 21 40 24 548 2 328
6 519 12 519 6 0 19 9 30 20 20 20 20 33 20 2500 0 2467 0 2480 -20 2500 -11
11 -24 20 -30 20 -7 0 -10 194 -10 563 0 620 2 604 -63 651 -27 20 -45 21
-300 26 -230 5 -277 8 -303 22 -17 10 -33 16 -35 15 -2 -1 -20 13 -39 32 -19
19 -29 31 -21 27 8 -6 7 0 -4 18 -10 14 -22 26 -27 26 -5 0 -6 4 -3 10 3 5 -3
17 -14 27 -11 9 -18 20 -15 25 3 4 0 8 -7 8 -7 0 -9 3 -6 7 4 3 -1 12 -11 20
-11 10 -12 12 -2 8 13 -6 13 -5 0 7 -8 7 -16 20 -18 27 -2 8 -11 21 -20 29
-12 9 -13 12 -2 7 13 -6 13 -5 0 7 -8 7 -16 20 -18 27 -2 8 -11 21 -20 29 -12
9 -13 12 -2 7 10 -4 9 -2 -2 8 -10 8 -15 17 -11 20 3 4 1 7 -6 7 -7 0 -10 4
-7 9 3 5 -1 12 -10 15 -8 3 -12 10 -9 16 3 5 1 10 -6 10 -7 0 -10 3 -6 6 3 3
-3 14 -14 25 -11 11 -17 24 -14 29 4 6 1 10 -6 10 -7 0 -9 3 -6 7 4 3 -1 12
-11 20 -11 10 -12 12 -2 8 13 -6 13 -5 0 7 -8 7 -16 20 -18 27 -2 8 -11 21
-20 29 -12 9 -13 12 -2 7 13 -6 13 -5 0 7 -8 7 -16 20 -18 28 -2 8 -17 28 -35
43 -18 16 -25 26 -17 22 8 -4 6 1 -5 10 -11 9 -19 21 -18 26 2 5 -1 8 -6 6 -5
-1 -17 7 -26 18 -9 11 -14 13 -10 5 4 -8 -6 -1 -22 17 -15 17 -37 33 -48 35
-11 2 -23 7 -26 11 -3 4 -16 9 -27 10 -12 1 -22 5 -22 9 0 3 -8 8 -17 9 -50 5
-851 8 -856 2z m468 -393 c-4 8 3 4 15 -10 12 -14 19 -18 15 -10 -4 8 1 6 9
-4 9 -11 16 -16 16 -10 0 5 5 1 11 -9 6 -9 14 -15 19 -12 4 3 11 -2 14 -11 3
-8 10 -13 15 -10 5 3 12 -1 15 -10 3 -8 10 -13 15 -10 5 3 12 -1 15 -10 3 -8
10 -13 15 -10 5 3 12 -1 15 -10 3 -8 10 -13 15 -10 5 3 12 -1 15 -10 3 -8 10
-13 15 -10 5 3 12 -1 15 -10 3 -8 10 -13 15 -10 5 3 12 -1 15 -10 4 -9 9 -14
13 -11 3 4 12 -1 20 -11 10 -11 12 -12 8 -2 -4 8 3 4 15 -10 12 -14 19 -18 15
-10 -4 8 3 4 15 -10 12 -14 19 -18 15 -10 -4 8 1 6 9 -4 9 -11 16 -16 16 -10
0 5 5 1 11 -9 6 -9 14 -15 19 -12 4 3 11 -2 14 -11 3 -8 10 -13 15 -10 5 3 12
-1 15 -10 3 -8 10 -13 15 -10 16 10 21 -24 21 -154 0 -118 -9 -164 -24 -124
-3 8 -10 13 -15 10 -5 -3 -12 1 -15 10 -3 8 -10 13 -15 10 -5 -3 -12 1 -15 10
-3 8 -10 13 -15 10 -5 -3 -12 1 -15 10 -4 9 -9 14 -13 11 -3 -4 -12 1 -20 11
-10 11 -12 12 -8 2 4 -8 -1 -6 -9 4 -9 11 -16 16 -16 10 0 -5 -5 -1 -11 9 -6
9 -14 15 -19 12 -4 -3 -11 2 -14 11 -3 8 -10 13 -15 10 -5 -3 -12 1 -15 10 -3
8 -10 13 -15 10 -5 -3 -12 1 -15 10 -3 8 -10 13 -15 10 -5 -3 -12 1 -15 10 -3
8 -10 13 -15 10 -5 -3 -12 1 -15 10 -3 8 -10 13 -15 10 -5 -3 -12 1 -15 10 -3
8 -10 13 -15 10 -5 -3 -12 1 -15 10 -3 8 -10 13 -15 10 -5 -3 -12 1 -15 10 -3
8 -10 13 -15 10 -5 -3 -12 1 -15 10 -4 9 -9 14 -13 11 -3 -4 -12 1 -20 11 -10
11 -12 12 -8 2 4 -8 -1 -6 -9 4 -9 11 -16 16 -16 10 0 -5 -5 -1 -11 9 -6 9
-14 15 -19 12 -4 -3 -9 58 -9 134 -2 149 5 170 42 127 10 -11 16 -14 12 -6z
m-591 -122 c-5 -8 11 -12 29 -9 5 1 6 -3 2 -9 -6 -9 8 -14 28 -11 5 1 6 -2 3
-7 -3 -5 8 -16 25 -26 16 -9 29 -14 29 -9 0 4 5 0 11 -10 6 -9 14 -15 19 -12
4 3 11 -2 14 -11 3 -8 10 -13 15 -10 5 3 12 -1 15 -10 3 -8 10 -13 15 -10 5 3
12 -1 15 -10 4 -9 9 -14 13 -11 3 4 12 -1 20 -11 10 -11 12 -12 8 -2 -4 8 3 4
15 -10 12 -14 19 -18 15 -10 -4 8 3 4 15 -10 12 -14 18 -18 14 -10 -4 8 5 2
19 -13 15 -16 32 -25 39 -21 7 4 8 3 4 -4 -7 -11 6 -17 27 -13 5 1 6 -2 3 -7
-3 -5 8 -16 25 -26 16 -9 29 -14 29 -9 0 4 5 0 11 -10 6 -9 14 -15 19 -12 4 3
11 -2 14 -11 3 -8 10 -13 15 -10 5 3 12 -1 15 -10 3 -8 10 -13 15 -10 5 3 12
-1 15 -10 4 -9 9 -14 13 -11 3 4 12 -1 20 -11 10 -11 12 -12 8 -2 -4 8 3 4 15
-10 12 -14 19 -18 15 -10 -4 8 3 4 15 -10 12 -14 18 -18 14 -10 -4 8 5 2 19
-13 15 -16 32 -25 39 -21 7 4 8 3 4 -4 -7 -11 6 -17 27 -13 5 1 6 -2 3 -7 -3
-5 8 -16 25 -26 16 -9 29 -14 29 -9 0 4 5 0 11 -10 6 -9 14 -15 19 -12 4 3 11
-2 14 -11 3 -8 10 -13 15 -10 5 3 12 -1 15 -10 3 -8 10 -13 15 -10 5 3 12 -1
15 -10 3 -8 10 -13 15 -10 5 3 12 -1 15 -10 4 -9 9 -14 13 -11 3 4 12 -1 20
-11 10 -11 12 -12 8 -2 -4 8 3 4 15 -10 12 -14 18 -18 14 -10 -4 8 5 2 19 -13
15 -16 32 -25 39 -21 7 4 8 3 4 -4 -6 -10 3 -16 24 -14 3 0 4 -62 2 -139 -2
-105 -6 -138 -15 -133 -7 4 -24 16 -39 26 -16 11 -28 16 -28 12 0 -4 -7 1 -16
12 -8 10 -12 12 -8 4 4 -8 -5 -2 -19 13 -15 16 -32 25 -39 21 -6 -4 -8 -3 -5
3 3 5 -7 17 -24 27 -16 9 -29 14 -29 9 0 -4 -5 0 -11 10 -6 9 -14 15 -19 12
-4 -3 -11 2 -14 11 -3 8 -10 13 -15 10 -5 -3 -12 1 -15 10 -3 8 -10 13 -15 10
-5 -3 -12 1 -15 10 -3 8 -10 13 -15 10 -5 -3 -12 1 -15 10 -3 8 -10 13 -15 10
-5 -3 -12 1 -15 10 -3 8 -10 13 -15 10 -5 -3 -12 1 -15 10 -4 9 -9 14 -13 11
-3 -4 -12 1 -20 11 -9 10 -12 11 -7 2 4 -8 -5 -2 -19 13 -15 16 -32 25 -39 21
-6 -4 -8 -3 -5 3 3 5 -7 17 -24 27 -16 9 -29 14 -29 9 0 -4 -5 0 -11 10 -6 9
-14 15 -19 12 -4 -3 -11 2 -14 11 -3 8 -10 13 -15 10 -5 -3 -12 1 -15 10 -3 8
-10 13 -15 10 -5 -3 -12 1 -15 10 -4 9 -9 14 -12 11 -3 -2 -17 6 -31 19 -14
13 -29 21 -33 19 -4 -3 -11 2 -14 11 -3 8 -10 13 -15 10 -5 -3 -12 1 -15 10
-4 9 -9 14 -13 11 -3 -4 -12 1 -20 11 -9 10 -12 11 -7 2 4 -8 -5 -2 -19 13
-15 16 -32 25 -39 21 -6 -4 -8 -3 -5 3 3 5 -7 17 -24 27 -16 9 -29 14 -29 9 0
-4 -5 0 -11 10 -6 9 -14 15 -19 12 -4 -3 -11 2 -14 11 -3 8 -10 13 -15 10 -5
-3 -12 1 -15 10 -3 8 -10 12 -16 9 -5 -3 -10 -2 -10 3 0 6 -20 23 -45 39 l-45
28 0 132 c0 124 1 132 19 130 11 0 17 -5 15 -9z m2311 -438 c10 -11 16 -20 13
-20 -3 0 -13 9 -23 20 -10 11 -16 20 -13 20 3 0 13 -9 23 -20z m-2320 -60 c-6
-9 8 -14 28 -11 5 1 6 -3 2 -9 -6 -9 8 -14 28 -11 5 1 6 -3 2 -9 -6 -9 8 -14
28 -11 5 1 6 -3 2 -9 -6 -9 8 -14 28 -11 5 1 6 -2 3 -7 -3 -5 8 -16 25 -26 16
-9 29 -14 29 -9 0 4 5 0 11 -10 6 -9 14 -15 19 -12 4 3 11 -2 14 -11 3 -8 10
-12 16 -9 5 3 10 2 10 -3 0 -12 50 -45 67 -45 7 0 10 -4 7 -9 -5 -7 10 -12 29
-9 5 1 6 -3 2 -9 -6 -9 8 -14 28 -11 5 1 6 -3 2 -9 -6 -9 8 -14 28 -11 5 1 6
-3 2 -9 -6 -9 8 -14 28 -11 5 1 6 -3 2 -9 -6 -9 8 -14 28 -11 5 1 6 -2 3 -7
-3 -5 8 -16 25 -26 16 -9 29 -14 29 -9 0 4 5 1 10 -7 13 -19 13 -280 1 -280
-6 0 -13 5 -16 10 -4 6 -10 8 -15 5 -4 -3 -11 2 -14 11 -3 8 -10 12 -16 9 -5
-3 -10 -2 -10 3 0 11 -80 65 -97 65 -7 0 -10 4 -7 9 5 7 -10 12 -29 9 -5 -1
-6 3 -2 9 6 9 -8 14 -28 11 -5 -1 -6 2 -3 7 3 5 -8 16 -25 26 -16 9 -29 14
-29 9 0 -4 -5 0 -11 10 -6 9 -14 15 -19 12 -4 -3 -11 2 -14 11 -3 8 -10 13
-15 10 -5 -3 -12 1 -15 10 -3 8 -10 13 -15 10 -5 -3 -12 1 -15 10 -3 8 -10 12
-16 9 -5 -3 -10 -2 -10 3 0 11 -80 65 -97 65 -7 0 -10 4 -7 9 5 7 -9 12 -28
10 -3 -1 -7 61 -7 137 -2 134 0 143 27 150 2 1 0 -3 -3 -9z m-655 -119 c19 -5
42 -10 49 -12 8 -2 26 -15 39 -29 13 -14 29 -25 35 -25 5 0 11 -7 12 -15 4
-26 41 -80 49 -72 4 4 6 2 4 -3 -4 -14 23 -76 31 -70 4 2 8 -2 8 -9 0 -20 97
-185 105 -179 5 2 7 1 6 -4 -5 -16 24 -73 35 -66 5 3 7 2 4 -4 -7 -11 56 -126
66 -118 4 3 5 2 3 -1 -2 -3 9 -33 25 -67 54 -115 50 -156 -29 -291 -25 -43
-45 -85 -45 -92 0 -8 -3 -12 -5 -9 -3 3 -60 -91 -127 -208 -112 -193 -198
-312 -217 -300 -5 2 -8 0 -8 -6 0 -7 -138 -9 -412 -8 -374 2 -416 4 -445 20
-18 9 -36 17 -39 17 -4 -1 -12 7 -18 18 -33 56 -54 81 -60 74 -4 -4 -6 -2 -4
3 5 16 -23 75 -33 69 -5 -3 -8 -2 -7 3 5 16 -24 73 -35 66 -5 -3 -8 -2 -4 3 7
13 -58 126 -67 117 -4 -5 -6 -3 -4 2 5 17 -24 75 -35 68 -5 -3 -7 -2 -4 4 7
11 -97 195 -106 188 -4 -3 -5 -3 -3 1 2 3 -5 27 -15 55 -37 98 -26 139 89 338
34 57 58 109 55 114 -3 6 -1 7 4 4 11 -7 40 51 35 68 -2 6 0 6 4 2 10 -10 75
103 67 116 -3 6 -1 7 4 4 11 -7 40 50 35 66 -1 5 1 6 6 3 5 -3 15 7 21 21 33
72 96 127 166 144 42 10 723 10 765 0z m2569 -2 c19 -6 68 -52 63 -61 -2 -5 2
-8 7 -8 8 0 10 -220 8 -725 -2 -593 -4 -727 -15 -734 -8 -5 -13 -11 -13 -15 1
-3 -1 -5 -3 -3 -2 1 -14 -7 -26 -18 -35 -32 -172 -34 -236 -4 -27 12 -52 21
-56 21 -5 -1 -7 4 -5 11 1 6 -4 11 -10 10 -7 -2 -12 0 -11 5 3 12 -43 82 -55
82 -6 0 -8 3 -4 6 8 9 -21 64 -34 64 -6 0 -7 5 -4 10 3 6 1 10 -5 10 -6 0 -8
5 -5 10 3 6 -1 13 -9 16 -9 3 -13 10 -10 15 3 5 0 9 -6 9 -6 0 -8 5 -5 10 3 6
1 10 -5 10 -6 0 -8 5 -5 10 3 6 -1 13 -9 16 -9 3 -13 10 -10 15 3 5 0 9 -6 9
-6 0 -8 5 -5 10 3 6 1 10 -5 10 -6 0 -8 5 -5 10 3 6 -1 13 -9 16 -9 3 -13 10
-10 15 3 5 0 9 -6 9 -6 0 -9 4 -5 10 3 5 -3 18 -14 29 -11 11 -17 22 -13 25 3
3 0 6 -7 6 -7 0 -9 5 -6 10 3 6 -1 13 -9 16 -9 3 -13 10 -10 15 3 5 0 9 -6 9
-6 0 -8 5 -5 10 3 6 1 10 -5 10 -6 0 -8 5 -5 10 3 6 -1 13 -9 16 -9 3 -13 10
-10 15 3 5 0 9 -6 9 -6 0 -8 5 -5 10 3 6 1 10 -5 10 -6 0 -8 5 -5 10 3 6 0 12
-7 15 -8 3 -15 15 -15 27 -1 12 -6 24 -10 27 -18 14 -14 111 7 176 12 36 25
65 30 65 4 0 11 11 14 25 4 14 11 25 17 25 6 0 7 5 4 10 -3 6 -2 10 3 10 6 0
13 11 16 25 4 14 11 25 17 25 6 0 7 5 4 10 -3 6 -2 10 3 10 6 0 13 11 16 25 4
14 10 25 15 25 5 0 15 16 21 35 6 19 15 35 20 35 4 0 11 11 14 25 4 14 11 25
17 25 6 0 7 5 4 10 -3 6 -1 10 4 10 6 0 11 6 11 14 0 8 7 22 16 30 8 9 12 16
7 16 -4 0 -3 4 3 8 6 4 29 39 52 77 40 67 102 146 102 130 0 -4 7 -2 15 5 25
21 76 29 150 26 39 -2 76 -5 84 -7z m-957 -910 c9 -2 15 -6 12 -10 -4 -7 19
-18 41 -20 12 -1 45 -29 43 -38 -3 -14 15 -40 23 -35 5 3 8 2 7 -3 -5 -16 24
-73 35 -66 5 3 7 2 4 -4 -8 -12 98 -195 107 -185 4 4 6 2 4 -3 -5 -17 24 -75
35 -68 5 3 7 2 4 -4 -8 -13 57 -126 67 -116 4 4 6 4 4 -2 -4 -14 23 -76 31
-70 4 2 8 -1 8 -8 1 -7 13 -39 27 -72 31 -72 32 -99 8 -162 -27 -71 -348 -621
-388 -665 -19 -21 -34 -36 -34 -33 0 3 -15 -2 -32 -12 -30 -16 -67 -18 -398
-18 -403 0 -436 2 -462 28 -11 10 -22 16 -26 14 -4 -2 -18 8 -32 21 -14 14
-19 22 -11 17 7 -4 3 6 -10 24 -12 17 -26 31 -31 31 -4 0 -7 3 -6 8 4 15 -14
52 -23 46 -5 -3 -8 -2 -7 3 5 15 -24 73 -33 67 -5 -3 -8 -2 -7 3 5 16 -24 73
-35 66 -5 -3 -8 -2 -4 3 7 13 -58 126 -67 117 -4 -5 -6 -3 -4 2 5 16 -23 75
-33 69 -5 -3 -8 -2 -7 3 5 15 -24 73 -33 67 -5 -3 -8 -2 -7 3 2 5 -12 39 -31
75 -59 117 -54 172 27 312 25 43 45 84 45 92 0 7 4 11 8 9 8 -6 35 56 31 70
-2 6 0 7 4 3 9 -10 115 173 107 185 -3 6 -1 7 4 4 11 -7 40 51 35 68 -2 6 0 7
4 3 4 -5 20 13 35 40 25 43 60 83 106 122 10 8 34 17 53 18 19 2 37 6 40 9 5
4 733 -3 762 -8z m953 -920 c17 -7 33 -13 37 -13 9 -1 23 -16 23 -24 1 -4 6
-17 13 -29 17 -31 17 -1443 0 -1443 -6 0 -8 -3 -5 -7 4 -3 -12 -20 -35 -37
-40 -29 -48 -31 -128 -31 -100 1 -134 15 -196 81 -23 24 -40 44 -38 44 3 0 -2
14 -11 30 -9 17 -21 30 -27 30 -6 0 -9 3 -5 6 8 9 -21 64 -34 64 -6 0 -7 5 -4
10 3 6 1 10 -5 10 -6 0 -8 5 -5 10 3 6 -1 13 -9 16 -9 3 -13 10 -10 15 3 5 0
9 -6 9 -6 0 -8 5 -5 10 3 6 1 10 -5 10 -6 0 -8 5 -5 10 3 6 -1 13 -9 16 -9 3
-13 10 -10 15 3 5 0 9 -6 9 -6 0 -8 5 -5 10 3 6 1 10 -5 10 -6 0 -8 5 -5 10 3
6 -1 13 -9 16 -9 3 -13 10 -10 15 3 5 0 9 -6 9 -6 0 -9 4 -5 10 3 5 -3 18 -14
29 -11 11 -17 22 -13 25 3 3 0 6 -7 6 -7 0 -9 5 -6 10 3 6 -1 13 -9 16 -9 3
-13 10 -10 15 3 5 0 9 -6 9 -6 0 -8 5 -5 10 3 6 1 10 -5 10 -6 0 -8 5 -5 10 3
6 -1 13 -9 16 -9 3 -13 10 -10 15 3 5 0 9 -6 9 -6 0 -8 5 -5 10 3 6 1 10 -5
10 -6 0 -8 5 -5 10 3 6 2 10 -3 10 -5 0 -9 6 -10 13 -1 6 -4 34 -8 60 -7 49
12 157 27 157 4 0 13 16 19 35 6 19 15 35 20 35 4 0 11 11 14 25 4 14 11 25
17 25 6 0 7 5 4 10 -3 6 -2 10 3 10 6 0 13 11 16 25 4 14 11 25 17 25 6 0 7 5
4 10 -3 6 -1 10 4 10 6 0 11 6 11 13 0 8 9 24 20 37 11 13 20 29 20 37 0 7 5
13 11 13 5 0 7 5 4 10 -3 6 -2 10 3 10 6 0 13 11 16 25 4 14 11 25 17 25 6 0
7 5 4 10 -3 6 -1 10 4 10 6 0 11 6 11 14 0 8 7 22 16 30 8 9 12 16 7 16 -4 0
-3 4 3 8 5 4 21 25 34 47 30 49 90 129 90 120 0 -4 7 -2 16 5 44 37 172 47
239 19z m-2526 1 c8 -3 23 -13 33 -23 10 -10 23 -15 29 -12 5 4 8 3 7 -2 -4
-13 28 -54 36 -45 4 4 7 2 6 -3 -5 -21 0 -36 10 -30 6 4 9 3 8 -2 -5 -15 24
-73 33 -67 5 3 8 2 7 -3 -5 -16 24 -73 35 -66 5 3 7 2 4 -4 -8 -13 57 -126 67
-116 4 4 6 4 4 -2 -5 -17 24 -75 35 -68 5 3 7 2 4 -4 -7 -11 97 -195 106 -188
4 3 5 2 3 -1 -2 -3 7 -32 20 -64 13 -33 24 -74 24 -92 0 -18 -20 -74 -47 -128
-26 -52 -46 -99 -44 -105 1 -5 -1 -7 -5 -3 -4 5 -27 -27 -52 -70 -24 -42 -54
-95 -67 -117 -12 -22 -48 -85 -80 -140 -32 -55 -58 -105 -58 -112 0 -7 -2 -11
-4 -9 -2 1 -27 -20 -56 -48 -37 -38 -62 -53 -87 -56 -19 -3 -204 -5 -410 -5
-335 0 -378 2 -406 17 -17 10 -35 14 -40 10 -5 -4 -6 -4 -3 1 3 4 -11 25 -32
48 -20 22 -43 53 -49 70 -7 16 -16 26 -21 23 -5 -3 -8 -2 -7 3 5 15 -24 73
-33 67 -5 -3 -8 -2 -7 3 5 16 -24 73 -35 66 -5 -3 -8 -2 -4 3 7 13 -58 126
-67 117 -4 -5 -6 -3 -4 2 5 16 -23 75 -33 69 -5 -3 -8 -2 -7 3 6 17 -25 73
-36 66 -6 -3 -8 -3 -4 1 3 4 -14 46 -38 92 -50 97 -56 143 -25 223 10 28 16
53 12 57 -3 4 -1 4 5 1 12 -7 41 50 36 68 -2 5 0 6 4 2 10 -10 75 103 67 116
-3 6 -1 7 4 4 11 -7 40 51 35 68 -2 6 0 7 4 3 9 -10 115 173 107 185 -3 6 -1
7 4 4 11 -7 40 50 35 66 -1 5 2 6 8 2 5 -3 10 -1 10 4 0 6 16 28 35 49 19 22
32 42 30 46 -3 3 -2 4 1 2 3 -2 24 4 47 15 39 18 66 19 437 16 217 -1 401 -4
409 -7z m1594 -924 c15 -10 27 -16 27 -13 0 3 15 -9 33 -26 17 -16 31 -34 30
-39 -2 -4 2 -8 7 -8 6 0 10 -7 10 -15 0 -8 5 -15 11 -15 5 0 7 -4 4 -10 -3 -5
-1 -10 5 -10 6 0 8 -4 5 -10 -3 -5 -1 -10 4 -10 6 0 11 -7 11 -15 0 -8 5 -15
11 -15 5 0 7 -4 4 -10 -3 -5 -1 -10 5 -10 6 0 9 -4 6 -8 -3 -5 3 -18 12 -28
10 -10 18 -22 18 -26 -1 -4 7 -16 16 -27 9 -11 14 -22 11 -25 -4 -3 -1 -6 6
-6 7 0 9 -4 6 -10 -3 -5 -1 -10 4 -10 6 0 11 -7 11 -15 0 -8 5 -15 11 -15 5 0
7 -4 4 -10 -3 -5 -1 -10 5 -10 6 0 8 -4 5 -10 -3 -5 -1 -10 4 -10 6 0 11 -7
11 -15 0 -8 5 -15 11 -15 5 0 7 -4 4 -10 -3 -5 -1 -10 4 -10 6 0 11 -7 11 -15
0 -8 5 -15 11 -15 5 0 8 -4 4 -9 -3 -5 2 -16 10 -24 8 -9 15 -20 15 -26 0 -6
5 -11 11 -11 5 0 7 -4 4 -10 -3 -5 -1 -10 5 -10 6 0 8 -4 5 -10 -3 -5 -1 -10
4 -10 6 0 11 -7 11 -15 0 -8 5 -15 11 -15 5 0 7 -4 4 -10 -3 -5 -1 -10 6 -10
7 0 10 -3 6 -6 -3 -4 0 -22 8 -41 19 -45 19 -89 0 -142 -8 -22 -12 -41 -9 -41
3 0 -4 -10 -15 -22 -11 -11 -18 -25 -15 -30 3 -4 0 -8 -6 -8 -6 0 -8 -4 -5
-10 3 -5 1 -10 -4 -10 -6 0 -11 -7 -11 -15 0 -8 -5 -15 -11 -15 -5 0 -7 -4 -4
-10 3 -5 1 -10 -5 -10 -6 0 -9 -4 -6 -9 3 -5 -1 -12 -10 -15 -8 -3 -12 -10 -9
-16 3 -5 1 -10 -6 -10 -7 0 -10 -3 -6 -6 3 -3 -3 -15 -13 -27 -11 -11 -17 -24
-14 -29 3 -4 0 -8 -7 -8 -7 0 -10 -3 -6 -6 3 -3 -3 -15 -13 -27 -11 -11 -17
-24 -14 -29 3 -4 0 -8 -6 -8 -6 0 -8 -4 -5 -10 3 -5 2 -10 -2 -10 -11 0 -47
-60 -36 -60 4 0 0 -5 -10 -11 -9 -6 -15 -14 -12 -20 4 -5 1 -9 -6 -9 -7 0 -10
-3 -6 -6 3 -3 -3 -15 -13 -27 -11 -11 -17 -24 -14 -29 3 -4 0 -8 -7 -8 -7 0
-10 -3 -6 -6 3 -3 -3 -15 -13 -27 -11 -11 -17 -23 -15 -27 3 -5 -2 -11 -10
-14 -8 -3 -14 -10 -13 -15 4 -11 -49 -61 -56 -53 -3 3 -6 0 -6 -7 0 -7 -4 -10
-9 -6 -5 3 -15 0 -23 -7 -17 -17 -12 -17 -424 -17 -345 -1 -409 4 -440 30 -8
6 -14 8 -14 3 0 -4 -7 1 -16 12 -8 10 -12 13 -8 5 5 -9 3 -12 -5 -7 -6 4 -9
11 -6 16 3 4 -7 18 -22 30 -16 12 -21 19 -13 15 10 -4 9 -2 -2 8 -10 8 -15 17
-11 20 3 4 1 7 -6 7 -7 0 -9 5 -6 10 3 6 -1 13 -9 16 -9 3 -13 10 -10 15 3 5
0 9 -6 9 -6 0 -8 5 -5 10 3 6 -1 13 -9 16 -9 3 -13 10 -10 15 3 5 0 9 -6 9 -6
0 -8 5 -5 10 3 6 1 10 -5 10 -6 0 -8 5 -5 10 3 6 -1 13 -9 16 -9 3 -13 10 -10
15 3 5 0 9 -6 9 -6 0 -8 5 -5 10 3 6 1 10 -5 10 -6 0 -8 5 -5 10 3 6 -1 13 -9
16 -9 3 -13 10 -10 15 3 5 0 9 -6 9 -6 0 -8 5 -5 10 3 6 1 10 -5 10 -6 0 -8 5
-5 10 3 6 -1 13 -9 16 -9 3 -13 10 -10 15 3 5 0 9 -6 9 -6 0 -8 5 -5 10 3 6
-1 13 -9 16 -9 3 -13 10 -10 15 3 5 0 9 -6 9 -6 0 -8 5 -5 10 3 6 1 10 -5 10
-6 0 -8 5 -5 10 3 6 -1 13 -9 16 -9 3 -13 10 -10 15 3 5 0 9 -6 9 -6 0 -8 5
-5 10 3 6 1 10 -5 10 -6 0 -8 5 -5 10 3 6 -1 13 -9 16 -9 3 -13 10 -10 15 3 5
0 9 -6 9 -6 0 -9 4 -6 8 3 5 -2 20 -12 33 -9 13 -18 33 -20 44 -1 11 -6 21
-10 22 -6 3 -7 103 -1 111 1 1 2 5 3 10 1 4 7 17 14 28 6 12 8 24 5 28 -3 3
-2 6 4 6 6 0 14 11 17 25 4 14 10 25 15 25 5 0 15 16 21 35 6 19 15 35 20 35
4 0 11 11 14 25 4 14 11 25 17 25 6 0 7 5 4 10 -3 6 -2 10 3 10 6 0 13 11 16
25 4 14 11 25 17 25 6 0 7 5 4 10 -3 6 -2 10 3 10 6 0 13 11 16 25 4 14 10 25
15 25 5 0 15 16 21 35 6 19 15 35 20 35 4 0 11 11 14 25 4 14 11 25 17 25 6 0
7 5 4 10 -3 6 -2 10 3 10 6 0 13 11 16 25 4 14 11 25 17 25 6 0 7 5 4 10 -3 6
-1 10 4 10 6 0 11 7 11 15 0 9 10 26 23 38 13 12 26 30 30 40 3 9 13 17 22 17
8 0 15 5 15 12 0 6 3 9 6 5 4 -3 13 0 21 8 12 12 80 14 426 12 383 -2 414 -3
440 -21z m-1633 -895 c19 -5 42 -10 50 -12 8 -2 30 -20 49 -39 19 -19 31 -28
26 -20 -5 9 -5 12 1 7 5 -5 9 -12 10 -15 2 -20 39 -80 46 -76 5 3 7 2 6 -3 -5
-16 24 -73 35 -66 5 3 7 2 4 -4 -8 -13 57 -126 67 -116 4 4 6 3 4 -2 -5 -16
23 -75 33 -69 5 3 8 2 7 -3 -5 -16 24 -73 35 -66 5 3 7 2 4 -4 -7 -11 56 -126
66 -118 4 3 5 2 3 -1 -2 -3 10 -36 27 -72 44 -92 43 -146 -3 -237 -19 -38 -34
-74 -32 -80 2 -5 0 -7 -4 -3 -8 8 -147 -228 -147 -249 0 -7 -2 -11 -5 -8 -6 6
-135 -216 -135 -232 0 -7 -3 -11 -6 -10 -3 1 -21 -13 -40 -30 -18 -17 -41 -38
-52 -46 -16 -14 -69 -16 -426 -14 -384 2 -410 3 -443 22 -19 10 -39 18 -45 16
-5 -1 -7 1 -2 5 4 4 -4 19 -17 33 -13 14 -37 50 -53 78 -16 29 -33 50 -37 45
-4 -4 -6 -2 -4 3 5 16 -23 75 -33 69 -5 -3 -8 -2 -7 3 5 16 -24 73 -35 66 -5
-3 -8 -2 -4 3 7 13 -58 126 -67 117 -4 -5 -6 -3 -4 2 5 17 -24 75 -35 68 -5
-3 -8 -2 -4 3 7 11 -57 126 -66 119 -4 -3 -5 -3 -3 1 2 3 -5 27 -15 55 -37 98
-26 141 89 338 34 57 58 109 55 114 -3 6 -1 7 4 4 11 -7 40 51 35 68 -2 6 0 7
4 3 9 -10 115 173 107 185 -3 6 -1 7 4 4 11 -7 40 50 35 66 -1 5 1 6 6 3 5 -3
19 8 31 24 23 32 68 59 116 71 42 10 723 10 765 0z m2569 -2 c19 -6 68 -53 63
-61 -2 -5 2 -8 7 -8 11 0 12 -1408 1 -1440 -3 -8 -12 -21 -20 -28 -13 -12 -13
-13 0 -6 8 4 13 5 10 1 -3 -3 -8 -5 -11 -4 -4 1 -17 -7 -29 -18 -35 -32 -172
-34 -236 -4 -27 12 -52 21 -56 21 -5 -1 -7 4 -5 11 1 6 -4 11 -10 10 -7 -2
-12 0 -11 5 3 12 -43 82 -55 82 -6 0 -8 3 -4 6 8 9 -21 64 -34 64 -6 0 -7 5
-4 10 3 6 1 10 -5 10 -6 0 -9 4 -5 10 3 5 -3 18 -14 29 -11 11 -17 22 -13 25
3 3 0 6 -7 6 -7 0 -9 5 -6 10 3 6 -1 13 -9 16 -9 3 -13 10 -10 15 3 5 0 9 -6
9 -6 0 -8 5 -5 10 3 6 1 10 -5 10 -6 0 -8 5 -5 10 3 6 -1 13 -9 16 -9 3 -13
10 -10 15 3 5 0 9 -6 9 -6 0 -8 4 -5 10 3 6 1 10 -5 10 -6 0 -8 5 -5 10 3 6
-1 13 -9 16 -9 3 -13 10 -10 15 3 5 0 9 -6 9 -6 0 -8 5 -5 10 3 6 -1 13 -9 16
-9 3 -13 10 -10 15 3 5 0 9 -6 9 -6 0 -8 5 -5 10 3 6 1 10 -5 10 -6 0 -8 5 -5
10 3 6 -1 13 -9 16 -9 3 -13 10 -10 15 3 5 0 9 -6 9 -6 0 -8 5 -5 10 3 6 1 10
-5 10 -6 0 -8 5 -5 10 3 6 0 12 -7 15 -8 3 -15 15 -15 27 -1 12 -6 24 -10 27
-18 14 -14 111 7 176 12 36 25 65 30 65 5 0 14 16 20 35 6 19 15 35 20 35 4 0
11 11 14 25 4 14 11 25 17 25 6 0 7 5 4 10 -3 6 -2 10 3 10 6 0 13 11 16 25 4
14 11 25 17 25 6 0 7 5 4 10 -3 6 -1 10 4 10 6 0 11 6 11 14 0 8 6 21 14 28 7
8 17 24 20 36 4 12 12 22 17 22 6 0 7 5 4 10 -3 6 -1 10 4 10 6 0 11 6 11 14
0 8 7 22 16 30 8 9 12 16 7 16 -4 0 -3 4 3 8 6 4 29 39 52 77 60 100 95 134
161 156 24 8 159 6 190 -2z m-957 -910 c9 -2 15 -6 12 -10 -4 -8 35 -25 48
-21 5 1 7 -3 5 -10 -1 -7 5 -12 13 -13 8 0 15 -4 16 -10 2 -22 17 -45 25 -39
5 3 8 2 7 -3 -5 -16 24 -73 35 -66 5 3 7 2 4 -4 -6 -10 97 -196 105 -188 2 3
5 -1 5 -8 0 -21 97 -186 105 -180 5 2 7 1 6 -4 -6 -17 25 -73 36 -66 6 3 8 3
4 -1 -3 -4 4 -31 18 -59 35 -76 39 -123 16 -182 -19 -51 -326 -590 -361 -635
-35 -45 -59 -71 -65 -70 -4 0 -23 -4 -44 -10 -25 -8 -164 -10 -427 -8 -352 3
-393 5 -416 21 -14 9 -29 14 -32 10 -4 -3 -7 -2 -7 3 0 6 -7 19 -16 30 -8 10
-12 12 -8 4 4 -9 3 -12 -2 -7 -5 5 -9 12 -10 15 -2 21 -28 60 -37 55 -6 -3 -8
-2 -4 3 7 13 -58 126 -67 117 -4 -5 -6 -3 -4 2 5 16 -23 75 -33 69 -5 -3 -8
-2 -7 3 5 16 -24 73 -35 66 -5 -3 -8 -2 -4 3 7 13 -58 126 -67 117 -4 -5 -6
-3 -4 2 5 18 -24 75 -36 68 -6 -3 -8 -3 -4 2 9 10 -19 65 -34 65 -6 0 -9 2 -6
6 3 3 -3 27 -13 55 -25 66 -24 117 5 183 13 30 21 58 18 62 -4 4 -2 5 3 1 6
-3 24 20 40 51 17 31 33 59 36 62 14 12 38 68 31 75 -4 5 -2 5 4 2 11 -7 42
49 36 66 -1 5 1 6 6 4 8 -6 105 159 105 179 0 7 4 11 8 9 7 -5 35 55 31 68 -1
5 2 6 8 2 5 -3 10 -3 10 2 0 12 84 97 100 102 63 17 128 19 455 16 204 -2 378
-5 387 -6z m958 -923 c19 -9 28 -10 24 -3 -4 7 2 3 12 -8 44 -47 44 -44 44
-731 0 -442 -4 -654 -11 -654 -6 0 -8 -3 -6 -7 2 -5 -7 -18 -20 -30 -13 -12
-23 -20 -23 -16 0 3 -7 -1 -17 -8 -11 -10 -48 -14 -132 -14 -104 0 -121 2
-161 25 -25 13 -48 23 -52 22 -5 -1 -7 1 -6 6 3 7 -26 52 -54 82 -9 10 -14 21
-10 24 3 3 0 6 -7 6 -7 0 -9 5 -6 10 3 6 -1 13 -9 16 -9 3 -13 10 -10 15 3 5
0 9 -6 9 -6 0 -8 5 -5 10 3 6 1 10 -5 10 -6 0 -8 5 -5 10 3 6 -1 13 -9 16 -9
3 -13 10 -10 15 3 5 0 9 -6 9 -6 0 -8 4 -5 10 3 5 1 10 -5 10 -6 0 -8 5 -5 10
3 6 -1 13 -9 16 -9 3 -13 10 -10 15 3 5 0 9 -6 9 -6 0 -9 4 -5 10 3 5 -3 18
-14 29 -11 11 -17 22 -13 25 3 3 0 6 -7 6 -7 0 -9 5 -6 10 3 6 -1 13 -9 16 -9
3 -13 10 -10 15 3 5 0 9 -6 9 -6 0 -8 5 -5 10 3 6 1 10 -5 10 -6 0 -8 5 -5 10
3 6 -1 13 -9 16 -9 3 -13 10 -10 15 3 5 0 9 -6 9 -6 0 -8 4 -5 10 3 5 1 10 -5
10 -6 0 -8 4 -5 10 3 5 2 10 -3 10 -5 0 -9 6 -10 13 -1 6 -4 34 -8 60 -7 51
12 157 28 157 5 0 6 5 3 10 -3 6 -1 10 4 10 6 0 11 6 11 14 0 8 6 21 14 28 7
8 17 24 20 36 4 12 12 22 17 22 6 0 7 5 4 10 -3 6 -2 10 3 10 6 0 13 11 16 25
4 14 11 25 17 25 6 0 7 5 4 10 -3 6 -2 10 3 10 6 0 13 11 16 25 4 14 10 25 15
25 5 0 15 16 21 35 6 19 15 35 20 35 4 0 11 11 14 25 4 14 11 25 17 25 6 0 7
5 4 10 -3 6 -1 10 4 10 6 0 11 6 11 14 0 7 7 19 15 26 8 7 13 16 10 20 -3 5
-1 10 3 12 4 1 25 30 45 63 20 33 45 69 54 80 19 21 81 51 123 59 42 8 128 -2
160 -18z m-2535 0 c19 -8 35 -12 35 -8 0 4 5 -1 11 -11 6 -9 15 -15 20 -11 5
3 8 2 7 -3 -4 -13 28 -54 36 -45 4 4 7 2 6 -3 -5 -21 0 -36 10 -30 6 4 9 3 8
-2 -5 -16 24 -73 35 -66 5 3 7 2 4 -4 -8 -13 57 -126 67 -116 4 4 6 3 4 -2 -5
-16 23 -75 33 -69 5 3 8 2 7 -3 -5 -16 24 -73 35 -66 5 3 7 2 4 -4 -8 -13 57
-126 67 -116 4 4 6 4 4 -2 -5 -18 24 -75 36 -68 6 3 8 3 4 -1 -3 -4 5 -34 18
-66 31 -77 30 -107 -5 -185 -16 -35 -26 -67 -23 -72 4 -4 3 -5 -2 -1 -9 8
-149 -226 -149 -249 0 -7 -3 -11 -5 -8 -6 6 -94 -145 -95 -162 0 -7 -4 -11 -7
-10 -4 1 -23 -14 -42 -33 -18 -19 -40 -37 -48 -39 -74 -19 -150 -22 -522 -19
-410 3 -424 4 -463 24 -22 12 -43 22 -47 23 -5 1 -8 3 -7 6 0 3 -11 20 -25 36
-15 17 -26 35 -26 40 0 6 -5 7 -10 4 -6 -4 -9 -3 -8 2 6 17 -25 73 -36 66 -6
-3 -8 -3 -4 2 9 9 -19 65 -32 65 -6 0 -9 3 -8 8 4 15 -14 52 -23 46 -5 -3 -8
-2 -7 3 5 16 -24 73 -35 66 -5 -3 -7 -2 -4 4 3 5 -12 41 -35 79 -86 145 -102
208 -77 285 7 19 48 97 92 173 44 77 80 145 80 152 0 7 4 11 8 9 7 -5 35 55
31 68 -1 5 1 6 6 4 8 -6 105 159 105 179 0 7 4 11 9 8 4 -3 8 0 8 5 0 6 16 28
35 49 19 22 32 42 30 46 -3 3 -2 4 1 2 3 -2 24 4 47 15 39 17 71 19 425 19
312 0 389 -3 417 -14z m1592 -906 c7 -2 10 -6 8 -10 -2 -4 6 -12 20 -18 13 -6
31 -23 41 -36 9 -14 20 -23 25 -20 5 3 8 2 7 -3 -4 -17 14 -53 24 -47 6 4 8 3
5 -3 -3 -5 37 -83 89 -174 55 -95 94 -175 94 -191 0 -17 -10 -34 -27 -47 -26
-21 -31 -21 -729 -21 l-702 1 -16 33 c-9 19 -16 38 -16 43 0 22 234 412 264
440 19 17 32 34 30 37 -2 3 -2 4 1 2 3 -2 22 3 43 10 29 11 119 13 432 10 217
-2 400 -5 407 -6z m1363 -723 c0 -2 -10 -12 -22 -23 l-23 -19 19 23 c18 21 26
27 26 19z"/>
<path d="M3470 6236 c0 -2 8 -10 18 -17 15 -13 16 -12 3 4 -13 16 -21 21 -21
13z"/>
</g>
</svg>
