<?xml version="1.0" standalone="no"?>
<!DOCTYPE svg PUBLIC "-//W3C//DTD SVG 20010904//EN"
 "http://www.w3.org/TR/2001/REC-SVG-20010904/DTD/svg10.dtd">
<svg version="1.0" xmlns="http://www.w3.org/2000/svg"
 width="516.000000pt" height="561.000000pt" viewBox="0 0 516.000000 561.000000"
 preserveAspectRatio="xMidYMid meet">

<g transform="translate(0.000000,561.000000) scale(0.100000,-0.100000)"
fill="#000000" stroke="none">
<path d="M1954 5586 c-43 -31 -48 -60 -55 -271 -3 -110 -8 -209 -11 -219 -2
-11 -13 -22 -24 -25 -10 -3 -293 -8 -629 -11 l-610 -5 -90 -27 c-117 -35 -207
-79 -252 -125 -37 -36 -37 -36 -35 -117 1 -45 5 -123 8 -174 6 -81 10 -97 31
-120 14 -15 29 -27 33 -27 5 0 25 -18 45 -40 21 -22 31 -31 24 -20 -7 11 7 0
30 -25 24 -25 39 -38 35 -30 -5 9 1 4 14 -10 12 -14 27 -24 32 -22 6 1 9 -1 8
-6 -4 -9 94 -106 105 -104 4 1 6 -1 5 -5 -3 -13 34 -93 43 -93 4 0 8 -422 9
-938 0 -893 -1 -941 -19 -1013 -10 -41 -33 -103 -49 -137 -17 -34 -29 -62 -27
-62 2 0 -7 -11 -21 -25 -15 -15 -22 -30 -18 -38 4 -6 4 -9 1 -6 -4 3 -33 -19
-65 -50 -101 -97 -191 -178 -186 -167 3 6 -11 -7 -32 -29 -20 -22 -34 -33 -30
-25 4 8 -12 -5 -35 -30 -23 -25 -37 -36 -30 -25 7 11 -6 0 -30 -25 -23 -25
-37 -36 -30 -25 7 11 -6 0 -30 -25 -23 -25 -36 -36 -28 -25 14 20 14 20 -9 1
l-23 -20 5 -255 c4 -227 11 -310 33 -361 3 -8 5 -20 4 -27 -1 -6 3 -14 8 -18
6 -3 8 -12 4 -20 -3 -8 0 -15 6 -15 6 0 8 -6 5 -14 -3 -7 1 -20 8 -27 7 -8 15
-23 16 -34 2 -11 7 -22 10 -25 4 -3 9 -14 10 -25 2 -11 8 -22 13 -23 5 -2 7
-8 3 -13 -3 -5 0 -9 6 -9 6 0 8 -5 5 -10 -3 -6 1 -13 9 -16 9 -3 13 -10 11
-15 -3 -4 3 -17 15 -29 11 -11 19 -22 18 -25 -2 -2 5 -13 14 -24 9 -11 14 -22
11 -24 -2 -3 22 -31 53 -64 32 -32 50 -51 39 -44 -11 8 2 -8 30 -37 48 -51 72
-69 44 -34 -8 9 8 -5 35 -33 26 -27 44 -43 40 -35 -5 9 1 4 13 -10 13 -14 23
-21 23 -16 0 6 7 1 16 -10 8 -10 12 -12 8 -4 -4 8 5 2 19 -13 15 -15 32 -25
37 -22 6 3 10 1 10 -4 0 -6 7 -11 15 -11 8 0 15 -5 15 -11 0 -5 5 -7 10 -4 6
3 10 2 10 -3 0 -12 56 -33 64 -25 3 4 6 1 6 -6 0 -7 4 -10 9 -7 5 4 11 1 13
-4 2 -6 13 -12 26 -13 12 0 22 -4 22 -8 0 -12 81 -22 92 -11 6 6 17 8 24 5 8
-3 14 0 14 6 0 6 3 10 8 9 10 -3 71 60 64 67 -3 3 0 5 7 5 7 0 9 5 6 10 -3 6
-1 10 4 10 6 0 10 3 10 8 -1 4 0 10 1 15 1 4 3 10 5 15 1 4 7 20 13 35 7 16
10 32 7 37 -3 5 -1 10 3 12 4 1 70 199 147 438 76 239 149 457 163 484 34 70
108 138 177 164 l57 22 1004 0 1003 0 55 -24 c30 -13 57 -22 60 -20 3 2 4 1 1
-2 -6 -8 47 -50 58 -46 5 1 6 -1 3 -6 -3 -5 8 -23 23 -40 16 -17 26 -33 23
-36 -3 -3 0 -6 7 -6 7 0 9 -4 6 -10 -3 -5 -1 -10 4 -10 6 0 10 -3 9 -7 -4 -14
45 -173 54 -173 4 0 5 -7 2 -15 -4 -8 -2 -15 4 -15 5 0 9 -6 8 -12 -2 -20 57
-208 66 -208 4 0 5 -7 2 -15 -4 -8 -1 -15 6 -15 6 0 9 -4 6 -8 -4 -7 70 -257
90 -301 4 -9 8 -19 9 -23 2 -5 4 -10 5 -13 1 -3 4 -9 5 -15 1 -5 4 -12 5 -15
1 -3 3 -9 4 -14 0 -5 4 -12 8 -16 4 -4 4 -13 1 -21 -3 -8 0 -14 6 -14 6 0 8
-7 5 -15 -4 -8 -1 -15 5 -15 6 0 8 -7 5 -15 -4 -8 -1 -15 6 -15 6 0 9 -4 6 -9
-7 -11 11 -63 25 -72 6 -3 11 -12 12 -20 4 -20 39 -59 49 -53 4 3 8 0 8 -6 0
-6 4 -8 10 -5 5 3 10 2 10 -2 0 -23 140 -17 148 6 2 6 8 9 13 5 5 -3 9 -1 9 5
0 6 7 8 15 5 8 -4 15 -1 15 6 0 6 5 8 10 5 6 -3 10 -1 10 5 0 6 5 8 10 5 6 -3
10 -2 10 4 0 6 7 8 15 5 8 -3 26 6 41 23 15 15 24 21 20 13 -5 -9 -2 -8 7 2 8
10 17 15 20 11 4 -3 9 2 13 11 3 9 10 13 15 10 5 -3 21 8 36 23 14 15 23 21
19 13 -4 -8 12 5 36 30 24 25 36 37 28 25 -8 -11 6 -2 31 20 25 22 44 42 43
43 -1 2 10 16 25 30 15 15 18 20 7 12 -12 -8 5 11 38 43 32 32 56 61 52 64 -3
3 1 11 9 17 7 6 15 17 17 25 2 8 11 23 21 33 10 10 15 23 12 28 -4 6 -1 10 5
10 11 0 46 73 52 107 2 10 7 21 11 24 4 3 9 16 10 27 1 12 5 22 9 22 4 0 7 3
6 8 0 4 1 14 5 22 32 85 41 166 45 408 3 222 2 255 -12 278 -9 13 -21 22 -27
19 -5 -4 -8 -2 -7 3 4 13 -234 212 -244 206 -5 -3 -7 -2 -6 3 2 5 -28 36 -67
70 -38 33 -91 83 -117 110 -26 28 -50 48 -54 44 -4 -3 -5 -1 -1 4 5 9 -27 67
-60 110 -5 6 -8 15 -8 20 -1 6 -12 44 -25 85 l-25 75 0 940 0 940 29 60 c16
33 28 63 28 68 -1 4 2 6 6 5 11 -4 77 64 74 75 -1 5 1 6 5 4 5 -3 24 8 43 25
19 16 29 26 21 22 -9 -5 -12 -3 -7 5 4 6 11 9 15 7 4 -3 20 6 37 20 16 14 23
22 15 18 -9 -5 -12 -3 -7 5 4 6 11 9 16 6 5 -3 35 20 67 52 32 32 51 49 44 38
-14 -18 -14 -19 2 -5 13 13 19 49 28 191 l12 176 -39 43 c-46 51 -122 87 -269
130 l-105 30 -579 0 c-397 0 -588 3 -610 11 -54 19 -61 46 -61 250 0 198 -7
235 -49 263 -24 15 -79 17 -628 19 -577 2 -604 1 -629 -17z m913 -736 c262
-52 492 -151 692 -300 43 -32 82 -55 86 -52 4 4 6 3 4 -3 -1 -5 42 -55 97
-111 116 -118 172 -182 166 -189 -3 -2 3 -7 12 -11 9 -3 13 -10 10 -15 -3 -5
2 -12 10 -15 9 -3 14 -10 11 -14 -3 -5 1 -12 9 -17 8 -4 14 -12 14 -16 -1 -15
43 -87 53 -87 6 0 7 -4 4 -10 -3 -5 -1 -10 5 -10 6 0 8 -4 5 -10 -3 -5 -1 -10
5 -10 6 0 8 -4 5 -10 -3 -5 -1 -10 5 -10 6 0 8 -4 5 -10 -3 -5 -2 -10 3 -10 5
0 9 -6 9 -13 0 -20 37 -107 45 -107 4 0 5 -7 2 -15 -4 -8 -1 -15 5 -15 6 0 8
-7 5 -15 -4 -8 -1 -15 6 -15 6 0 9 -4 5 -9 -3 -5 -1 -12 5 -16 6 -4 8 -10 5
-15 -4 -7 4 -41 22 -90 8 -22 12 -42 33 -190 14 -98 12 -333 -5 -440 -20 -134
-57 -268 -105 -385 -23 -55 -42 -106 -42 -112 -1 -7 -5 -13 -10 -13 -5 0 -6
-4 -3 -10 3 -5 1 -10 -5 -10 -6 0 -8 -4 -5 -10 3 -6 1 -10 -5 -10 -6 0 -8 -4
-5 -10 3 -5 2 -10 -4 -10 -12 0 -45 -60 -34 -60 5 0 0 -5 -10 -11 -9 -6 -15
-14 -12 -19 3 -4 -2 -11 -11 -14 -8 -3 -13 -10 -10 -15 3 -5 -1 -12 -10 -15
-9 -4 -15 -9 -12 -12 3 -2 -10 -21 -28 -41 -18 -20 -30 -41 -27 -47 3 -6 3 -8
-2 -4 -8 8 -52 -41 -48 -54 2 -4 -26 -31 -62 -59 -35 -29 -63 -57 -62 -62 1
-6 -4 -11 -11 -12 -7 0 -25 -14 -40 -30 -15 -17 -22 -24 -17 -16 6 8 -13 -3
-41 -25 -28 -21 -49 -43 -46 -48 3 -5 0 -6 -6 -2 -7 4 -24 -5 -39 -21 -14 -15
-23 -21 -19 -13 4 8 0 6 -8 -4 -9 -11 -16 -16 -16 -10 0 5 -7 0 -15 -10 -8
-11 -15 -17 -15 -13 0 4 -18 -2 -40 -13 -22 -11 -40 -25 -40 -31 0 -6 -4 -7
-10 -4 -5 3 -10 1 -10 -5 0 -6 -4 -9 -9 -5 -12 7 -61 -15 -61 -27 0 -5 -4 -6
-10 -3 -5 3 -10 1 -10 -6 0 -7 -3 -10 -6 -7 -8 9 -94 -22 -94 -34 0 -5 -4 -7
-9 -4 -5 4 -22 1 -38 -6 -15 -6 -34 -10 -40 -9 -7 1 -13 -3 -13 -9 0 -6 -4 -9
-8 -6 -5 3 -33 -2 -63 -10 -30 -8 -67 -17 -84 -19 -16 -3 -43 -6 -60 -9 -16
-2 -88 -8 -160 -11 -201 -11 -384 15 -590 83 -60 20 -114 37 -120 37 -5 0 -12
3 -15 6 -10 12 -168 88 -174 84 -3 -3 -4 -2 -2 1 6 8 -154 114 -172 114 -9 0
-13 3 -9 6 3 3 -15 24 -41 45 -26 22 -67 59 -92 82 -24 23 -38 33 -30 22 14
-19 14 -19 -3 -6 -9 8 -15 16 -12 19 6 7 -67 88 -77 84 -5 -1 -7 1 -6 5 4 15
-23 54 -33 48 -5 -4 -9 -3 -8 2 4 16 -13 43 -24 36 -5 -3 -7 -2 -4 4 6 10 -33
71 -54 84 -6 3 -10 8 -8 10 5 10 -13 49 -22 44 -5 -4 -9 1 -9 10 0 15 -67 155
-79 165 -3 3 -7 12 -8 20 -1 8 -18 60 -37 115 -136 395 -108 837 79 1232 24
50 40 95 37 99 -4 4 -1 4 6 0 6 -4 12 -3 12 2 0 5 22 43 49 85 27 41 46 79 43
83 -4 4 -2 4 4 1 10 -6 25 13 28 35 1 3 5 10 10 15 5 5 6 2 2 -7 -4 -8 1 -4
12 10 11 13 20 29 19 34 -1 6 3 10 10 11 6 0 29 20 49 44 21 24 77 77 125 117
48 39 84 75 81 79 -4 4 -2 6 3 4 15 -3 46 12 40 20 -2 4 1 8 8 8 7 0 37 16 67
35 228 146 531 240 810 251 91 3 277 -9 347 -23z m-2127 -3970 c26 -37 29
-104 5 -149 -35 -69 -131 -92 -205 -50 -61 34 -83 134 -43 195 7 11 11 24 8
27 -3 4 -2 5 2 2 3 -3 14 2 24 11 9 8 39 19 66 23 58 9 110 -12 143 -59z
m3898 30 c11 -10 23 -17 26 -14 3 2 4 1 2 -2 -2 -3 2 -22 11 -41 9 -23 12 -49
8 -74 -4 -21 -6 -40 -4 -41 1 -2 -13 -19 -32 -38 -33 -35 -36 -36 -104 -33
-86 2 -96 4 -89 15 3 4 -2 11 -10 14 -8 3 -18 14 -21 25 -4 11 -10 17 -15 14
-4 -3 -7 25 -5 62 4 83 6 94 17 87 4 -3 8 -1 8 4 0 17 53 46 95 52 46 7 84 -3
113 -30z m32 -204 c0 -2 -8 -10 -17 -17 -16 -13 -17 -12 -4 4 13 16 21 21 21
13z m250 -290 c0 -2 -8 -10 -17 -17 -16 -13 -17 -12 -4 4 13 16 21 21 21 13z"/>
<path d="M3784 2118 l-19 -23 23 19 c12 11 22 21 22 23 0 8 -8 2 -26 -19z"/>
</g>
</svg>
