<?xml version="1.0" standalone="no"?>
<!DOCTYPE svg PUBLIC "-//W3C//DTD SVG 20010904//EN"
 "http://www.w3.org/TR/2001/REC-SVG-20010904/DTD/svg10.dtd">
<svg version="1.0" xmlns="http://www.w3.org/2000/svg"
 width="846.000000pt" height="492.000000pt" viewBox="0 0 846.000000 492.000000"
 preserveAspectRatio="xMidYMid meet">

<g transform="translate(0.000000,492.000000) scale(0.100000,-0.100000)"
fill="#000000" stroke="none">
<path d="M10 2570 c0 -1640 3 -2340 11 -2340 5 0 7 -5 4 -10 -3 -6 -1 -10 5
-10 6 0 9 -4 6 -9 -3 -4 3 -16 14 -26 11 -10 20 -14 20 -9 0 5 4 3 8 -4 5 -7
19 -15 33 -18 29 -7 62 -12 204 -29 28 -4 65 -8 82 -11 82 -11 101 -13 143
-19 25 -3 61 -8 80 -11 19 -2 53 -6 75 -9 60 -6 135 -15 180 -21 347 -42 610
-45 3525 -41 1521 2 2792 6 2825 10 33 3 98 9 145 12 47 3 105 8 130 11 63 6
139 15 175 19 17 2 55 7 85 10 30 4 69 8 85 10 74 10 112 15 145 20 19 3 55 8
80 11 25 3 59 7 75 9 17 2 53 6 80 10 123 15 149 21 153 35 2 6 7 8 11 5 13
-7 49 38 57 70 3 17 7 1075 8 2353 l1 2322 -1510 -2 -1510 -3 -5 -190 -5 -190
-1197 -3 -1198 -2 0 195 0 195 -1510 0 -1510 0 0 -2340z m986 1375 c37 -49 44
-120 16 -174 -11 -21 -18 -42 -14 -46 4 -4 2 -5 -3 -4 -6 2 -23 -5 -40 -16
-21 -15 -44 -20 -85 -18 -74 2 -99 6 -94 15 3 4 -5 12 -17 18 -26 14 -58 84
-59 128 0 38 32 106 57 121 10 6 62 11 115 11 l97 0 27 -35z m6728 4 c33 -39
40 -68 32 -127 -4 -26 -7 -52 -8 -59 -1 -7 -8 -15 -15 -17 -8 -3 -11 -11 -8
-16 4 -6 3 -9 -2 -8 -4 1 -21 -6 -36 -16 -16 -11 -50 -21 -77 -24 -92 -9 -180
70 -180 163 0 39 33 110 57 124 10 6 61 11 115 11 95 0 96 0 122 -31z m-2303
-143 c11 -13 19 -34 19 -45 0 -20 5 -21 117 -21 l117 0 229 -227 c127 -126
226 -221 222 -213 -4 8 2 5 13 -7 12 -12 38 -27 59 -32 23 -7 261 -11 637 -11
l600 0 23 -22 23 -22 0 -612 -1 -612 -33 -16 c-26 -12 -66 -16 -170 -16 -89 0
-136 -4 -136 -11 0 -5 -4 -8 -8 -5 -5 3 -22 -13 -38 -34 -16 -22 -32 -40 -35
-40 -4 0 -7 -42 -8 -92 -1 -115 6 -126 80 -130 l54 -3 3 -309 c1 -170 -1 -313
-6 -318 -4 -4 -149 -8 -322 -8 l-315 -1 -3 293 c-1 161 0 307 3 323 5 29 6 30
58 27 78 -5 90 9 84 107 -6 115 -9 123 -90 188 -19 15 -367 17 -367 2 0 -6 -4
-7 -10 -4 -5 3 -10 1 -10 -6 0 -7 -3 -9 -7 -6 -3 4 -12 -1 -20 -11 -8 -9 -12
-12 -9 -6 2 5 -104 -100 -238 -234 l-242 -244 -124 -1 -125 -2 -5 -248 c-5
-231 -6 -250 -24 -263 -17 -12 -150 -14 -858 -14 l-838 0 0 -40 0 -40 -435 0
-435 0 0 40 0 40 -843 0 c-807 0 -845 1 -861 18 -15 17 -16 127 -16 1442 0
1098 3 1426 12 1438 7 8 21 18 33 23 11 4 967 8 2124 8 l2103 1 19 -24z
m-4481 -2776 c100 -51 121 -195 39 -265 -27 -22 -39 -25 -113 -25 -94 0 -116
10 -146 70 -26 51 -25 95 3 150 40 80 137 111 217 70z m6727 3 c52 -24 93 -86
93 -140 0 -56 -20 -104 -55 -131 -23 -19 -41 -22 -109 -22 -59 0 -88 4 -105
16 -28 20 -61 88 -61 129 0 38 34 113 55 121 8 3 12 11 8 18 -3 6 -3 8 1 4 4
-3 22 0 39 7 43 19 92 18 134 -2z"/>
</g>
</svg>
