<?xml version="1.0" standalone="no"?>
<!DOCTYPE svg PUBLIC "-//W3C//DTD SVG 20010904//EN"
 "http://www.w3.org/TR/2001/REC-SVG-20010904/DTD/svg10.dtd">
<svg version="1.0" xmlns="http://www.w3.org/2000/svg"
 width="782.000000pt" height="602.000000pt" viewBox="0 0 782.000000 602.000000"
 preserveAspectRatio="xMidYMid meet">

<g transform="translate(0.000000,602.000000) scale(0.100000,-0.100000)"
fill="#000000" stroke="none">
<path d="M535 6011 c-11 -4 -30 -11 -42 -16 -13 -4 -23 -11 -23 -16 0 -5 -5
-9 -11 -9 -25 0 -102 -65 -116 -98 -13 -30 -13 -42 -2 -75 10 -30 10 -43 1
-58 -7 -10 -12 -35 -12 -54 0 -19 -4 -43 -9 -53 -5 -9 -17 -36 -26 -59 -17
-42 -104 -143 -123 -143 -6 0 -12 -3 -14 -7 -1 -5 -25 -19 -53 -33 -86 -43
-95 -61 -95 -194 0 -123 8 -138 100 -187 32 -17 80 -52 105 -77 45 -44 95
-126 95 -157 0 -8 5 -15 10 -15 6 0 10 -14 10 -32 0 -17 5 -47 12 -65 10 -27
10 -38 0 -53 -16 -27 -15 -55 4 -93 19 -36 38 -57 53 -57 6 0 11 -4 11 -10 0
-5 6 -10 14 -10 8 0 16 -3 18 -7 2 -5 25 -19 52 -33 66 -33 110 -32 166 6 67
46 155 74 234 74 108 0 179 -21 266 -80 25 -16 55 -30 67 -30 30 0 153 65 200
106 l38 33 2 96 c4 157 27 219 116 312 32 33 85 75 118 93 86 45 94 63 94 190
-1 126 -11 147 -91 186 -103 50 -183 141 -219 249 -11 33 -17 81 -16 145 l0
94 -42 41 c-53 50 -155 105 -196 105 -20 0 -58 -16 -99 -40 -36 -22 -82 -45
-102 -50 -64 -19 -155 -23 -211 -10 -58 14 -142 49 -147 62 -2 4 -10 8 -17 8
-7 0 -15 5 -17 11 -4 13 -77 20 -103 10z m480 -601 c46 -26 85 -65 85 -85 0
-8 5 -15 10 -15 6 0 10 -9 10 -20 0 -11 5 -20 10 -20 6 0 10 -30 10 -69 0 -39
-4 -73 -10 -76 -5 -3 -10 -15 -10 -26 0 -10 -4 -19 -9 -19 -5 0 -14 -13 -21
-30 -7 -16 -19 -30 -26 -30 -8 0 -14 -4 -14 -10 0 -5 -7 -10 -15 -10 -8 0 -15
-4 -15 -10 0 -5 -9 -10 -20 -10 -11 0 -20 -4 -20 -10 0 -6 -33 -10 -80 -10
-47 0 -80 4 -80 10 0 6 -6 10 -14 10 -20 0 -103 77 -120 112 -10 19 -16 58
-16 104 0 85 24 139 79 182 60 45 73 50 153 51 60 1 85 -3 113 -19z"/>
<path d="M6932 6000 c-131 -5 -132 -5 -157 -34 -14 -16 -26 -36 -27 -45 -1 -9
-2 -542 -3 -1186 -1 -643 -5 -1184 -8 -1202 -21 -101 -123 -225 -194 -237 -94
-15 -110 -17 -136 -17 -35 0 -127 30 -145 48 -7 7 -24 16 -38 19 -13 3 -24 10
-24 14 0 4 -15 13 -32 21 -18 7 -35 15 -38 18 -3 3 -15 12 -27 19 -13 6 -33
18 -45 25 -13 6 -25 14 -28 17 -3 3 -18 12 -35 20 -16 8 -48 26 -70 39 -22 13
-69 40 -105 59 -36 19 -67 37 -70 41 -3 4 -21 15 -40 24 -19 10 -53 28 -75 42
-22 13 -53 31 -70 40 -16 9 -42 22 -57 31 -23 13 -94 15 -470 14 -244 -1 -452
-1 -463 -1 -72 1 -333 0 -583 -2 l-294 -2 -34 -50 c-18 -27 -34 -53 -34 -58 0
-4 -16 -30 -35 -57 -19 -27 -35 -52 -35 -55 0 -3 -5 -11 -11 -18 -5 -7 -39
-59 -74 -117 -99 -162 -146 -237 -200 -319 -28 -42 -57 -89 -65 -106 -8 -16
-17 -32 -20 -35 -13 -13 -49 -70 -76 -120 -16 -30 -31 -57 -34 -60 -7 -6 -39
-58 -67 -110 -32 -58 -35 -85 -34 -335 1 -184 4 -242 14 -250 7 -5 51 -75 97
-154 46 -79 89 -148 95 -155 6 -6 49 -76 95 -156 47 -80 95 -155 107 -166 13
-12 23 -25 23 -28 0 -12 150 -269 170 -291 10 -11 55 -85 101 -165 46 -80 89
-149 95 -155 7 -5 45 -66 85 -135 40 -69 77 -130 83 -135 13 -12 11 -10 123
-203 48 -84 95 -155 105 -157 9 -3 19 -17 22 -30 4 -14 10 -25 15 -25 4 0 19
-10 33 -23 14 -13 47 -34 74 -48 l49 -24 1045 0 c575 0 1061 3 1080 6 66 11
103 31 425 217 300 174 468 274 515 308 179 127 273 259 338 474 l26 85 3 660
c2 363 3 725 3 805 -1 80 -3 864 -5 1742 -4 1793 3 1645 -80 1668 -48 13 -529
20 -783 10z m-94 -4273 c57 -28 93 -99 88 -174 -5 -61 -28 -96 -88 -130 -66
-38 -107 -40 -173 -8 -76 38 -98 74 -96 163 2 67 64 145 135 167 47 14 74 11
134 -18z m-1293 -281 c137 -104 55 -328 -117 -323 -21 0 -38 4 -38 9 0 4 -7 5
-15 2 -8 -4 -15 -1 -15 5 0 6 -5 11 -12 11 -20 0 -67 62 -78 102 -14 50 -6
129 14 143 9 7 16 17 16 23 0 6 19 22 43 35 59 35 151 32 202 -7z"/>
<path d="M2893 5975 l-23 -24 0 -486 c0 -412 2 -491 15 -522 10 -23 95 -117
227 -250 199 -200 267 -261 307 -272 28 -8 1463 -16 1468 -8 2 4 15 7 29 7 58
0 101 34 316 247 120 119 218 221 218 225 0 5 8 18 19 29 10 11 21 37 25 57 3
20 6 246 6 500 0 453 0 465 -21 493 l-20 29 -1272 -1 -1272 0 -22 -24z m1381
-619 c119 -70 114 -250 -8 -311 -38 -20 -125 -19 -164 0 -72 36 -112 122 -91
197 32 119 160 174 263 114z"/>
<path d="M1558 3394 c-52 -28 -90 -89 -219 -346 -115 -230 -158 -309 -194
-356 -29 -38 -137 -142 -164 -158 -17 -10 -31 -22 -31 -26 0 -4 -6 -8 -14 -8
-8 0 -16 -3 -18 -8 -4 -10 -125 -68 -173 -83 -22 -6 -47 -14 -55 -17 -8 -3
-22 -7 -30 -9 -8 -2 -124 -8 -258 -12 -166 -5 -246 -11 -254 -19 -7 -7 -19
-12 -28 -12 -28 0 -90 -74 -106 -125 -19 -66 -20 -861 0 -916 17 -49 60 -103
93 -118 16 -8 36 -17 45 -22 10 -5 97 -9 193 -9 183 0 281 -10 375 -36 66 -19
197 -81 224 -106 11 -10 24 -18 29 -18 19 0 182 -177 218 -236 20 -32 95 -177
168 -321 101 -203 139 -268 165 -288 18 -14 40 -25 49 -25 9 0 19 -5 22 -10 4
-6 86 -10 212 -10 198 0 206 1 224 22 18 20 19 74 19 1633 0 1559 -1 1613 -19
1633 -18 21 -25 22 -232 21 -163 -1 -220 -4 -241 -15z m-70 -1366 c-7 -12 -17
-27 -21 -32 -4 -6 -40 -60 -78 -119 -39 -60 -76 -110 -83 -113 -7 -3 -38 -4
-69 -2 l-55 3 84 129 c47 72 90 136 96 143 6 8 34 13 74 13 63 0 64 0 52 -22z
m259 7 c-3 -8 -47 -75 -97 -149 -49 -75 -90 -140 -90 -146 0 -5 -4 -10 -10
-10 -5 0 -10 -6 -10 -13 0 -7 -8 -22 -17 -33 -10 -10 -24 -31 -32 -46 -8 -16
-18 -28 -23 -28 -4 0 -8 -6 -8 -13 0 -7 -9 -23 -20 -35 -11 -12 -20 -25 -20
-29 0 -4 -11 -20 -24 -35 -20 -24 -31 -28 -78 -28 -30 0 -57 3 -61 6 -6 6 46
88 254 401 l114 173 64 0 c51 0 62 -3 58 -15z m-1384 -294 c10 -9 20 -34 24
-55 5 -31 2 -41 -22 -67 -31 -32 -51 -35 -101 -17 -53 19 -68 71 -35 125 28
46 95 53 134 14z m685 -7 c49 -55 10 -143 -64 -144 -63 0 -101 68 -75 134 19
49 99 56 139 10z m760 -4 c-7 -11 -16 -20 -20 -20 -5 0 -8 -6 -8 -13 0 -7 -8
-22 -17 -33 -10 -10 -24 -31 -32 -46 -8 -16 -18 -28 -23 -28 -4 0 -8 -5 -8
-12 0 -6 -14 -33 -31 -60 l-31 -48 -64 0 c-64 0 -75 7 -51 32 8 7 16 18 18 24
2 6 36 59 74 118 l70 106 68 0 c65 0 67 -1 55 -20z"/>
</g>
</svg>
