<?xml version="1.0" standalone="no"?>
<!DOCTYPE svg PUBLIC "-//W3C//DTD SVG 20010904//EN"
 "http://www.w3.org/TR/2001/REC-SVG-20010904/DTD/svg10.dtd">
<svg version="1.0" xmlns="http://www.w3.org/2000/svg"
 width="1047.000000pt" height="383.000000pt" viewBox="0 0 1047.000000 383.000000"
 preserveAspectRatio="xMidYMid meet">

<g transform="translate(0.000000,383.000000) scale(0.100000,-0.100000)"
fill="#000000" stroke="none">
<path d="M883 3450 c-1 -279 -4 -374 -13 -385 -7 -8 -10 -15 -6 -15 9 0 -19
-50 -46 -81 -21 -24 -165 -123 -178 -122 -3 1 -18 -9 -35 -21 -32 -23 -39 -27
-130 -75 -33 -18 -68 -40 -77 -48 -10 -9 -18 -12 -18 -8 0 4 -8 1 -17 -8 -10
-8 -43 -29 -73 -45 -91 -48 -134 -73 -151 -88 -9 -8 -18 -12 -21 -9 -11 11
-78 -68 -88 -103 -5 -22 -10 -242 -11 -527 -1 -444 1 -494 16 -530 17 -39 52
-60 1159 -700 l1141 -660 2260 -1 c1243 -1 2265 -3 2270 -4 6 -1 12 -1 15 0 3
1 799 3 1770 5 971 1 1777 3 1793 4 l27 1 0 110 0 109 -252 0 c-139 1 -266 2
-283 4 -45 6 -114 50 -151 97 -46 58 -57 118 -52 295 3 145 5 152 33 202 17
29 36 53 43 53 7 0 15 7 18 15 4 8 12 15 20 15 7 0 17 6 21 13 4 7 23 19 41
26 17 8 32 17 32 21 0 7 29 20 53 24 4 0 11 6 15 12 4 6 22 17 40 25 17 8 32
17 32 21 0 5 7 8 15 8 8 0 15 5 15 11 0 6 6 9 14 6 8 -3 17 1 20 9 3 8 12 14
21 14 8 0 15 4 15 9 0 5 13 12 30 16 16 4 34 14 39 23 5 9 13 14 16 10 4 -4
13 -2 21 5 29 26 40 33 74 46 19 8 39 18 44 23 6 4 23 8 38 8 l28 0 0 665 0
665 -21 0 c-12 0 -166 83 -342 185 l-321 185 -25 52 c-28 59 -30 72 -30 203 0
6 -1 41 -3 78 -2 38 0 71 5 74 4 3 6 12 3 20 -8 19 61 143 79 143 7 0 15 7 19
15 3 8 12 15 21 15 8 0 15 4 15 9 0 22 129 45 163 29 9 -5 17 -5 17 -1 0 4 94
8 210 7 l210 -1 0 108 0 109 -4793 0 -4794 0 0 -370z m1013 147 c3 -3 17 -2
32 2 15 4 42 4 60 0 17 -4 35 -3 38 2 3 5 9 7 13 5 11 -7 256 -10 267 -3 6 3
15 2 22 -2 7 -4 28 -6 47 -5 26 2 53 -7 105 -37 38 -23 70 -47 70 -55 0 -8 4
-14 10 -14 5 0 19 -21 31 -47 19 -40 22 -67 23 -168 1 -154 -8 -224 -36 -271
-33 -55 -47 -68 -149 -126 -50 -29 -106 -62 -124 -73 -19 -11 -58 -33 -87 -49
-29 -15 -60 -34 -68 -40 -8 -7 -26 -18 -40 -24 -14 -7 -43 -23 -65 -37 -91
-54 -108 -60 -190 -59 l-80 0 -280 163 c-154 89 -293 174 -308 189 -44 42 -69
89 -72 137 -2 24 -5 47 -7 52 -3 4 -4 62 -3 128 1 91 5 128 18 152 9 18 17 37
17 43 0 5 8 18 18 28 9 11 25 28 34 38 54 62 80 68 308 74 225 6 389 4 396 -3z
m1357 3 c89 1 171 2 182 1 11 0 49 0 85 0 36 0 70 0 75 0 56 -2 122 -2 130 -1
6 1 14 2 19 1 12 -2 129 -3 141 -1 30 5 224 -2 256 -9 73 -17 126 -56 163
-124 l34 -62 0 -165 -1 -165 -40 -72 c-23 -40 -45 -73 -51 -73 -5 0 -24 -11
-42 -25 -18 -14 -37 -25 -42 -25 -5 0 -15 -7 -22 -15 -7 -8 -19 -15 -27 -15
-8 0 -41 -18 -73 -40 -32 -22 -66 -40 -74 -40 -9 0 -16 -4 -16 -10 0 -5 -5
-10 -12 -10 -6 0 -26 -11 -43 -24 -18 -14 -44 -28 -58 -31 -14 -4 -28 -13 -31
-21 -3 -8 -10 -14 -17 -14 -6 0 -23 -8 -37 -19 -42 -29 -122 -53 -175 -53 -42
1 -78 19 -363 183 -402 233 -385 211 -384 484 1 55 1 109 1 120 0 21 79 165
90 165 4 0 14 6 21 13 16 16 130 56 141 50 4 -3 81 -4 170 -3z m1746 -1 c80 2
174 1 204 0 6 0 23 0 37 1 22 1 112 2 158 1 9 -1 51 -1 92 -1 75 0 125 0 158
0 9 0 52 0 95 1 110 1 144 -7 207 -49 56 -38 94 -96 105 -158 8 -51 10 -268 2
-281 -4 -6 -3 -14 2 -18 12 -7 -81 -168 -101 -174 -7 -2 -15 -7 -18 -11 -3 -3
-25 -16 -50 -28 -25 -13 -63 -34 -85 -47 -22 -13 -51 -30 -65 -37 -14 -7 -40
-23 -57 -36 -18 -14 -33 -21 -33 -18 0 4 -15 -3 -32 -16 -18 -13 -51 -32 -73
-44 -22 -11 -62 -33 -89 -49 -68 -38 -132 -54 -176 -42 -19 5 -45 10 -58 11
-33 4 -572 317 -572 333 0 7 -10 18 -22 24 -14 6 -33 33 -47 65 -22 50 -24 68
-23 200 1 167 5 194 39 247 56 89 126 125 238 125 26 0 49 3 52 6 3 3 10 3 15
0 6 -4 49 -6 97 -5z m2601 -9 c19 -7 47 -17 63 -23 15 -5 27 -16 27 -23 0 -8
11 -20 25 -26 14 -6 25 -16 25 -21 0 -6 6 -18 13 -26 25 -30 37 -115 34 -252
l-2 -135 -48 -82 c-26 -45 -52 -82 -58 -82 -6 0 -30 -13 -54 -30 -24 -16 -46
-30 -49 -30 -3 0 -34 -18 -68 -40 -35 -22 -68 -40 -74 -40 -7 0 -15 -7 -18
-16 -4 -9 -9 -14 -12 -11 -3 3 -27 -8 -54 -24 -26 -16 -50 -29 -54 -29 -4 0
-26 -13 -49 -28 -23 -15 -55 -34 -72 -42 -16 -8 -36 -21 -43 -27 -13 -13 -62
-18 -132 -14 -24 2 -123 53 -340 178 -387 224 -382 218 -379 485 0 78 5 149 9
157 5 9 14 31 21 49 13 37 74 102 95 102 8 0 14 4 14 9 0 31 103 36 660 35
359 -2 494 -5 520 -14z m1782 -30 c58 -34 79 -53 89 -77 7 -18 16 -33 20 -33
4 0 10 -12 14 -27 8 -34 8 -303 -1 -358 -6 -41 -53 -113 -89 -136 -16 -10
-235 -137 -435 -252 -96 -55 -118 -66 -159 -77 -104 -27 -105 -27 -441 167
-185 106 -308 183 -305 190 2 7 -4 15 -14 18 -11 3 -21 16 -25 28 -3 12 -6 23
-6 24 0 2 -7 20 -14 40 -9 26 -12 83 -11 178 3 197 18 233 131 324 14 11 106
30 159 34 22 1 258 2 525 2 l485 0 77 -45z m-8004 -994 c171 -99 312 -186 312
-193 0 -6 6 -16 14 -20 7 -4 21 -32 31 -61 15 -47 17 -94 16 -379 -1 -180 -5
-331 -10 -337 -4 -6 -11 -23 -15 -38 -11 -48 -70 -104 -161 -153 -29 -16 -152
-87 -183 -106 -25 -15 -57 -33 -123 -71 -13 -7 -34 -22 -46 -32 -13 -11 -23
-16 -23 -12 0 5 -16 -4 -36 -19 -59 -45 -118 -56 -229 -42 -37 5 -586 320
-599 345 -5 9 -16 21 -24 26 -12 7 -36 52 -51 96 -2 8 -5 167 -7 352 -2 330
-1 338 21 386 24 52 65 102 84 102 6 0 14 7 17 15 4 8 12 15 19 15 8 0 20 6
27 13 7 7 38 26 68 43 30 16 71 39 90 52 19 13 51 31 70 40 19 9 41 22 48 29
7 7 24 16 38 19 13 3 24 10 24 15 0 5 4 9 9 9 5 0 32 14 60 31 62 39 164 68
211 61 20 -3 170 -83 348 -186z m1437 169 c56 -24 501 -281 551 -319 23 -17
50 -44 60 -61 46 -76 46 -75 46 -416 0 -332 -3 -375 -30 -419 -41 -64 -73 -94
-147 -135 -53 -30 -71 -41 -87 -54 -10 -8 -18 -11 -18 -6 0 4 -15 -3 -32 -17
-18 -13 -44 -29 -58 -36 -14 -7 -43 -23 -65 -37 -22 -14 -47 -28 -55 -32 -8
-3 -23 -13 -32 -21 -10 -8 -18 -12 -18 -7 0 4 -15 -3 -32 -17 -70 -51 -141
-68 -233 -55 -40 6 -619 341 -623 361 -2 9 -8 16 -13 16 -12 0 -47 71 -54 111
-5 28 -6 208 -4 653 0 37 69 144 112 175 23 17 47 34 52 38 6 5 35 21 65 37
30 16 66 37 79 47 13 11 30 19 37 19 8 0 14 4 14 8 0 4 16 14 35 21 19 7 35
16 35 21 0 5 6 7 14 4 7 -3 16 2 19 10 4 9 13 16 22 16 8 0 15 5 15 10 0 6 6
10 14 10 7 0 24 8 37 19 13 10 30 16 37 14 6 -3 12 0 12 6 0 6 5 11 12 11 6 0
19 6 27 14 42 36 135 41 206 11z m2004 -158 c152 -87 290 -173 306 -191 70
-73 76 -110 74 -483 l-1 -318 -41 -73 c-23 -41 -52 -78 -67 -86 -37 -18 -74
-40 -80 -47 -3 -3 -25 -15 -50 -27 -47 -23 -82 -43 -90 -53 -3 -3 -19 -11 -37
-18 -17 -7 -47 -24 -65 -38 -18 -13 -46 -31 -63 -39 -16 -7 -48 -25 -70 -39
-87 -55 -159 -74 -233 -63 -41 7 -108 40 -315 159 -144 84 -277 163 -295 176
-35 27 -84 96 -89 128 -2 11 -5 174 -6 362 l-3 343 35 61 c24 44 47 70 80 90
25 16 51 32 57 36 14 11 52 33 94 55 19 10 49 27 65 38 17 11 46 26 65 35 19
9 37 19 40 23 3 4 16 13 30 20 14 7 43 23 65 36 137 81 181 95 258 82 50 -8
103 -34 336 -169z m1431 167 c19 -4 152 -74 295 -157 396 -228 377 -196 380
-653 l1 -334 -45 -80 c-24 -44 -51 -80 -58 -80 -8 0 -16 -6 -19 -13 -3 -8 -20
-20 -39 -27 -19 -8 -35 -17 -35 -21 0 -4 -6 -9 -12 -11 -7 -2 -62 -32 -121
-68 -60 -36 -125 -75 -145 -87 -20 -12 -48 -27 -62 -33 -14 -6 -45 -23 -70
-38 -60 -36 -106 -49 -162 -47 -39 2 -88 27 -362 185 -176 101 -316 188 -316
196 0 8 -4 14 -10 14 -5 0 -19 21 -32 48 -21 46 -22 57 -21 389 l0 342 27 51
c14 28 36 60 47 71 25 25 103 75 142 90 15 6 27 15 27 19 0 4 12 13 28 19 15
6 45 22 67 36 22 13 49 29 60 34 11 6 38 22 60 36 22 14 54 32 70 41 17 8 62
32 100 53 74 39 107 43 205 25z m1685 3 c31 -3 115 -47 330 -171 160 -92 298
-175 307 -183 10 -9 30 -37 45 -62 l28 -46 1 -345 c1 -263 -2 -349 -11 -363
-7 -10 -11 -27 -8 -37 9 -34 -75 -104 -242 -200 -88 -51 -168 -99 -177 -108
-10 -8 -18 -12 -18 -9 0 4 -29 -11 -65 -33 -36 -22 -70 -40 -75 -40 -6 0 -13
-6 -16 -14 -6 -16 -44 -28 -119 -37 -11 -2 -45 1 -75 5 -45 7 -104 37 -332
169 -153 88 -278 165 -278 171 0 6 -9 17 -20 24 -11 7 -20 19 -20 27 0 8 -4
15 -10 15 -5 0 -16 24 -24 53 -20 69 -18 709 2 729 6 6 12 20 12 29 0 35 80
100 235 189 87 51 166 95 174 98 9 3 35 19 57 34 23 15 46 28 52 28 5 0 15 7
22 15 7 8 16 12 21 9 5 -3 9 -1 9 4 0 17 110 61 140 55 8 -1 33 -4 55 -6z
m1760 -2 c17 -4 41 -16 54 -27 14 -10 45 -28 70 -39 25 -11 48 -23 51 -27 3
-4 23 -16 45 -28 61 -31 87 -47 108 -66 11 -9 33 -22 51 -29 17 -7 35 -19 39
-26 4 -7 17 -13 27 -13 11 0 20 -4 20 -10 0 -5 7 -10 15 -10 27 0 135 -76 135
-96 0 -6 7 -14 15 -18 15 -5 32 -40 41 -81 10 -48 12 -105 3 -111 -5 -3 -6
-10 -2 -16 9 -16 10 -539 1 -544 -5 -3 -8 -17 -8 -32 0 -31 -31 -86 -67 -119
-26 -25 -140 -94 -308 -188 -27 -15 -61 -35 -75 -44 -14 -9 -38 -23 -55 -31
-16 -8 -32 -17 -35 -20 -3 -3 -34 -21 -70 -39 -56 -29 -75 -34 -132 -33 l-68
0 -282 163 c-156 89 -297 172 -313 184 -17 13 -43 45 -58 72 -24 44 -27 63
-30 162 -2 61 0 114 5 117 4 3 5 11 1 17 -9 15 -11 137 -2 143 4 2 4 17 1 32
-9 32 -7 115 2 130 3 6 2 22 -4 37 -6 15 -8 30 -6 33 2 4 5 27 7 52 5 68 84
188 125 190 7 0 15 7 18 16 4 9 9 14 12 11 4 -3 21 4 38 17 17 13 42 27 56 31
14 4 39 18 57 31 17 13 43 28 57 34 14 5 26 14 26 19 0 6 7 8 15 5 8 -4 15 -1
15 5 0 6 7 11 15 11 9 0 18 6 21 14 3 8 19 18 35 21 16 4 33 14 39 23 5 9 10
13 10 9 0 -4 15 3 33 16 33 26 85 45 140 54 18 3 34 6 35 8 5 4 39 0 77 -10z
m-4290 -1504 c58 -24 521 -295 566 -333 29 -24 54 -56 67 -87 21 -49 23 -60
22 -181 -1 -73 -1 -78 0 -139 0 -24 -6 -54 -15 -68 -9 -13 -15 -34 -13 -46 2
-15 -2 -21 -13 -19 -9 1 -22 -12 -32 -33 -13 -27 -31 -41 -73 -61 l-56 -26
-547 -1 -546 -1 -78 46 c-70 40 -82 51 -105 99 -24 51 -26 62 -26 209 0 167
10 222 47 262 13 14 21 30 19 36 -2 7 3 12 12 12 8 0 19 6 23 13 4 6 38 28 76
46 37 19 67 39 67 43 0 4 5 8 11 8 7 0 68 33 138 72 69 40 129 72 134 70 4 -1
7 2 7 7 0 4 30 23 68 42 37 19 68 37 70 41 2 5 15 5 28 2 13 -3 24 -2 24 3 0
11 83 1 125 -16z m3410 13 c13 -9 29 -13 34 -9 13 7 571 -314 571 -329 0 -6 9
-17 20 -24 11 -7 20 -19 20 -27 0 -8 3 -15 8 -15 11 0 44 -81 38 -96 -3 -7 -1
-16 5 -19 5 -4 6 -12 2 -18 -4 -6 -6 -63 -5 -125 2 -141 -14 -206 -65 -257
-19 -19 -40 -35 -45 -35 -6 0 -16 -7 -22 -15 -6 -8 -25 -17 -43 -20 -18 -3
-43 -9 -56 -14 -13 -5 -30 -6 -37 -1 -7 5 -23 5 -34 1 -12 -4 -46 -5 -76 -3
-30 1 -59 3 -65 3 -210 -5 -829 -2 -853 3 -51 12 -119 54 -150 94 -51 67 -57
93 -56 272 l0 165 34 58 c19 31 38 57 43 57 4 0 18 11 30 24 13 14 42 32 65
41 23 10 42 21 42 26 0 5 6 9 14 9 8 0 21 6 28 13 7 6 39 26 71 42 31 17 57
33 57 37 0 3 16 12 35 18 19 6 35 15 35 19 0 4 16 13 35 20 19 7 35 16 35 20
0 4 16 13 35 20 19 7 35 16 35 20 0 8 113 46 160 54 14 2 26 5 28 6 1 0 14 -6
27 -15z m-6883 -12 c8 -6 23 -10 33 -10 26 2 535 -292 535 -309 0 -7 14 -19
30 -28 17 -9 30 -22 30 -30 0 -8 4 -15 9 -15 5 0 16 -18 25 -40 12 -30 16 -74
16 -169 0 -70 -3 -131 -7 -135 -4 -3 -8 -14 -9 -23 -2 -8 -18 -38 -36 -65 -43
-64 -114 -100 -199 -102 -33 -1 -63 2 -66 7 -3 5 -12 6 -20 3 -15 -6 -695 379
-702 398 -2 5 -17 22 -33 36 -46 42 -87 197 -57 215 6 4 8 14 4 23 -7 19 35
102 52 102 7 0 18 9 25 20 7 11 19 20 26 20 7 0 15 6 18 14 3 8 12 12 20 9 8
-3 14 0 14 6 0 6 6 11 14 11 8 0 16 4 18 8 3 9 91 53 123 63 32 9 122 4 137
-9z m2024 -164 c174 -101 319 -190 322 -198 3 -8 12 -21 19 -28 28 -29 41
-109 41 -253 l-1 -144 -45 -77 c-24 -43 -50 -78 -57 -78 -7 0 -16 -7 -19 -16
-4 -9 -9 -14 -13 -11 -3 4 -12 2 -20 -4 -7 -6 -13 -9 -13 -5 0 3 -12 1 -27 -5
-22 -8 -806 -14 -1107 -8 -30 0 -123 58 -148 92 -51 68 -61 103 -62 229 -1 66
1 121 4 123 3 2 5 21 4 42 -1 27 9 57 34 103 19 36 39 67 44 68 5 2 14 9 21
16 6 7 27 19 45 27 17 7 32 17 32 20 0 4 8 10 18 13 9 4 35 18 57 31 22 14 55
32 73 40 17 8 32 19 32 24 0 5 14 12 31 16 17 4 33 13 36 20 2 8 18 17 35 20
16 4 32 13 35 20 2 8 18 17 34 20 16 4 29 10 29 14 0 4 16 13 35 21 19 8 35
17 35 21 0 11 70 27 127 28 51 1 65 -6 369 -181z m3454 5 c161 -92 295 -175
298 -183 3 -8 11 -19 19 -23 7 -4 22 -27 34 -50 18 -37 21 -63 24 -202 2 -124
-1 -164 -11 -181 -8 -12 -12 -28 -9 -36 8 -21 -84 -114 -138 -138 -46 -21 -62
-21 -565 -21 -284 1 -533 3 -552 6 -19 3 -44 7 -55 9 -33 5 -85 36 -85 51 0 7
-9 17 -20 20 -11 3 -20 11 -20 17 0 6 -6 19 -13 27 -27 32 -37 100 -37 244 0
120 3 153 19 189 34 79 82 120 221 190 25 13 53 30 62 38 9 8 39 26 65 40 26
13 71 39 99 57 29 18 54 29 58 26 3 -4 6 -2 6 4 0 6 8 14 18 17 9 4 46 22 82
40 59 30 72 33 137 30 l72 -3 291 -168z"/>
</g>
</svg>
