<?xml version="1.0" standalone="no"?>
<!DOCTYPE svg PUBLIC "-//W3C//DTD SVG 20010904//EN"
 "http://www.w3.org/TR/2001/REC-SVG-20010904/DTD/svg10.dtd">
<svg version="1.0" xmlns="http://www.w3.org/2000/svg"
 width="341.000000pt" height="657.000000pt" viewBox="0 0 341.000000 657.000000"
 preserveAspectRatio="xMidYMid meet">

<g transform="translate(0.000000,657.000000) scale(0.100000,-0.100000)"
fill="#000000" stroke="none">
<path d="M15 4948 c2 -884 6 -1611 9 -1616 3 -5 112 -7 243 -5 l239 4 2 -1333
c1 -733 2 -1478 2 -1656 l0 -322 183 -1 c100 0 207 0 237 0 30 0 116 1 190 1
217 1 185 -16 442 241 151 152 229 238 242 266 17 39 18 76 18 600 -1 307 -1
887 -1 1288 0 402 0 739 0 750 -3 234 6 299 46 336 12 13 23 28 23 35 0 7 14
21 30 31 17 9 30 23 30 30 0 8 11 19 25 25 13 6 27 19 30 28 3 9 16 23 30 30
14 7 27 21 30 30 3 9 17 22 30 28 14 6 25 18 25 25 0 8 11 20 25 27 14 7 25
17 25 21 0 11 139 149 150 149 6 0 10 6 10 14 0 8 14 23 30 33 17 9 30 22 30
27 0 5 219 229 487 497 268 268 490 497 495 509 17 45 18 87 19 516 0 282 -3
455 -10 481 -9 31 -48 77 -207 236 -107 108 -197 197 -198 197 -2 0 -19 15
-39 34 -20 19 -52 37 -74 41 -21 5 -671 9 -1445 9 l-1406 1 3 -1607z m1192
655 c7 -10 20 -27 29 -38 9 -11 34 -49 57 -84 23 -36 60 -92 82 -126 22 -34
54 -83 70 -109 17 -26 44 -67 61 -90 17 -23 44 -64 59 -91 16 -28 38 -61 50
-75 12 -14 36 -50 54 -81 17 -31 38 -63 47 -70 19 -16 57 -89 50 -96 -7 -7
-151 -11 -183 -5 -15 3 -31 18 -44 43 -11 22 -25 39 -32 39 -7 0 -51 65 -97
145 -46 80 -89 145 -96 145 -6 0 -49 65 -95 145 -46 80 -89 145 -95 145 -13 0
-137 208 -130 218 2 4 48 6 102 5 82 -1 100 -4 111 -20z m396 17 c2 -3 39 -67
82 -142 44 -76 85 -138 91 -138 12 0 94 -132 94 -150 0 -11 -24 -17 -74 -19
-22 -1 -43 -4 -48 -7 -4 -3 -8 -1 -8 4 0 4 -18 7 -40 5 -39 -3 -39 -2 -76 63
-21 37 -44 69 -53 71 -20 5 -184 290 -178 307 4 10 33 13 106 12 55 -1 102 -4
104 -6z m-502 -439 c3 -1 36 -55 74 -120 38 -66 76 -121 84 -124 15 -4 116
-171 116 -192 0 -5 -42 -10 -100 -11 -95 -1 -101 1 -120 25 -27 33 -85 130
-85 140 0 5 -6 11 -14 14 -7 3 -27 30 -45 61 -17 31 -47 76 -65 101 -72 93
-61 112 61 109 48 -1 91 -2 94 -3z"/>
</g>
</svg>
