<?xml version="1.0" standalone="no"?>
<!DOCTYPE svg PUBLIC "-//W3C//DTD SVG 20010904//EN"
 "http://www.w3.org/TR/2001/REC-SVG-20010904/DTD/svg10.dtd">
<svg version="1.0" xmlns="http://www.w3.org/2000/svg"
 width="1048.000000pt" height="383.000000pt" viewBox="0 0 1048.000000 383.000000"
 preserveAspectRatio="xMidYMid meet">

<g transform="translate(0.000000,383.000000) scale(0.100000,-0.100000)"
fill="#000000" stroke="none">
<path d="M842 3822 l-842 -2 0 -108 0 -109 268 -1 c147 -1 274 -4 282 -6 8 -2
31 -7 50 -11 47 -11 130 -96 151 -156 13 -34 17 -81 16 -195 0 -135 -2 -154
-24 -204 -13 -30 -31 -61 -41 -70 -35 -32 -89 -67 -142 -94 -30 -16 -62 -34
-70 -40 -8 -7 -27 -18 -42 -26 -16 -7 -28 -17 -28 -22 0 -4 -8 -8 -18 -8 -10
0 -27 -8 -38 -18 -18 -17 -50 -34 -67 -36 -4 -1 -11 -6 -15 -12 -8 -11 -74
-44 -90 -44 -5 0 -13 -7 -16 -16 -4 -9 -9 -14 -13 -11 -3 4 -18 -2 -33 -13
-29 -20 -55 -28 -102 -29 l-28 -1 0 -665 0 -665 28 -1 c15 0 34 -2 43 -4 9 -1
153 -82 321 -179 294 -170 306 -178 330 -223 36 -67 41 -99 40 -259 0 -164
-13 -206 -80 -272 -68 -67 -98 -72 -409 -72 l-274 0 3 -112 3 -113 4050 1
c2228 1 4066 3 4085 6 31 5 107 35 120 48 8 8 62 40 100 58 19 9 37 20 40 23
3 4 37 24 75 44 39 21 86 49 105 61 19 13 40 24 46 24 7 0 14 3 16 7 4 9 48
36 98 61 19 9 37 19 40 22 8 8 62 40 100 58 19 9 37 20 40 23 3 4 26 18 52 32
25 13 79 45 120 69 40 25 136 81 213 125 77 45 286 165 465 268 540 312 584
337 622 359 21 12 38 27 38 34 0 6 4 12 8 12 28 0 32 63 33 544 0 271 -3 509
-6 529 -4 19 -19 49 -33 66 -16 18 -166 111 -367 227 -330 190 -428 259 -417
292 2 7 -1 12 -7 12 -23 0 -28 90 -26 433 1 253 -1 358 -9 359 -17 3 -7828 3
-8764 0z m1008 -221 c14 0 36 2 50 3 14 1 33 -2 43 -7 9 -4 17 -4 17 0 0 10
133 9 149 -1 6 -4 11 -4 11 1 0 8 100 7 165 -1 83 -10 166 -91 196 -191 11
-36 14 -288 4 -330 -9 -38 -41 -92 -74 -127 -14 -14 -125 -83 -246 -152 -121
-70 -227 -131 -235 -136 -108 -70 -208 -87 -293 -51 -83 36 -522 294 -558 328
-20 19 -42 47 -50 61 -7 15 -20 35 -28 45 -12 15 -15 48 -13 175 1 86 3 168 4
182 4 33 50 120 63 120 6 0 18 8 27 18 60 63 101 68 483 64 143 -1 271 -2 285
-1z m2179 -8 c37 -6 101 -40 101 -53 0 -4 15 -24 33 -44 46 -50 57 -109 54
-291 -3 -145 -4 -152 -33 -203 -16 -28 -33 -52 -38 -52 -4 0 -21 -11 -38 -25
-16 -14 -36 -25 -43 -25 -7 0 -15 -3 -17 -7 -4 -9 -48 -36 -98 -61 -19 -9 -37
-20 -40 -23 -4 -5 -88 -54 -255 -149 -16 -10 -48 -28 -70 -41 -35 -21 -52 -24
-130 -23 l-90 1 -270 156 c-357 207 -378 230 -382 402 -1 55 -3 127 -4 160 -1
34 3 70 8 80 6 11 8 25 6 31 -10 29 113 164 137 149 5 -3 10 -1 10 5 0 7 7 10
15 6 8 -3 15 -2 15 2 0 4 26 9 57 10 32 2 59 4 60 5 5 5 983 -4 1012 -10z
m1057 3 c8 -3 14 -1 14 5 0 6 6 6 19 0 10 -6 21 -8 25 -4 3 3 137 6 298 6 273
0 296 -2 338 -21 93 -42 149 -116 157 -206 2 -28 5 -64 7 -79 1 -16 -2 -31 -6
-33 -5 -3 -5 -11 -1 -17 10 -14 10 -128 0 -144 -4 -6 -5 -18 -2 -26 8 -18 -63
-137 -81 -137 -8 0 -14 -4 -14 -10 0 -5 -15 -17 -32 -25 -18 -8 -51 -26 -73
-39 -53 -32 -79 -47 -150 -86 -33 -18 -78 -45 -100 -59 -48 -30 -75 -45 -163
-91 -58 -30 -76 -35 -138 -35 l-71 0 -301 173 c-270 156 -324 193 -331 227 -1
6 -8 17 -15 25 -24 28 -33 97 -32 236 2 120 5 146 25 189 23 51 92 125 117
125 8 0 14 4 14 8 0 19 87 27 279 25 112 -1 210 -4 217 -7z m2355 1 c34 -3
169 -78 169 -94 0 -7 6 -16 13 -20 35 -22 41 -57 42 -233 1 -161 0 -178 -20
-215 -34 -65 -56 -95 -70 -95 -7 0 -16 -7 -19 -16 -3 -8 -10 -13 -15 -9 -6 3
-13 -1 -18 -8 -4 -7 -22 -19 -40 -26 -17 -7 -34 -19 -37 -26 -2 -7 -18 -16
-35 -20 -17 -4 -31 -10 -31 -14 0 -4 -15 -13 -34 -19 -19 -7 -36 -19 -39 -26
-3 -8 -19 -17 -36 -21 -17 -4 -31 -11 -31 -16 0 -5 -6 -9 -12 -9 -7 0 -31 -14
-52 -30 -22 -17 -45 -30 -52 -30 -6 0 -17 -7 -24 -15 -7 -8 -16 -12 -21 -9 -5
3 -9 1 -9 -4 0 -8 -42 -26 -46 -19 -1 1 -10 -5 -20 -14 -15 -13 -37 -16 -99
-14 l-80 2 -280 163 c-154 90 -293 175 -308 189 -16 14 -39 50 -53 78 -24 50
-25 60 -23 215 1 90 5 168 9 173 4 6 10 22 13 36 7 26 79 109 96 109 5 0 14 7
21 15 7 9 18 14 24 12 6 -2 20 1 31 7 14 8 184 10 540 8 286 -1 532 -4 546 -5z
m1607 -1 c7 -4 12 -3 12 2 0 5 31 8 70 6 56 -2 80 -8 123 -33 54 -31 106 -91
124 -146 18 -52 16 -310 -3 -374 -17 -59 -71 -122 -129 -150 -17 -8 -43 -25
-60 -36 -16 -12 -37 -24 -45 -28 -8 -4 -37 -20 -65 -36 -27 -16 -70 -40 -95
-53 -25 -12 -46 -26 -48 -30 -2 -5 -8 -8 -14 -8 -5 0 -29 -13 -53 -30 -24 -16
-51 -30 -59 -30 -9 0 -16 -3 -16 -8 0 -20 -88 -46 -155 -45 l-70 0 -295 171
c-297 173 -336 202 -366 272 -21 48 -27 343 -8 368 8 9 14 29 14 45 0 20 7 30
26 37 16 6 24 16 21 24 -3 8 6 19 21 27 15 8 33 20 40 27 7 6 22 12 33 12 10
0 19 5 19 11 0 6 6 9 13 6 8 -3 28 -2 46 1 44 9 904 7 919 -2z m-8133 -846 c0
-2 11 -3 25 -4 26 -2 602 -331 608 -347 2 -5 11 -17 20 -25 9 -9 25 -33 36
-53 20 -34 21 -51 21 -392 l0 -357 -24 -43 c-14 -24 -36 -56 -50 -71 -22 -23
-522 -318 -539 -318 -3 0 -13 -7 -23 -16 -11 -10 -47 -18 -99 -23 l-81 -7
-306 177 c-169 97 -309 181 -311 188 -2 6 -13 22 -25 35 -41 46 -45 89 -44
429 1 177 6 328 10 335 5 6 5 16 2 22 -8 12 46 110 60 110 6 0 18 8 27 18 26
27 40 37 76 51 17 7 32 16 32 20 0 4 16 13 35 20 19 7 35 16 35 21 0 4 11 11
24 14 14 3 31 12 38 19 7 6 27 19 43 27 17 8 32 17 35 20 3 3 25 16 50 29 25
14 47 27 50 31 3 3 20 12 38 19 17 8 32 16 32 20 0 4 23 15 50 26 28 11 50 22
50 25 0 3 24 4 53 3 28 0 52 -2 52 -3z m1761 -4 c39 -5 594 -325 594 -342 0
-7 9 -18 20 -24 11 -6 20 -16 20 -22 0 -6 6 -19 13 -27 7 -9 18 -32 23 -51 11
-39 10 -657 -1 -705 -10 -44 -48 -115 -62 -115 -7 0 -17 -9 -23 -20 -6 -11
-17 -20 -25 -20 -8 0 -15 -3 -15 -8 0 -4 -17 -15 -37 -25 -21 -9 -58 -29 -83
-43 -25 -15 -70 -40 -100 -57 -30 -17 -66 -38 -80 -47 -14 -9 -72 -43 -129
-75 -98 -55 -109 -59 -178 -62 l-74 -3 -307 177 c-169 97 -317 188 -330 202
-26 29 -39 57 -48 104 -10 50 -7 657 4 702 11 50 43 105 60 105 7 0 15 7 18
15 4 8 13 15 20 15 8 0 17 7 21 16 3 8 11 13 18 10 8 -3 16 2 19 10 3 8 12 14
21 14 8 0 15 4 15 9 0 5 13 12 30 16 16 4 33 12 37 19 5 7 23 18 41 25 17 8
32 17 32 21 0 7 29 20 53 24 4 0 11 6 15 12 4 6 22 17 40 25 17 8 32 17 32 21
0 5 7 8 15 8 8 0 15 5 15 11 0 6 6 9 14 6 8 -3 17 1 20 9 3 8 12 14 20 14 8 0
16 3 18 8 4 9 96 50 123 55 21 3 67 1 121 -7z m1729 -6 c11 -5 27 -10 35 -12
31 -6 520 -293 520 -305 0 -7 6 -13 13 -13 19 0 50 -37 78 -90 23 -45 24 -48
24 -397 l0 -352 -30 -55 c-16 -31 -35 -56 -42 -56 -7 0 -17 -9 -23 -20 -6 -11
-17 -20 -25 -20 -7 0 -15 -4 -17 -8 -1 -4 -23 -18 -48 -30 -25 -12 -58 -31
-75 -41 -40 -24 -98 -57 -165 -94 -30 -17 -67 -38 -82 -49 -14 -10 -29 -18
-33 -18 -4 0 -27 -13 -51 -30 -24 -16 -61 -34 -81 -39 -56 -14 -150 -11 -164
5 -6 8 -20 14 -31 14 -30 0 -528 291 -528 309 0 8 -3 11 -7 8 -9 -9 -53 33
-53 50 0 7 -4 13 -9 13 -4 0 -15 28 -24 63 -14 52 -16 114 -14 377 2 303 3
317 25 364 23 50 94 126 119 126 7 0 13 4 13 9 0 5 16 15 35 21 19 6 35 15 35
20 0 4 12 13 28 19 34 14 82 42 100 58 7 7 24 16 38 19 13 3 24 10 24 14 0 5
16 14 35 20 19 6 35 15 35 20 0 4 12 13 28 19 35 15 85 44 93 54 3 4 34 15 70
25 65 18 117 18 154 2z m2011 -165 c284 -163 372 -224 358 -247 -3 -5 -1 -8 5
-8 5 0 13 -19 17 -42 10 -58 11 -678 1 -678 -5 0 -5 -5 -2 -10 7 -11 -15 -70
-26 -70 -4 0 -12 -13 -18 -29 -11 -25 -70 -80 -80 -72 -2 1 -7 -1 -10 -6 -8
-11 -37 -29 -91 -55 -25 -12 -48 -27 -52 -32 -4 -6 -11 -12 -15 -12 -27 -5
-52 -18 -57 -29 -2 -7 -18 -16 -35 -20 -17 -4 -31 -11 -31 -16 0 -5 -15 -16
-32 -24 -18 -8 -51 -26 -73 -39 -134 -80 -193 -97 -297 -83 -15 2 -147 73
-295 157 -282 162 -354 218 -369 285 -3 17 -9 34 -12 39 -9 15 -3 688 6 700 5
6 12 23 15 37 9 37 77 104 139 136 29 16 59 33 66 40 6 6 22 15 35 19 12 4 24
10 27 14 8 11 166 100 178 100 7 0 12 4 12 9 0 5 16 15 35 22 19 7 35 16 35
20 0 4 15 12 33 20 17 7 34 16 37 19 12 16 99 37 141 35 40 -2 90 -27 355
-180z m1418 173 c67 -19 576 -316 617 -360 75 -78 75 -81 77 -447 1 -383 -3
-407 -75 -477 -25 -24 -51 -44 -59 -44 -8 0 -14 -3 -14 -7 0 -5 -10 -13 -23
-19 -60 -30 -112 -60 -115 -67 -2 -4 -18 -14 -35 -22 -18 -8 -50 -26 -72 -40
-22 -13 -47 -27 -55 -31 -8 -4 -28 -17 -45 -28 -16 -12 -31 -20 -33 -18 -1 1
-29 -13 -60 -31 -79 -46 -118 -58 -188 -56 -57 2 -70 8 -361 177 -167 96 -300
179 -297 183 3 5 -2 12 -10 15 -9 3 -16 11 -16 17 0 6 -6 18 -13 26 -30 35
-35 94 -35 416 l0 327 34 65 c33 64 63 97 97 109 11 3 38 19 62 35 24 16 45
29 49 29 3 0 20 10 39 23 19 13 61 36 93 53 32 16 65 35 72 41 7 7 24 16 38
19 13 3 24 9 24 13 0 3 15 12 33 20 17 8 34 17 37 20 14 16 94 53 132 60 60
12 56 12 102 -1z m1721 2 c4 -6 10 -8 15 -5 5 3 37 -12 72 -33 35 -21 168 -98
296 -172 249 -143 280 -168 304 -255 7 -26 11 -155 10 -367 0 -326 0 -328 -25
-380 -13 -29 -38 -66 -55 -83 -50 -50 -571 -344 -628 -354 -27 -5 -52 -7 -57
-4 -4 2 -24 6 -45 8 -26 3 -123 53 -314 164 -255 148 -323 193 -323 214 0 4
-5 11 -11 15 -5 4 -19 25 -29 47 -18 37 -19 64 -19 377 l1 337 44 77 c24 42
52 79 62 82 9 2 17 8 17 12 0 8 39 23 53 21 4 -1 10 6 13 14 4 8 12 15 20 15
8 0 14 3 14 8 0 7 16 17 78 47 17 8 32 20 32 25 0 5 7 7 15 4 8 -4 15 -1 15 5
0 6 7 11 15 11 9 0 18 6 21 14 3 8 19 18 36 21 16 4 32 13 35 22 3 8 12 12 19
9 8 -3 14 -1 14 4 0 6 7 10 15 10 9 0 18 7 21 15 4 8 11 15 16 15 6 0 38 13
72 29 33 17 70 32 81 34 39 9 94 7 100 -3z m-7750 -1495 c42 -11 564 -312 601
-347 17 -16 42 -50 55 -76 23 -44 24 -57 24 -222 l0 -175 -37 -57 c-45 -69
-103 -114 -161 -124 -23 -3 -118 -6 -212 -5 -93 1 -177 1 -185 1 -8 0 -143 0
-300 0 -157 0 -292 0 -300 0 -89 -2 -102 1 -174 42 -65 37 -78 50 -102 97 -26
51 -28 62 -31 209 -2 102 1 160 8 169 6 7 9 19 6 27 -13 34 61 117 148 165 30
16 79 46 110 65 30 20 55 34 55 31 0 -2 24 12 53 31 28 19 62 37 75 40 12 4
22 10 22 14 0 5 16 14 35 21 19 7 35 16 35 20 0 4 15 12 33 20 17 7 34 15 37
18 13 15 53 32 87 37 21 3 40 7 41 9 5 4 39 0 77 -10z m1715 0 c13 8 610 -335
618 -355 3 -8 11 -19 19 -23 7 -4 13 -13 13 -19 0 -6 6 -16 14 -22 22 -17 32
-95 31 -253 0 -138 -1 -143 -30 -197 -17 -31 -36 -56 -43 -56 -7 0 -15 -7 -19
-15 -3 -9 -24 -26 -47 -38 -41 -22 -46 -22 -588 -25 -646 -4 -618 -7 -715 88
-24 24 -41 56 -48 91 -2 9 -7 32 -12 50 -9 33 -9 49 -3 160 2 30 1 59 -1 65
-6 10 -6 11 5 69 8 47 35 105 48 105 6 0 25 16 44 35 18 19 40 35 49 35 8 0
15 4 15 9 0 5 10 13 23 17 12 4 33 15 46 25 13 11 31 19 40 19 9 0 24 9 34 20
9 11 24 20 32 20 8 0 15 4 15 9 0 5 16 15 35 21 19 6 35 15 35 20 0 4 12 13
28 19 34 14 82 42 99 58 7 6 23 15 36 19 12 4 25 11 28 16 8 13 118 40 135 34
8 -3 14 -1 14 5 0 6 7 6 20 -1 11 -6 25 -8 30 -5z m2054 -169 c153 -89 281
-168 284 -176 3 -8 13 -20 22 -27 10 -7 27 -35 39 -63 19 -45 22 -68 21 -188
-2 -187 -2 -189 -43 -257 -73 -121 -97 -127 -497 -125 -173 1 -322 1 -330 1
-29 -1 -136 0 -187 3 -29 1 -53 -1 -53 -4 0 -9 -43 -6 -59 4 -7 5 -16 5 -20 0
-3 -5 -19 -8 -36 -7 -16 2 -39 3 -50 3 -10 1 -25 6 -32 11 -6 6 -17 8 -22 4
-16 -9 -93 34 -98 55 -3 10 -11 21 -19 24 -7 3 -23 24 -35 48 -19 37 -22 63
-25 188 -5 194 8 250 77 321 24 25 37 33 114 74 17 9 48 27 70 40 22 14 51 30
65 37 14 7 27 16 30 20 3 4 17 12 30 18 14 6 43 22 65 35 22 14 51 30 65 37
14 7 39 23 57 36 18 13 62 34 98 46 116 39 142 30 469 -158z m3081 174 c3 -5
12 -7 20 -4 18 7 285 -144 293 -165 3 -9 8 -18 12 -21 21 -17 42 -88 42 -144
0 -53 -5 -70 -33 -117 -18 -29 -37 -56 -42 -58 -5 -2 -17 -12 -25 -22 -9 -11
-22 -19 -28 -19 -7 0 -14 -3 -16 -7 -4 -9 -48 -36 -98 -61 -19 -9 -37 -20 -40
-23 -6 -6 -115 -70 -188 -109 -26 -14 -75 -42 -108 -63 -34 -20 -66 -37 -72
-37 -6 0 -12 -3 -14 -7 -4 -10 -52 -39 -108 -65 -42 -20 -130 -28 -170 -16
-78 25 -144 79 -176 145 -14 29 -18 67 -21 166 -2 126 -2 128 29 180 16 28 34
62 39 75 5 12 16 25 26 29 9 4 43 24 74 45 31 20 63 39 71 40 7 2 15 6 18 9 6
7 145 89 250 147 25 13 60 35 78 49 17 13 37 21 42 18 6 -3 10 -2 10 3 0 13
48 29 83 28 15 -1 27 2 27 6 0 11 18 10 25 -2z m-1655 -13 c19 -6 150 -78 291
-160 321 -185 360 -222 373 -355 2 -23 0 -45 -5 -48 -5 -3 -6 -11 -2 -17 11
-18 12 -170 1 -184 -5 -7 -7 -17 -3 -23 9 -14 -67 -140 -98 -161 -60 -43 -113
-51 -327 -49 -113 1 -230 1 -260 1 -222 -2 -543 0 -584 5 -109 11 -217 110
-220 201 0 24 -3 43 -6 43 -7 0 -3 228 5 270 10 55 82 155 121 170 19 8 34 16
34 19 0 4 15 12 33 20 17 8 34 17 37 20 10 11 45 32 93 53 26 11 47 24 47 28
0 7 29 20 53 24 4 0 11 6 15 12 4 6 22 17 40 25 17 8 32 17 32 20 0 7 40 22
53 20 4 -1 10 6 13 14 4 8 12 15 19 15 7 0 15 4 17 9 6 15 92 39 143 40 28 0
66 -5 85 -12z"/>
</g>
</svg>
