<?xml version="1.0" standalone="no"?>
<!DOCTYPE svg PUBLIC "-//W3C//DTD SVG 20010904//EN"
 "http://www.w3.org/TR/2001/REC-SVG-20010904/DTD/svg10.dtd">
<svg version="1.0" xmlns="http://www.w3.org/2000/svg"
 width="990.000000pt" height="443.000000pt" viewBox="0 0 990.000000 443.000000"
 preserveAspectRatio="xMidYMid meet">

<g transform="translate(0.000000,443.000000) scale(0.100000,-0.100000)"
fill="#000000" stroke="none">
<path d="M374 4405 c-10 -8 -23 -14 -29 -15 -5 0 -3 5 5 10 9 6 10 10 3 10
-19 0 -43 -12 -38 -19 2 -4 -21 -20 -52 -35 -44 -21 -54 -24 -42 -10 10 14 6
12 -18 -4 -18 -13 -36 -28 -39 -35 -4 -7 3 -3 17 8 13 11 3 -3 -22 -30 -26
-28 -55 -65 -65 -82 -10 -18 -24 -33 -31 -33 -7 0 -13 -5 -13 -11 0 -5 6 -7
13 -4 6 4 3 -1 -7 -9 -11 -9 -16 -16 -10 -16 5 0 2 -5 -6 -10 -10 -7 -11 -10
-2 -10 14 0 6 -51 -11 -61 -5 -4 -6 -17 -2 -30 5 -19 4 -21 -4 -9 -7 10 -11
-530 -11 -1792 0 -1551 2 -1811 14 -1835 21 -41 61 -146 61 -160 0 -7 3 -12 6
-10 9 3 39 -24 39 -35 0 -6 -8 -4 -17 3 -16 13 -17 12 -4 -3 7 -10 17 -16 21
-13 8 5 38 -24 39 -37 1 -5 2 -7 4 -6 6 4 48 -24 43 -29 -8 -8 13 -33 27 -33
6 0 2 7 -9 15 -10 8 -14 15 -8 15 6 0 23 -11 38 -25 28 -26 42 -33 31 -15 -8
13 57 -11 73 -27 7 -7 28 -13 45 -14 47 -2 9047 -2 9080 0 15 1 25 6 22 11 -3
5 0 7 8 4 8 -3 18 -1 22 5 3 6 11 11 16 11 6 0 7 -5 3 -12 -5 -8 -2 -9 10 -5
10 4 21 7 24 7 4 0 0 5 -8 11 -12 9 -11 10 8 6 12 -3 22 -1 22 4 0 4 7 5 17 2
10 -4 14 -2 10 4 -4 6 4 18 18 27 32 21 41 20 24 -1 -13 -16 -12 -17 4 -4 9 8
15 16 12 19 -7 7 15 32 27 32 6 0 4 -8 -3 -17 -13 -16 -12 -17 3 -5 10 8 16
17 15 22 -3 12 43 71 52 65 5 -2 15 3 22 13 13 16 13 16 -5 2 -11 -8 -17 -10
-15 -5 3 6 17 36 32 68 15 32 27 62 27 68 0 6 4 8 9 5 10 -7 21 17 20 42 -1
10 -4 7 -9 -8 -7 -20 -8 -21 -9 -5 0 11 6 29 14 39 13 17 15 250 15 1798 0
1649 -1 1781 -17 1804 -9 15 -17 47 -17 74 -1 27 -3 48 -6 48 -19 -1 -23 4
-10 12 13 9 13 10 0 10 -17 0 -64 76 -56 89 3 5 -2 15 -11 22 -12 10 -14 10
-9 2 4 -7 3 -13 -2 -13 -11 0 -42 33 -56 61 -6 12 -22 29 -36 37 -20 12 -19
10 5 -12 l30 -26 -32 17 c-18 10 -33 24 -33 31 0 6 -5 12 -11 12 -5 0 -7 -5
-3 -11 4 -8 0 -8 -15 0 -11 7 -21 16 -21 22 0 6 -9 8 -20 4 -11 -4 -29 0 -42
9 -20 14 -466 16 -4583 16 -3990 0 -4564 -2 -4581 -15z m9513 -3062 c-1 -483
-2 -90 -2 872 0 963 1 1358 2 878 2 -479 2 -1267 0 -1750z m-3728 2481 l31
-26 -2 -1605 -3 -1605 -24 -19 c-23 -19 -75 -19 -2386 -19 l-2362 0 -27 21
-26 20 0 1605 0 1605 25 24 24 25 2360 0 2359 0 31 -26z m1892 -524 c241 -54
467 -225 586 -443 124 -228 141 -498 46 -747 -71 -186 -200 -338 -378 -444
-115 -69 -141 -91 -172 -144 -28 -47 -28 -47 -34 -287 -5 -235 -6 -241 -31
-290 -45 -85 -115 -125 -217 -125 -70 0 -126 25 -170 75 -61 69 -64 87 -71
345 -7 261 -12 283 -73 337 -19 17 -77 56 -128 88 -232 142 -384 362 -429 621
-79 458 215 900 670 1010 127 30 276 32 401 4z m-8024 -1423 c-1 -139 -2 -22
-2 258 0 281 1 394 2 252 2 -142 2 -372 0 -510z m6171 -1864 c-680 -2 -1796
-2 -2480 0 -684 1 -127 2 1237 2 1364 0 1923 -1 1243 -2z"/>
<path d="M9730 4316 c0 -2 8 -10 18 -17 15 -13 16 -12 3 4 -13 16 -21 21 -21
13z"/>
<path d="M109 4253 c-29 -35 -41 -53 -36 -53 2 0 17 16 31 35 28 36 31 49 5
18z"/>
<path d="M25 4089 c-4 -6 -5 -12 -2 -15 2 -3 7 2 10 11 7 17 1 20 -8 4z"/>
<path d="M9882 4060 c0 -14 2 -19 5 -12 2 6 2 18 0 25 -3 6 -5 1 -5 -13z"/>
<path d="M21 350 c0 -8 4 -22 9 -30 12 -18 12 -2 0 25 -6 13 -9 15 -9 5z"/>
<path d="M9779 163 c-13 -16 -12 -17 4 -4 16 13 21 21 13 21 -2 0 -10 -8 -17
-17z"/>
</g>
</svg>
