<?xml version="1.0" standalone="no"?>
<!DOCTYPE svg PUBLIC "-//W3C//DTD SVG 20010904//EN"
 "http://www.w3.org/TR/2001/REC-SVG-20010904/DTD/svg10.dtd">
<svg version="1.0" xmlns="http://www.w3.org/2000/svg"
 width="396.000000pt" height="766.000000pt" viewBox="0 0 396.000000 766.000000"
 preserveAspectRatio="xMidYMid meet">

<g transform="translate(0.000000,766.000000) scale(0.100000,-0.100000)"
fill="#000000" stroke="none">
<path d="M1260 7643 c-128 -20 -300 -69 -300 -86 0 -4 -4 -5 -10 -2 -5 3 -10
1 -10 -4 0 -6 -3 -10 -7 -9 -13 4 -73 -24 -73 -34 0 -5 -4 -7 -10 -3 -5 3 -18
-3 -30 -15 -11 -11 -20 -18 -20 -15 0 3 -21 -9 -47 -26 -61 -42 -173 -150
-167 -161 3 -4 0 -8 -6 -8 -6 0 -8 -4 -5 -10 3 -5 2 -10 -3 -10 -29 0 -32 -81
-33 -1038 -2 -1061 -3 -1105 -24 -1155 -4 -10 -5 -21 -1 -24 3 -3 1 -12 -5
-19 -6 -8 -9 -20 -6 -29 4 -8 2 -17 -4 -20 -5 -4 -7 -10 -4 -15 3 -5 1 -11 -5
-15 -6 -4 -8 -10 -5 -15 3 -5 1 -11 -5 -15 -6 -4 -8 -10 -5 -15 3 -5 1 -11 -5
-15 -6 -4 -8 -11 -5 -16 4 -5 1 -9 -5 -9 -7 0 -10 -7 -6 -15 3 -8 1 -15 -5
-15 -6 0 -7 -4 -4 -10 3 -5 1 -10 -5 -10 -6 0 -8 -4 -5 -10 3 -5 1 -10 -5 -10
-6 0 -8 -4 -5 -10 3 -5 1 -10 -5 -10 -6 0 -8 -4 -5 -10 3 -5 1 -10 -5 -10 -6
0 -8 -4 -5 -10 3 -5 1 -10 -5 -10 -6 0 -8 -4 -5 -10 3 -5 2 -10 -3 -10 -10 0
-87 -113 -116 -168 -14 -28 -41 -148 -44 -202 -1 -8 -4 -28 -7 -45 -3 -16 -7
-48 -10 -70 -3 -22 -7 -62 -11 -90 -13 -101 -14 -315 -2 -315 6 0 8 -3 5 -7
-4 -3 1 -12 11 -20 16 -12 15 -14 -7 -33 -23 -20 -24 -22 -19 -162 l5 -141 34
-28 c19 -15 37 -25 42 -22 4 2 6 0 5 -4 -2 -5 31 -38 72 -74 96 -83 117 -105
140 -154 19 -38 20 -71 20 -761 0 -634 -2 -727 -16 -775 -39 -131 -91 -196
-289 -362 -66 -56 -140 -121 -164 -145 l-43 -43 6 -147 c4 -81 7 -165 6 -186
0 -22 5 -45 10 -51 5 -7 11 -25 13 -41 2 -17 6 -35 10 -41 4 -6 4 -18 1 -27
-4 -10 -1 -16 7 -16 7 0 9 -3 6 -7 -4 -3 -2 -12 4 -20 6 -7 8 -13 3 -13 -5 0
-3 -4 4 -9 7 -4 14 -18 15 -29 1 -12 5 -22 10 -22 4 0 5 -4 2 -10 -3 -5 -1
-10 5 -10 6 0 8 -5 5 -10 -3 -6 -1 -10 6 -10 7 0 10 -3 6 -6 -3 -3 3 -15 13
-27 11 -11 17 -24 14 -29 -3 -4 0 -8 6 -8 6 0 8 -4 5 -10 -3 -5 16 -31 42 -56
26 -26 41 -43 33 -39 -8 4 3 -11 24 -33 22 -23 43 -39 47 -37 4 3 24 -14 44
-37 20 -24 34 -36 30 -28 -4 9 0 8 8 -3 9 -10 18 -17 22 -15 3 2 18 -8 32 -22
15 -14 23 -18 19 -10 -4 9 -2 8 7 -2 8 -10 17 -15 20 -11 4 3 7 1 7 -6 0 -7 4
-9 10 -6 5 3 10 2 10 -2 0 -5 10 -9 22 -10 11 -1 25 -8 29 -15 5 -7 9 -8 9 -3
0 6 4 4 9 -4 11 -17 111 -28 111 -12 0 6 3 10 8 9 9 -4 58 45 54 55 -1 4 3 7
9 7 5 0 7 5 4 10 -3 6 -1 10 5 10 7 0 10 6 7 14 -3 7 0 19 6 25 6 6 7 11 3 11
-5 0 -3 7 4 15 7 8 9 15 5 15 -4 0 -3 6 3 13 5 6 58 163 117 347 59 184 113
346 120 360 22 41 77 91 125 114 45 21 52 21 820 21 l775 0 47 -23 c50 -25
102 -72 123 -112 7 -14 55 -155 105 -315 51 -159 97 -296 103 -302 5 -7 6 -13
2 -13 -4 0 -2 -7 5 -15 7 -8 9 -15 5 -15 -4 0 -2 -7 5 -15 7 -8 9 -15 5 -15
-4 0 -2 -7 5 -15 7 -8 9 -15 5 -15 -4 0 -2 -7 5 -15 7 -8 9 -15 5 -15 -4 0 -2
-7 5 -15 6 -8 9 -19 5 -25 -3 -5 -1 -10 6 -10 7 0 10 -3 6 -6 -3 -3 5 -18 19
-32 13 -15 24 -29 24 -33 0 -10 50 -29 78 -29 16 0 33 5 40 12 7 7 12 9 12 4
0 -4 7 0 16 9 9 9 23 14 30 11 8 -3 14 -1 14 5 0 6 5 7 10 4 6 -3 10 -1 10 5
0 6 5 8 10 5 6 -3 10 -1 10 6 0 7 3 9 7 6 3 -4 12 1 20 11 10 11 12 12 8 2 -4
-8 2 -5 12 8 10 12 29 24 43 27 14 2 36 17 49 32 14 16 29 27 34 25 4 -1 6 2
3 7 -3 5 2 15 11 22 14 12 16 12 8 -1 -4 -8 11 3 34 25 43 41 53 56 23 35 -9
-7 3 7 28 31 25 23 38 38 30 33 -11 -6 -10 -3 2 7 9 9 14 19 11 23 -3 3 2 8
11 12 9 3 13 10 11 15 -3 4 3 17 14 28 11 11 17 22 14 25 -4 3 -1 6 6 6 7 0 9
4 6 10 -3 5 -1 10 5 10 6 0 9 4 6 9 -4 5 -2 11 3 13 6 1 12 16 15 31 3 16 10
35 17 43 6 8 8 14 4 14 -4 0 -3 6 3 13 6 7 13 34 17 61 3 26 9 56 14 65 5 9
10 105 10 212 l0 194 -151 125 c-238 198 -304 280 -339 420 -20 78 -21 1436
-1 1492 18 52 65 106 152 178 81 67 104 88 81 75 -10 -5 -12 -4 -7 4 4 6 11 9
16 6 4 -3 18 7 30 22 12 16 18 21 14 13 -5 -12 -4 -12 6 -3 8 7 14 59 17 156
6 141 5 145 -16 152 -27 8 -27 27 0 51 19 17 20 26 15 139 -4 113 -7 149 -21
263 -3 26 -5 59 -5 74 0 15 -4 30 -10 33 -6 4 -8 10 -5 14 8 15 -26 183 -45
220 -35 67 -97 151 -105 144 -4 -5 -5 -3 -2 4 4 6 1 18 -7 26 -8 8 -12 17 -9
21 4 3 1 6 -6 6 -7 0 -9 5 -6 10 3 6 1 10 -5 10 -6 0 -8 5 -5 10 3 6 1 10 -5
10 -6 0 -8 5 -5 10 3 6 1 10 -5 10 -6 0 -8 5 -5 10 3 6 2 10 -2 10 -5 0 -10
10 -10 22 -1 13 -7 24 -12 26 -5 2 -7 10 -4 18 3 8 0 14 -6 14 -6 0 -8 7 -5
15 4 8 1 15 -5 15 -6 0 -8 7 -5 15 4 8 1 15 -5 15 -6 0 -8 7 -5 15 4 8 1 21
-5 29 -6 7 -8 16 -5 19 4 3 3 14 -1 24 -21 50 -23 156 -24 1176 -1 595 -5 977
-11 977 -5 0 -7 7 -4 15 4 8 1 15 -6 15 -6 0 -8 5 -5 10 3 6 1 10 -5 10 -6 0
-8 5 -5 10 3 6 1 10 -6 10 -7 0 -9 3 -6 6 7 7 -30 59 -41 60 -4 0 -25 18 -48
40 -52 51 -134 105 -147 97 -6 -3 -7 -1 -3 5 6 11 -6 16 -26 13 -5 0 -8 3 -8
8 0 10 -39 27 -52 23 -5 -1 -8 2 -8 7 0 11 -130 62 -141 56 -4 -3 -9 0 -11 5
-2 6 -20 12 -41 13 -20 1 -37 5 -37 8 0 22 -208 29 -845 28 -374 -1 -691 -3
-705 -6z m620 -43 c-51 -18 -141 -28 -127 -14 15 15 87 33 132 33 l50 0 -55
-19z m240 8 c-14 -6 -80 -37 -147 -69 -75 -36 -135 -59 -155 -59 -32 1 -32 1
-13 16 29 23 152 84 210 105 56 20 151 26 105 7z m36 -88 c-48 -24 -94 -40
-115 -40 l-36 0 65 40 c53 32 74 39 115 39 l50 0 -79 -39z m85 -546 c46 -9 90
-17 97 -17 6 0 12 -5 12 -10 0 -5 6 -7 14 -4 8 3 16 1 18 -4 2 -5 13 -11 26
-12 12 0 22 -6 22 -11 0 -5 3 -7 6 -3 4 3 13 0 21 -8 8 -8 23 -15 34 -15 10 0
19 -5 19 -11 0 -5 5 -7 10 -4 6 3 10 1 10 -4 0 -6 5 -11 11 -11 7 0 18 -8 26
-17 9 -12 12 -13 8 -3 -4 8 5 2 20 -15 14 -16 23 -23 20 -15 -4 8 5 2 20 -15
14 -16 24 -24 20 -17 -11 21 -2 14 55 -45 30 -31 48 -53 40 -49 -8 4 -1 -5 15
-20 17 -15 29 -31 27 -36 -1 -5 5 -11 13 -14 8 -3 12 -10 9 -15 -3 -5 2 -12
10 -15 9 -3 13 -10 11 -15 -3 -4 3 -17 14 -28 11 -11 17 -22 13 -25 -3 -3 0
-6 6 -6 7 0 11 -3 10 -7 -4 -13 35 -113 44 -113 4 0 5 -7 2 -15 -4 -8 -1 -15
6 -15 6 0 8 -4 5 -10 -3 -5 -3 -15 1 -22 4 -7 9 -26 11 -43 1 -16 6 -41 9 -55
12 -46 5 -236 -11 -316 -9 -43 -31 -116 -50 -161 -18 -46 -30 -83 -27 -83 4 0
-1 -5 -11 -11 -9 -6 -15 -14 -12 -20 4 -5 1 -9 -5 -9 -6 0 -9 -4 -6 -9 3 -5
-1 -12 -10 -15 -9 -4 -14 -9 -11 -12 3 -4 -4 -15 -16 -26 -12 -11 -15 -16 -7
-12 8 4 -1 -8 -21 -27 -19 -19 -26 -27 -15 -19 12 8 -8 -15 -44 -52 -64 -67
-91 -89 -54 -45 10 13 5 9 -13 -9 -17 -18 -33 -30 -36 -28 -2 2 -16 -7 -30
-20 -14 -13 -28 -21 -31 -19 -3 3 -8 -2 -12 -11 -3 -9 -10 -13 -15 -10 -5 3
-9 0 -9 -6 0 -6 -4 -8 -10 -5 -5 3 -10 1 -10 -5 0 -6 -4 -8 -10 -5 -5 3 -10 1
-10 -5 0 -6 -4 -8 -10 -5 -5 3 -10 1 -10 -5 0 -6 -4 -8 -10 -5 -5 3 -10 2 -10
-2 0 -5 -10 -10 -22 -10 -13 -1 -24 -7 -26 -12 -2 -5 -10 -7 -18 -4 -8 3 -14
0 -14 -7 0 -6 -4 -8 -10 -5 -5 3 -15 3 -22 -1 -7 -4 -25 -9 -41 -11 -15 -2
-36 -7 -45 -12 -10 -5 -87 -8 -172 -5 -181 4 -200 6 -200 18 0 4 -9 6 -20 3
-10 -3 -21 0 -22 5 -2 5 -16 11 -31 11 -15 1 -27 6 -27 11 0 4 -7 6 -15 2 -8
-3 -15 -2 -15 2 0 13 -70 43 -82 36 -7 -4 -8 -2 -4 4 6 11 -6 16 -19 10 -2 -2
-10 5 -17 14 -7 9 -20 18 -28 20 -8 2 -21 11 -28 21 -7 9 -17 15 -22 12 -4 -3
-11 2 -14 11 -3 8 -11 12 -17 8 -7 -4 -10 -3 -6 2 3 5 -19 29 -48 54 -29 25
-55 53 -58 64 -3 10 -11 15 -17 11 -6 -3 -10 -3 -9 2 4 15 -13 43 -22 37 -5
-3 -9 -2 -8 3 4 15 -24 63 -33 57 -5 -3 -7 -1 -6 4 3 10 -64 155 -74 160 -4 2
-4 10 -1 18 3 8 1 14 -4 14 -5 0 -9 8 -10 18 0 9 -8 60 -18 112 -32 172 -5
361 74 527 22 45 36 85 33 89 -4 4 -2 4 4 1 11 -6 40 40 35 56 -1 5 3 6 8 3
10 -6 26 22 22 39 -2 6 0 7 4 3 9 -9 61 53 57 67 -2 5 0 7 4 3 8 -9 80 52 76
65 -1 5 1 6 6 3 5 -3 24 6 43 20 81 61 283 143 384 157 76 10 230 6 306 -9z
m-616 -2065 c24 -6 55 -24 72 -41 l28 -29 0 -149 c0 -143 -1 -149 -24 -174
-33 -35 -83 -50 -166 -49 -82 0 -136 20 -162 59 -26 41 -27 286 -1 327 39 58
148 82 253 56z m900 0 c24 -6 55 -24 72 -41 l28 -29 0 -149 c0 -143 -1 -149
-24 -174 -13 -14 -40 -31 -60 -38 -50 -17 -168 -14 -213 5 -61 26 -73 55 -76
187 -4 130 8 182 49 213 48 35 144 46 224 26z m-1512 -192 c38 -104 73 -185
77 -180 4 4 37 90 75 191 66 178 68 182 96 182 16 0 29 -2 29 -5 0 -3 -39
-102 -86 -220 l-86 -215 -37 0 -36 0 -82 213 c-46 117 -83 217 -83 221 0 4 14
6 31 4 31 -3 32 -6 102 -191z m1106 169 c18 -16 21 -31 21 -91 0 -84 -10 -101
-68 -118 l-43 -13 66 -91 c36 -51 65 -94 65 -97 0 -3 -15 -6 -34 -6 -31 0 -37
6 -96 95 -58 88 -65 95 -96 95 l-33 0 -3 -92 -3 -93 -32 -3 -33 -3 0 221 0
222 134 -4 c115 -3 137 -6 155 -22z m807 -151 c63 -96 120 -177 125 -180 5 -4
9 66 9 174 l0 181 25 0 25 0 0 -220 0 -220 -38 0 -38 0 -119 185 -120 185 -5
-183 -5 -182 -27 -3 -28 -3 0 220 0 221 40 0 40 0 116 -175z m601 -213 c50
-31 51 -124 2 -168 -28 -26 -109 -26 -137 -1 -34 31 -46 73 -34 115 12 39 39
61 87 72 33 7 49 4 82 -18z m-2952 -12 c76 -79 -2 -204 -107 -174 -46 13 -81
68 -74 114 13 85 122 121 181 60z m1647 -795 c166 -34 321 -99 462 -193 84
-56 240 -203 302 -285 263 -350 324 -811 162 -1222 -156 -396 -497 -680 -928
-772 -118 -25 -362 -25 -480 0 -165 35 -351 113 -463 193 -26 19 -49 34 -52
34 -11 0 -153 138 -235 229 -9 9 -42 58 -73 107 -331 522 -235 1205 226 1612
179 159 411 268 647 306 116 19 321 15 432 -9z m-1679 -3018 c79 -64 33 -192
-69 -192 -81 0 -133 83 -97 155 32 62 113 80 166 37z m3010 3 c30 -24 50 -78
42 -113 -9 -36 -57 -77 -97 -83 -109 -18 -169 127 -81 195 34 28 101 28 136 1z"/>
<path d="M1460 4862 c-42 -21 -48 -39 -49 -162 -2 -169 14 -191 137 -191 75 0
107 16 116 62 8 40 6 216 -3 249 -9 33 -64 60 -121 60 -25 0 -61 -8 -80 -18z"/>
<path d="M2360 4862 c-42 -21 -48 -39 -49 -162 -2 -169 14 -191 137 -191 75 0
107 16 116 62 8 40 6 216 -3 249 -9 33 -64 60 -121 60 -25 0 -61 -8 -80 -18z"/>
<path d="M1900 4786 l0 -87 70 2 c93 3 110 15 110 82 0 76 -6 81 -100 85 l-80
4 0 -86z"/>
</g>
</svg>
