<?xml version="1.0" standalone="no"?>
<!DOCTYPE svg PUBLIC "-//W3C//DTD SVG 20010904//EN"
 "http://www.w3.org/TR/2001/REC-SVG-20010904/DTD/svg10.dtd">
<svg version="1.0" xmlns="http://www.w3.org/2000/svg"
 width="780.000000pt" height="578.000000pt" viewBox="0 0 780.000000 578.000000"
 preserveAspectRatio="xMidYMid meet">

<g transform="translate(0.000000,578.000000) scale(0.100000,-0.100000)"
fill="#000000" stroke="none">
<path d="M489 5755 c-20 -7 -104 -47 -187 -89 -234 -119 -265 -164 -284 -411
-18 -246 -4 -315 79 -399 15 -16 242 -171 503 -345 504 -335 560 -379 617
-486 63 -121 66 -138 71 -504 4 -297 6 -339 23 -377 26 -62 91 -128 152 -155
51 -24 57 -24 377 -24 l325 0 55 26 c67 31 116 79 144 139 19 41 21 69 27 345
5 276 8 305 28 365 39 112 107 209 195 275 22 17 275 181 561 364 286 183 537
349 558 369 81 79 97 151 85 389 -13 262 -37 298 -288 429 -85 45 -173 87
-194 94 -49 16 -151 8 -196 -15 -18 -9 -184 -114 -369 -233 -420 -269 -430
-275 -521 -303 -71 -23 -89 -24 -340 -24 -287 0 -335 7 -442 61 -26 13 -209
131 -405 262 -197 131 -377 243 -399 250 -53 15 -129 14 -175 -3z m129 -119
c6 -4 17 -4 22 -1 6 3 10 1 10 -6 0 -7 3 -10 6 -6 3 3 14 -3 25 -14 11 -11 25
-17 31 -13 7 4 8 3 4 -4 -7 -11 6 -17 27 -13 5 1 6 -3 2 -9 -6 -9 8 -14 28
-11 5 1 6 -3 2 -9 -6 -9 8 -14 28 -11 5 1 6 -3 2 -9 -6 -9 8 -14 28 -11 5 1 6
-3 2 -9 -6 -9 8 -14 28 -11 5 1 6 -3 2 -9 -6 -9 8 -14 28 -11 5 1 6 -3 2 -9
-5 -9 6 -14 26 -12 4 1 15 -9 25 -21 19 -22 19 -22 -2 -7 -11 8 -8 3 6 -11 14
-14 24 -31 22 -37 -2 -7 0 -12 5 -12 8 0 8 -113 -2 -265 -8 -126 -9 -128 -23
-143 -7 -8 -10 -17 -7 -22 3 -4 -2 -11 -11 -14 -8 -3 -12 -11 -9 -16 4 -6 2
-9 -4 -8 -5 2 -17 -6 -26 -17 -9 -11 -14 -14 -10 -7 5 10 1 10 -19 1 -14 -7
-23 -16 -20 -20 3 -5 -3 -6 -12 -2 -13 5 -15 3 -9 -7 5 -8 4 -11 -3 -6 -10 6
-189 -76 -202 -93 -15 -18 -110 -17 -148 3 -18 9 -32 13 -32 9 0 -5 -5 0 -11
10 -6 9 -14 15 -19 12 -4 -3 -11 2 -14 11 -3 8 -10 13 -15 10 -5 -3 -12 1 -15
10 -3 8 -10 13 -15 10 -5 -3 -12 1 -15 10 -3 8 -10 13 -15 10 -5 -3 -12 1 -15
10 -3 8 -10 13 -15 10 -5 -3 -12 1 -15 10 -4 9 -9 14 -13 11 -3 -4 -12 1 -20
11 -9 11 -12 12 -8 2 4 -8 -3 -4 -16 10 -13 14 -20 20 -15 13 15 -22 1 -14
-25 14 -13 14 -17 23 -9 19 8 -4 6 0 -4 8 -11 9 -17 16 -13 16 4 0 1 15 -6 33
-9 22 -11 56 -6 112 4 44 9 123 12 175 3 52 7 97 8 100 1 3 1 8 0 13 0 4 4 7
10 7 5 0 8 4 5 9 -3 5 1 12 9 15 8 3 14 11 13 18 -2 7 3 12 10 10 7 -1 15 5
18 13 3 8 10 12 15 9 5 -3 9 0 9 6 0 6 5 8 10 5 6 -3 10 -1 10 6 0 7 3 10 6 6
4 -3 13 1 21 9 8 8 19 12 24 9 5 -4 9 -1 9 5 0 6 5 8 10 5 6 -3 10 -1 10 5 0
6 5 8 10 5 6 -3 10 -1 10 5 0 6 5 8 10 5 6 -3 10 -1 10 5 0 6 5 8 10 5 6 -3
10 -1 10 5 0 6 5 8 10 5 6 -3 10 -1 10 5 0 6 5 8 10 5 6 -3 10 -1 10 5 0 6 5
8 10 5 6 -3 10 -1 10 5 0 6 5 8 10 5 6 -3 10 -1 10 6 0 7 3 10 6 6 3 -3 22 0
41 7 40 14 62 14 81 2z m2712 -371 c0 4 6 3 13 -3 7 -6 14 -30 16 -53 1 -24 4
-46 7 -51 3 -4 0 -8 -6 -8 -6 0 -9 -3 -7 -7 5 -10 -30 -43 -37 -35 -3 3 -6 1
-6 -4 0 -15 -74 -10 -90 6 -14 14 -14 14 -5 0 7 -12 7 -13 -5 -3 -16 15 -22
34 -24 88 -2 31 3 45 21 62 13 12 23 21 23 19 0 -3 12 -1 28 3 18 5 35 3 50
-7 12 -8 22 -11 22 -7z m-672 -136 c1 -1 5 -2 10 -3 13 -2 51 -44 45 -50 -4
-3 -2 -6 3 -6 5 0 10 -21 12 -48 2 -26 7 -51 12 -56 5 -5 6 -15 3 -22 -3 -8 1
-14 8 -14 7 0 9 -3 6 -7 -4 -3 0 -15 10 -25 9 -10 13 -18 8 -18 -4 0 1 -8 12
-17 10 -10 12 -14 3 -8 -8 5 0 -7 19 -28 19 -20 38 -34 43 -31 4 3 11 -2 14
-10 3 -9 10 -14 14 -11 4 3 11 -2 14 -11 4 -9 9 -15 12 -12 3 3 15 -4 28 -15
41 -37 23 -167 -24 -167 -6 0 -9 -4 -6 -8 3 -5 -8 -16 -25 -26 -16 -9 -29 -14
-29 -9 0 4 -5 0 -11 -10 -6 -9 -14 -15 -20 -12 -5 4 -9 2 -9 -3 0 -10 -71 -60
-92 -64 -7 -2 -18 -10 -25 -18 -7 -8 -13 -11 -13 -6 0 6 -7 1 -16 -10 -8 -10
-13 -13 -9 -6 3 6 -10 3 -30 -9 -42 -25 -120 -19 -148 11 -10 10 -9 12 3 6 8
-4 5 1 -7 12 -12 11 -19 22 -16 26 3 3 -2 8 -11 12 -9 3 -14 10 -11 14 3 4 -2
11 -11 14 -8 3 -12 10 -9 16 3 5 1 10 -5 10 -6 0 -8 5 -5 10 3 6 0 13 -9 16
-8 3 -12 12 -9 20 3 8 0 14 -7 14 -6 0 -8 5 -5 10 3 6 1 10 -5 10 -6 0 -8 5
-5 10 3 6 1 10 -6 10 -7 0 -10 3 -6 6 3 4 -2 14 -11 23 -12 10 -12 13 -2 6 17
-11 -59 75 -78 88 -7 4 -10 12 -7 18 4 5 1 9 -6 9 -7 0 -9 3 -6 6 3 4 1 16 -5
27 -14 26 -18 97 -6 97 5 0 6 5 3 10 -3 6 -2 10 4 10 5 0 24 15 42 33 18 17
29 25 24 17 -4 -8 4 -2 18 13 15 15 31 26 36 23 5 -3 12 1 15 10 3 8 10 13 15
10 5 -3 12 1 15 10 4 9 9 14 13 11 3 -4 12 1 20 11 10 11 12 12 8 2 -4 -8 1
-6 9 4 9 11 16 16 16 10 0 -5 5 -1 11 9 6 9 14 15 19 12 4 -3 11 2 14 11 3 8
10 12 16 9 5 -3 10 -1 10 5 0 6 4 9 9 5 6 -3 15 0 22 7 9 10 76 16 87 7z
m-768 -723 c0 -4 7 -5 16 -2 8 3 12 2 9 -4 -3 -6 -1 -11 4 -11 6 -1 17 -2 24
-3 6 0 12 -7 12 -14 0 -7 5 -16 10 -20 26 -18 26 -146 0 -164 -5 -4 -10 -13
-10 -19 0 -7 -9 -13 -20 -15 -11 -2 -24 -9 -30 -17 -11 -15 -125 -19 -125 -4
0 5 -4 6 -9 3 -5 -3 -12 1 -15 9 -3 8 -11 14 -18 13 -7 -2 -12 3 -10 10 1 7
-4 15 -12 18 -8 3 -12 12 -9 20 3 8 1 14 -5 14 -5 0 -8 21 -7 48 3 62 7 74 28
90 9 7 14 18 11 24 -4 6 -2 8 3 5 6 -4 21 1 33 11 23 18 120 25 120 8z m14
-838 c-5 -7 10 -12 29 -9 5 1 11 -8 14 -19 3 -11 10 -17 16 -13 5 3 7 1 3 -5
-3 -6 -1 -16 6 -24 18 -19 21 -64 6 -106 -6 -20 -11 -41 -10 -45 1 -5 -2 -6
-7 -3 -5 3 -11 -4 -14 -15 -3 -12 -10 -18 -16 -14 -6 3 -14 0 -17 -8 -5 -14
-12 -16 -71 -18 -49 -2 -65 2 -81 21 -12 13 -13 13 -6 0 4 -8 -4 -4 -17 10
-13 13 -23 28 -21 32 1 5 -2 8 -6 8 -9 0 -9 0 -15 78 -3 28 -2 52 2 52 3 0 12
9 19 21 11 17 11 20 0 14 -7 -5 -4 1 7 12 11 11 23 18 28 16 4 -2 10 2 13 10
3 10 24 14 74 14 38 0 67 -4 64 -9z"/>
<path d="M4449 5756 c-20 -8 -103 -49 -185 -93 -244 -128 -269 -166 -282 -426
-12 -238 4 -310 85 -389 21 -20 272 -186 558 -369 286 -183 539 -347 561 -364
88 -66 156 -163 195 -275 20 -60 23 -89 28 -365 6 -276 8 -304 27 -345 28 -60
77 -108 144 -139 l55 -26 325 0 c320 0 326 0 377 24 61 27 126 93 152 155 17
38 19 80 23 377 5 366 8 383 71 504 57 107 113 151 617 486 261 174 488 329
503 345 83 84 97 153 79 399 -19 253 -48 293 -307 422 -190 95 -242 108 -332
82 -31 -8 -170 -94 -405 -251 -197 -131 -380 -249 -406 -262 -107 -54 -155
-61 -442 -61 -375 0 -315 -23 -861 327 -185 119 -351 224 -370 234 -45 23
-162 28 -210 10z m2823 -125 c14 -5 29 -7 32 -4 3 4 6 1 6 -6 0 -7 5 -9 10 -6
6 3 10 1 10 -5 0 -6 5 -8 10 -5 6 3 10 1 10 -5 0 -6 5 -8 10 -5 6 3 10 1 10
-5 0 -6 5 -8 10 -5 6 3 10 1 10 -5 0 -6 5 -8 10 -5 6 3 10 1 10 -5 0 -6 5 -8
10 -5 6 3 10 1 10 -5 0 -6 5 -8 10 -5 6 3 10 1 10 -5 0 -6 5 -8 10 -5 6 3 10
1 10 -5 0 -6 4 -9 9 -5 5 3 16 -1 24 -9 8 -8 17 -12 21 -9 3 4 6 1 6 -6 0 -7
5 -9 10 -6 6 3 10 1 10 -5 0 -6 4 -9 9 -6 5 3 12 -1 15 -9 3 -8 11 -14 18 -13
7 2 12 -3 10 -10 -1 -7 5 -15 13 -18 8 -3 12 -10 9 -15 -3 -5 0 -9 5 -9 6 0
10 -3 10 -7 -1 -5 -1 -10 0 -13 1 -3 5 -48 8 -100 3 -52 8 -131 12 -175 5 -56
3 -90 -6 -112 -7 -18 -10 -33 -6 -33 4 0 -2 -7 -13 -16 -10 -8 -13 -13 -6 -9
20 10 14 0 -15 -26 -15 -13 -23 -17 -18 -9 6 9 -1 4 -14 -10 -13 -14 -20 -18
-16 -10 4 10 1 9 -8 -2 -8 -10 -17 -15 -20 -11 -4 3 -9 -2 -13 -11 -3 -9 -10
-13 -15 -10 -5 3 -12 -2 -15 -10 -3 -9 -10 -13 -15 -10 -5 3 -12 -2 -15 -10
-3 -9 -10 -13 -15 -10 -5 3 -12 -2 -15 -10 -3 -9 -10 -13 -15 -10 -5 3 -12 -2
-15 -10 -3 -9 -10 -14 -14 -11 -5 3 -13 -3 -19 -12 -6 -10 -11 -15 -11 -10 0
4 -14 0 -32 -9 -38 -20 -133 -21 -148 -3 -13 17 -192 99 -202 93 -7 -5 -8 -2
-3 6 6 10 4 12 -9 7 -9 -4 -15 -3 -12 2 3 4 -6 13 -20 20 -20 9 -24 9 -19 -1
4 -7 -1 -4 -10 7 -9 11 -21 19 -26 17 -6 -1 -8 2 -4 8 3 5 -1 13 -9 16 -9 3
-14 10 -11 14 3 5 0 14 -7 22 -14 15 -15 17 -23 143 -10 152 -10 265 -2 265 5
0 7 5 5 12 -2 6 8 23 22 37 14 14 17 19 6 11 -21 -15 -21 -15 -2 7 10 12 21
22 25 21 20 -2 31 3 26 12 -4 6 -3 10 2 9 20 -3 34 2 28 11 -4 6 -3 10 2 9 20
-3 34 2 28 11 -4 6 -3 10 2 9 20 -3 34 2 28 11 -4 6 -3 10 2 9 20 -3 34 2 28
11 -4 6 -3 10 2 9 20 -3 34 2 28 11 -4 6 -3 10 2 9 21 -4 34 2 27 13 -4 7 -3
8 4 4 6 -4 20 2 31 13 11 11 22 17 25 14 3 -4 6 -1 6 5 0 6 6 9 14 6 8 -3 17
-1 20 4 6 11 51 7 88 -7z m-2702 -356 c0 3 10 -6 23 -18 18 -17 23 -31 21 -62
-2 -54 -8 -73 -24 -88 -12 -10 -12 -9 -5 3 9 14 9 14 -5 0 -16 -16 -90 -21
-90 -6 0 5 -3 7 -6 4 -7 -8 -42 25 -37 35 2 4 -1 7 -7 7 -6 0 -9 4 -6 8 3 5 6
28 7 51 3 42 11 53 38 58 7 1 18 6 23 11 6 6 22 7 39 2 16 -5 29 -7 29 -5z
m658 -153 c8 -7 18 -10 23 -7 5 4 9 1 9 -5 0 -6 5 -8 10 -5 6 3 13 -1 16 -9 3
-9 10 -14 14 -11 5 3 13 -3 19 -12 6 -10 11 -14 11 -9 0 6 7 1 16 -10 8 -10
13 -12 9 -4 -4 10 -2 9 8 -2 8 -10 17 -15 20 -11 4 3 9 -2 13 -11 3 -9 10 -13
15 -10 5 3 12 -2 15 -10 3 -9 10 -13 15 -10 5 3 21 -8 36 -23 14 -15 22 -21
18 -13 -5 8 6 0 24 -17 18 -18 37 -33 42 -33 6 0 7 -4 4 -10 -3 -5 -2 -10 3
-10 12 0 8 -71 -6 -97 -6 -11 -8 -23 -5 -27 3 -3 1 -6 -6 -6 -7 0 -10 -4 -6
-9 3 -6 0 -14 -7 -18 -19 -13 -95 -99 -78 -88 10 7 10 4 -2 -6 -9 -9 -14 -19
-11 -23 4 -3 1 -6 -6 -6 -7 0 -9 -4 -6 -10 3 -5 1 -10 -5 -10 -6 0 -8 -4 -5
-10 3 -5 1 -10 -5 -10 -7 0 -10 -6 -7 -14 3 -8 -1 -17 -9 -20 -9 -3 -12 -10
-9 -16 3 -5 1 -10 -5 -10 -6 0 -8 -5 -5 -10 3 -6 -1 -13 -9 -16 -9 -3 -14 -10
-11 -14 3 -4 -2 -11 -11 -14 -9 -4 -14 -9 -11 -12 3 -4 -4 -15 -16 -26 -12
-11 -15 -16 -7 -12 12 6 13 4 3 -6 -28 -30 -106 -36 -148 -11 -20 12 -33 15
-30 9 4 -7 -1 -4 -9 6 -9 11 -16 16 -16 10 0 -5 -6 -2 -13 6 -7 8 -18 16 -25
18 -21 4 -92 54 -92 64 0 5 -4 7 -9 3 -6 -3 -14 3 -20 12 -6 10 -11 14 -11 10
0 -5 -13 0 -29 9 -17 10 -28 21 -25 26 3 4 0 8 -6 8 -28 0 -43 34 -45 101 -1
36 3 50 21 66 13 11 25 18 28 15 3 -3 8 3 12 12 3 9 10 14 14 11 4 -3 11 2 14
11 3 8 10 13 14 10 5 -3 24 11 43 31 19 21 27 33 19 28 -9 -6 -7 -2 3 8 11 9
16 17 12 17 -5 0 -1 8 8 18 10 10 14 22 10 25 -3 4 -1 7 6 7 7 0 11 6 8 14 -3
7 -2 17 3 22 5 5 10 30 12 56 2 27 7 48 12 48 5 0 7 3 4 6 -7 6 32 49 44 49 3
0 9 2 11 5 11 10 72 5 85 -8z m801 -724 c13 -10 29 -14 34 -11 6 3 7 1 3 -5
-3 -6 2 -17 11 -24 21 -16 25 -28 28 -90 1 -27 -2 -48 -7 -48 -6 0 -8 -6 -5
-14 3 -8 -1 -17 -9 -20 -8 -3 -13 -11 -12 -18 2 -7 -3 -12 -10 -10 -7 1 -15
-5 -18 -13 -3 -8 -10 -12 -15 -9 -5 3 -9 2 -9 -3 0 -15 -114 -11 -125 4 -6 8
-19 15 -30 17 -11 2 -20 8 -20 15 0 6 -4 15 -10 19 -26 18 -26 146 0 164 6 4
10 13 10 20 0 7 6 14 13 14 6 1 17 2 23 3 5 0 7 5 4 11 -3 6 1 7 9 4 9 -3 16
-2 16 3 0 15 94 8 119 -9z m5 -835 c3 -8 9 -12 13 -10 5 2 17 -5 28 -16 11
-11 14 -17 7 -12 -11 6 -11 3 0 -14 7 -12 16 -21 19 -21 4 0 5 -24 2 -52 -6
-78 -6 -78 -15 -78 -4 0 -7 -3 -5 -8 1 -4 -9 -19 -22 -32 -13 -14 -21 -18 -17
-10 7 13 6 13 -6 0 -16 -19 -32 -23 -80 -21 -60 2 -67 4 -72 18 -3 8 -11 11
-17 8 -6 -4 -13 2 -16 14 -3 11 -9 18 -14 15 -5 -3 -8 -2 -7 3 1 4 -4 25 -10
45 -15 42 -12 87 6 106 7 8 9 18 6 24 -4 6 -2 8 3 5 6 -4 13 2 16 13 3 11 9
20 14 19 19 -3 34 2 29 9 -3 5 26 9 64 9 50 0 71 -4 74 -14z"/>
<path d="M1500 2811 c-53 -17 -108 -51 -140 -87 -64 -73 -64 -75 -71 -454 -7
-370 -8 -377 -66 -497 -54 -112 -118 -163 -633 -504 -261 -173 -488 -330 -503
-348 -74 -89 -86 -159 -68 -400 12 -158 30 -215 90 -284 42 -48 363 -210 434
-220 99 -14 121 -3 516 258 392 259 404 266 490 298 51 19 83 21 333 25 401 5
343 27 903 -333 197 -127 363 -227 395 -238 87 -30 130 -20 319 76 90 45 183
99 208 121 87 76 110 162 114 423 2 130 1 142 -23 195 -14 31 -44 73 -66 95
-22 21 -280 191 -573 378 -577 368 -635 413 -696 530 -59 113 -65 152 -70 470
-5 281 -6 292 -29 342 -27 56 -71 100 -137 135 -41 22 -50 23 -372 25 -181 1
-341 -2 -355 -6z m413 -334 c10 -10 22 -15 26 -12 5 2 15 -3 22 -13 12 -15 12
-16 -1 -7 -14 9 -14 9 0 -5 36 -35 34 -151 -3 -178 -9 -7 -15 -18 -11 -23 3
-5 2 -9 -3 -8 -20 3 -34 -2 -28 -11 4 -6 3 -10 -2 -9 -4 1 -10 0 -13 -1 -15
-7 -110 -5 -110 3 0 5 -7 6 -16 3 -8 -3 -12 -2 -9 4 3 6 1 11 -4 11 -6 1 -17
2 -23 3 -7 1 -12 7 -10 14 1 7 -4 15 -12 18 -8 3 -12 12 -9 20 3 8 1 14 -5 14
-5 0 -8 21 -7 48 3 62 7 74 28 90 9 7 14 18 11 24 -4 7 -2 8 5 4 6 -4 14 0 17
8 3 9 10 13 15 10 5 -3 9 -1 9 3 0 5 26 9 57 8 42 0 63 -5 76 -18z m-3 -827
c0 -5 13 -17 29 -26 17 -10 28 -21 25 -25 -2 -4 2 -13 9 -21 15 -16 20 -118 5
-118 -6 0 -8 -6 -5 -14 3 -8 -4 -23 -16 -34 -21 -20 -25 -22 -48 -22 -5 0 -8
-4 -5 -8 3 -5 -26 -9 -64 -9 -38 0 -67 4 -64 9 5 7 -9 12 -27 10 -4 -1 -15 8
-25 20 -13 15 -14 19 -4 14 13 -7 13 -6 0 6 -18 16 -22 29 -24 88 -2 27 3 50
11 58 7 8 12 17 10 20 -2 4 8 18 21 32 14 14 22 18 18 10 -5 -10 -3 -10 5 1
10 13 29 17 81 17 37 0 68 -4 68 -8z m700 -242 c3 -3 12 -8 20 -10 8 -2 21
-10 28 -18 12 -13 13 -13 7 0 -4 8 3 4 15 -10 12 -14 19 -18 15 -10 -4 8 1 6
9 -4 9 -11 16 -17 16 -13 0 11 52 -23 73 -47 10 -12 16 -14 12 -6 -4 8 3 4 15
-10 12 -14 19 -18 15 -10 -4 8 1 6 9 -4 9 -11 16 -16 16 -12 0 4 20 -7 45 -24
25 -17 45 -34 45 -37 0 -3 -6 -2 -13 3 -7 5 -6 2 3 -6 8 -9 16 -20 16 -25 1
-6 4 -22 8 -37 4 -18 2 -28 -5 -28 -6 0 -9 -6 -7 -12 3 -7 -3 -19 -12 -28 -12
-12 -13 -13 0 -5 13 9 13 8 1 -7 -7 -10 -17 -15 -22 -13 -4 3 -17 -2 -27 -12
-62 -59 -95 -86 -77 -63 l20 25 -22 -19 c-12 -10 -22 -21 -21 -25 2 -20 -3
-31 -12 -26 -6 4 -10 3 -9 -2 4 -16 -13 -63 -23 -63 -5 0 -7 -4 -3 -9 3 -5 1
-12 -4 -16 -6 -3 -10 -18 -10 -33 0 -55 -7 -76 -36 -106 -24 -25 -39 -31 -77
-32 -27 -1 -48 3 -48 8 0 6 -7 7 -15 4 -9 -3 -18 1 -21 9 -4 8 -10 12 -15 9
-5 -3 -12 2 -15 10 -3 9 -10 13 -15 10 -5 -3 -12 2 -15 10 -3 9 -10 13 -15 10
-5 -3 -12 2 -15 10 -3 9 -10 13 -15 11 -4 -3 -17 3 -28 14 -11 11 -22 17 -25
14 -3 -3 -8 2 -12 11 -3 9 -10 13 -15 10 -5 -3 -12 2 -15 10 -3 9 -10 14 -14
11 -5 -3 -13 3 -19 12 -6 10 -11 14 -11 8 0 -5 -5 -3 -10 5 -5 8 -14 15 -20
15 -5 0 -9 3 -7 6 1 3 -4 13 -11 22 -19 22 -22 99 -5 115 7 8 11 18 7 23 -3 5
2 12 10 15 9 3 14 10 11 14 -3 4 2 10 10 14 8 3 15 11 15 19 0 7 16 27 35 44
19 17 35 38 35 47 0 9 5 16 11 16 6 0 9 7 5 15 -3 8 -1 15 4 15 8 0 23 33 25
53 0 4 7 12 15 17 8 5 11 10 5 10 -5 0 -2 5 8 11 9 6 15 14 12 19 -3 4 2 11
11 14 8 3 13 9 10 14 -2 4 9 17 25 27 16 11 29 23 29 26 0 8 84 6 90 -3z
m-2025 -360 c11 -2 22 -6 25 -9 13 -16 132 -69 142 -63 7 5 8 2 3 -6 -6 -10
-4 -12 9 -7 11 5 15 3 10 -5 -5 -8 -2 -9 10 -5 11 5 15 3 10 -5 -5 -8 -2 -9
10 -5 11 5 15 3 10 -5 -5 -8 -2 -9 10 -5 11 5 15 3 10 -5 -5 -8 -2 -9 10 -5
11 5 15 3 10 -5 -5 -8 -2 -9 10 -5 10 4 15 3 11 -3 -3 -6 0 -11 7 -11 7 -1 15
-2 18 -2 3 0 16 -12 30 -25 14 -14 18 -22 10 -18 -9 5 -8 2 2 -7 10 -8 15 -17
11 -20 -3 -4 -2 -7 3 -7 5 0 9 -10 10 -22 1 -13 4 -66 8 -118 13 -174 13 -213
4 -249 -5 -20 -10 -41 -10 -48 -1 -7 -5 -10 -10 -7 -4 3 -8 0 -8 -6 0 -6 -10
-21 -21 -33 -12 -12 -19 -15 -15 -7 4 8 -1 5 -12 -7 -11 -12 -22 -19 -26 -16
-3 3 -8 -2 -12 -11 -3 -9 -10 -13 -15 -10 -5 3 -12 -2 -15 -10 -3 -9 -10 -13
-15 -10 -5 3 -12 -2 -15 -10 -3 -9 -10 -13 -15 -10 -5 3 -12 -2 -15 -10 -3 -9
-10 -13 -15 -10 -5 3 -12 -2 -15 -10 -3 -9 -10 -13 -15 -10 -5 3 -12 -2 -15
-10 -3 -9 -10 -13 -15 -10 -5 3 -12 -2 -15 -10 -3 -9 -10 -13 -15 -10 -5 3 -9
0 -9 -5 0 -6 -3 -10 -7 -10 -5 1 -10 0 -13 -1 -16 -6 -110 -4 -110 4 0 4 -7 6
-15 2 -8 -3 -15 -1 -15 5 0 6 -4 7 -10 4 -6 -3 -10 -1 -10 5 0 6 -4 8 -10 5
-5 -3 -10 -1 -10 5 0 6 -4 8 -10 5 -5 -3 -10 -1 -10 5 0 6 -4 8 -10 5 -5 -3
-10 -1 -10 5 0 6 -4 8 -10 5 -5 -3 -10 -1 -10 5 0 6 -4 8 -10 5 -5 -3 -10 -1
-10 5 0 6 -4 8 -10 5 -5 -3 -10 -1 -10 5 0 6 -4 8 -10 5 -5 -3 -10 -1 -10 5 0
6 -4 8 -10 5 -6 -3 -10 -1 -10 5 0 6 -4 8 -10 5 -5 -3 -10 -1 -10 5 0 6 -4 8
-10 5 -5 -3 -10 -1 -10 5 0 6 -4 8 -10 5 -6 -3 -10 -1 -10 6 0 7 -3 9 -7 6 -3
-4 -12 1 -20 11 -9 10 -12 11 -7 2 4 -8 -4 -3 -18 12 -41 42 -52 94 -64 283
-9 145 -8 160 9 194 10 19 11 29 4 25 -7 -3 -2 3 10 13 12 10 30 27 38 38 9
11 13 14 10 7 -6 -11 -3 -11 13 -1 12 7 18 17 16 21 -3 5 -2 8 3 7 20 -3 34 2
28 11 -4 6 -3 10 2 9 21 -4 34 2 27 13 -4 7 -3 8 4 4 7 -4 24 5 39 21 14 15
23 21 19 13 -4 -8 2 -4 14 10 12 14 19 18 15 10 -4 -8 3 -4 15 10 12 14 19 18
15 10 -4 -10 -2 -9 8 2 8 10 17 15 20 11 4 -3 7 -1 7 6 0 7 5 9 10 6 6 -3 10
-1 10 5 0 6 4 9 8 6 4 -2 14 -1 21 3 7 5 22 7 34 5 12 -2 31 -5 42 -6z m2745
-378 c12 -12 13 -13 5 0 -8 12 -7 13 6 3 8 -7 16 -31 18 -54 1 -24 4 -46 7
-51 3 -4 0 -8 -6 -8 -6 0 -9 -3 -7 -7 8 -16 -29 -38 -68 -41 -22 -2 -42 -6
-44 -8 -2 -2 -11 5 -20 14 -10 12 -13 12 -6 2 7 -12 7 -13 -5 -3 -31 28 -35
117 -6 147 26 28 102 32 126 6z"/>
<path d="M5607 2806 c-54 -20 -111 -60 -140 -98 -52 -68 -56 -93 -60 -398 -5
-313 -11 -352 -70 -465 -61 -117 -119 -162 -696 -530 -293 -187 -551 -357
-573 -378 -22 -22 -52 -64 -66 -95 -24 -53 -25 -65 -23 -195 4 -261 27 -347
114 -423 25 -22 118 -76 208 -121 189 -96 232 -106 319 -76 32 11 198 111 395
238 427 274 453 289 548 315 73 20 96 21 355 18 250 -4 282 -6 333 -25 86 -32
98 -39 490 -298 395 -261 417 -272 516 -258 71 10 392 172 434 220 60 69 78
126 90 284 18 241 6 311 -68 400 -15 18 -242 175 -503 348 -515 341 -579 392
-633 504 -58 120 -59 127 -66 497 -7 379 -7 381 -71 454 -18 20 -56 49 -84 64
l-51 27 -330 2 c-260 2 -338 0 -368 -11z m413 -319 c0 -4 4 -6 9 -3 5 3 12 -1
15 -10 3 -8 11 -12 17 -8 7 4 9 3 5 -4 -3 -6 2 -17 11 -24 21 -16 25 -28 28
-90 1 -27 -2 -48 -7 -48 -6 0 -8 -6 -5 -14 3 -8 -1 -17 -9 -20 -8 -3 -13 -11
-12 -18 2 -7 -3 -13 -9 -14 -7 -1 -18 -2 -24 -3 -5 0 -7 -5 -4 -11 3 -6 -1 -7
-9 -4 -9 3 -16 2 -16 -3 0 -8 -95 -10 -110 -3 -3 1 -9 2 -13 1 -5 -1 -6 3 -2
9 6 9 -8 14 -28 11 -5 -1 -6 3 -3 8 4 5 -2 16 -11 23 -37 27 -39 143 -3 178
14 14 14 14 0 5 -12 -7 -13 -7 -3 5 7 8 21 15 30 16 10 2 22 9 26 16 10 15
127 19 127 5z m18 -846 c10 -12 12 -12 6 -1 -4 8 4 4 18 -10 13 -14 23 -28 21
-32 -2 -3 3 -12 10 -20 8 -8 13 -31 11 -58 -2 -59 -6 -72 -24 -88 -13 -12 -13
-13 0 -6 10 5 9 1 -4 -14 -10 -12 -21 -21 -25 -20 -18 2 -32 -3 -27 -10 3 -5
-26 -9 -64 -9 -38 0 -67 4 -64 9 5 7 -10 12 -20 6 -10 -7 -54 46 -49 58 3 8 1
14 -5 14 -15 0 -10 102 5 118 7 8 11 17 9 21 -3 4 8 15 25 25 16 9 29 21 29
26 0 4 30 8 67 8 50 0 71 -5 81 -17z m-738 -248 c14 -13 28 -23 33 -23 4 0 5
-5 2 -10 -3 -6 1 -13 9 -16 9 -3 14 -10 11 -14 -3 -5 3 -13 12 -19 10 -6 14
-11 8 -11 -5 0 -3 -5 5 -10 8 -5 15 -13 15 -17 2 -20 17 -53 25 -53 5 0 7 -7
4 -15 -4 -8 -1 -15 5 -15 6 0 11 -7 11 -16 0 -9 16 -30 35 -47 19 -17 35 -37
35 -44 0 -8 7 -16 15 -19 8 -4 13 -10 10 -14 -3 -4 2 -11 11 -14 8 -3 13 -10
10 -15 -4 -5 0 -15 7 -23 17 -16 14 -93 -5 -115 -7 -9 -12 -19 -10 -22 1 -3
-3 -6 -8 -6 -6 0 -15 -7 -20 -15 -5 -8 -10 -10 -10 -5 0 6 -5 2 -11 -8 -6 -9
-14 -15 -19 -12 -4 3 -11 -2 -14 -11 -3 -8 -10 -13 -15 -10 -5 3 -12 -1 -15
-10 -4 -9 -9 -14 -12 -11 -3 3 -14 -3 -25 -14 -11 -11 -24 -17 -28 -14 -5 2
-12 -2 -15 -11 -3 -8 -10 -13 -15 -10 -5 3 -12 -1 -15 -10 -3 -8 -10 -13 -15
-10 -5 3 -12 -1 -15 -10 -3 -8 -10 -13 -15 -10 -5 3 -11 -1 -15 -9 -3 -8 -12
-12 -21 -9 -8 3 -15 2 -15 -4 0 -5 -21 -9 -47 -8 -39 1 -54 7 -78 32 -29 30
-36 51 -36 106 0 15 -4 30 -10 33 -5 4 -7 11 -4 16 4 5 2 9 -3 9 -10 0 -27 47
-23 63 1 5 -3 6 -9 2 -9 -5 -14 6 -12 26 1 4 -9 15 -21 25 l-22 19 20 -25 c18
-23 -15 4 -77 63 -10 10 -23 15 -27 12 -5 -2 -15 3 -22 13 -12 15 -12 16 1 7
13 -8 12 -7 0 5 -9 9 -15 21 -12 28 2 6 -1 12 -7 12 -7 0 -9 10 -5 28 4 15 7
31 8 37 0 5 8 16 16 25 9 8 10 11 3 6 -7 -5 -13 -6 -13 -3 0 3 20 20 45 37 25
17 45 28 45 24 0 -4 7 1 16 12 8 10 13 12 9 4 -4 -8 3 -4 15 10 12 14 19 18
15 10 -4 -8 2 -6 12 6 21 24 73 58 73 47 0 -4 7 2 16 13 8 10 13 12 9 4 -4 -8
3 -4 15 10 12 14 19 18 15 10 -6 -13 -5 -13 7 0 7 8 20 16 28 18 8 2 16 7 18
11 1 4 21 7 45 7 29 -1 50 -8 67 -23z m2008 -345 c6 -1 12 -5 12 -10 0 -5 5
-6 10 -3 6 3 10 1 10 -6 0 -7 3 -9 7 -6 3 4 12 -1 20 -11 10 -11 12 -12 8 -2
-4 8 3 4 15 -10 12 -14 19 -18 15 -10 -4 8 3 4 15 -10 12 -14 18 -18 14 -10
-4 8 5 2 19 -13 15 -16 32 -25 39 -21 7 4 8 3 4 -4 -7 -11 6 -17 27 -13 5 1 6
-3 2 -9 -6 -9 8 -14 28 -11 5 1 6 -2 3 -7 -2 -4 4 -14 16 -21 16 -10 19 -10
13 1 -4 7 2 3 12 -9 10 -12 27 -30 38 -38 11 -9 15 -14 8 -11 -7 4 -6 -6 4
-25 17 -34 18 -49 9 -194 -12 -189 -23 -241 -64 -283 -14 -15 -22 -20 -18 -12
5 9 2 8 -7 -2 -8 -10 -17 -15 -20 -11 -4 3 -7 1 -7 -6 0 -7 -4 -9 -10 -6 -5 3
-10 1 -10 -5 0 -6 -4 -8 -10 -5 -5 3 -10 1 -10 -5 0 -6 -4 -8 -10 -5 -5 3 -10
1 -10 -5 0 -6 -4 -8 -10 -5 -5 3 -10 1 -10 -5 0 -6 -4 -8 -10 -5 -5 3 -10 1
-10 -5 0 -6 -4 -8 -10 -5 -5 3 -10 1 -10 -5 0 -6 -4 -8 -10 -5 -5 3 -10 1 -10
-5 0 -6 -4 -8 -10 -5 -5 3 -10 1 -10 -5 0 -6 -4 -8 -10 -5 -5 3 -10 1 -10 -5
0 -6 -4 -8 -10 -5 -5 3 -10 1 -10 -5 0 -6 -4 -8 -10 -5 -5 3 -10 1 -10 -5 0
-6 -4 -8 -10 -5 -5 3 -10 2 -10 -4 0 -6 -7 -8 -15 -5 -8 4 -15 2 -15 -2 0 -8
-94 -10 -110 -4 -3 1 -8 2 -12 1 -5 0 -8 4 -8 10 0 5 -4 8 -9 5 -5 -3 -12 1
-15 10 -3 8 -10 13 -15 10 -5 -3 -12 1 -15 10 -3 8 -10 13 -15 10 -5 -3 -12 1
-15 10 -3 8 -10 13 -15 10 -5 -3 -12 1 -15 10 -3 8 -10 13 -15 10 -5 -3 -12 1
-15 10 -3 8 -10 13 -15 10 -5 -3 -12 1 -15 10 -3 8 -10 13 -15 10 -5 -3 -12 1
-15 10 -4 9 -9 14 -12 11 -4 -3 -15 4 -26 16 -11 12 -16 15 -12 7 4 -8 -3 -5
-15 7 -11 12 -21 27 -21 33 0 6 -4 9 -8 6 -5 -3 -9 0 -10 7 0 7 -5 28 -10 48
-9 36 -9 75 4 249 4 52 7 105 8 118 1 12 5 22 10 22 5 0 6 3 3 7 -4 3 1 12 11
20 10 9 11 12 2 7 -8 -4 -4 4 10 18 14 13 27 25 30 25 3 0 11 1 18 2 7 0 10 5
7 11 -4 6 1 7 11 3 12 -4 15 -3 10 5 -5 8 -1 10 10 5 12 -4 15 -3 10 5 -5 8
-1 10 10 5 12 -4 15 -3 10 5 -5 8 -1 10 10 5 12 -4 15 -3 10 5 -5 8 -1 10 10
5 12 -4 15 -3 10 5 -5 8 -1 10 10 5 13 -5 15 -3 9 7 -5 8 -4 11 3 6 12 -7 135
50 140 65 2 5 8 7 13 4 5 -4 16 -2 25 3 9 5 28 7 43 5 14 -2 32 -5 39 -5z
m-2713 -382 c16 -16 21 -31 19 -61 -2 -54 -8 -73 -24 -88 -12 -10 -12 -9 -5 3
7 10 4 10 -6 -2 -9 -9 -18 -16 -20 -14 -2 2 -22 6 -44 8 -39 3 -76 25 -68 41
2 4 -1 7 -7 7 -6 0 -9 4 -6 8 3 5 6 27 7 51 2 23 10 47 18 54 13 10 14 9 6 -4
-7 -10 -5 -10 5 2 22 24 96 21 125 -5z"/>
</g>
</svg>
