<?xml version="1.0" standalone="no"?>
<!DOCTYPE svg PUBLIC "-//W3C//DTD SVG 20010904//EN"
 "http://www.w3.org/TR/2001/REC-SVG-20010904/DTD/svg10.dtd">
<svg version="1.0" xmlns="http://www.w3.org/2000/svg"
 width="1000.000000pt" height="516.000000pt" viewBox="0 0 1000.000000 516.000000"
 preserveAspectRatio="xMidYMid meet">

<g transform="translate(0.000000,516.000000) scale(0.100000,-0.100000)"
fill="#000000" stroke="none">
<path d="M398 5154 c-3 -3 -28 -7 -54 -10 -27 -3 -51 -9 -52 -14 -2 -6 -8 -8
-13 -4 -5 3 -9 0 -9 -6 0 -6 -4 -8 -10 -5 -5 3 -10 1 -10 -5 0 -6 -4 -8 -10
-5 -5 3 -10 1 -10 -5 0 -6 -5 -8 -10 -5 -5 3 -10 1 -10 -5 0 -6 -3 -10 -7 -8
-10 4 -132 -120 -125 -127 3 -3 0 -5 -7 -5 -7 0 -9 -4 -6 -10 3 -5 1 -10 -5
-10 -6 0 -8 -4 -5 -10 3 -5 1 -10 -5 -10 -6 0 -8 -4 -5 -10 3 -5 1 -10 -6 -10
-7 0 -9 -3 -6 -6 3 -4 2 -15 -3 -24 -5 -10 -13 -37 -17 -61 -10 -55 -10 -3401
0 -3449 4 -19 7 -45 7 -57 0 -13 5 -23 11 -23 5 0 7 -4 4 -10 -3 -5 -1 -10 4
-10 6 0 10 -3 9 -7 -5 -17 33 -71 88 -127 57 -56 137 -106 179 -112 11 -1 44
-7 74 -13 76 -15 8481 -15 8566 0 33 6 67 12 75 13 44 7 134 63 187 116 33 33
57 62 55 65 -3 3 0 5 7 5 7 0 9 5 6 10 -3 6 -1 10 5 10 6 0 8 4 5 10 -10 16
14 12 79 -14 34 -14 90 -29 124 -35 34 -5 67 -13 72 -16 6 -4 10 -194 10 -530
l0 -524 39 -44 38 -45 155 -1 c85 -1 162 1 171 5 16 6 17 142 17 2085 l0 2079
-171 0 -170 0 -26 -30 c-39 -47 -53 -40 -53 30 l0 60 -42 0 c-24 0 -61 9 -83
19 -47 21 -99 77 -91 98 3 8 1 11 -4 8 -6 -4 -10 57 -11 172 0 175 -2 203 -14
273 -4 19 -7 41 -7 48 -1 6 -5 12 -10 12 -5 0 -6 5 -3 10 3 6 1 10 -5 10 -6 0
-8 5 -5 10 3 6 1 10 -5 10 -6 0 -8 5 -5 10 3 6 1 10 -5 10 -6 0 -8 5 -5 10 3
6 1 10 -6 10 -7 0 -9 3 -6 7 9 8 -115 133 -125 127 -5 -3 -8 0 -8 6 0 6 -4 8
-10 5 -5 -3 -10 -1 -10 5 0 6 -4 8 -10 5 -5 -3 -10 -1 -10 5 0 6 -4 8 -10 5
-5 -3 -10 -1 -10 5 0 6 -4 8 -10 5 -5 -3 -10 -2 -10 3 0 5 -6 9 -12 9 -7 0
-40 5 -72 12 -44 8 -1188 11 -4316 11 -2341 0 -4259 -3 -4262 -6z m629 -391
c101 -48 94 -198 -12 -233 -46 -15 -89 -5 -131 32 -31 27 -34 35 -34 83 0 60
24 99 74 121 41 18 61 17 103 -3z m7218 0 c76 -36 94 -143 33 -203 -41 -42
-91 -49 -145 -20 -77 41 -92 140 -30 198 45 43 89 50 142 25z m-1006 -2022
c11 -11 23 -35 26 -53 3 -18 5 -222 3 -453 -3 -412 -3 -421 -24 -448 l-22 -27
-1706 3 -1705 2 -23 23 -23 23 -3 422 c-2 232 0 437 3 455 3 18 15 42 26 53
19 19 49 19 1724 19 1675 0 1705 0 1724 -19z m-6172 -1165 c27 -29 33 -44 33
-78 -1 -80 -50 -128 -132 -128 -82 0 -139 74 -117 153 9 31 49 100 49 84 0 -4
8 -3 18 3 9 6 39 9 66 7 42 -4 55 -10 83 -41z m7191 24 c95 -58 65 -212 -44
-227 -67 -9 -109 11 -135 63 -57 119 67 232 179 164z"/>
<path d="M130 5035 c-24 -25 -42 -45 -39 -45 3 0 25 20 49 45 24 25 42 45 39
45 -3 0 -25 -20 -49 -45z"/>
</g>
</svg>
