<?xml version="1.0" standalone="no"?>
<!DOCTYPE svg PUBLIC "-//W3C//DTD SVG 20010904//EN"
 "http://www.w3.org/TR/2001/REC-SVG-20010904/DTD/svg10.dtd">
<svg version="1.0" xmlns="http://www.w3.org/2000/svg"
 width="663.000000pt" height="663.000000pt" viewBox="0 0 663.000000 663.000000"
 preserveAspectRatio="xMidYMid meet">

<g transform="translate(0.000000,663.000000) scale(0.100000,-0.100000)"
fill="#000000" stroke="none">
<path d="M10 3320 l0 -3310 3310 0 3310 0 -2 3308 -3 3307 -3307 3 -3308 2 0
-3310z m191 3149 c-5 -40 -35 -49 -55 -17 -13 22 9 49 38 44 16 -2 20 -9 17
-27z m6299 1 c0 -5 -7 -16 -16 -24 -12 -12 -20 -13 -35 -6 -24 13 -25 36 -2
49 18 10 53 -2 53 -19z m-202 -168 c9 -7 12 -79 10 -328 l-3 -319 -2985 0
-2985 0 -3 315 c-1 173 0 320 3 327 3 10 596 13 2977 13 1635 0 2979 -4 2986
-8z m0 -5964 c-7 -4 -1352 -7 -2988 -5 l-2975 2 -3 2497 -2 2498 2987 2 2988
3 3 -2494 c2 -1989 0 -2496 -10 -2503z m197 -156 c8 -20 -29 -53 -50 -45 -16
6 -18 16 -9 49 4 16 11 20 29 16 13 -2 26 -11 30 -20z m-6296 -4 c10 -27 -6
-47 -32 -40 -37 10 -34 62 3 62 12 0 24 -9 29 -22z"/>
<path d="M1007 4584 c-4 -4 -7 -31 -7 -61 0 -47 2 -53 21 -53 12 0 23 8 26 20
13 49 53 -1 53 -67 0 -39 -5 -54 -24 -72 l-24 -23 -4 24 c-2 15 -11 24 -25 26
-22 3 -23 0 -23 -58 l0 -61 63 3 c47 2 62 7 62 18 0 8 -10 16 -22 18 -28 4
-29 14 -5 35 27 24 123 23 145 -1 23 -25 21 -32 -8 -32 -18 0 -25 -5 -25 -20
0 -18 7 -20 60 -20 54 0 60 2 66 24 3 13 4 38 2 57 -2 26 -8 35 -25 37 -19 3
-23 -1 -23 -24 l0 -27 -25 23 c-20 19 -25 33 -25 75 0 38 5 56 18 68 24 22 32
21 32 -4 0 -15 5 -20 23 -17 17 2 23 11 25 37 2 19 1 44 -2 57 -6 22 -12 24
-66 24 -53 0 -60 -2 -60 -20 0 -15 7 -20 25 -20 31 0 32 -10 2 -38 -33 -31
-105 -31 -135 1 -28 29 -27 35 1 39 12 2 22 10 22 18 0 11 -14 16 -55 18 -31
2 -59 0 -63 -4z m181 -162 c3 -16 -2 -22 -17 -22 -24 0 -35 15 -27 36 9 23 40
13 44 -14z"/>
<path d="M5296 4574 c-3 -9 -6 -36 -6 -60 0 -40 2 -44 25 -44 18 0 25 5 25 20
0 25 12 26 33 2 11 -12 17 -36 17 -69 0 -40 -5 -54 -25 -73 l-25 -23 0 27 c0
23 -4 27 -22 24 -21 -3 -23 -9 -23 -58 l0 -55 63 -3 c57 -3 62 -1 62 18 0 15
-6 20 -25 20 -30 0 -32 11 -7 33 27 24 123 23 145 -1 22 -24 21 -30 -5 -34
-13 -2 -24 -11 -26 -21 -3 -16 3 -18 60 -15 l63 3 3 58 c3 56 2 58 -20 55 -15
-2 -24 -11 -26 -26 l-4 -24 -24 23 c-31 29 -35 116 -6 142 24 22 32 21 32 -3
0 -15 7 -20 25 -20 25 0 26 2 23 58 l-3 57 -60 0 c-49 0 -60 -3 -63 -17 -3
-14 3 -18 22 -18 32 0 33 -10 3 -38 -33 -31 -105 -31 -135 1 -28 30 -28 37 3
37 18 0 25 5 25 20 0 18 -7 20 -59 20 -44 0 -60 -4 -65 -16z m189 -149 c0 -23
-34 -33 -45 -14 -13 20 1 40 24 37 13 -2 21 -10 21 -23z"/>
</g>
</svg>
