<?xml version="1.0" standalone="no"?>
<!DOCTYPE svg PUBLIC "-//W3C//DTD SVG 20010904//EN"
 "http://www.w3.org/TR/2001/REC-SVG-20010904/DTD/svg10.dtd">
<svg version="1.0" xmlns="http://www.w3.org/2000/svg"
 width="690.000000pt" height="666.000000pt" viewBox="0 0 690.000000 666.000000"
 preserveAspectRatio="xMidYMid meet">

<g transform="translate(0.000000,666.000000) scale(0.100000,-0.100000)"
fill="#000000" stroke="none">
<path d="M1411 6633 c-5 -10 -12 -17 -15 -15 -15 6 -25 0 -31 -18 -4 -11 -11
-18 -16 -15 -5 4 -9 1 -9 -5 0 -6 -5 -8 -10 -5 -6 3 -13 -1 -16 -9 -3 -9 -10
-13 -15 -10 -5 3 -9 0 -9 -6 0 -6 -5 -8 -10 -5 -6 3 -13 -1 -16 -9 -3 -9 -10
-13 -15 -10 -5 3 -9 0 -9 -6 0 -6 -5 -8 -10 -5 -6 3 -13 -1 -16 -9 -3 -9 -10
-13 -15 -10 -5 3 -9 0 -9 -6 0 -6 -4 -9 -10 -5 -5 3 -18 -2 -28 -12 -10 -10
-25 -19 -33 -21 -8 -2 -19 -8 -24 -15 -6 -7 -17 -13 -25 -15 -8 -2 -20 -8 -25
-15 -6 -7 -17 -13 -25 -15 -8 -2 -20 -8 -25 -15 -6 -7 -17 -13 -25 -15 -8 -2
-20 -8 -25 -15 -6 -7 -17 -13 -25 -15 -8 -2 -20 -8 -25 -15 -6 -7 -17 -13 -25
-15 -8 -2 -20 -8 -25 -15 -6 -7 -17 -13 -25 -15 -8 -2 -20 -8 -25 -15 -6 -7
-17 -13 -25 -15 -8 -2 -20 -8 -25 -15 -6 -7 -17 -13 -25 -15 -8 -2 -20 -8 -25
-15 -6 -7 -17 -13 -25 -15 -8 -2 -20 -8 -25 -15 -6 -7 -17 -13 -25 -15 -8 -2
-20 -8 -25 -15 -6 -7 -17 -13 -25 -15 -8 -2 -20 -8 -25 -15 -6 -7 -17 -13 -25
-15 -8 -2 -20 -8 -25 -15 -6 -7 -17 -13 -25 -15 -8 -2 -20 -8 -25 -15 -6 -7
-17 -13 -25 -15 -8 -2 -20 -8 -25 -15 -6 -7 -17 -13 -25 -15 -8 -2 -20 -8 -25
-15 -6 -7 -17 -13 -25 -15 -8 -2 -20 -8 -25 -15 -6 -7 -17 -13 -25 -15 -8 -2
-20 -8 -25 -15 -6 -7 -17 -13 -25 -15 -8 -2 -20 -8 -25 -15 -6 -7 -17 -13 -25
-15 -8 -2 -19 -9 -25 -16 -5 -7 -14 -13 -18 -14 -24 -2 -67 -23 -67 -32 0 -6
-4 -8 -10 -5 -5 3 -10 1 -10 -4 0 -6 -6 -10 -12 -8 -10 1 -13 -562 -14 -2789
l0 -2792 135 -6 c75 -3 215 -8 311 -11 96 -3 209 -8 250 -10 41 -2 149 -7 240
-10 91 -3 203 -7 250 -10 47 -2 157 -7 245 -10 88 -3 198 -8 245 -10 47 -3
157 -7 245 -10 88 -3 198 -8 245 -10 47 -3 157 -7 245 -10 88 -3 198 -8 245
-10 47 -2 155 -7 240 -10 85 -3 198 -7 250 -10 52 -2 160 -7 240 -10 80 -3
192 -7 250 -10 58 -3 166 -7 240 -10 74 -3 187 -7 250 -10 63 -3 169 -7 235
-10 66 -2 183 -7 260 -10 77 -3 183 -8 235 -10 621 -29 601 -29 611 -14 5 8 9
10 9 5 0 -6 7 -1 16 10 8 10 12 12 8 4 -4 -9 2 -7 17 6 35 31 1278 774 1294
774 8 0 18 8 24 17 5 10 17 18 26 18 15 0 16 221 16 2790 l0 2790 -23 2 c-13
1 -144 7 -293 13 -522 21 -4911 201 -5032 206 -110 5 -122 3 -132 -13z m2459
-398 c1163 -47 2147 -88 2187 -91 57 -4 71 -9 66 -20 -3 -8 -8 -12 -11 -10 -3
3 -11 -2 -19 -12 -10 -11 -12 -12 -8 -2 4 8 -1 6 -9 -4 -9 -11 -16 -16 -16
-11 0 5 -7 0 -16 -11 -8 -10 -13 -12 -9 -4 4 8 -1 6 -9 -4 -9 -11 -16 -16 -16
-11 0 5 -7 0 -16 -11 -8 -10 -13 -12 -9 -4 4 8 -1 6 -9 -4 -9 -11 -16 -16 -16
-11 0 5 -7 0 -16 -11 -8 -10 -13 -12 -9 -4 4 8 -1 6 -9 -4 -9 -11 -16 -16 -16
-11 0 5 -7 0 -16 -11 -8 -10 -13 -12 -9 -4 4 8 -1 6 -9 -4 -9 -11 -16 -16 -16
-11 0 5 -7 0 -16 -11 -8 -10 -13 -12 -9 -4 4 8 -1 6 -9 -4 -9 -11 -16 -16 -16
-11 0 5 -7 0 -16 -11 -8 -10 -13 -12 -9 -4 4 8 -1 6 -9 -4 -9 -11 -16 -16 -16
-11 0 5 -7 0 -16 -11 -8 -10 -13 -12 -9 -4 4 8 -1 6 -9 -4 -9 -11 -16 -16 -16
-11 0 5 -7 0 -16 -11 -8 -10 -13 -12 -9 -4 4 8 -1 6 -9 -4 -9 -11 -16 -16 -16
-11 0 5 -7 0 -16 -11 -8 -10 -13 -12 -9 -4 4 8 -1 6 -9 -4 -9 -11 -16 -16 -16
-11 0 5 -7 0 -16 -11 -8 -10 -13 -12 -9 -4 4 8 -1 6 -9 -4 -9 -11 -16 -16 -16
-11 0 5 -7 0 -16 -11 -8 -10 -13 -12 -9 -4 4 8 -1 6 -9 -4 -9 -11 -16 -16 -16
-11 0 5 -7 0 -16 -11 -8 -10 -13 -12 -9 -4 4 10 2 9 -8 -2 -8 -10 -17 -15 -20
-11 -4 3 -7 1 -7 -6 0 -7 -5 -9 -10 -6 -6 3 -13 -1 -16 -9 -3 -9 -10 -13 -15
-10 -5 3 -9 0 -9 -6 0 -6 -5 -8 -10 -5 -6 3 -13 -1 -16 -9 -3 -9 -10 -13 -15
-10 -5 3 -9 0 -9 -6 0 -6 -5 -8 -10 -5 -6 3 -12 0 -15 -7 -3 -8 -15 -15 -27
-15 -12 -1 -25 -8 -29 -15 -5 -7 -9 -8 -9 -3 0 6 -7 2 -14 -8 -8 -10 -17 -18
-20 -18 -3 1 -11 1 -16 1 -7 0 -8 -124 -4 -383 4 -228 3 -386 -2 -389 -5 -3
-794 27 -1754 66 l-1745 71 -3 683 -2 682 27 0 c16 0 980 -38 2143 -85z
m-2504 -1262 c-6 -6 -28 -6 -166 1 -69 4 -181 9 -250 11 -69 3 -199 8 -290 13
-91 4 -198 7 -238 7 l-72 0 2 279 3 280 505 303 505 303 3 -597 c1 -328 0
-598 -2 -600z m5194 -1424 l0 -2410 -137 6 c-269 12 -548 23 -563 23 -8 0 -84
3 -167 7 l-153 8 -2 2087 c-2 1149 0 2086 5 2083 4 -2 10 2 13 10 2 7 10 14
17 14 7 0 230 131 497 292 267 160 486 291 488 291 1 0 2 -1085 2 -2411z
m-5685 1126 c226 -9 429 -18 453 -21 l42 -5 0 -1668 c0 -1576 -1 -1669 -18
-1683 -9 -8 -120 -76 -245 -151 -214 -129 -231 -137 -280 -137 -29 0 -59 -5
-67 -10 -11 -7 -5 -10 23 -10 39 0 49 -12 20 -26 -10 -4 -79 -13 -153 -19
-125 -10 -139 -14 -186 -43 -29 -18 -65 -32 -83 -32 l-31 0 0 1910 0 1910 58
0 c31 0 241 -7 467 -15z m1175 -50 c85 -3 193 -7 240 -10 47 -2 155 -7 240
-10 85 -3 198 -7 250 -10 52 -2 160 -7 240 -10 80 -3 192 -7 250 -10 58 -3
166 -7 240 -10 198 -8 371 -15 490 -20 58 -3 173 -7 255 -10 83 -3 186 -8 230
-10 44 -2 166 -7 270 -11 105 -3 206 -8 225 -9 19 -2 77 -4 128 -4 l92 -1 0
-1650 0 -1650 -25 0 c-14 0 -794 32 -1735 70 -941 39 -1717 70 -1725 70 -13 0
-15 197 -15 1651 l0 1651 98 -6 c53 -3 167 -8 252 -11z m-98 -3609 c95 -4 211
-9 258 -11 47 -2 153 -7 237 -10 84 -3 198 -7 255 -10 57 -3 166 -7 243 -10
77 -3 187 -7 245 -10 58 -3 168 -7 245 -10 77 -3 187 -7 245 -10 58 -3 168 -7
245 -10 77 -3 187 -7 245 -10 58 -3 169 -7 247 -10 79 -3 182 -7 230 -10 49
-2 165 -7 258 -10 94 -4 199 -8 235 -9 l65 -3 3 -275 2 -275 -41 -6 c-22 -3
-69 -1 -105 4 -35 5 -97 9 -137 8 -39 0 -126 2 -192 5 -66 3 -181 8 -255 11
-74 3 -184 8 -245 10 -60 3 -171 7 -245 10 -74 3 -184 8 -245 10 -60 3 -171 7
-245 10 -74 3 -184 8 -245 10 -60 3 -171 7 -245 10 -74 3 -184 8 -245 10 -60
3 -171 7 -245 10 -74 3 -184 8 -245 10 -60 3 -171 7 -245 10 -74 3 -184 8
-245 10 -130 6 -337 14 -490 20 -60 2 -180 7 -265 11 -85 4 -179 7 -207 8 -29
1 -53 3 -53 6 0 3 43 30 94 60 52 30 92 58 89 63 -2 4 -1 6 4 5 16 -4 53 14
47 23 -3 5 -2 8 3 7 16 -4 53 14 47 23 -3 5 -2 8 3 7 16 -4 53 14 47 23 -3 5
-2 8 3 7 16 -4 53 14 47 23 -3 5 -2 8 3 7 16 -4 53 14 47 23 -3 5 -2 8 3 7 16
-4 53 14 47 23 -3 5 -2 8 3 7 16 -4 53 14 47 23 -3 5 -2 8 3 7 16 -4 53 14 47
23 -3 5 -2 8 3 7 16 -4 53 14 47 23 -3 5 -2 8 3 7 16 -4 53 14 47 23 -3 5 -2
8 3 7 16 -4 53 14 47 23 -3 5 -2 8 3 7 16 -4 53 14 47 23 -3 5 -2 8 3 7 13 -3
54 13 49 20 -5 8 82 7 346 -2z m3966 -165 c144 -6 207 -12 215 -21 9 -10 9
-11 0 -6 -8 4 -13 2 -13 -5 0 -7 -3 -9 -7 -6 -3 4 -12 -1 -20 -11 -10 -11 -12
-12 -8 -2 4 8 -1 6 -9 -4 -9 -11 -16 -16 -16 -11 0 5 -7 0 -16 -11 -8 -10 -13
-12 -9 -4 4 8 -1 6 -9 -4 -9 -11 -16 -16 -16 -11 0 5 -7 0 -16 -11 -8 -10 -13
-12 -9 -4 4 8 -1 6 -9 -4 -9 -11 -16 -16 -16 -11 0 5 -7 0 -16 -11 -8 -10 -13
-12 -9 -4 4 8 -1 6 -9 -4 -9 -11 -16 -16 -16 -11 0 5 -7 0 -16 -11 -8 -10 -13
-12 -9 -4 4 8 -1 6 -9 -4 -9 -11 -16 -16 -16 -11 0 5 -7 0 -16 -11 -8 -10 -13
-12 -9 -4 4 8 -1 6 -9 -4 -9 -11 -16 -16 -16 -11 0 5 -7 0 -16 -11 -8 -10 -13
-12 -9 -4 4 8 -1 6 -9 -4 -9 -11 -16 -16 -16 -11 0 5 -7 0 -16 -11 -8 -10 -13
-12 -9 -4 4 8 -1 6 -9 -4 -9 -11 -16 -16 -16 -11 0 5 -7 0 -16 -11 -8 -10 -13
-12 -9 -4 4 8 -1 6 -9 -4 -9 -11 -16 -16 -16 -11 0 5 -7 0 -16 -11 -8 -10 -13
-12 -9 -4 4 8 -1 6 -9 -4 -9 -11 -16 -16 -16 -11 0 5 -7 0 -16 -11 -8 -10 -13
-12 -9 -4 6 13 5 13 -7 0 -35 -40 -38 -25 -38 174 l0 195 88 -5 c48 -3 178 -9
290 -13z"/>
</g>
</svg>
