<?xml version="1.0" standalone="no"?>
<!DOCTYPE svg PUBLIC "-//W3C//DTD SVG 20010904//EN"
 "http://www.w3.org/TR/2001/REC-SVG-20010904/DTD/svg10.dtd">
<svg version="1.0" xmlns="http://www.w3.org/2000/svg"
 width="653.000000pt" height="685.000000pt" viewBox="0 0 653.000000 685.000000"
 preserveAspectRatio="xMidYMid meet">

<g transform="translate(0.000000,685.000000) scale(0.100000,-0.100000)"
fill="#000000" stroke="none">
<path d="M1267 6836 c-4 -9 -11 -15 -16 -14 -5 2 -17 -6 -26 -17 -9 -11 -14
-13 -10 -5 4 8 -6 2 -20 -15 -15 -16 -24 -23 -20 -15 3 8 -6 2 -20 -15 -15
-16 -24 -23 -20 -15 3 8 -6 2 -20 -15 -15 -16 -24 -23 -20 -15 3 8 -1 6 -10
-5 -9 -11 -20 -20 -25 -20 -5 0 -16 -9 -25 -20 -9 -11 -14 -13 -10 -5 4 8 -6
2 -20 -15 -15 -16 -24 -23 -20 -15 3 8 -6 2 -20 -15 -15 -16 -24 -23 -20 -15
3 8 -3 4 -14 -9 -12 -13 -21 -19 -21 -15 0 5 -10 -2 -21 -16 -11 -14 -18 -18
-14 -10 3 8 -6 2 -20 -15 -15 -16 -24 -23 -20 -15 3 8 -6 2 -20 -15 -15 -16
-24 -23 -20 -15 3 8 -6 2 -20 -15 -15 -16 -24 -23 -20 -15 3 8 -1 6 -10 -5 -9
-11 -20 -20 -25 -20 -5 0 -16 -9 -25 -20 -9 -11 -14 -13 -10 -5 4 8 -6 2 -20
-15 -15 -16 -24 -23 -20 -15 3 8 -6 2 -20 -15 -15 -16 -24 -23 -20 -15 3 8 -6
2 -20 -15 -15 -16 -24 -23 -20 -15 3 8 -1 6 -10 -5 -9 -11 -20 -20 -25 -20 -5
0 -16 -9 -25 -20 -9 -11 -14 -13 -10 -5 4 8 -6 2 -20 -15 -15 -16 -24 -23 -20
-15 3 8 -6 2 -20 -15 -15 -16 -24 -23 -20 -15 3 8 -6 2 -20 -15 -15 -16 -24
-23 -20 -15 3 8 -1 6 -10 -5 -9 -11 -20 -20 -25 -20 -5 0 -16 -9 -25 -20 -9
-11 -14 -13 -10 -5 4 8 -6 2 -20 -15 -15 -16 -24 -23 -20 -15 3 8 -6 2 -20
-15 -15 -16 -24 -23 -20 -15 3 8 -6 2 -20 -15 -15 -16 -24 -23 -20 -15 3 8 -1
6 -10 -5 -9 -11 -20 -20 -26 -20 -5 0 -14 -7 -19 -15 -5 -8 -10 -10 -10 -5 0
6 -7 1 -15 -9 -17 -23 -21 -131 -5 -141 5 -3 20 1 32 9 29 21 38 20 38 -3 0
-11 -18 -34 -40 -51 -39 -31 -40 -33 -40 -95 l0 -62 37 -7 c72 -11 94 -7 144
30 47 34 67 30 32 -8 -9 -10 -14 -20 -11 -23 3 -3 34 -8 69 -11 63 -6 65 -5
119 35 30 23 63 52 73 64 10 12 16 16 12 8 -5 -9 1 -8 19 4 26 17 37 33 14 19
-7 -4 -9 -3 -5 1 4 5 14 10 22 11 18 3 92 58 124 93 13 14 20 20 15 12 -10
-20 81 46 125 89 19 19 32 28 27 20 -4 -8 5 -1 19 15 15 17 24 24 19 16 -10
-20 81 46 125 89 19 19 31 29 27 21 -6 -8 1 -7 18 4 26 17 37 33 14 19 -7 -4
-9 -3 -5 1 4 5 14 10 22 11 18 3 92 58 124 93 13 14 20 20 16 12 -5 -9 1 -8
19 4 26 17 37 33 14 19 -7 -4 -9 -3 -5 1 4 5 14 10 22 11 18 3 92 58 124 93
13 14 20 20 16 12 -5 -9 1 -8 19 4 26 17 37 33 14 19 -7 -4 -9 -3 -5 1 4 5 14
10 22 11 7 1 30 14 49 29 35 26 36 30 36 91 0 68 -11 85 -39 60 -10 -9 -25
-16 -35 -16 -24 0 -16 52 8 56 10 1 29 13 42 25 20 19 24 32 24 84 l0 62 -67
6 c-61 5 -70 3 -86 -16 -10 -12 -16 -15 -12 -7 3 8 -6 2 -20 -15 -15 -16 -24
-23 -20 -15 7 12 5 13 -6 3 -7 -7 -17 -13 -21 -13 -14 0 -8 28 7 34 30 11 17
36 -19 36 -18 0 -47 3 -63 6 -22 4 -32 2 -36 -10z"/>
<path d="M6070 6573 c-12 -16 -19 -21 -15 -13 4 8 -1 6 -10 -5 -9 -11 -20 -20
-25 -20 -5 0 -16 -9 -25 -20 -9 -11 -14 -13 -10 -5 4 8 -6 2 -20 -15 -15 -16
-24 -23 -20 -15 3 8 -6 2 -20 -15 -15 -16 -24 -23 -20 -15 3 8 -6 2 -20 -15
-15 -16 -24 -23 -20 -15 3 8 -1 6 -10 -5 -9 -11 -20 -20 -25 -20 -5 0 -16 -9
-25 -20 -9 -11 -14 -13 -10 -5 4 8 -6 2 -20 -15 -15 -16 -24 -23 -20 -15 3 8
-6 2 -20 -15 -15 -16 -24 -23 -20 -15 3 8 -3 4 -14 -9 -12 -13 -21 -19 -21
-15 0 5 -10 -2 -21 -16 -11 -14 -18 -18 -14 -10 3 8 -6 2 -20 -15 -15 -16 -24
-23 -20 -15 3 8 -6 2 -20 -15 -15 -16 -24 -23 -20 -15 3 8 -6 2 -20 -15 -15
-16 -24 -23 -20 -15 3 8 -1 6 -10 -5 -9 -11 -20 -20 -25 -20 -5 0 -16 -9 -25
-20 -9 -11 -14 -13 -10 -5 4 8 -6 2 -20 -15 -15 -16 -24 -23 -20 -15 3 8 -6 2
-20 -15 -15 -16 -24 -23 -20 -15 3 8 -6 2 -20 -15 -15 -16 -24 -23 -20 -15 3
8 -1 6 -10 -5 -9 -11 -20 -20 -25 -20 -5 0 -16 -9 -25 -20 -9 -11 -14 -13 -10
-5 4 8 -6 2 -20 -15 -15 -16 -24 -23 -20 -15 3 8 -6 2 -20 -15 -15 -16 -24
-23 -20 -15 3 8 -6 2 -20 -15 -15 -16 -24 -23 -19 -15 6 12 5 13 -7 3 -11 -9
-446 10 -1889 83 -1187 59 -1876 90 -1878 84 -2 -6 -10 -10 -18 -10 -8 0 -14
-3 -14 -8 0 -4 -10 -12 -23 -17 -19 -9 -22 -19 -25 -79 -2 -55 0 -72 13 -78
19 -11 19 -42 0 -58 -8 -7 -15 -18 -15 -25 0 -7 -13 -24 -29 -38 -17 -14 -27
-28 -23 -32 4 -5 2 -5 -4 -2 -7 4 -26 -6 -43 -22 -17 -16 -31 -26 -31 -23 -1
4 -10 -4 -20 -17 -11 -13 -20 -19 -20 -15 0 5 -7 0 -16 -11 -8 -11 -19 -20
-24 -20 -5 0 -16 -9 -25 -20 -9 -11 -14 -13 -10 -5 4 8 -3 4 -14 -9 -12 -13
-21 -19 -21 -15 -1 5 -10 -2 -20 -15 -11 -13 -20 -19 -20 -15 -1 5 -10 -2 -20
-15 -11 -13 -20 -19 -20 -15 0 5 -10 -2 -21 -16 -11 -14 -18 -18 -14 -10 3 8
-6 2 -20 -15 -15 -16 -24 -23 -20 -15 3 8 -3 4 -14 -9 -12 -13 -21 -19 -21
-15 -1 5 -10 -2 -20 -15 -11 -13 -20 -19 -20 -15 0 5 -7 0 -16 -11 -8 -11 -19
-20 -24 -20 -5 0 -16 -9 -25 -20 -9 -11 -14 -13 -10 -5 4 8 -3 4 -14 -9 -12
-13 -21 -19 -21 -15 -1 5 -10 -2 -20 -15 -11 -13 -20 -19 -20 -15 -1 5 -10 -2
-20 -15 -11 -13 -20 -19 -20 -15 0 5 -7 0 -16 -11 -8 -11 -19 -20 -24 -20 -5
0 -16 -9 -25 -20 -9 -11 -14 -13 -10 -5 4 8 -3 4 -14 -9 -12 -13 -21 -19 -21
-15 -1 5 -10 -2 -20 -15 -11 -13 -20 -19 -20 -15 -1 5 -10 -2 -20 -15 -11 -13
-20 -19 -20 -15 0 5 -7 0 -16 -11 -8 -11 -19 -20 -24 -20 -5 0 -16 -9 -25 -20
-9 -11 -14 -13 -10 -5 4 8 -3 4 -14 -9 -12 -13 -21 -19 -21 -15 -1 5 -10 -2
-20 -15 -11 -13 -20 -19 -20 -15 -1 5 -10 -2 -20 -15 -11 -13 -20 -19 -20 -15
0 5 -7 0 -16 -11 -8 -11 -19 -20 -24 -20 -5 0 -16 -9 -25 -20 -9 -11 -13 -14
-9 -6 5 9 -2 8 -19 -5 -15 -10 -27 -23 -27 -27 0 -5 -5 -5 -10 -2 -6 3 -13 -1
-16 -9 -3 -9 -12 -16 -19 -16 -41 0 -40 74 -37 -2154 2 -1167 3 -2191 2 -2277
l0 -156 63 -6 c34 -3 66 -1 71 4 12 11 66 12 66 1 0 -5 6 -9 13 -9 6 -1 50 -4
97 -7 47 -4 270 -16 495 -27 226 -11 493 -24 595 -29 342 -18 2572 -129 2895
-145 176 -8 396 -20 489 -26 118 -7 172 -7 180 1 13 13 63 13 68 -1 5 -15 138
-25 138 -10 0 6 6 10 13 9 6 -2 11 3 9 10 -1 6 5 12 13 12 9 0 26 11 39 25 13
13 26 22 29 19 3 -3 10 4 17 15 6 12 15 19 20 16 5 -3 14 4 20 16 7 11 14 18
17 15 4 -3 13 3 20 14 8 11 19 18 24 15 5 -4 9 -1 9 5 0 6 5 8 10 5 6 -4 9 -3
8 2 -2 4 1 9 6 10 5 1 12 7 17 15 5 7 13 13 18 13 6 0 17 9 26 20 9 11 14 13
10 5 -4 -8 6 -1 20 15 15 17 24 23 20 15 -4 -8 4 -1 19 15 14 17 25 26 26 21
0 -4 8 0 18 11 9 10 15 14 12 8 -3 -6 6 1 19 15 13 14 20 18 16 10 -3 -8 6 -1
20 15 15 17 24 23 20 15 -3 -8 6 -1 20 15 15 17 24 23 20 15 -4 -8 5 -1 20 15
14 17 23 23 20 15 -4 -8 3 -4 16 10 13 14 22 21 19 15 -3 -6 6 1 19 15 13 14
20 18 16 10 -3 -8 6 -1 20 15 15 17 24 23 20 15 -3 -8 6 -1 20 15 15 17 24 23
20 15 -4 -8 5 -1 20 15 14 17 23 23 20 15 -4 -8 3 -4 15 10 12 14 19 18 15 10
-3 -8 6 -1 20 15 15 17 24 23 20 15 -3 -8 6 -1 20 15 15 17 24 23 20 15 -3 -8
5 -1 19 15 14 17 26 26 26 21 0 -4 8 0 18 11 9 10 15 14 12 8 -3 -6 3 -2 14
10 10 11 22 19 27 18 5 -2 13 6 19 17 6 11 15 18 20 15 5 -3 14 4 20 16 7 11
14 18 17 15 3 -3 14 5 24 17 10 12 18 18 19 12 0 -5 7 1 16 13 8 12 19 20 24
17 4 -3 11 2 14 11 3 8 10 13 15 9 6 -3 15 4 21 15 6 11 15 18 20 15 5 -3 19
6 32 20 12 14 27 25 34 25 6 0 15 7 18 16 3 8 9 13 14 10 4 -2 8 1022 7 2277
l0 2282 -63 3 c-37 2 -77 -2 -94 -9 -27 -11 -32 -10 -43 4 -9 13 -28 17 -79
17 -40 0 -66 -4 -66 -11 0 -5 -4 -8 -9 -4 -5 3 -16 -4 -24 -15 -7 -11 -16 -17
-19 -14 -3 3 -15 -7 -27 -22 -11 -15 -21 -23 -21 -18 0 5 -7 0 -16 -11 -8 -11
-19 -20 -24 -20 -5 0 -16 -9 -25 -20 -9 -11 -13 -13 -9 -5 7 13 6 13 -10 1
-13 -11 -41 -14 -109 -12 -51 1 -93 4 -95 6 -2 2 1 12 7 22 6 10 11 14 11 8 0
-6 3 -6 8 0 4 6 19 18 35 28 25 16 27 22 27 83 0 48 -4 66 -15 70 -9 4 -15 19
-15 35 0 19 5 29 15 29 12 0 15 15 15 74 0 58 4 76 18 87 15 12 16 12 7 -1 -5
-9 1 -4 14 10 13 14 20 18 16 10 -3 -8 6 -1 20 15 15 17 24 23 20 15 -3 -8 6
-1 20 15 15 17 24 23 20 15 -4 -8 5 -1 20 15 14 17 23 23 20 15 -4 -8 3 -4 16
10 13 14 22 21 19 15 -3 -6 6 1 19 15 13 14 20 18 16 10 -3 -8 6 -1 20 15 15
17 24 23 20 15 -3 -8 6 -1 20 15 15 17 24 23 20 15 -4 -8 5 -1 20 15 14 17 23
23 20 15 -4 -8 3 -4 16 10 13 14 22 21 19 15 -3 -6 6 1 19 15 13 14 20 18 16
10 -3 -8 6 -1 20 15 15 17 24 23 20 15 -3 -8 6 -1 20 15 15 17 24 23 20 15 -3
-8 1 -6 10 5 9 11 20 19 24 18 4 -1 9 30 10 69 2 78 8 73 -59 52 -16 -5 -20
-2 -20 19 0 14 5 29 12 33 7 5 9 2 4 -7 -4 -8 5 0 19 16 15 17 24 23 19 15 -7
-13 -5 -13 8 -2 12 9 15 29 14 79 l-1 67 -63 4 c-52 3 -67 0 -79 -15 -9 -11
-12 -12 -8 -3 4 8 -1 6 -10 -5 -9 -11 -20 -20 -26 -20 -5 0 -14 -7 -19 -15 -8
-12 -10 -12 -16 3 -4 12 0 23 11 31 10 7 15 17 12 22 -9 15 -117 16 -135 2
-12 -10 -14 -10 -8 0 13 22 -2 12 -24 -15z m-3890 -1383 c206 -11 385 -20 398
-20 l22 0 0 -640 0 -640 -52 5 c-140 12 -268 15 -268 5 0 -5 -3 -9 -7 -8 -5 1
-25 -9 -45 -21 l-38 -23 0 -69 c0 -53 4 -71 15 -75 20 -8 19 -38 -1 -58 -11
-12 -15 -33 -13 -87 2 -58 -1 -73 -15 -81 -9 -5 -13 -14 -10 -20 4 -6 3 -8 -3
-5 -13 8 -75 -37 -65 -47 4 -4 2 -7 -3 -5 -6 1 -18 -1 -27 -5 -15 -7 -18 -21
-18 -77 0 -75 8 -84 54 -54 22 15 24 14 29 -4 3 -14 -7 -27 -40 -51 l-44 -32
3 -66 3 -67 68 -3 c62 -3 71 0 112 29 25 18 48 29 52 25 5 -4 0 -13 -10 -20
-9 -7 -17 -21 -17 -30 0 -13 12 -16 68 -16 l68 0 100 74 101 74 6 -382 c4
-209 7 -618 7 -908 l0 -528 -37 0 c-21 0 -207 9 -413 20 -206 11 -396 20 -422
20 l-48 0 0 1905 0 1905 58 0 c31 0 226 -9 432 -20z m1455 -70 c242 -12 459
-23 483 -26 l42 -5 0 -634 c0 -349 -3 -636 -7 -638 -5 -3 -255 8 -558 24 -302
15 -553 28 -557 29 -5 0 -8 289 -8 641 l0 641 83 -6 c45 -3 280 -15 522 -26z
m-2372 -267 c4 -153 7 -962 7 -1798 l0 -1520 -21 -25 c-11 -14 -18 -18 -14
-10 3 8 -6 2 -20 -15 -15 -16 -24 -23 -20 -15 3 8 -3 4 -14 -9 -12 -13 -21
-19 -21 -15 0 5 -10 -2 -21 -16 -11 -14 -18 -18 -14 -10 3 8 -6 2 -20 -15 -15
-16 -24 -23 -20 -15 3 8 -6 2 -20 -15 -15 -16 -24 -23 -20 -15 3 8 -6 2 -20
-15 -15 -16 -24 -23 -20 -15 3 8 -1 6 -10 -5 -9 -11 -20 -20 -25 -20 -5 0 -16
-9 -25 -20 -9 -11 -14 -13 -10 -5 4 8 -6 2 -20 -15 -15 -16 -24 -23 -20 -15 3
8 -6 2 -20 -15 -15 -16 -24 -23 -20 -15 3 8 -6 2 -20 -15 -15 -16 -24 -23 -20
-15 3 8 -1 6 -10 -5 -9 -11 -20 -20 -25 -20 -5 0 -16 -9 -25 -20 -9 -11 -14
-13 -10 -5 4 8 -6 2 -20 -15 -15 -16 -24 -23 -20 -15 3 8 -6 2 -20 -15 -15
-16 -24 -23 -20 -15 3 8 -6 2 -20 -15 -15 -16 -24 -23 -20 -15 3 8 -1 6 -10
-5 -9 -11 -20 -20 -25 -20 -5 0 -16 -9 -25 -20 -9 -11 -14 -13 -10 -5 4 8 -6
2 -20 -15 -15 -16 -24 -23 -20 -15 3 8 -6 2 -20 -15 -15 -16 -24 -23 -19 -15
5 11 2 10 -13 -3 -11 -9 -23 -17 -26 -17 -4 0 -7 812 -7 1804 l0 1804 27 22
c16 12 22 18 14 14 -9 -5 -12 -3 -7 5 4 6 11 9 15 6 5 -2 17 3 27 11 10 9 13
12 5 8 -9 -5 -12 -3 -7 5 4 6 12 9 17 5 5 -3 26 12 46 33 20 21 30 29 22 18
-9 -12 4 -6 33 15 27 18 48 35 48 37 0 2 -5 1 -12 -3 -7 -4 -8 -3 -4 5 4 6 11
9 15 6 5 -2 17 3 27 11 10 9 12 12 4 8 -8 -4 -11 -3 -7 1 4 5 14 10 22 11 25
4 254 177 248 187 -3 6 -2 7 4 4 13 -8 189 120 185 134 -1 6 2 8 7 5 4 -3 26
7 47 23 22 17 42 30 45 30 3 1 9 -124 12 -276z m3737 197 c206 -11 389 -20
406 -20 20 0 31 -5 31 -14 0 -8 -4 -14 -8 -13 -4 1 -15 -7 -24 -18 -9 -11 -14
-13 -10 -5 4 8 -6 2 -20 -15 -15 -16 -24 -23 -20 -15 4 8 -5 2 -20 -15 -14
-16 -23 -23 -20 -15 4 8 -3 4 -15 -10 -12 -14 -19 -18 -15 -10 3 8 -6 2 -20
-15 -15 -16 -24 -23 -20 -15 3 8 -6 2 -20 -15 -15 -16 -24 -23 -20 -15 3 8 -6
2 -20 -15 -15 -16 -24 -23 -20 -15 4 8 -5 2 -20 -15 -14 -16 -23 -23 -20 -15
4 8 -3 4 -15 -10 -12 -14 -19 -18 -15 -10 3 8 -6 2 -20 -15 -15 -16 -24 -23
-20 -15 3 8 -6 2 -20 -15 -15 -16 -24 -23 -20 -15 3 8 -6 2 -20 -15 -15 -16
-24 -23 -20 -15 4 10 1 9 -8 -2 -8 -10 -18 -18 -22 -18 -4 0 -14 -8 -22 -17
-8 -10 -11 -12 -8 -5 4 7 -11 1 -34 -15 l-40 -28 -1 -1667 0 -1667 -117 5
c-65 3 -124 7 -130 10 -10 3 -13 392 -13 1904 l0 1900 23 0 c12 0 191 -9 397
-20z m1098 -1967 c-2 -997 -7 -1813 -11 -1813 -4 1 -17 -9 -27 -22 -11 -13
-19 -19 -20 -14 0 4 -9 -2 -21 -15 -11 -13 -18 -17 -14 -9 5 11 3 10 -7 -2
-13 -15 -38 -15 -373 3 -198 10 -361 19 -362 19 -8 0 0 3048 7 3065 5 11 9 16
9 11 1 -4 10 2 21 15 10 13 19 20 20 15 0 -4 9 2 20 15 10 13 19 20 20 15 0
-4 9 2 21 15 11 13 18 17 14 9 -4 -8 1 -6 10 5 9 11 20 20 25 20 5 0 16 9 24
20 9 11 16 16 16 11 0 -4 9 2 20 15 10 13 19 20 20 15 0 -4 9 2 20 15 10 13
19 20 20 15 0 -4 9 2 21 15 11 13 18 17 14 9 -4 -8 1 -6 10 5 9 11 20 20 25
20 5 0 16 9 24 20 9 11 16 16 16 11 0 -4 9 2 20 15 10 13 19 20 20 15 0 -4 9
2 20 15 10 13 19 20 20 15 0 -4 9 2 21 15 11 13 18 17 14 9 -4 -8 3 -4 14 10
11 14 21 21 21 16 0 -4 9 2 20 15 10 13 19 20 20 15 0 -4 9 2 20 15 10 13 19
20 20 15 0 -4 9 2 20 15 10 13 19 20 20 15 0 -4 9 2 21 15 11 13 18 17 14 9
-4 -8 3 -4 14 10 11 14 21 21 21 16 0 -4 9 2 20 15 10 13 19 20 20 14 0 -5 6
0 14 11 8 11 22 21 30 21 15 0 16 -175 14 -1814z m-2925 367 c28 0 37 -4 37
-17 0 -9 -3 -14 -6 -10 -4 3 -15 -4 -26 -16 -11 -12 -16 -15 -12 -7 5 8 -9 -2
-29 -22 -21 -21 -43 -37 -50 -35 -8 1 -12 -19 -13 -70 -2 -75 8 -91 36 -58 16
20 36 19 44 -1 4 -9 5 -18 4 -19 -2 0 -22 -16 -46 -34 l-43 -33 2 -70 2 -69
66 3 c50 2 69 7 79 20 7 10 17 16 22 13 5 -3 13 3 19 12 6 10 11 14 11 9 0 -5
7 -3 15 4 12 10 15 9 15 -8 0 -11 -7 -22 -15 -26 -8 -3 -15 -12 -15 -21 0 -23
136 -20 150 4 5 9 10 12 10 7 0 -4 9 2 20 15 10 13 19 20 20 14 0 -5 7 1 16
13 8 12 19 20 24 17 4 -3 11 2 14 11 3 8 10 13 15 9 6 -3 15 4 21 15 6 11 15
18 20 15 5 -3 14 4 20 16 7 11 14 18 17 15 3 -3 14 5 24 17 10 12 18 18 19 13
0 -4 9 2 21 15 11 13 18 17 14 9 -4 -8 1 -6 10 5 9 11 20 19 25 18 5 -2 14 6
20 17 6 11 15 18 20 15 5 -3 14 4 20 16 7 11 14 18 17 15 3 -3 14 5 24 17 10
12 18 18 19 13 0 -4 9 2 21 15 11 13 18 17 14 9 -4 -8 1 -6 10 5 9 11 20 19
25 18 5 -2 14 6 20 17 6 11 15 18 21 15 5 -4 11 0 14 7 4 11 21 12 78 6 39 -4
80 -7 90 -7 16 -1 17 -58 17 -1054 0 -580 -2 -1056 -4 -1058 -3 -2 -245 8
-538 23 -293 15 -545 27 -560 27 l-28 1 0 1061 0 1062 53 -7 c28 -3 69 -6 90
-6z m-1228 -2465 c292 -14 558 -28 592 -31 61 -5 62 -6 65 -37 l3 -31 70 -1
c39 0 80 4 91 8 15 5 27 3 37 -7 8 -8 17 -13 19 -10 3 3 31 1 62 -4 50 -8 58
-7 67 9 5 11 16 19 24 19 7 0 21 7 29 16 14 14 68 13 563 -11 302 -15 558 -28
571 -31 17 -3 22 -11 22 -38 l0 -33 68 3 c37 2 82 6 100 10 24 5 32 3 32 -8 0
-22 117 -19 150 5 13 9 30 17 37 17 7 0 13 5 13 10 0 11 78 13 198 3 l82 -6 0
-203 0 -204 -27 -1 c-16 -1 -32 0 -38 1 -5 1 -54 4 -107 6 -54 2 -144 7 -200
9 -113 6 -264 13 -403 20 -106 5 -241 12 -380 20 -55 3 -149 7 -210 10 -116 6
-218 11 -400 20 -60 3 -150 7 -200 10 -49 2 -133 7 -185 10 -52 3 -144 8 -205
11 -60 2 -154 7 -207 9 -54 3 -144 8 -200 10 -57 3 -146 8 -198 10 -121 6
-266 14 -400 20 -58 3 -148 8 -200 10 -52 3 -144 7 -204 9 -129 5 -206 15
-206 26 0 4 8 14 17 21 14 12 16 12 9 -1 -5 -8 4 -1 19 15 14 17 23 23 20 15
-4 -8 3 -3 16 11 31 34 105 88 95 69 -5 -8 4 -1 19 15 14 17 23 23 20 15 -4
-8 5 -1 20 15 14 17 23 23 20 15 -4 -8 3 -3 16 11 31 34 105 88 95 69 -5 -8 4
-1 19 15 14 17 24 23 20 15 -4 -8 1 -6 10 5 9 11 20 19 25 18 5 -2 14 6 20 17
6 11 15 18 19 15 5 -3 12 2 15 10 3 10 14 14 28 10 13 -2 262 -16 553 -30z
m3495 -182 c12 -3 10 -8 -9 -24 -12 -10 -28 -16 -34 -12 -5 3 -7 1 -4 -4 4 -6
-5 -19 -19 -28 -18 -12 -24 -13 -19 -4 4 8 -3 3 -16 -11 -13 -14 -22 -21 -19
-15 3 6 -4 0 -16 -12 -11 -13 -23 -20 -27 -17 -4 4 -7 38 -7 75 l0 67 78 -5
c42 -2 84 -7 92 -10z"/>
</g>
</svg>
