<?xml version="1.0" standalone="no"?>
<!DOCTYPE svg PUBLIC "-//W3C//DTD SVG 20010904//EN"
 "http://www.w3.org/TR/2001/REC-SVG-20010904/DTD/svg10.dtd">
<svg version="1.0" xmlns="http://www.w3.org/2000/svg"
 width="661.000000pt" height="713.000000pt" viewBox="0 0 661.000000 713.000000"
 preserveAspectRatio="xMidYMid meet">

<g transform="translate(0.000000,713.000000) scale(0.100000,-0.100000)"
fill="#000000" stroke="none">
<path d="M17 7113 c-11 -11 -8 -153 3 -153 6 0 13 7 16 15 9 21 74 21 74 -1 0
-9 9 -18 20 -21 29 -8 29 -88 0 -96 -11 -3 -20 -12 -20 -21 0 -25 -67 -22 -75
4 -14 43 -25 16 -25 -60 l0 -80 80 0 c47 0 80 4 80 10 0 6 -7 10 -15 10 -11 0
-15 11 -15 39 0 30 4 40 20 44 11 3 20 12 20 21 0 12 10 16 45 16 38 0 45 -3
45 -20 0 -13 7 -20 20 -20 17 0 20 -7 20 -40 0 -33 -3 -40 -20 -40 -11 0 -20
-4 -20 -10 0 -6 33 -10 80 -10 l80 0 0 81 c0 51 -4 78 -10 74 -5 -3 -10 -13
-10 -21 0 -10 -12 -14 -39 -14 -30 0 -40 4 -44 20 -3 11 -12 20 -21 20 -12 0
-16 10 -16 44 0 36 4 46 20 51 11 3 20 13 20 21 0 10 12 14 40 14 29 0 40 -4
40 -15 0 -8 5 -15 10 -15 6 0 10 33 10 80 l0 80 -80 0 c-75 0 -105 -11 -60
-23 26 -7 30 -77 4 -77 -9 0 -18 -9 -21 -20 -8 -31 -74 -28 -108 5 -29 30 -36
95 -10 95 8 0 15 5 15 10 0 11 -142 14 -153 3z m93 -33 c5 0 5 -12 1 -27 -6
-22 -14 -29 -38 -31 -29 -3 -31 -1 -28 24 3 29 22 47 43 39 8 -3 17 -5 22 -5z
m288 -33 c-4 -28 -46 -30 -62 -4 -9 15 -7 21 8 32 25 19 58 2 54 -28z m-143
-129 c-4 -35 -4 -35 -20 -42 -24 -9 -45 4 -45 28 0 29 8 36 40 36 22 0 27 -4
25 -22z m-161 -124 c21 -8 21 -50 0 -58 -25 -10 -33 -7 -44 13 -7 15 -6 23 6
35 18 18 17 18 38 10z m300 -16 c8 -14 7 -21 -6 -34 -30 -30 -75 9 -48 42 16
18 39 15 54 -8z"/>
<path d="M6180 7040 c0 -47 4 -80 10 -80 6 0 10 7 10 15 0 11 11 15 40 15 28
0 40 -4 40 -14 0 -8 9 -18 20 -21 16 -5 20 -15 20 -50 0 -34 -4 -44 -20 -48
-11 -3 -20 -12 -20 -21 0 -26 -70 -22 -77 4 -11 41 -23 6 -23 -66 l0 -74 80 0
c47 0 80 4 80 10 0 6 -7 10 -15 10 -11 0 -15 11 -15 40 0 27 4 40 14 40 7 0
16 9 19 20 4 16 14 20 51 20 39 0 46 -3 46 -20 0 -13 7 -20 20 -20 16 0 20 -7
20 -36 0 -27 -5 -37 -20 -41 -45 -12 -15 -23 60 -23 l80 0 0 80 c0 47 -4 80
-10 80 -5 0 -10 -9 -10 -20 0 -17 -7 -20 -39 -20 -30 0 -40 4 -44 20 -3 11
-12 20 -21 20 -12 0 -16 10 -16 45 0 35 4 45 16 45 9 0 18 9 21 20 4 16 14 20
44 20 28 0 39 -4 39 -15 0 -8 5 -15 10 -15 6 0 10 33 10 80 l0 80 -80 0 c-75
0 -105 -11 -60 -23 26 -7 30 -77 4 -77 -9 0 -18 -9 -21 -20 -4 -17 -14 -20
-54 -20 -42 0 -49 3 -49 20 0 11 -7 20 -15 20 -11 0 -15 11 -15 40 0 29 4 40
15 40 8 0 15 5 15 10 0 6 -33 10 -80 10 l-80 0 0 -80z m96 16 c-1 -34 -26 -46
-51 -26 -19 16 -19 25 0 44 26 26 52 16 51 -18z m294 4 c0 -42 -53 -57 -66
-18 -9 28 20 52 47 37 11 -5 19 -14 19 -19z m-144 -150 c-1 -28 -23 -41 -54
-33 -14 3 -19 11 -17 24 6 32 15 39 44 37 23 -2 28 -7 27 -28z m-153 -118 c17
-4 6 -51 -13 -57 -27 -9 -50 11 -48 40 2 21 19 25 61 17z m291 -14 c8 -14 7
-21 -6 -34 -30 -30 -75 9 -48 42 16 18 39 15 54 -8z"/>
<path d="M440 6160 l0 -210 2865 0 2865 0 0 210 0 210 -2865 0 -2865 0 0 -210z"/>
<path d="M10 2875 l0 -2865 3295 0 3295 0 0 2865 0 2865 -3295 0 -3295 0 0
-2865z m235 2679 c18 -18 16 -33 -7 -47 -35 -22 -66 21 -36 51 16 16 23 15 43
-4z m6169 0 c9 -8 16 -19 16 -23 0 -15 -25 -31 -47 -31 -19 0 -23 5 -23 29 0
26 9 38 32 40 4 1 14 -6 22 -15z m-4316 -931 l2 -693 -115 0 -115 0 0 -215 0
-215 115 0 115 0 0 -1530 0 -1530 -830 0 -830 0 0 2440 0 2440 828 -2 827 -3
3 -692z m4072 -1743 l0 -2440 -830 0 -830 0 0 1530 0 1530 115 0 115 0 0 215
0 215 -115 0 -115 0 0 695 0 695 830 0 830 0 0 -2440z m-2092 1743 l-3 -688
-770 0 -770 0 -3 688 -2 687 775 0 775 0 -2 -687z m-96 -878 c2 2 5 -7 6 -20
1 -15 -5 -28 -17 -35 -33 -17 -51 -12 -51 14 0 44 9 56 35 46 13 -5 25 -7 27
-5z m-1286 -26 c0 -20 -6 -29 -22 -33 -30 -8 -54 2 -48 20 2 8 6 21 9 29 3 10
15 15 33 13 24 -2 28 -6 28 -29z m1384 -1749 l0 -1530 -772 2 -773 3 -3 1515
c-1 833 0 1521 3 1528 3 9 168 12 775 12 l770 0 0 -1530z m-3829 -1726 c17
-21 0 -49 -32 -49 -18 0 -25 6 -27 24 -6 38 34 55 59 25z m6169 -5 c14 -26 -4
-51 -34 -47 -21 3 -32 28 -22 54 8 21 44 17 56 -7z"/>
</g>
</svg>
