<?xml version="1.0" standalone="no"?>
<!DOCTYPE svg PUBLIC "-//W3C//DTD SVG 20010904//EN"
 "http://www.w3.org/TR/2001/REC-SVG-20010904/DTD/svg10.dtd">
<svg version="1.0" xmlns="http://www.w3.org/2000/svg"
 width="542.000000pt" height="947.000000pt" viewBox="0 0 542.000000 947.000000"
 preserveAspectRatio="xMidYMid meet">

<g transform="translate(0.000000,947.000000) scale(0.100000,-0.100000)"
fill="#000000" stroke="none">
<path d="M1815 9463 c-97 -14 -331 -72 -390 -97 -81 -34 -95 -41 -95 -48 0 -5
-7 -8 -15 -8 -8 0 -15 -4 -15 -10 0 -5 -5 -10 -11 -10 -14 0 -97 -88 -115
-121 -37 -71 -44 -114 -44 -266 0 -91 4 -154 10 -158 13 -8 14 -1417 1 -1431
-6 -5 -12 -67 -15 -139 -6 -161 -15 -247 -27 -259 -5 -6 -9 -28 -9 -50 0 -38
-13 -93 -31 -128 -5 -10 -9 -31 -9 -47 0 -17 -5 -33 -10 -36 -5 -3 -10 -15
-10 -26 0 -21 -50 -171 -75 -224 -7 -16 -17 -42 -20 -58 -4 -15 -11 -30 -16
-33 -5 -3 -9 -12 -9 -20 0 -21 -117 -267 -190 -399 -40 -73 -130 -209 -142
-213 -4 -2 -8 -8 -8 -14 0 -16 -123 -161 -236 -279 -155 -162 -217 -252 -273
-397 -64 -166 -62 -89 -59 -2373 3 -1983 4 -2066 22 -2119 29 -86 59 -139 183
-326 l116 -174 316 2 315 3 51 280 52 280 77 177 c42 98 93 206 113 240 35 60
132 168 150 168 5 0 18 8 29 18 22 20 107 62 127 62 7 0 19 6 25 13 20 19
2222 18 2272 -2 19 -7 44 -16 55 -21 50 -19 115 -54 115 -62 0 -4 6 -8 13 -8
17 0 120 -108 138 -145 7 -16 16 -32 20 -35 9 -8 34 -67 103 -240 63 -158 68
-177 116 -439 28 -150 50 -277 50 -282 0 -5 141 -9 325 -9 179 0 325 4 325 8
0 10 58 101 77 120 6 6 15 21 18 32 3 11 10 20 14 20 5 0 14 13 21 30 7 16 16
30 21 30 4 0 11 9 14 20 3 11 13 26 21 34 22 23 104 198 97 208 -3 6 1 14 8
19 12 7 14 338 16 2116 2 1371 -1 2127 -8 2163 -5 30 -12 71 -15 90 -2 19 -11
49 -19 65 -7 17 -17 42 -20 57 -4 16 -11 28 -15 28 -4 0 -10 13 -13 29 -3 16
-13 36 -22 44 -8 9 -15 21 -15 28 0 6 -8 19 -18 28 -11 9 -25 27 -32 40 -18
35 -39 59 -222 250 -32 33 -58 63 -58 66 0 3 -22 29 -50 58 -27 28 -50 58 -50
65 0 6 -4 12 -8 12 -5 0 -15 12 -23 28 -8 15 -17 29 -20 32 -10 9 -84 124 -99
155 -8 17 -17 32 -20 35 -7 7 -124 244 -146 295 -9 22 -32 76 -50 120 -19 43
-34 83 -34 87 0 5 -9 27 -19 51 -11 23 -34 94 -51 157 -17 63 -35 126 -40 140
-5 14 -21 99 -37 190 l-28 165 0 850 c0 468 2 904 4 970 4 106 2 127 -18 178
-13 32 -33 68 -45 80 -12 12 -25 30 -28 39 -7 18 -150 118 -168 118 -6 0 -21
6 -33 14 -23 14 -270 78 -371 96 -58 10 -1743 12 -1811 3z m-194 -337 c42 -18
99 -78 99 -106 0 -11 6 -30 13 -41 10 -17 10 -23 0 -26 -7 -3 -13 -18 -13 -35
0 -18 -11 -46 -26 -66 -106 -138 -326 -51 -312 123 5 57 47 128 83 141 11 4
29 10 40 14 33 13 80 11 116 -4z m2314 -1 c37 -15 84 -61 85 -82 0 -7 5 -13
10 -13 15 0 12 -113 -5 -146 -34 -69 -111 -110 -183 -99 -55 8 -108 41 -124
78 -7 15 -16 27 -20 27 -5 0 -8 32 -8 70 0 40 4 70 10 70 6 0 10 7 10 16 0 21
44 62 84 80 41 18 99 17 141 -1z m-1263 -572 c10 -9 18 -22 18 -28 0 -12 -567
-883 -598 -917 -13 -16 -37 -18 -217 -18 -186 0 -203 1 -219 19 -15 16 -16 23
-5 42 6 12 108 169 227 348 118 179 244 371 279 426 104 159 74 145 301 145
168 0 198 -2 214 -17z m868 2 c7 -9 10 -25 6 -41 -6 -24 -51 -102 -65 -114 -3
-3 -12 -17 -20 -32 -8 -16 -18 -28 -23 -28 -4 0 -8 -6 -8 -13 0 -7 -8 -22 -17
-33 -10 -10 -24 -31 -32 -46 -8 -16 -18 -28 -23 -28 -4 0 -8 -6 -8 -13 0 -7
-8 -22 -17 -33 -10 -10 -24 -31 -32 -46 -8 -16 -18 -28 -23 -28 -4 0 -8 -6 -8
-13 0 -7 -8 -22 -17 -33 -10 -10 -24 -31 -32 -46 -8 -16 -18 -28 -23 -28 -4 0
-8 -6 -8 -13 0 -7 -8 -22 -17 -33 -10 -10 -24 -31 -32 -46 -8 -16 -18 -28 -23
-28 -4 0 -8 -6 -8 -13 0 -7 -8 -22 -17 -33 -10 -10 -25 -32 -33 -49 -13 -25
-699 -1068 -745 -1133 -16 -22 -18 -22 -223 -20 l-206 3 -7 32 c-6 29 9 55
167 294 96 144 174 265 174 270 0 5 5 9 10 9 6 0 10 5 10 10 0 6 54 91 120
190 66 99 120 184 120 190 0 5 4 10 8 10 5 0 15 12 23 28 8 15 22 36 32 46 9
11 17 26 17 33 0 7 4 13 8 13 5 0 15 12 23 28 8 15 22 36 32 46 9 11 17 24 17
28 0 5 9 18 20 30 11 12 20 28 20 35 0 7 4 13 8 13 5 0 18 20 30 44 12 24 29
49 37 56 8 7 15 18 15 25 0 6 9 20 20 30 11 10 20 23 20 30 0 7 9 20 20 30 11
10 20 23 20 30 0 7 9 20 20 30 11 10 20 22 20 28 0 5 10 22 23 37 12 16 45 65
72 109 28 44 53 81 58 81 4 0 7 6 7 13 0 7 8 22 18 33 9 10 23 31 31 47 l14
27 207 0 c172 0 210 -3 220 -15z m205 -971 c27 -18 33 -54 13 -76 -7 -7 -19
-25 -27 -40 -8 -16 -18 -28 -23 -28 -4 0 -8 -6 -8 -13 0 -7 -9 -23 -20 -35
-11 -12 -20 -24 -20 -28 0 -10 -132 -209 -141 -212 -5 -2 -9 -9 -9 -16 0 -7
-8 -21 -17 -32 -10 -10 -24 -31 -32 -46 -8 -16 -18 -28 -23 -28 -4 0 -8 -5 -8
-12 0 -12 -165 -265 -184 -283 -6 -5 -17 -22 -25 -37 -8 -16 -18 -28 -23 -28
-4 0 -8 -5 -8 -12 0 -6 -7 -20 -17 -30 -15 -16 -35 -18 -211 -18 -168 0 -198
2 -214 17 -10 9 -18 21 -18 27 0 6 27 52 60 101 33 50 60 95 60 101 0 6 9 19
20 29 11 10 20 23 20 30 0 7 9 20 20 30 11 10 20 24 20 30 0 7 7 18 15 25 9 7
23 28 31 46 9 19 20 34 25 34 5 0 9 6 9 13 0 7 8 22 18 33 9 10 23 31 31 47 8
15 18 27 23 27 4 0 8 6 8 13 0 7 8 22 18 33 9 10 23 31 31 47 8 15 18 27 23
27 4 0 8 6 8 13 0 7 8 22 18 33 9 10 23 31 31 47 8 15 18 27 23 27 4 0 8 6 8
13 0 7 8 22 18 33 10 10 25 34 33 52 27 55 45 60 242 61 148 1 182 -2 202 -15z
m-297 -1746 c2 -4 9 -8 16 -8 27 0 69 -66 81 -127 13 -66 -48 -183 -95 -183
-11 0 -22 -4 -25 -10 -3 -5 -31 -10 -61 -10 -30 0 -54 5 -54 10 0 6 -6 10 -12
10 -39 0 -108 99 -108 154 0 35 33 108 60 136 22 21 60 39 95 43 40 4 99 -4
103 -15z m-2047 -333 c50 -18 99 -61 99 -87 0 -10 5 -18 10 -18 6 0 10 -25 10
-55 0 -54 -15 -105 -32 -105 -4 0 -8 -5 -8 -12 0 -20 -32 -48 -56 -48 -13 0
-26 -4 -29 -10 -11 -18 -109 -12 -131 8 -10 10 -27 21 -36 25 -28 10 -58 81
-58 136 0 50 16 101 32 101 4 0 8 6 8 13 0 17 57 51 100 58 19 3 38 7 41 8 4
0 26 -6 50 -14z m2755 -10 c40 -16 84 -74 84 -108 0 -15 5 -27 10 -27 6 0 10
-9 10 -20 0 -11 -4 -20 -10 -20 -5 0 -10 -15 -10 -32 -1 -42 -56 -107 -94
-110 -14 -1 -26 -6 -26 -10 0 -4 -21 -8 -46 -8 -96 0 -174 83 -174 186 0 56
20 95 62 125 18 13 35 26 38 30 7 9 79 17 105 11 11 -2 34 -10 51 -17z m-1306
-685 c0 -6 31 -10 74 -10 41 0 78 -4 81 -10 3 -5 21 -10 40 -10 19 0 37 -4 40
-10 3 -5 19 -10 36 -10 16 0 29 -4 29 -10 0 -5 14 -10 30 -10 17 0 30 -4 30
-10 0 -5 14 -10 30 -10 17 0 30 -4 30 -10 0 -5 9 -10 20 -10 11 0 20 -4 20
-10 0 -5 9 -10 20 -10 11 0 20 -4 20 -10 0 -5 9 -10 20 -10 11 0 20 -4 20 -10
0 -5 9 -10 20 -10 11 0 20 -4 20 -10 0 -5 9 -10 20 -10 11 0 20 -4 20 -9 0 -5
7 -11 15 -13 35 -8 179 -122 281 -223 98 -98 214 -246 214 -275 0 -5 4 -10 8
-10 12 0 52 -78 52 -101 0 -10 5 -19 10 -19 6 0 10 -9 10 -20 0 -11 5 -20 10
-20 6 0 10 -9 10 -20 0 -11 5 -20 10 -20 6 0 10 -9 10 -19 0 -11 5 -23 10 -26
6 -3 10 -17 10 -30 0 -13 5 -27 10 -30 6 -3 10 -21 10 -40 0 -19 5 -37 10 -40
6 -3 10 -21 10 -40 0 -19 5 -37 10 -40 6 -3 10 -35 10 -70 0 -35 5 -67 10 -70
13 -8 13 -312 0 -320 -5 -3 -10 -35 -10 -70 0 -35 -4 -67 -10 -70 -5 -3 -10
-21 -10 -40 0 -19 -4 -37 -10 -40 -5 -3 -10 -21 -10 -40 0 -19 -4 -37 -10 -40
-5 -3 -10 -15 -10 -25 0 -11 -9 -35 -20 -55 -11 -20 -20 -42 -20 -50 0 -8 -4
-15 -10 -15 -5 0 -10 -9 -10 -20 0 -11 -4 -20 -10 -20 -5 0 -10 -9 -10 -20 0
-45 -131 -237 -244 -357 -83 -88 -271 -240 -308 -251 -10 -2 -18 -8 -18 -13 0
-5 -9 -9 -20 -9 -11 0 -20 -4 -20 -10 0 -5 -9 -10 -20 -10 -11 0 -20 -4 -20
-10 0 -5 -9 -10 -20 -10 -11 0 -20 -4 -20 -10 0 -5 -9 -10 -20 -10 -11 0 -20
-4 -20 -10 0 -5 -9 -10 -20 -10 -11 0 -20 -4 -20 -10 0 -5 -13 -10 -30 -10
-16 0 -30 -4 -30 -10 0 -5 -13 -10 -29 -10 -17 0 -33 -4 -36 -10 -3 -5 -19
-10 -36 -10 -16 0 -29 -4 -29 -10 0 -5 -20 -10 -45 -10 -25 0 -45 -4 -45 -10
0 -6 -32 -10 -75 -10 -43 0 -75 -4 -75 -10 0 -13 -247 -13 -255 0 -3 5 -40 10
-81 10 -43 0 -74 4 -74 10 0 6 -20 10 -45 10 -25 0 -45 5 -45 10 0 6 -18 10
-40 10 -22 0 -40 5 -40 10 0 6 -11 10 -25 10 -14 0 -25 5 -25 10 0 6 -11 10
-25 10 -14 0 -25 5 -25 10 0 6 -11 10 -25 10 -14 0 -25 5 -25 10 0 6 -11 10
-25 10 -14 0 -25 5 -25 10 0 6 -9 10 -20 10 -11 0 -20 5 -20 10 0 6 -7 10 -15
10 -8 0 -15 5 -15 10 0 6 -9 10 -20 10 -11 0 -20 5 -20 10 0 6 -7 10 -15 10
-8 0 -15 5 -15 10 0 6 -7 10 -15 10 -8 0 -15 5 -15 10 0 6 -7 10 -15 10 -8 0
-15 5 -15 10 0 6 -7 10 -16 10 -8 0 -33 18 -54 40 -21 22 -42 40 -47 40 -11 0
-173 159 -173 170 0 4 -18 27 -40 51 -22 24 -40 50 -40 56 0 7 -4 13 -8 13 -5
0 -20 21 -33 48 -13 26 -26 49 -30 52 -14 12 -89 164 -89 181 0 11 -4 19 -10
19 -5 0 -10 10 -10 23 0 13 -9 42 -20 65 -11 22 -20 50 -20 61 0 11 -4 23 -10
26 -5 3 -10 30 -10 60 0 30 -4 57 -10 60 -5 3 -10 28 -10 55 0 27 -4 52 -10
55 -6 4 -10 62 -10 140 0 78 4 136 10 140 6 3 10 28 10 55 0 27 5 52 10 55 6
3 10 30 10 60 0 30 5 57 10 60 6 3 10 15 10 26 0 11 9 39 20 61 11 23 20 52
20 65 0 13 5 23 10 23 6 0 10 8 10 19 0 17 62 144 99 201 8 14 25 42 36 62 11
20 39 58 63 83 23 25 42 50 42 55 0 10 170 180 181 180 4 0 28 20 55 45 26 25
55 45 66 45 10 0 18 5 18 10 0 6 5 10 10 10 6 0 20 9 32 20 12 11 28 20 35 20
7 0 13 5 13 10 0 6 9 10 20 10 11 0 20 5 20 10 0 6 9 10 20 10 11 0 20 5 20
10 0 6 11 10 25 10 14 0 25 5 25 10 0 6 11 10 25 10 14 0 25 5 25 10 0 6 11
10 25 10 14 0 25 5 25 10 0 6 11 10 25 10 14 0 25 5 25 10 0 6 18 10 40 10 22
0 40 5 40 10 0 6 20 10 45 10 25 0 45 5 45 10 0 6 27 10 60 10 33 0 60 4 60
10 0 6 57 10 150 10 93 0 150 -4 150 -10z"/>
</g>
</svg>
