<?xml version="1.0" standalone="no"?>
<!DOCTYPE svg PUBLIC "-//W3C//DTD SVG 20010904//EN"
 "http://www.w3.org/TR/2001/REC-SVG-20010904/DTD/svg10.dtd">
<svg version="1.0" xmlns="http://www.w3.org/2000/svg"
 width="455.000000pt" height="245.000000pt" viewBox="0 0 455.000000 245.000000"
 preserveAspectRatio="xMidYMid meet">

<g transform="translate(0.000000,245.000000) scale(0.100000,-0.100000)"
fill="#000000" stroke="none">
<path d="M4336 2432 c-50 -4 -93 -33 -189 -126 -43 -42 -82 -76 -86 -76 -5 0
-28 -16 -52 -35 -24 -19 -50 -35 -57 -35 -7 0 -30 -9 -50 -19 -109 -57 -234
-84 -367 -80 -55 1 -108 7 -117 11 -10 5 -37 11 -60 14 -24 3 -84 16 -133 29
-86 23 -113 28 -250 41 -92 9 -996 10 -1002 1 -3 -4 -10 -4 -16 1 -13 9 -93 9
-103 0 -3 -4 -16 -3 -28 1 -24 8 -123 7 -132 -2 -3 -3 -16 -2 -28 2 -11 5 -30
7 -42 5 -12 -2 -120 -6 -240 -9 -218 -5 -256 -8 -284 -18 -8 -3 -22 -5 -30 -5
-62 -1 -297 -71 -398 -120 -19 -9 -39 -17 -46 -18 -22 -3 -275 -155 -313 -188
-104 -90 -192 -206 -230 -306 -32 -84 -36 -94 -38 -110 -1 -8 -7 -33 -13 -55
-18 -69 -18 -229 0 -275 6 -15 13 -43 25 -105 8 -41 101 -195 118 -195 7 0 17
-9 20 -20 3 -11 11 -20 17 -20 5 0 24 -10 41 -22 73 -52 164 -84 252 -88 115
-5 322 -3 333 4 6 3 13 2 17 -4 4 -6 11 -8 16 -4 12 7 84 7 118 0 46 -10 56
-38 35 -99 -7 -20 -14 -41 -15 -45 -3 -14 -7 -28 -23 -77 -32 -98 -56 -185
-56 -206 0 -63 83 -151 145 -155 12 0 29 -4 38 -7 9 -3 19 -2 21 2 3 5 18 11
33 15 33 7 74 42 89 76 24 53 34 82 34 98 0 10 8 33 19 52 10 19 22 51 26 70
4 19 10 40 13 45 4 6 8 19 9 29 2 11 10 33 18 49 8 16 24 64 36 106 12 42 27
87 34 101 8 14 23 59 35 100 12 41 28 89 35 105 14 31 45 127 49 148 1 7 7 21
13 32 6 11 16 40 23 65 20 76 78 186 112 214 18 15 40 32 48 39 8 6 15 10 15
7 1 -3 14 4 30 14 26 17 52 20 175 23 80 2 160 5 178 6 17 2 32 0 32 -5 0 -4
6 -5 13 -3 25 10 427 12 427 2 0 -6 5 -6 13 0 14 11 278 9 334 -2 21 -5 44 -9
52 -11 50 -10 118 -28 126 -34 6 -3 29 -12 53 -20 23 -7 42 -17 42 -21 0 -4
14 -10 31 -14 17 -4 33 -13 36 -21 3 -8 11 -14 18 -14 7 0 24 -13 37 -29 44
-52 33 -165 -22 -211 -28 -24 -33 -54 -11 -81 l18 -23 313 -1 c171 0 314 3
317 8 2 4 18 7 34 7 45 0 109 66 129 133 15 48 18 156 7 227 -14 89 -49 211
-66 235 -14 19 -12 110 3 145 8 19 27 49 41 65 33 39 192 209 277 298 106 111
123 139 121 208 -1 42 -8 70 -26 99 -13 22 -26 38 -29 35 -3 -3 -11 1 -18 10
-7 8 -19 15 -26 15 -8 0 -14 5 -14 12 0 6 -3 8 -6 5 -4 -3 -14 -3 -23 1 -9 4
-33 6 -55 4z m-3317 -1136 c12 -11 21 -15 21 -10 0 5 18 -21 39 -57 38 -66 41
-79 27 -155 -15 -76 -162 -149 -229 -112 -12 7 -27 13 -34 14 -32 5 -77 73
-86 127 -7 47 19 134 45 148 10 5 18 15 18 22 0 42 158 60 199 23z"/>
</g>
</svg>
