<?xml version="1.0" standalone="no"?>
<!DOCTYPE svg PUBLIC "-//W3C//DTD SVG 20010904//EN"
 "http://www.w3.org/TR/2001/REC-SVG-20010904/DTD/svg10.dtd">
<svg version="1.0" xmlns="http://www.w3.org/2000/svg"
 width="934.000000pt" height="354.000000pt" viewBox="0 0 934.000000 354.000000"
 preserveAspectRatio="xMidYMid meet">

<g transform="translate(0.000000,354.000000) scale(0.100000,-0.100000)"
fill="#000000" stroke="none">
<path d="M1749 3526 c-2 -2 -56 -9 -119 -16 -63 -6 -149 -15 -190 -20 -41 -6
-109 -13 -150 -16 -41 -3 -91 -9 -110 -14 -19 -4 -53 -8 -75 -9 -22 0 -94 -7
-160 -16 -311 -41 -273 -31 -320 -83 -137 -153 -205 -239 -205 -259 0 -12 -4
-24 -9 -27 -5 -3 -11 -23 -14 -43 -2 -21 -12 -63 -22 -93 -9 -30 -23 -82 -32
-115 -8 -33 -17 -67 -20 -75 -2 -8 -5 -17 -5 -20 -1 -3 -6 -23 -11 -45 -5 -22
-13 -78 -17 -125 -5 -47 -15 -143 -24 -215 -9 -71 -20 -176 -25 -231 -5 -56
-12 -117 -15 -135 -3 -19 -8 -63 -12 -99 -3 -36 -10 -101 -15 -145 -5 -44 -12
-118 -15 -165 -3 -46 -10 -92 -15 -102 -5 -9 -9 -50 -9 -90 0 -40 -4 -88 -10
-106 -5 -19 -10 -59 -11 -90 -1 -31 -5 -79 -10 -107 -4 -27 -15 -117 -24 -200
-9 -82 -20 -186 -25 -230 -5 -44 -14 -129 -20 -190 -6 -60 -13 -126 -16 -145
-3 -19 -9 -78 -14 -130 -5 -52 -12 -112 -16 -133 l-7 -37 352 0 351 0 0 59 c0
32 4 71 10 87 5 16 12 65 15 109 8 128 22 262 39 380 9 61 21 153 27 205 5 52
15 127 20 165 5 39 12 104 15 145 3 41 9 88 15 104 5 16 9 56 9 88 0 33 4 67
9 76 4 9 11 55 14 102 4 47 11 114 16 150 6 36 15 108 20 160 28 263 51 410
72 447 11 21 109 127 217 236 147 147 211 204 250 224 48 24 55 25 69 10 14
-14 14 -27 -1 -139 -15 -114 -29 -226 -41 -323 -2 -22 -7 -58 -10 -80 -15
-117 -25 -199 -35 -278 -19 -166 -32 -262 -40 -312 -5 -27 -14 -93 -20 -145
-6 -52 -13 -110 -16 -127 l-6 -33 51 0 c28 0 51 4 51 8 0 5 42 12 93 16 50 4
128 11 172 16 44 6 108 13 141 16 l62 7 5 51 c6 62 46 355 68 506 5 36 12 99
15 140 4 41 10 79 15 85 5 5 9 35 9 68 0 32 4 66 10 76 5 10 10 47 11 82 0 35
5 78 10 94 4 17 15 82 23 145 11 85 20 118 33 127 25 19 5062 19 5085 1 15
-12 25 -52 34 -128 5 -47 14 -102 19 -120 2 -8 9 -58 14 -110 6 -52 13 -106
15 -120 2 -14 9 -65 15 -115 16 -127 29 -223 47 -350 9 -60 18 -137 21 -170 2
-33 8 -73 13 -90 4 -16 8 -37 8 -45 0 -8 4 -38 7 -66 l7 -51 117 -18 c110 -18
431 -28 445 -15 3 3 -1 48 -9 100 -9 52 -18 126 -21 164 -3 39 -7 73 -10 77
-2 4 -15 101 -29 215 -14 115 -27 220 -29 234 -3 14 -14 106 -26 205 -12 99
-28 229 -35 289 -8 60 -12 113 -9 117 6 10 61 0 94 -17 34 -17 443 -433 457
-464 18 -39 32 -110 36 -175 4 -52 26 -242 56 -485 6 -41 15 -124 21 -185 6
-60 14 -121 17 -135 4 -14 6 -27 5 -30 0 -3 4 -39 9 -80 5 -41 12 -109 15
-150 3 -41 9 -88 14 -105 4 -16 11 -64 15 -105 3 -41 10 -97 15 -125 5 -27 12
-86 15 -130 8 -97 11 -129 24 -220 5 -38 15 -122 21 -185 6 -63 13 -125 16
-138 l4 -22 346 0 345 0 -5 43 c-4 23 -11 89 -17 147 -22 228 -41 405 -69 650
-12 102 -23 217 -25 255 -3 39 -7 79 -10 91 -2 11 -18 144 -35 295 -16 151
-34 317 -40 369 -18 159 -41 382 -46 435 -2 28 -7 70 -10 95 -4 25 -8 56 -9
70 -12 123 -30 237 -47 295 -10 39 -28 104 -39 145 -11 41 -21 82 -24 90 -2 8
-11 42 -20 74 -16 59 -40 95 -125 193 -25 28 -66 76 -92 105 l-46 54 -174 18
c-95 10 -209 22 -253 26 -44 5 -120 13 -170 19 -49 6 -133 16 -185 22 -52 6
-133 15 -180 21 -82 10 -5951 24 -5961 14z m561 -106 l0 -30 -145 0 c-152 0
-155 1 -139 44 5 14 28 16 145 16 l139 0 0 -30z m2650 16 c0 -34 -24 -36 -306
-34 l-279 3 -3 23 -3 22 295 0 c245 0 296 -2 296 -14z m2348 -4 c7 -5 10 -16
6 -25 -5 -15 -25 -17 -145 -17 l-139 0 0 25 0 25 133 0 c72 0 138 -4 145 -8z"/>
</g>
</svg>
