<?xml version="1.0" standalone="no"?>
<!DOCTYPE svg PUBLIC "-//W3C//DTD SVG 20010904//EN"
 "http://www.w3.org/TR/2001/REC-SVG-20010904/DTD/svg10.dtd">
<svg version="1.0" xmlns="http://www.w3.org/2000/svg"
 width="763.000000pt" height="477.000000pt" viewBox="0 0 763.000000 477.000000"
 preserveAspectRatio="xMidYMid meet">

<g transform="translate(0.000000,477.000000) scale(0.100000,-0.100000)"
fill="#000000" stroke="none">
<path d="M21 4751 l-24 -18 6 -2244 c6 -2205 8 -2337 37 -2347 6 -2 10 -8 10
-14 0 -21 100 -105 138 -116 30 -9 906 -12 3639 -12 3564 0 3600 0 3640 20 46
22 120 102 130 140 3 14 9 30 14 35 4 6 9 1028 11 2271 3 2213 3 2262 -16
2283 l-19 21 -3771 0 c-3641 0 -3772 -1 -3795 -19z m3029 -811 c0 -20 7 -20
970 -20 963 0 970 0 970 20 0 19 7 20 235 20 222 0 236 -1 255 -20 19 -19 28
-20 250 -13 l230 6 248 -249 247 -249 -3 -864 c-2 -476 -7 -874 -12 -885 -4
-12 -117 -129 -251 -262 l-244 -240 -2085 3 c-1809 4 -2088 6 -2107 19 -23 14
-23 17 -23 256 l0 241 53 106 52 106 3 605 c2 596 -3 733 -30 755 -17 13 -31
37 -63 102 -26 52 -26 53 -23 277 3 204 5 226 22 245 18 20 28 21 275 22 223
0 262 3 306 19 45 17 85 19 388 19 331 1 337 1 337 -19z"/>
</g>
</svg>
