<?xml version="1.0" standalone="no"?>
<!DOCTYPE svg PUBLIC "-//W3C//DTD SVG 20010904//EN"
 "http://www.w3.org/TR/2001/REC-SVG-20010904/DTD/svg10.dtd">
<svg version="1.0" xmlns="http://www.w3.org/2000/svg"
 width="611.000000pt" height="659.000000pt" viewBox="0 0 611.000000 659.000000"
 preserveAspectRatio="xMidYMid meet">

<g transform="translate(0.000000,659.000000) scale(0.100000,-0.100000)"
fill="#000000" stroke="none">
<path d="M1870 6570 c-92 -9 -144 -19 -290 -57 -129 -33 -182 -52 -345 -128
-103 -48 -120 -57 -130 -69 -5 -7 -37 -27 -70 -46 -136 -76 -317 -245 -360
-335 -55 -116 -53 -44 -55 -2022 -1 -743 -6 -1389 -10 -1435 -5 -45 -11 -119
-14 -162 -4 -44 -9 -83 -13 -89 -3 -5 -7 -26 -10 -46 -13 -109 -100 -346 -187
-511 -27 -51 -127 -204 -159 -244 -41 -50 -58 -81 -50 -90 3 -3 2 -6 -4 -6
-16 0 -34 -49 -49 -135 -35 -205 -63 -389 -74 -490 -6 -60 -13 -126 -16 -145
-2 -19 -6 -80 -9 -135 -2 -55 -7 -153 -11 -218 l-6 -117 32 -30 32 -30 692 -1
c380 -1 711 -3 736 -3 73 -3 88 3 112 45 25 44 -15 39 308 43 123 2 162 6 187
19 56 29 59 46 62 287 l1 55 828 -2 c455 -1 840 -5 855 -8 16 -3 42 -14 58
-26 29 -20 29 -21 29 -119 0 -109 16 -166 52 -189 18 -11 162 -29 248 -31 16
0 42 -15 67 -40 l42 -40 837 -5 c831 -5 837 -4 865 16 50 35 50 40 34 296 -13
222 -39 512 -50 558 -2 11 -11 70 -19 130 -18 124 -33 206 -48 250 -15 45 -52
115 -60 115 -4 0 -14 13 -23 29 -8 16 -22 36 -30 45 -19 19 -165 271 -165 286
0 5 -12 34 -27 62 -37 74 -40 79 -48 118 -4 19 -11 40 -15 45 -15 19 -70 280
-80 380 -10 90 -12 919 -7 2985 1 337 -2 458 -12 497 -28 112 -89 197 -213
296 -26 21 -53 44 -60 51 -62 61 -440 276 -486 276 -7 0 -20 4 -30 9 -25 14
-141 50 -192 60 -25 5 -79 16 -120 25 -41 9 -129 20 -195 25 -151 11 -2220 12
-2335 1z m1540 -1131 c150 -20 332 -75 465 -141 77 -39 159 -84 180 -100 6 -4
42 -31 80 -60 72 -53 220 -197 265 -258 14 -18 34 -45 46 -59 29 -37 154 -258
154 -273 0 -8 6 -22 13 -33 7 -11 19 -40 27 -65 7 -25 17 -49 21 -55 3 -5 9
-23 12 -40 3 -16 11 -50 16 -75 68 -288 48 -591 -58 -875 -33 -88 -146 -302
-171 -325 -3 -3 -17 -21 -30 -40 -39 -56 -41 -58 -135 -154 -104 -105 -157
-151 -196 -171 -15 -8 -29 -19 -31 -24 -4 -11 -175 -111 -190 -111 -5 0 -31
-11 -57 -24 -81 -42 -158 -69 -226 -81 -22 -3 -49 -10 -60 -15 -74 -31 -327
-41 -510 -21 -194 22 -453 114 -602 213 -23 15 -46 28 -52 28 -6 0 -11 3 -11
8 -1 4 -24 23 -53 42 -49 34 -244 223 -279 271 -9 13 -28 38 -42 55 -33 41
-136 219 -136 236 0 8 -7 23 -15 35 -33 47 -87 224 -115 381 -33 181 -24 348
36 636 26 129 145 363 263 521 46 61 193 210 251 255 18 14 40 32 49 40 26 24
287 170 304 170 9 0 19 4 22 10 3 5 25 14 48 20 23 6 51 15 62 20 41 18 173
48 265 59 159 20 237 20 390 0z m-905 -3479 c70 -25 136 -89 154 -149 15 -53
14 -432 -2 -492 -6 -25 -21 -56 -32 -70 -35 -43 -120 -87 -191 -100 -86 -15
-233 -7 -308 17 -72 23 -139 84 -155 140 -15 53 -14 432 1 492 20 84 90 149
193 179 65 20 267 10 340 -17z m1503 0 c86 -25 125 -54 158 -118 l29 -55 -1
-228 c-1 -207 -3 -231 -21 -271 -49 -102 -151 -148 -333 -149 -175 -1 -273 39
-336 136 -18 28 -19 48 -18 270 1 264 5 283 64 349 80 87 283 116 458 66z
m-2677 -7 c19 -48 27 -67 39 -103 14 -41 27 -73 45 -115 8 -16 21 -50 29 -75
8 -25 29 -83 46 -130 18 -47 34 -93 37 -102 12 -42 32 -6 101 180 41 108 78
206 83 217 5 11 19 49 32 85 l23 65 97 3 c91 3 97 2 88 -15 -5 -10 -21 -49
-36 -88 -15 -38 -34 -85 -42 -102 -7 -18 -25 -63 -39 -100 -14 -38 -32 -84
-41 -103 -16 -38 -25 -59 -43 -105 -7 -16 -38 -93 -69 -170 l-57 -140 -92 -1
c-64 0 -92 3 -92 12 0 11 -29 90 -55 149 -7 17 -18 46 -25 65 -7 19 -18 49
-25 65 -8 17 -23 57 -35 90 -12 33 -28 74 -35 90 -7 17 -19 48 -26 70 -7 22
-16 45 -19 50 -4 6 -13 30 -20 55 -7 25 -17 50 -21 55 -4 6 -16 36 -27 68
l-20 57 94 0 c94 0 95 0 105 -27z m1884 9 c74 -15 138 -55 151 -95 4 -12 7
-73 7 -137 0 -105 -2 -118 -24 -151 -13 -20 -40 -44 -59 -54 -19 -9 -42 -21
-50 -25 -21 -11 -14 -38 21 -82 16 -20 34 -48 40 -62 7 -14 16 -26 20 -26 5 0
15 -12 23 -27 8 -16 24 -39 36 -53 12 -14 29 -38 37 -55 9 -16 21 -33 27 -37
10 -7 -17 -9 -119 -9 -108 0 -101 -3 -135 56 -17 30 -35 55 -38 55 -4 0 -22
27 -40 60 -19 33 -37 60 -40 60 -4 0 -18 20 -32 45 -20 37 -30 45 -52 45 l-28
0 0 -160 0 -160 -95 0 -95 0 0 408 c0 225 3 412 7 416 13 13 363 4 438 -12z
m1280 0 c6 -4 22 -29 35 -55 14 -27 35 -59 46 -72 12 -13 36 -50 54 -82 18
-32 38 -62 45 -68 6 -5 31 -41 54 -80 63 -105 93 -145 102 -139 5 3 9 117 9
255 l0 249 88 0 88 0 -2 -197 c-1 -109 -3 -296 -3 -416 l-1 -218 -97 3 -97 3
-44 74 c-23 40 -49 80 -57 87 -7 8 -32 48 -55 89 -23 41 -44 75 -48 75 -4 0
-27 35 -52 78 -24 43 -55 86 -67 96 l-23 17 -1 -188 c-1 -103 -2 -218 -2 -255
1 -44 -3 -69 -11 -70 -6 -1 -38 -2 -71 -4 -106 -4 -96 -46 -91 389 3 210 5
394 5 410 l1 27 93 0 c50 0 97 -4 102 -8z m-3865 -668 c45 -24 59 -40 80 -86
13 -31 18 -57 14 -79 -7 -41 -34 -109 -44 -109 -4 0 -20 -12 -35 -27 -24 -25
-34 -28 -90 -27 -53 0 -70 5 -102 29 -50 37 -61 52 -74 98 -31 115 76 237 191
220 19 -3 46 -12 60 -19z m5008 -12 c2 -7 10 -12 17 -12 21 0 63 -57 76 -103
26 -99 -28 -183 -142 -220 -47 -15 -156 40 -184 92 -14 28 -23 100 -13 116 3
6 8 22 12 36 7 33 69 96 99 103 38 8 131 0 135 -12z"/>
<path d="M2233 1880 c-51 -11 -81 -26 -108 -54 -19 -19 -20 -37 -23 -257 l-4
-236 25 -26 c41 -45 92 -60 192 -60 103 1 159 19 190 61 19 25 20 43 20 257 0
258 -1 263 -74 296 -44 21 -161 30 -218 19z"/>
<path d="M3746 1827 c-54 -11 -60 -15 -68 -42 -9 -33 -18 -394 -10 -437 7 -42
82 -71 172 -67 62 3 76 4 85 10 6 3 22 9 36 12 43 11 49 41 49 265 -1 156 -4
211 -14 225 -7 9 -16 17 -20 17 -4 0 -13 6 -20 13 -17 17 -133 19 -210 4z"/>
<path d="M2968 1824 c-5 -4 -8 -51 -8 -105 l0 -98 68 -3 c72 -3 143 9 154 26
4 6 8 43 8 83 0 72 -5 84 -40 90 -46 9 -176 14 -182 7z"/>
</g>
</svg>
