<?xml version="1.0" standalone="no"?>
<!DOCTYPE svg PUBLIC "-//W3C//DTD SVG 20010904//EN"
 "http://www.w3.org/TR/2001/REC-SVG-20010904/DTD/svg10.dtd">
<svg version="1.0" xmlns="http://www.w3.org/2000/svg"
 width="645.000000pt" height="652.000000pt" viewBox="0 0 645.000000 652.000000"
 preserveAspectRatio="xMidYMid meet">

<g transform="translate(0.000000,652.000000) scale(0.100000,-0.100000)"
fill="#000000" stroke="none">
<path d="M1288 6513 c-10 -2 -18 -9 -18 -14 0 -5 -6 -9 -14 -9 -8 0 -24 -12
-36 -27 -12 -16 -19 -21 -15 -13 4 8 -1 6 -9 -4 -9 -11 -16 -16 -16 -10 0 5
-7 0 -15 -10 -8 -11 -15 -16 -15 -11 0 5 -7 0 -16 -11 -8 -10 -13 -12 -9 -4 4
8 -1 6 -9 -4 -9 -11 -16 -16 -16 -10 0 5 -7 0 -15 -10 -8 -11 -15 -16 -15 -11
0 5 -7 0 -16 -11 -8 -10 -13 -12 -9 -4 4 8 -1 6 -9 -4 -9 -11 -16 -16 -16 -10
0 5 -7 0 -15 -10 -8 -11 -15 -16 -15 -11 0 5 -7 0 -16 -11 -8 -10 -13 -12 -9
-4 4 8 -1 6 -9 -4 -9 -11 -16 -16 -16 -10 0 5 -7 0 -15 -10 -8 -11 -15 -16
-15 -11 0 5 -7 0 -16 -11 -8 -10 -13 -12 -9 -4 4 8 -1 6 -9 -4 -9 -11 -16 -16
-16 -10 0 5 -7 0 -15 -10 -8 -11 -15 -16 -15 -11 0 5 -7 0 -16 -11 -8 -10 -13
-12 -9 -4 4 8 -1 6 -9 -4 -9 -11 -16 -16 -16 -10 0 5 -7 0 -15 -10 -8 -11 -15
-16 -15 -11 0 5 -7 0 -16 -11 -8 -10 -13 -12 -9 -4 4 8 -1 6 -9 -4 -9 -11 -16
-16 -16 -10 0 5 -7 0 -15 -10 -8 -11 -15 -16 -15 -11 0 5 -7 0 -16 -11 -8 -10
-13 -12 -9 -4 4 8 -1 6 -9 -4 -9 -11 -16 -16 -16 -10 0 5 -7 0 -15 -10 -8 -11
-15 -16 -15 -11 0 5 -7 0 -16 -11 -8 -10 -13 -12 -9 -4 4 8 -1 6 -9 -4 -9 -11
-16 -16 -16 -10 0 5 -7 0 -15 -10 -8 -11 -15 -16 -15 -11 0 5 -7 0 -16 -11 -8
-10 -13 -12 -9 -4 4 8 -1 6 -9 -4 -9 -11 -16 -16 -16 -10 0 5 -7 0 -15 -10 -8
-11 -15 -16 -15 -11 0 5 -7 0 -16 -11 -8 -10 -13 -12 -9 -4 4 8 -1 6 -9 -4 -9
-11 -16 -16 -16 -10 0 5 -7 0 -15 -10 -8 -11 -15 -16 -15 -11 0 5 -7 0 -16
-11 -8 -10 -13 -12 -9 -4 4 8 -1 6 -9 -4 -9 -11 -16 -16 -16 -10 0 5 -7 0 -15
-10 -8 -11 -15 -16 -15 -11 0 5 -7 0 -16 -11 -8 -10 -13 -12 -9 -4 4 8 -1 6
-9 -4 -9 -11 -16 -16 -16 -10 0 5 -7 0 -15 -10 -8 -11 -15 -16 -15 -11 0 5 -7
0 -16 -11 -8 -10 -13 -12 -9 -4 4 10 2 9 -8 -2 -8 -10 -17 -15 -20 -11 -4 3
-9 -2 -13 -11 -3 -9 -9 -14 -13 -12 -4 3 -27 -6 -51 -18 l-45 -23 -3 -2755 -2
-2756 37 -5 c21 -2 45 -1 53 3 8 4 38 4 65 -1 42 -8 4386 -182 4843 -194 109
-3 160 -1 175 8 36 20 76 54 71 61 -2 3 -1 4 2 1 12 -8 83 38 77 49 -3 6 -3 8
2 4 12 -11 85 33 78 46 -3 6 -3 8 2 4 12 -11 85 33 78 46 -3 6 -3 8 2 4 12
-11 85 33 78 46 -3 6 -3 8 2 4 12 -11 85 33 78 46 -3 6 -3 8 2 4 12 -11 85 33
78 46 -3 6 -3 8 2 4 12 -11 85 33 78 46 -3 6 -3 8 2 4 12 -11 85 33 78 46 -3
6 -3 8 2 4 12 -11 85 33 78 46 -3 6 -3 8 2 4 12 -11 85 33 78 46 -3 6 -3 8 2
4 12 -11 85 33 78 46 -3 6 -3 8 2 4 12 -11 85 33 78 46 -3 6 -3 8 2 4 10 -10
86 32 79 44 -3 5 -2 7 3 6 14 -4 54 13 49 21 -3 4 5 8 17 8 12 1 23 7 25 13 2
5 8 8 13 4 5 -3 9 -1 9 4 0 5 8 12 18 14 16 5 17 144 17 2759 l0 2754 -42 3
c-24 2 -50 -1 -59 -6 -11 -6 -33 -4 -62 4 -25 8 -83 14 -130 14 -46 0 -1061
38 -2256 86 -1194 47 -2246 86 -2339 88 -92 1 -170 6 -174 9 -7 8 -67 7 -95 0z
m2302 -383 c1119 -44 2061 -80 2093 -80 43 0 57 -4 57 -14 0 -8 -5 -18 -12
-22 -7 -5 -9 -2 -4 7 4 8 0 5 -8 -5 -9 -11 -16 -16 -16 -10 0 5 -7 0 -15 -10
-8 -11 -15 -16 -15 -11 0 5 -7 0 -16 -11 -8 -10 -13 -12 -9 -4 4 8 -1 6 -9 -4
-9 -11 -16 -16 -16 -10 0 5 -7 0 -15 -10 -8 -11 -15 -16 -15 -11 0 5 -7 0 -16
-11 -8 -10 -13 -12 -9 -4 4 8 -1 6 -9 -4 -9 -11 -16 -16 -16 -10 0 5 -7 0 -15
-10 -8 -11 -15 -16 -15 -11 0 5 -7 0 -16 -11 -8 -10 -13 -12 -9 -4 4 8 -1 6
-9 -4 -9 -11 -16 -16 -16 -10 0 5 -7 0 -15 -10 -8 -11 -15 -16 -15 -11 0 5 -7
0 -16 -11 -8 -10 -13 -12 -9 -4 4 8 -1 6 -9 -4 -9 -11 -16 -16 -16 -10 0 5 -7
0 -15 -10 -8 -11 -15 -16 -15 -11 0 5 -7 0 -16 -11 -8 -10 -13 -12 -9 -4 4 8
-1 6 -9 -4 -9 -11 -16 -16 -16 -10 0 5 -7 0 -15 -10 -8 -11 -15 -16 -15 -11 0
5 -7 0 -16 -11 -8 -10 -13 -12 -9 -4 4 8 -1 6 -9 -4 -9 -11 -16 -16 -16 -10 0
5 -7 0 -15 -10 -8 -11 -15 -16 -15 -11 0 5 -7 0 -16 -11 -8 -10 -13 -12 -9 -4
4 8 -1 6 -9 -4 -9 -11 -16 -16 -16 -10 0 5 -7 0 -15 -10 -8 -11 -15 -16 -15
-11 0 5 -7 0 -16 -11 -8 -10 -13 -12 -9 -4 4 8 -1 6 -9 -4 -9 -11 -16 -16 -16
-10 0 5 -7 0 -15 -10 -8 -11 -15 -16 -15 -11 0 5 -7 0 -16 -11 -8 -10 -12 -13
-9 -6 6 11 3 11 -12 2 -14 -9 -396 3 -1708 54 -930 37 -1700 66 -1712 66 l-23
0 0 260 c0 143 1 260 3 260 1 0 918 -36 2037 -80z m-2350 -245 c0 -96 -3 -176
-7 -178 -9 -4 -516 14 -521 18 -6 5 14 37 22 36 12 -2 66 30 66 39 0 6 3 9 8
8 12 -3 72 32 72 42 0 6 3 9 8 8 12 -4 72 32 72 43 0 6 4 8 8 5 5 -3 18 3 29
14 12 10 23 16 27 13 3 -3 8 2 12 11 3 9 9 14 14 11 4 -2 16 4 27 15 12 10 23
16 27 13 3 -3 8 2 12 11 3 9 9 14 14 11 4 -2 16 4 27 15 12 10 23 16 27 13 3
-3 8 1 11 8 3 8 14 15 25 16 19 2 20 -5 20 -172z m4900 -1637 c0 -1601 0
-1610 -20 -1615 -11 -3 -20 -10 -20 -15 0 -5 -4 -7 -9 -4 -5 3 -12 -1 -15 -10
-4 -9 -9 -14 -13 -11 -3 4 -12 -1 -20 -11 -10 -11 -12 -12 -8 -2 4 8 -1 6 -9
-4 -9 -11 -16 -16 -16 -11 0 5 -7 0 -15 -11 -8 -10 -15 -15 -15 -10 0 6 -7 1
-16 -10 -8 -10 -13 -12 -9 -4 4 8 -1 6 -9 -4 -9 -11 -16 -16 -16 -11 0 5 -7 0
-15 -11 -8 -10 -15 -15 -15 -10 0 6 -7 1 -16 -10 -8 -10 -13 -12 -9 -4 4 8 -1
6 -9 -4 -9 -11 -16 -16 -16 -11 0 5 -7 0 -15 -11 -8 -10 -15 -15 -15 -10 0 6
-7 1 -16 -10 -8 -10 -13 -12 -9 -4 4 8 -1 6 -9 -4 -9 -11 -16 -16 -16 -11 0 5
-7 0 -16 -11 -8 -10 -13 -12 -9 -4 4 8 -1 6 -9 -4 -9 -11 -16 -16 -16 -10 0 5
-7 0 -15 -10 -8 -11 -15 -16 -15 -11 0 5 -7 0 -16 -11 -8 -10 -13 -12 -9 -4 4
8 -1 6 -9 -4 -9 -11 -16 -16 -16 -10 0 5 -7 0 -15 -10 -8 -11 -15 -16 -15 -11
0 5 -7 0 -16 -11 -8 -10 -13 -12 -9 -4 4 8 -1 6 -9 -4 -9 -11 -16 -16 -16 -10
0 5 -7 0 -15 -10 -8 -11 -15 -16 -15 -11 0 5 -7 0 -16 -11 -8 -10 -13 -12 -9
-4 4 8 -1 6 -9 -4 -9 -11 -16 -16 -16 -10 0 5 -7 0 -15 -10 -8 -11 -15 -16
-15 -11 0 5 -7 0 -16 -11 -8 -10 -13 -12 -9 -4 6 13 5 13 -7 0 -20 -24 -52
-19 -56 9 -2 13 1 28 7 34 6 6 11 33 11 59 l0 48 -80 0 -80 0 0 35 c0 37 3 38
58 35 23 -1 32 3 32 14 0 10 9 16 25 16 14 0 25 3 26 8 0 4 3 26 5 50 3 26 1
42 -5 42 -6 0 -11 11 -11 25 0 14 -6 25 -12 26 -7 0 -3 5 10 11 24 12 27 24
12 62 -6 18 -6 26 1 26 6 0 7 5 4 10 -3 6 -37 10 -76 10 l-69 0 0 1288 c1
1291 1 1315 33 1320 19 4 67 34 67 42 0 6 3 9 8 8 12 -4 72 32 72 43 0 6 4 8
8 5 5 -3 18 3 29 14 12 10 23 16 27 13 3 -3 8 2 12 11 3 9 9 14 14 11 4 -2 16
4 27 15 12 10 23 16 27 13 3 -3 8 2 12 11 3 9 9 14 14 11 4 -2 16 4 27 15 12
10 23 16 27 13 3 -3 8 2 12 11 3 9 9 14 14 11 4 -2 16 4 27 15 12 10 23 16 27
13 3 -3 8 2 12 11 3 9 9 14 14 11 4 -2 16 4 27 15 12 10 23 16 27 13 3 -3 8 2
12 11 3 9 10 13 15 11 4 -3 17 3 28 14 11 11 22 17 25 14 3 -3 8 2 12 11 3 9
10 13 15 11 4 -3 17 3 28 14 11 11 22 17 25 14 3 -3 8 2 12 11 3 9 10 13 15
11 4 -3 17 3 28 14 11 11 22 17 25 14 3 -3 8 2 12 11 3 9 10 13 15 11 4 -3 17
3 29 15 11 11 20 17 20 13 0 -4 5 -2 12 5 6 6 15 9 20 6 4 -3 8 -730 8 -1616z
m-5308 1177 c211 -9 389 -18 396 -20 9 -3 12 -270 12 -1289 0 -1136 -2 -1285
-15 -1290 -8 -3 -17 -4 -20 -3 -2 1 -11 -7 -19 -18 -9 -11 -16 -17 -16 -12 0
4 -9 -2 -20 -13 -12 -12 -25 -18 -29 -15 -5 2 -12 -2 -15 -11 -4 -9 -9 -14
-12 -11 -3 3 -14 -3 -25 -14 -11 -11 -24 -17 -28 -14 -5 2 -12 -2 -15 -11 -4
-9 -9 -14 -12 -11 -3 3 -14 -3 -25 -14 -11 -11 -24 -17 -28 -14 -5 2 -12 -2
-15 -11 -4 -9 -9 -14 -12 -11 -3 3 -14 -3 -25 -14 -11 -11 -24 -17 -28 -14 -5
2 -12 -2 -15 -11 -4 -9 -9 -14 -12 -11 -3 3 -14 -3 -25 -14 -11 -11 -24 -17
-28 -14 -5 2 -12 -2 -15 -11 -4 -9 -9 -14 -12 -11 -3 3 -14 -3 -25 -14 -11
-11 -24 -17 -28 -14 -5 2 -12 -2 -15 -11 -4 -9 -9 -14 -12 -11 -3 3 -14 -3
-25 -14 -11 -11 -24 -17 -28 -14 -5 2 -12 -2 -15 -11 -4 -9 -9 -14 -12 -11 -4
3 -15 -3 -27 -13 -11 -11 -23 -17 -27 -15 -5 3 -11 -2 -14 -11 -4 -9 -9 -14
-12 -11 -4 3 -15 -3 -27 -13 -11 -11 -23 -17 -27 -15 -5 3 -11 -2 -14 -11 -4
-9 -9 -14 -12 -11 -3 3 -13 -1 -22 -9 -10 -8 -21 -14 -25 -13 -5 0 -14 -7 -21
-16 -6 -9 -18 -17 -26 -18 -8 -2 -21 -6 -28 -10 -9 -7 -12 311 -12 1577 l0
1586 65 0 c36 0 237 -7 447 -15z m2408 -95 c872 -34 1604 -63 1628 -66 l42 -5
0 -1260 0 -1259 -87 1 c-49 0 -623 22 -1278 48 l-1190 48 -37 -24 c-33 -20
-38 -28 -38 -63 0 -21 5 -42 10 -45 6 -3 10 -19 10 -35 0 -16 -4 -32 -10 -35
-13 -8 -13 -82 0 -90 6 -4 570 -29 1253 -55 683 -27 1269 -50 1302 -52 60 -3
60 -3 63 -35 3 -33 3 -33 -40 -33 -72 -1 -3168 120 -3245 126 l-73 6 0 1444 0
1444 53 0 c28 0 765 -27 1637 -60z m-2057 -3019 c-4 -3 -8 -26 -8 -51 0 -42 2
-45 30 -50 l30 -5 0 -492 c0 -408 -2 -494 -14 -505 -12 -11 -13 -10 -7 2 4 8
0 6 -8 -4 -9 -11 -16 -16 -16 -11 0 5 -7 0 -15 -11 -8 -10 -15 -16 -15 -11 0
4 -9 -2 -20 -13 -12 -12 -25 -18 -29 -15 -5 2 -12 -2 -15 -11 -4 -9 -9 -14
-13 -11 -3 4 -11 0 -17 -8 -6 -7 -17 -15 -25 -17 -8 -2 -23 -11 -33 -21 -10
-10 -24 -15 -30 -11 -7 4 -8 3 -4 -4 4 -7 2 -12 -3 -12 -6 0 -13 0 -16 0 -3 0
-14 -9 -25 -20 -12 -12 -26 -18 -32 -14 -7 4 -8 3 -4 -4 4 -7 2 -12 -3 -12 -6
0 -13 0 -16 0 -3 0 -14 -9 -25 -20 -12 -12 -26 -18 -32 -14 -7 4 -8 3 -4 -4 4
-7 2 -12 -3 -12 -6 0 -13 0 -16 0 -3 0 -14 -9 -25 -20 -12 -12 -26 -18 -32
-14 -7 4 -8 3 -4 -4 4 -7 2 -12 -3 -12 -6 0 -13 0 -16 0 -3 0 -14 -9 -25 -20
-12 -12 -26 -18 -32 -14 -7 4 -8 3 -4 -4 4 -7 2 -12 -3 -12 -6 0 -13 0 -16 0
-3 0 -14 -9 -25 -20 -12 -12 -26 -18 -32 -14 -7 4 -8 3 -4 -4 6 -11 -6 -16
-26 -13 -5 0 -8 -3 -8 -8 0 -5 -12 -16 -26 -26 -18 -12 -24 -13 -19 -4 3 8 -1
5 -9 -5 -9 -11 -16 -16 -16 -10 0 5 -7 0 -15 -10 -8 -11 -15 -16 -15 -11 0 5
-7 0 -16 -11 -8 -10 -13 -12 -9 -4 4 10 2 9 -8 -2 -8 -10 -17 -15 -20 -11 -4
3 -9 -2 -13 -11 -3 -9 -10 -14 -14 -11 -4 3 -11 -2 -14 -11 -3 -8 -10 -12 -16
-9 -12 8 -13 1251 0 1280 7 17 9 14 10 -15 2 -19 2 -38 1 -42 0 -4 19 5 43 19
25 15 42 32 39 38 -4 5 -3 7 2 3 12 -11 85 33 78 46 -3 6 -3 8 2 4 10 -10 86
32 79 44 -3 5 -2 7 3 6 16 -4 53 14 47 23 -3 5 -2 9 3 8 20 -3 34 2 28 11 -4
6 -3 9 2 8 16 -4 53 14 47 23 -3 5 -2 9 3 8 20 -3 34 2 28 11 -4 6 -3 9 2 8
16 -4 53 14 47 23 -3 5 -2 9 3 8 21 -4 34 2 27 13 -4 6 -3 8 3 5 5 -4 21 4 34
16 13 12 25 21 26 20 9 -9 23 -1 17 9 -4 7 -3 8 4 4 6 -4 20 2 32 14 11 11 22
20 25 20 3 0 10 0 16 0 5 0 7 5 3 12 -4 7 -3 8 4 4 6 -4 20 2 32 14 11 11 22
20 25 20 3 0 10 0 16 0 5 0 7 5 3 12 -4 7 -3 8 4 4 6 -4 20 2 32 14 11 11 20
18 20 15 0 -2 15 2 33 10 l32 13 3 -35 c2 -20 0 -39 -5 -42z m4957 -658 l0
-575 -92 6 c-51 3 -235 11 -408 16 -173 6 -339 13 -367 16 l-53 5 0 277 0 277
50 24 c27 13 47 28 44 33 -3 4 -2 8 3 7 20 -3 34 2 28 11 -4 6 -3 9 2 8 16 -4
53 14 47 23 -3 5 -2 9 3 8 20 -3 34 2 28 11 -4 6 -3 9 2 8 16 -4 53 14 47 23
-3 5 -2 9 3 8 20 -3 34 2 28 11 -4 6 -3 9 2 8 16 -4 53 14 47 23 -3 5 -2 9 3
8 20 -3 34 2 28 11 -4 6 -3 9 2 8 16 -4 53 14 47 23 -3 5 -2 9 3 8 20 -3 34 2
28 11 -4 6 -3 9 2 8 16 -4 53 14 47 23 -3 5 -2 9 3 8 20 -3 34 2 28 11 -4 6
-3 9 2 8 16 -4 53 14 47 23 -3 5 -2 9 3 8 20 -3 34 2 28 11 -4 6 -3 9 2 8 16
-4 53 14 47 23 -3 5 -2 9 3 8 20 -3 34 2 28 11 -4 6 -3 9 2 8 16 -4 53 14 47
23 -3 5 -2 9 3 8 20 -3 34 2 28 11 -4 6 -3 9 2 8 16 -4 53 14 47 23 -3 5 -2 9
3 8 20 -3 34 2 28 11 -4 6 -3 9 2 8 16 -4 53 14 48 23 -3 5 1 6 9 3 14 -5 16
-71 16 -581z m-2815 476 c858 -33 1566 -62 1573 -64 9 -3 12 -90 12 -390 0
-301 -3 -385 -12 -385 -7 0 -14 12 -14 26 -1 14 -4 27 -5 29 -2 1 -59 5 -126
6 -112 4 -123 2 -138 -16 -9 -11 -14 -13 -10 -5 4 8 -1 6 -9 -4 -9 -11 -16
-16 -16 -11 0 5 -7 0 -16 -11 -8 -10 -13 -12 -9 -4 4 8 -3 4 -15 -10 -12 -14
-19 -18 -15 -10 4 8 -1 6 -9 -4 -9 -11 -16 -16 -16 -11 0 5 -7 0 -16 -11 -8
-10 -13 -12 -9 -4 4 8 -1 6 -9 -4 -9 -11 -16 -16 -16 -10 0 5 -7 0 -15 -10 -8
-11 -15 -16 -15 -11 0 5 -7 0 -16 -11 -8 -10 -13 -12 -9 -4 4 10 2 9 -8 -2 -8
-10 -17 -15 -20 -11 -4 3 -9 -2 -13 -11 -3 -9 -10 -13 -15 -10 -5 3 -9 1 -9
-5 0 -6 -35 -8 -92 -5 -51 2 -331 13 -623 24 -291 11 -539 22 -550 25 -14 3
-21 13 -22 36 -1 18 -6 35 -10 38 -5 3 -9 19 -11 36 -2 16 -7 32 -10 35 -4 3
-8 16 -10 30 -1 13 -6 28 -10 32 -4 3 -62 10 -129 14 -108 6 -123 5 -129 -10
-3 -9 -10 -14 -14 -11 -4 3 -11 -2 -14 -11 -4 -9 -9 -14 -13 -11 -3 4 -12 -1
-20 -11 -10 -11 -12 -12 -8 -2 4 8 -1 6 -9 -4 -9 -11 -16 -16 -16 -11 0 5 -7
0 -15 -11 -8 -10 -15 -15 -15 -10 0 6 -7 1 -16 -10 -8 -10 -13 -12 -9 -4 4 8
-1 6 -9 -4 -9 -11 -16 -16 -16 -11 0 5 -7 0 -15 -11 -8 -10 -15 -15 -15 -10 0
6 -7 1 -16 -10 -8 -10 -13 -12 -9 -4 4 8 -1 6 -9 -4 -9 -11 -16 -16 -16 -10 0
5 -5 1 -11 -9 -6 -9 -14 -15 -20 -12 -5 4 -9 3 -9 -2 0 -4 -19 -7 -42 -6 -53
4 -796 33 -826 33 l-22 0 0 471 0 471 108 -6 c59 -4 809 -33 1667 -67z m-2986
-46 c0 -31 -2 -34 -9 -18 -12 28 -12 55 0 55 6 0 10 -17 9 -37z m4900 -190 c0
-31 -2 -34 -9 -18 -12 28 -12 55 0 55 6 0 10 -17 9 -37z m-3 -201 c-12 -11
-16 6 -9 39 l8 34 3 -33 c2 -19 1 -36 -2 -40z m-3491 -737 c61 -2 134 -5 163
-5 38 0 52 -4 52 -14 0 -8 -5 -18 -12 -22 -7 -5 -9 -2 -4 7 4 8 0 5 -8 -5 -9
-11 -16 -16 -16 -11 0 5 -7 0 -16 -11 -8 -10 -13 -12 -9 -4 4 8 -3 4 -15 -10
-12 -14 -19 -18 -15 -10 4 8 -1 6 -9 -4 -9 -11 -16 -16 -16 -11 0 5 -7 0 -16
-11 -8 -10 -13 -12 -9 -4 4 8 -3 4 -15 -10 -12 -14 -19 -18 -15 -10 4 8 -1 6
-9 -4 -9 -11 -16 -16 -16 -11 0 5 -7 0 -16 -11 -8 -10 -13 -12 -9 -4 4 8 -3 4
-15 -10 -12 -14 -19 -18 -15 -10 4 8 -1 6 -9 -4 -9 -11 -16 -16 -16 -11 0 5
-7 0 -16 -11 -8 -10 -13 -12 -9 -4 4 8 -3 4 -15 -10 -12 -14 -19 -19 -15 -12
6 11 3 11 -14 0 -12 -7 -21 -16 -21 -21 0 -4 -5 -5 -12 -1 -7 4 -8 3 -4 -5 4
-6 3 -18 -3 -25 -6 -7 -9 -21 -5 -30 4 -9 1 -16 -6 -16 -8 0 -10 -9 -6 -25 4
-14 2 -25 -3 -25 -5 0 -10 -8 -10 -17 -1 -21 -6 -49 -16 -80 -6 -20 -14 -23
-59 -23 -107 0 -749 30 -754 35 -3 2 3 7 12 11 9 3 13 11 9 18 -3 6 -3 8 2 4
12 -11 85 33 78 46 -3 6 -3 8 2 4 12 -11 85 33 78 46 -3 6 -3 8 2 4 12 -11 85
33 78 46 -3 6 -3 8 2 4 12 -11 85 33 78 46 -3 6 -3 8 2 4 12 -11 85 33 78 46
-3 6 -3 8 2 4 10 -10 86 32 79 44 -3 5 -2 7 3 6 16 -4 53 14 47 23 -3 5 -2 9
3 8 20 -3 34 2 28 11 -4 6 -3 9 2 8 16 -4 53 14 47 23 -3 5 -2 9 3 8 20 -3 34
2 28 11 -4 6 -3 9 2 8 16 -4 53 14 47 23 -3 5 -2 9 3 8 18 -3 34 2 29 9 -5 8
76 7 289 -3z m1035 -39 c102 -3 232 -8 290 -11 225 -10 352 -15 520 -20 96 -3
194 -8 218 -11 42 -5 53 -16 30 -30 -7 -5 -9 -2 -4 7 4 8 0 5 -8 -5 -9 -11
-16 -16 -16 -10 0 5 -7 0 -15 -10 -8 -11 -15 -16 -15 -11 0 5 -7 0 -16 -11 -8
-10 -13 -12 -9 -4 4 8 -1 6 -9 -4 -9 -11 -16 -16 -16 -10 0 5 -7 0 -15 -10 -8
-11 -15 -16 -15 -11 0 5 -7 0 -16 -11 -8 -10 -13 -12 -9 -4 4 8 -1 6 -9 -4 -9
-11 -16 -16 -16 -10 0 5 -7 0 -15 -10 -8 -11 -15 -16 -15 -11 0 5 -7 0 -16
-11 -8 -10 -13 -12 -9 -4 4 8 -1 6 -9 -4 -9 -11 -16 -16 -16 -10 0 5 -7 0 -15
-10 -8 -11 -15 -16 -15 -11 0 5 -7 0 -16 -11 -8 -10 -13 -12 -9 -4 4 8 -1 6
-10 -5 -9 -11 -18 -19 -20 -17 -12 6 -26 1 -20 -8 3 -5 1 -10 -5 -10 -7 0 -9
-7 -6 -17 4 -9 2 -19 -4 -23 -5 -3 -11 -24 -13 -46 -1 -21 -6 -44 -10 -51 -4
-6 -4 -18 -1 -27 4 -9 1 -16 -6 -16 -8 0 -10 -9 -6 -24 4 -15 1 -26 -7 -28
-20 -7 -1577 56 -1577 64 0 3 9 10 20 13 11 4 18 11 14 16 -3 5 -2 9 3 8 21
-4 34 2 27 13 -4 6 -3 8 3 5 12 -8 135 67 125 77 -4 4 -2 7 3 6 21 -5 36 0 30
10 -4 6 -3 9 2 8 16 -4 53 14 47 23 -3 5 -2 9 3 8 20 -3 34 2 28 11 -4 6 -3 9
2 8 16 -4 53 14 47 23 -3 5 -2 9 3 8 20 -3 34 2 28 11 -4 6 -3 9 2 8 16 -4 53
14 47 23 -3 5 -2 9 3 8 20 -3 34 2 28 11 -4 6 -3 9 2 8 16 -4 53 14 47 23 -3
5 -2 9 3 8 20 -3 34 2 28 11 -4 6 -3 9 2 8 16 -4 53 14 47 23 -3 5 -2 9 3 8
20 -3 34 2 28 11 -4 6 -3 9 2 8 17 -4 53 14 47 24 -4 6 -3 9 2 5 13 -8 86 38
76 48 -4 4 -2 6 3 3 6 -3 93 -8 195 -12z m2058 -82 l72 -6 0 -254 0 -254 -87
0 c-49 0 -302 9 -563 20 -261 11 -491 20 -510 20 l-35 1 22 18 c12 10 20 21
18 25 -3 3 -2 4 1 1 12 -8 83 38 77 49 -3 6 -3 8 2 4 12 -11 85 33 78 46 -3 6
-3 8 2 4 12 -11 85 33 78 46 -3 6 -3 8 2 4 12 -11 85 33 78 46 -3 6 -3 8 2 4
10 -10 86 32 79 44 -3 5 -2 7 3 6 16 -4 53 14 47 23 -3 5 -2 9 3 8 20 -3 34 2
28 11 -4 6 -3 9 2 8 16 -4 53 14 47 23 -3 5 -2 9 3 8 20 -3 34 2 28 11 -4 6
-3 9 2 8 16 -4 53 14 47 23 -3 5 -2 9 3 8 20 -3 34 2 28 11 -4 6 -3 9 2 8 17
-4 53 14 47 24 -4 6 -3 8 2 5 6 -3 16 -1 24 4 14 9 209 5 368 -7z m777 -30
c116 -6 150 -14 124 -29 -8 -6 -10 -4 -5 6 4 8 -2 3 -14 -11 -12 -14 -19 -18
-15 -10 4 8 -1 6 -9 -4 -9 -11 -16 -16 -16 -11 0 5 -7 0 -16 -11 -8 -10 -13
-12 -9 -4 4 8 -3 4 -15 -10 -12 -14 -19 -18 -15 -10 4 8 -1 6 -9 -4 -9 -11
-16 -16 -16 -11 0 5 -7 0 -16 -11 -8 -10 -13 -12 -9 -4 4 8 -3 4 -15 -10 -12
-14 -19 -18 -15 -10 4 8 -1 6 -9 -4 -9 -11 -16 -16 -16 -11 0 5 -7 0 -16 -11
-8 -10 -13 -12 -9 -4 4 8 -3 4 -15 -10 -12 -14 -19 -18 -15 -10 4 8 -1 6 -9
-4 -9 -11 -16 -16 -16 -11 0 5 -7 0 -16 -11 -8 -10 -13 -12 -9 -4 4 8 -1 6 -9
-4 -9 -11 -16 -16 -16 -10 0 5 -7 0 -15 -10 -8 -11 -15 -16 -15 -11 0 5 -7 0
-16 -11 -8 -10 -13 -12 -9 -4 4 8 -1 6 -9 -4 -9 -11 -16 -16 -16 -10 0 5 -7 0
-15 -10 -8 -11 -15 -16 -15 -11 0 5 -7 0 -16 -11 -8 -10 -13 -12 -9 -4 4 10 2
9 -8 -2 -8 -10 -17 -15 -20 -11 -4 3 -7 85 -7 181 l0 174 138 -6 c75 -4 191
-9 257 -12z"/>
</g>
</svg>
