<?xml version="1.0" standalone="no"?>
<!DOCTYPE svg PUBLIC "-//W3C//DTD SVG 20010904//EN"
 "http://www.w3.org/TR/2001/REC-SVG-20010904/DTD/svg10.dtd">
<svg version="1.0" xmlns="http://www.w3.org/2000/svg"
 width="708.000000pt" height="743.000000pt" viewBox="0 0 708.000000 743.000000"
 preserveAspectRatio="xMidYMid meet">

<g transform="translate(0.000000,743.000000) scale(0.100000,-0.100000)"
fill="#000000" stroke="none">
<path d="M8 3710 l2 -3710 3533 2 3532 3 3 3708 2 3707 -3537 0 -3538 0 3
-3710z m200 3544 c4 -29 -24 -51 -46 -37 -10 6 -16 19 -15 29 1 10 -3 22 -9
25 -6 4 7 6 28 6 31 -2 40 -6 42 -23z m6726 3 c9 -15 7 -21 -9 -33 -10 -8 -24
-13 -29 -11 -17 6 -29 34 -23 51 9 22 46 17 61 -7z m23 -19 c-3 -7 -5 -2 -5
12 0 14 2 19 5 13 2 -7 2 -19 0 -25z m-6764 -45 c-7 -2 -19 -2 -25 0 -7 3 -2
5 12 5 14 0 19 -2 13 -5z m6724 1 c-3 -3 -12 -4 -19 -1 -8 3 -5 6 6 6 11 1 17
-2 13 -5z m-187 -3484 l0 -3360 -860 0 -860 0 0 175 0 175 -175 0 -175 0 0
-175 0 -175 -1120 0 -1120 0 -1 168 c-1 92 -1 170 0 175 1 4 -77 6 -171 5
l-173 -3 -3 -173 -2 -172 -858 2 -857 3 -3 3358 -2 3357 3190 0 3190 0 0
-3360z m-4452 -3185 c-3 -34 -36 -46 -57 -21 -19 23 3 56 35 54 21 -2 25 -7
22 -33z m2592 1 c0 -20 -27 -39 -45 -32 -25 9 -30 37 -10 52 20 15 55 2 55
-20z m-4665 -345 c0 -33 -30 -51 -51 -29 -13 13 -14 20 -4 37 16 31 55 25 55
-8z m6731 7 c7 -22 -19 -52 -40 -45 -17 6 -29 34 -23 51 10 24 54 21 63 -6z
m21 -20 c-3 -7 -5 -2 -5 12 0 14 2 19 5 13 2 -7 2 -19 0 -25z m-6760 -44 c-3
-3 -12 -4 -19 -1 -8 3 -5 6 6 6 11 1 17 -2 13 -5z m6720 0 c-3 -3 -12 -4 -19
-1 -8 3 -5 6 6 6 11 1 17 -2 13 -5z"/>
<path d="M1082 2523 l-392 -3 2 -173 3 -172 2845 0 2845 0 3 171 c2 132 0 171
-10 173 -24 3 -4901 7 -5296 4z"/>
</g>
</svg>
