<?xml version="1.0" standalone="no"?>
<!DOCTYPE svg PUBLIC "-//W3C//DTD SVG 20010904//EN"
 "http://www.w3.org/TR/2001/REC-SVG-20010904/DTD/svg10.dtd">
<svg version="1.0" xmlns="http://www.w3.org/2000/svg"
 width="268.000000pt" height="242.000000pt" viewBox="0 0 268.000000 242.000000"
 preserveAspectRatio="xMidYMid meet">

<g transform="translate(0.000000,242.000000) scale(0.100000,-0.100000)"
fill="#000000" stroke="none">
<path d="M302 2410 c-12 -5 -25 -16 -28 -25 -5 -12 -27 -15 -118 -15 -85 0
-117 -4 -134 -16 l-22 -15 0 -1154 0 -1154 22 -15 c20 -14 105 -16 719 -16
812 0 735 -12 749 113 6 49 18 94 32 120 45 80 64 88 534 207 236 60 448 116
472 124 65 23 102 54 126 105 21 45 21 55 24 816 2 424 0 784 -3 802 -3 17
-13 41 -23 53 l-17 21 -1043 2 -1043 2 -19 25 c-17 23 -26 25 -112 27 -51 2
-103 -2 -116 -7z m-10 -797 c24 -21 23 -45 -2 -68 -30 -27 -70 -7 -70 34 0 45
39 64 72 34z m1080 0 c22 -20 23 -41 1 -65 -20 -22 -41 -23 -65 -1 -24 22 -23
49 4 67 28 20 37 20 60 -1z m1158 -3 c24 -24 25 -38 3 -62 -20 -22 -41 -23
-65 -1 -22 20 -23 41 -1 65 21 23 38 23 63 -2z m-438 -79 c228 -138 238 -146
238 -184 0 -18 -5 -38 -12 -45 -16 -16 -759 -17 -789 -2 -22 13 -27 81 -6 98
36 30 383 222 402 222 11 0 87 -40 167 -89z m-932 19 c19 -19 20 -33 20 -404
l0 -385 -26 -20 c-26 -20 -38 -21 -356 -21 l-329 0 -24 25 -25 24 0 381 c0
367 1 381 20 400 19 19 33 20 360 20 327 0 341 -1 360 -20z m1164 -561 c17
-50 1 -74 -76 -117 -40 -22 -125 -69 -187 -106 -70 -40 -126 -66 -144 -66 -19
0 -92 37 -211 107 -99 59 -184 111 -188 117 -12 17 -9 71 4 84 9 9 107 12 402
10 l391 -3 9 -26z m-2022 -233 c17 -26 -8 -76 -38 -76 -38 0 -59 70 -26 89 19
11 53 4 64 -13z m1070 7 c22 -20 23 -41 1 -65 -20 -22 -41 -23 -65 -1 -22 20
-23 41 -1 65 20 22 41 23 65 1z m1158 -1 c43 -35 4 -94 -50 -77 -28 9 -37 51
-15 75 22 25 37 25 65 2z"/>
</g>
</svg>
