<?xml version="1.0" standalone="no"?>
<!DOCTYPE svg PUBLIC "-//W3C//DTD SVG 20010904//EN"
 "http://www.w3.org/TR/2001/REC-SVG-20010904/DTD/svg10.dtd">
<svg version="1.0" xmlns="http://www.w3.org/2000/svg"
 width="472.000000pt" height="289.000000pt" viewBox="0 0 472.000000 289.000000"
 preserveAspectRatio="xMidYMid meet">

<g transform="translate(0.000000,289.000000) scale(0.100000,-0.100000)"
fill="#000000" stroke="none">
<path d="M87 2869 c-72 -12 -72 -10 -75 -287 -1 -136 -2 -458 -2 -717 2 -796
1 -930 0 -1251 -2 -310 -2 -312 22 -353 12 -22 29 -43 36 -46 8 -3 55 -10 105
-15 51 -6 103 -13 117 -15 14 -2 63 -9 110 -15 47 -6 108 -15 135 -20 28 -5
66 -12 85 -14 97 -13 247 -37 260 -42 16 -6 229 -39 315 -49 28 -3 64 -7 80
-10 181 -26 2008 -26 2143 0 10 1 46 6 82 9 36 4 76 8 90 11 14 2 61 9 105 15
44 6 103 15 130 20 28 5 68 12 90 15 39 5 62 9 115 20 14 2 39 7 55 9 146 23
227 35 265 40 25 4 56 8 70 10 14 3 68 10 120 16 52 7 105 16 117 21 31 11 44
42 48 108 4 57 5 2438 2 2478 -3 36 -33 63 -69 63 -18 0 -387 1 -821 1 -710 1
-790 0 -812 -15 -30 -20 -33 -33 -39 -160 -3 -82 -7 -102 -22 -113 -15 -11
-127 -13 -574 -12 -305 1 -566 5 -580 9 -14 4 -20 9 -15 9 6 1 4 5 -4 10 -11
7 -15 37 -18 116 -3 115 -12 142 -46 150 -32 8 -1575 12 -1620 4z m433 -559
c8 -5 11 -10 5 -10 -5 0 -4 -4 3 -9 22 -13 4 -60 -26 -68 -33 -8 -56 8 -60 41
-6 47 37 72 78 46z m3742 -7 c27 -24 23 -61 -7 -75 -23 -10 -29 -8 -50 13 -36
36 -23 71 29 78 5 0 18 -6 28 -16z m-1276 -84 c14 -15 16 -88 15 -780 0 -747
-1 -764 -20 -780 -17 -14 -130 -16 -1143 -16 -1061 0 -1126 1 -1146 18 l-22
17 0 479 c0 263 0 607 0 765 l0 287 25 14 c21 10 235 13 1150 12 1024 0 1126
-1 1141 -16z m937 -243 c15 -2 34 -9 41 -16 8 -6 18 -10 22 -8 5 1 20 -4 34
-12 14 -8 31 -15 38 -16 7 -1 22 -12 32 -24 10 -12 20 -20 22 -18 3 2 12 -5
22 -14 10 -10 14 -18 10 -18 -4 0 4 -10 18 -22 34 -32 51 -63 73 -132 57 -187
-13 -404 -155 -480 -63 -33 -127 -101 -134 -142 -4 -19 -7 -76 -7 -126 0 -130
-24 -168 -106 -168 -79 1 -108 54 -112 210 -2 58 -7 112 -12 121 -4 9 -5 20
-1 24 4 5 1 5 -6 1 -7 -4 -15 -1 -18 7 -3 8 -23 22 -44 32 -22 10 -37 21 -35
26 3 4 -5 11 -17 15 -34 10 -106 93 -133 151 -83 178 -56 356 73 490 106 108
229 145 395 119z m-3405 -1304 c22 -15 24 -57 2 -77 -17 -15 -23 -16 -49 -4
-49 22 -39 89 14 89 11 0 26 -4 33 -8z m3736 2 c9 -3 13 -10 10 -15 -3 -5 0
-9 5 -9 6 0 11 -8 11 -18 0 -21 -29 -49 -47 -46 -7 1 -16 2 -21 3 -18 3 -32
41 -22 66 9 25 32 31 64 19z"/>
</g>
</svg>
