<?xml version="1.0" standalone="no"?>
<!DOCTYPE svg PUBLIC "-//W3C//DTD SVG 20010904//EN"
 "http://www.w3.org/TR/2001/REC-SVG-20010904/DTD/svg10.dtd">
<svg version="1.0" xmlns="http://www.w3.org/2000/svg"
 width="687.000000pt" height="1112.000000pt" viewBox="0 0 687.000000 1112.000000"
 preserveAspectRatio="xMidYMid meet">

<g transform="translate(0.000000,1112.000000) scale(0.100000,-0.100000)"
fill="#000000" stroke="none">
<path d="M5914 11111 c-2 -3 -17 -7 -32 -9 -31 -4 -89 -38 -115 -67 -10 -11
-38 -63 -63 -115 -25 -52 -49 -103 -55 -112 -5 -10 -9 -25 -9 -33 0 -8 -4 -15
-8 -15 -5 0 -17 -25 -27 -55 -11 -30 -23 -55 -27 -55 -4 0 -8 -9 -8 -19 0 -11
-4 -23 -10 -26 -5 -3 -10 -15 -10 -26 0 -10 -4 -19 -10 -19 -5 0 -10 -5 -10
-10 0 -6 -16 -45 -35 -86 -19 -41 -35 -78 -35 -82 0 -4 -13 -34 -29 -67 -16
-33 -39 -82 -51 -110 -12 -27 -32 -72 -45 -100 -39 -88 -67 -149 -80 -180 -38
-88 -68 -154 -86 -188 -10 -22 -19 -45 -19 -53 0 -8 -4 -14 -8 -14 -4 0 -14
-17 -21 -37 -14 -41 -38 -93 -107 -241 -24 -51 -44 -96 -44 -101 0 -4 -11 -29
-24 -57 -33 -65 -86 -183 -86 -189 0 -3 -18 -44 -41 -92 -22 -49 -48 -104 -56
-123 -33 -75 -57 -127 -79 -177 -14 -29 -36 -79 -50 -110 -14 -32 -33 -76 -43
-98 -42 -91 -70 -153 -88 -195 -81 -181 -128 -279 -142 -290 -3 -3 -21 -34
-40 -69 -19 -36 -43 -74 -55 -86 -12 -12 -39 -43 -61 -71 -42 -52 -117 -126
-161 -159 -14 -11 -34 -27 -43 -36 -41 -37 -281 -167 -332 -179 -30 -7 -58
-15 -64 -19 -5 -3 -14 -6 -20 -8 -5 -1 -20 -4 -33 -7 -12 -3 -28 -8 -35 -13
-6 -4 -19 -8 -27 -10 -78 -11 -240 -27 -265 -26 -39 2 -209 14 -249 18 -27 3
-56 10 -63 16 -7 7 -13 8 -13 4 0 -4 -6 -2 -13 4 -8 6 -22 12 -33 14 -10 2
-26 7 -34 10 -8 3 -34 11 -57 17 -23 6 -45 15 -48 20 -4 6 -11 8 -16 5 -5 -4
-9 -1 -9 6 0 7 -3 10 -6 6 -3 -3 -29 8 -58 24 -29 15 -56 26 -60 22 -3 -3 -6
-1 -6 5 0 7 -7 12 -15 12 -8 0 -15 5 -15 11 0 5 -4 7 -10 4 -5 -3 -10 -1 -10
6 0 7 -3 10 -6 7 -3 -4 -19 8 -35 24 -16 17 -29 28 -29 24 0 -4 -6 -1 -14 6
-8 7 -27 22 -42 33 -25 17 -107 99 -188 187 -13 15 -37 50 -53 78 -15 27 -31
50 -35 50 -4 0 -23 27 -43 61 -33 57 -52 102 -111 272 -13 37 -28 75 -33 85
-45 89 -60 113 -100 154 -25 26 -52 48 -58 48 -7 0 -13 5 -13 11 0 5 -5 7 -10
4 -5 -3 -10 -1 -10 5 0 6 -4 9 -9 6 -5 -3 -12 1 -15 10 -3 8 -10 12 -16 9 -5
-3 -10 -2 -10 3 0 5 -6 9 -12 10 -16 1 -53 10 -53 12 0 5 -67 11 -120 10 -89
-1 -106 -4 -153 -28 -23 -12 -42 -20 -42 -17 0 10 -55 -30 -103 -74 -69 -65
-116 -158 -132 -257 -11 -63 -14 -285 -14 -977 0 -610 -3 -903 -10 -916 -6
-11 -11 -29 -11 -41 0 -26 -24 -65 -73 -121 -25 -27 -117 -86 -117 -74 0 4 -7
1 -17 -6 -12 -10 -58 -15 -177 -17 -275 -4 -470 -10 -489 -14 -10 -2 -22 -9
-25 -14 -4 -6 -21 -18 -37 -28 -36 -21 -63 -64 -80 -129 -11 -38 -13 -600 -12
-2880 l2 -2832 24 -40 c35 -58 84 -98 134 -112 29 -8 6493 -9 6533 -1 18 3 41
15 53 27 12 12 25 21 29 21 18 0 70 98 78 145 10 65 11 10656 1 10715 -7 44
-46 130 -58 130 -3 0 -22 11 -42 24 -20 14 -51 27 -69 29 -18 3 -33 6 -33 8 0
4 -736 5 -741 0z m-4389 -2721 c0 -2 14 -5 52 -14 33 -7 63 -25 63 -38 0 -6 3
-9 6 -5 8 8 64 -44 64 -60 0 -8 7 -25 17 -39 22 -35 25 -139 4 -184 -19 -42
-106 -130 -129 -131 -10 0 -26 -2 -37 -5 -75 -16 -160 -4 -182 24 -7 9 -13 12
-13 7 0 -4 -9 2 -20 15 -11 13 -20 19 -20 14 0 -5 -16 18 -35 51 -29 50 -34
70 -35 121 0 68 26 134 67 168 14 12 33 28 42 36 10 8 24 17 32 18 24 6 53 13
66 16 7 1 15 5 18 8 5 5 40 3 40 -2z m3460 -14 c17 -2 33 -5 37 -5 4 -1 18
-11 32 -23 13 -13 36 -31 50 -42 29 -21 64 -129 61 -188 -2 -44 -38 -115 -74
-146 -46 -40 -55 -46 -65 -49 -6 -1 -22 -5 -36 -8 -14 -3 -30 -7 -37 -9 -7 -1
-16 -5 -19 -9 -4 -4 -12 -3 -19 3 -6 5 -28 10 -48 12 -21 1 -47 10 -57 20 -11
11 -20 16 -20 13 0 -4 -7 0 -15 8 -8 9 -18 17 -23 19 -4 1 -23 28 -40 59 -26
46 -32 67 -32 116 0 67 27 134 67 167 14 12 33 29 43 38 11 9 38 20 62 23 24
4 48 8 55 9 7 1 16 5 19 9 4 4 12 3 18 -2 6 -6 25 -12 41 -15z m705 -271 c25
-3 55 -6 68 -6 12 1 22 -3 22 -8 0 -5 15 -14 33 -22 17 -7 51 -32 73 -56 47
-48 564 -935 589 -1010 21 -61 21 -154 1 -194 -9 -18 -16 -40 -16 -51 0 -10
-4 -18 -9 -18 -5 0 -14 -12 -20 -27 -7 -16 -23 -46 -36 -68 -14 -22 -30 -51
-37 -65 -7 -14 -16 -27 -19 -30 -4 -3 -22 -33 -40 -67 -19 -35 -44 -80 -56
-100 -13 -21 -28 -49 -35 -63 -7 -14 -16 -27 -20 -30 -4 -3 -12 -17 -18 -30
-6 -14 -22 -43 -35 -65 -14 -22 -30 -51 -37 -65 -7 -14 -18 -31 -25 -38 -7 -7
-16 -24 -19 -38 -3 -13 -10 -24 -14 -24 -4 0 -13 -12 -20 -27 -18 -45 -43 -86
-90 -150 -55 -76 -138 -127 -220 -137 -69 -9 -1066 -9 -1100 0 -14 3 -33 6
-44 5 -44 0 -128 62 -194 144 -16 19 -204 349 -206 360 -1 5 -4 15 -7 20 -15
25 -30 118 -26 159 5 49 37 136 50 136 4 0 7 6 7 13 0 7 14 23 31 37 17 14 39
32 48 41 9 8 34 26 56 39 22 13 45 28 50 35 6 6 36 26 67 44 47 26 158 108
178 131 3 3 32 28 65 55 33 28 74 65 90 84 17 19 56 61 87 94 32 33 65 70 73
81 8 12 36 51 62 87 27 37 55 77 63 89 8 12 20 28 25 34 6 6 26 43 45 81 19
39 38 72 41 75 8 7 94 187 159 333 29 64 56 117 61 117 4 0 11 9 14 20 4 11
21 28 38 37 18 8 35 20 38 25 3 5 33 12 65 15 32 3 60 7 62 8 2 2 11 1 20 -1
9 -2 37 -6 62 -9z m-3485 -1498 c11 -3 22 -6 25 -7 3 -1 8 -2 13 -1 4 0 7 -3
7 -9 0 -5 8 -10 18 -10 10 0 28 -7 40 -16 12 -8 22 -13 22 -9 0 3 14 -1 30
-10 17 -9 30 -12 30 -8 0 5 4 2 9 -6 5 -8 17 -16 26 -17 9 -1 24 -6 33 -10 9
-4 19 -8 22 -8 3 -1 15 -7 27 -14 11 -6 45 -15 75 -18 29 -3 58 -9 63 -12 6
-4 15 -7 20 -9 6 -1 21 -5 35 -8 14 -3 36 -8 50 -11 14 -2 32 -7 40 -11 21 -9
37 -11 110 -18 36 -4 85 -9 110 -12 25 -2 55 -4 67 -4 12 0 25 -4 28 -9 4 -6
12 -7 18 -3 20 13 408 14 424 2 7 -6 13 -9 13 -5 0 4 14 0 30 -9 17 -9 30 -12
30 -8 0 5 5 0 11 -10 6 -9 14 -15 20 -12 5 4 9 1 9 -5 0 -6 4 -9 9 -5 5 3 12
-4 16 -15 4 -11 11 -18 16 -15 5 4 9 2 9 -4 0 -5 6 -16 14 -23 15 -15 347
-587 350 -603 1 -5 7 -20 14 -32 21 -39 14 -213 -9 -213 -5 0 -9 -6 -9 -13 0
-8 -11 -34 -25 -58 -14 -24 -31 -56 -37 -71 -7 -16 -16 -28 -19 -28 -4 0 -13
-16 -19 -35 -6 -19 -15 -35 -20 -35 -4 0 -13 -12 -19 -27 -7 -16 -23 -46 -36
-68 -14 -22 -30 -52 -36 -67 -6 -16 -15 -28 -19 -28 -5 0 -14 -16 -20 -35 -6
-19 -15 -35 -20 -35 -4 0 -13 -12 -19 -27 -7 -16 -23 -46 -36 -68 -14 -22 -30
-52 -36 -67 -6 -16 -15 -28 -19 -28 -5 0 -14 -16 -20 -35 -6 -19 -15 -35 -20
-35 -4 0 -13 -12 -20 -27 -44 -107 -122 -204 -200 -250 l-65 -38 -585 1 c-322
1 -594 2 -604 3 -48 5 -186 111 -186 143 0 5 -5 6 -10 3 -5 -3 -10 -1 -10 5 0
6 -110 203 -245 436 -135 233 -252 443 -261 467 -9 23 -21 52 -26 64 -13 27
-5 170 11 186 6 6 11 17 11 25 0 15 110 205 122 210 5 2 8 9 8 15 0 11 117
218 137 242 4 6 18 30 30 55 34 68 185 324 208 351 11 14 40 36 64 50 35 21
55 25 100 23 31 -1 65 -4 76 -7z m-1280 -1261 c38 -3 71 -10 73 -16 2 -5 10
-10 17 -10 8 0 21 -7 29 -16 9 -8 16 -13 16 -9 0 4 7 0 15 -8 8 -9 18 -17 22
-19 5 -1 20 -19 34 -38 33 -45 551 -945 568 -987 20 -51 12 -213 -10 -213 -5
0 -9 -8 -10 -17 0 -10 -11 -36 -24 -58 -14 -22 -29 -52 -36 -67 -6 -16 -15
-28 -19 -28 -5 0 -14 -16 -20 -35 -6 -19 -15 -35 -20 -35 -4 0 -13 -12 -19
-27 -6 -16 -22 -46 -36 -68 -13 -22 -29 -52 -36 -67 -6 -16 -15 -28 -19 -28
-5 0 -14 -16 -20 -35 -6 -19 -15 -35 -19 -35 -3 0 -12 -12 -19 -27 -6 -16 -23
-46 -37 -68 -13 -22 -29 -52 -36 -67 -6 -16 -15 -28 -19 -28 -4 0 -13 -12 -19
-27 -6 -16 -22 -46 -36 -68 -13 -22 -29 -50 -35 -63 -5 -13 -16 -30 -23 -37
-6 -8 -27 -36 -46 -63 -35 -50 -126 -111 -179 -121 -34 -6 -197 -7 -236 -1
-15 3 -31 10 -33 17 -3 7 -9 10 -14 7 -5 -3 -9 0 -9 7 0 7 -3 10 -6 6 -9 -8
-36 21 -64 68 l-24 40 0 1045 c0 1044 0 1045 21 1085 11 22 39 55 62 73 33 27
53 34 103 39 35 3 65 7 66 9 2 1 9 1 15 -1 7 -2 43 -6 82 -9z m4804 -2 c25 -3
51 -13 59 -20 7 -8 20 -14 28 -14 45 0 113 -102 378 -560 147 -256 269 -469
270 -475 1 -5 4 -14 8 -20 23 -39 26 -162 4 -207 -9 -17 -16 -39 -16 -50 0
-10 -4 -18 -8 -18 -4 0 -23 -28 -41 -62 -50 -95 -65 -123 -72 -128 -3 -3 -26
-43 -52 -90 -27 -47 -52 -92 -58 -100 -5 -8 -15 -26 -21 -40 -7 -14 -15 -27
-18 -30 -11 -10 -100 -169 -100 -180 0 -5 -4 -10 -9 -10 -5 0 -14 -15 -22 -32
-7 -18 -16 -35 -20 -38 -3 -3 -20 -31 -37 -63 -74 -140 -165 -226 -257 -246
-36 -7 -1137 -7 -1180 1 -56 10 -135 68 -194 143 -15 20 -513 887 -515 898 -4
18 -16 50 -27 69 -14 28 -11 133 7 184 22 64 529 940 565 976 16 16 29 33 29
37 0 8 96 64 115 67 6 1 30 5 55 9 25 4 46 7 47 8 5 5 1045 -4 1082 -9z
m-2409 -1378 c36 -3 67 -11 68 -16 2 -6 10 -10 17 -10 8 0 21 -7 29 -16 9 -8
16 -13 16 -9 0 9 44 -29 70 -61 19 -23 551 -945 554 -959 1 -5 7 -20 14 -32
19 -35 17 -154 -3 -200 -44 -97 -83 -169 -102 -191 -7 -7 -16 -24 -19 -38 -3
-13 -10 -24 -14 -24 -4 0 -13 -12 -19 -27 -7 -16 -23 -46 -36 -68 -14 -22 -30
-51 -37 -65 -7 -14 -18 -31 -25 -38 -7 -7 -16 -24 -19 -38 -3 -13 -10 -24 -14
-24 -4 0 -13 -12 -19 -27 -7 -16 -23 -46 -36 -68 -14 -22 -30 -51 -37 -65 -7
-14 -16 -27 -20 -30 -4 -3 -12 -17 -18 -30 -6 -14 -22 -43 -35 -65 -14 -22
-30 -51 -37 -65 -7 -15 -33 -53 -58 -86 -45 -62 -130 -122 -188 -133 -40 -8
-1141 -7 -1181 1 -19 4 -37 11 -40 16 -3 5 -16 12 -27 16 -30 9 -126 106 -150
151 -55 101 -79 142 -88 155 -7 8 -18 26 -24 40 -7 14 -22 41 -34 60 -11 19
-34 60 -51 90 -16 30 -35 62 -41 70 -7 8 -18 26 -24 40 -7 14 -22 41 -34 60
-11 19 -34 60 -51 90 -16 30 -35 62 -41 70 -7 8 -17 26 -24 40 -7 14 -18 34
-24 45 -7 11 -20 31 -29 45 -8 14 -21 45 -29 70 -7 25 -18 51 -23 58 -13 16
-3 170 11 184 7 7 12 18 12 26 0 8 24 55 54 106 59 100 256 441 319 551 96
170 153 262 179 288 15 16 28 32 28 36 0 8 96 64 115 67 6 1 30 5 55 9 25 4
46 7 47 8 5 5 1009 -1 1063 -7z m-2390 -1380 c54 -5 120 -32 120 -49 0 -4 4
-6 9 -3 23 15 102 -106 352 -539 149 -259 277 -486 286 -505 22 -53 16 -220
-8 -220 -5 0 -9 -6 -9 -13 0 -8 -11 -34 -25 -58 -14 -24 -30 -56 -36 -71 -6
-16 -15 -28 -19 -28 -5 0 -14 -16 -20 -35 -6 -19 -15 -35 -20 -35 -4 0 -13
-12 -19 -28 -7 -15 -23 -45 -36 -67 -14 -22 -30 -52 -36 -67 -6 -16 -15 -28
-19 -28 -4 0 -13 -12 -19 -27 -7 -16 -23 -46 -36 -68 -41 -67 -64 -109 -76
-138 -6 -15 -15 -27 -19 -27 -5 0 -12 -10 -16 -22 -12 -40 -98 -134 -146 -162
-27 -15 -48 -24 -48 -20 0 3 -6 2 -13 -3 -17 -13 -65 -17 -192 -16 -182 1
-181 1 -260 80 -27 27 -34 43 -43 105 -7 48 -10 388 -8 988 1 875 2 916 20
945 25 39 96 105 116 106 21 1 74 10 77 13 3 3 77 -1 143 -8z m4800 -1 c24 -3
47 -9 50 -14 3 -4 16 -12 29 -16 63 -20 114 -94 385 -565 148 -256 269 -469
270 -475 1 -5 4 -14 8 -20 23 -39 26 -162 4 -207 -9 -17 -16 -35 -16 -40 0 -4
-17 -36 -37 -71 -21 -34 -47 -80 -58 -102 -11 -22 -22 -42 -25 -45 -3 -3 -19
-27 -35 -55 -16 -27 -38 -63 -47 -80 -10 -16 -28 -50 -41 -75 -12 -25 -24 -47
-27 -50 -7 -6 -44 -69 -122 -205 -19 -34 -49 -75 -66 -93 -18 -18 -32 -36 -32
-40 0 -4 -23 -20 -50 -35 -28 -16 -50 -25 -50 -22 0 3 -6 3 -12 -1 -7 -5 -29
-10 -48 -12 -55 -7 -1303 -7 -1320 -1 -8 4 -18 7 -23 8 -4 0 -21 8 -37 16 -17
9 -30 13 -30 10 0 -2 -10 3 -21 13 -45 36 -75 68 -106 112 -56 80 -406 694
-423 743 -9 26 -20 50 -23 54 -13 13 -7 133 9 180 9 26 33 77 54 113 21 36 47
82 59 103 35 62 57 100 88 153 17 27 41 70 55 95 55 97 68 119 91 156 13 21
35 58 48 83 66 121 152 259 183 292 31 33 102 78 131 84 6 1 25 4 43 7 19 3
35 7 37 9 6 5 1058 -1 1105 -7z m-2402 -1379 c48 -6 97 -27 113 -49 3 -5 10
-8 14 -7 8 2 42 -27 65 -56 16 -20 332 -564 358 -617 13 -27 13 -33 -2 -62
-34 -63 30 -60 -1118 -60 -1027 0 -1050 0 -1064 19 -8 11 -14 16 -14 10 -1 -5
-7 2 -15 16 -31 55 -22 77 151 377 91 159 178 300 194 315 15 15 30 31 32 37
7 19 107 69 147 74 23 2 43 6 46 8 6 7 1037 2 1093 -5z"/>
</g>
</svg>
