<?xml version="1.0" standalone="no"?>
<!DOCTYPE svg PUBLIC "-//W3C//DTD SVG 20010904//EN"
 "http://www.w3.org/TR/2001/REC-SVG-20010904/DTD/svg10.dtd">
<svg version="1.0" xmlns="http://www.w3.org/2000/svg"
 width="240.000000pt" height="431.000000pt" viewBox="0 0 240.000000 431.000000"
 preserveAspectRatio="xMidYMid meet">

<g transform="translate(0.000000,431.000000) scale(0.100000,-0.100000)"
fill="#000000" stroke="none">
<path d="M39 4277 l-34 -23 5 -599 c2 -330 5 -899 5 -1265 1 -767 14 -2018 22
-2165 3 -55 6 -123 7 -152 l2 -51 560 -7 c732 -10 1772 -10 1782 -1 9 10 9
123 -2 1471 -5 611 -11 1471 -13 1912 -2 441 -7 819 -11 840 -9 45 -38 63 -99
63 l-43 0 -1 -427 c0 -494 -5 -567 -37 -593 -48 -39 -289 -32 -373 10 -51 26
-103 25 -229 -6 -98 -24 -125 -26 -400 -30 l-295 -4 -70 26 c-47 18 -94 28
-145 30 -66 3 -82 0 -137 -27 -70 -33 -117 -39 -241 -29 -91 7 -112 19 -118
67 -14 130 -15 151 -6 157 6 3 6 23 0 53 -5 27 -8 199 -7 384 3 304 1 339 -14
363 -22 33 -62 34 -108 3z m725 -1177 c36 -13 34 -37 -15 -157 -45 -110 -48
-112 -139 -132 -25 -6 -110 -12 -189 -15 l-145 -4 -48 51 -48 52 0 77 c0 76 0
76 38 107 l37 30 242 1 c134 0 253 -4 267 -10z m634 1 c11 -7 175 -276 200
-327 15 -33 15 -33 -53 -151 -38 -65 -85 -146 -104 -181 l-36 -62 -199 2 -200
3 -102 150 c-71 103 -103 159 -104 179 0 18 37 95 102 213 l102 184 192 -2
c106 -1 197 -4 202 -8z m801 -15 c6 -7 14 -49 17 -92 l5 -79 -48 -52 -48 -51
-189 -4 -189 -3 -69 95 c-57 80 -68 101 -68 135 0 23 5 46 12 53 19 19 561 17
577 -2z m-19 -441 l44 -45 -3 -282 c-3 -305 0 -290 -62 -361 l-34 -38 -186 7
-186 7 -91 152 -92 152 0 71 0 71 86 143 c47 79 88 145 90 147 4 4 218 17 319
19 l71 2 44 -45z m-1517 23 c9 -7 58 -76 107 -153 86 -133 90 -143 90 -195 0
-52 -6 -64 -96 -215 -53 -88 -97 -161 -98 -162 -1 -1 -93 -4 -205 -7 l-202 -4
-33 51 -34 52 -6 268 -6 268 57 54 58 54 176 1 c125 0 180 -4 192 -12z m860
-594 c71 -110 107 -175 107 -194 0 -17 -34 -82 -91 -176 -51 -82 -99 -161
-108 -177 l-16 -27 -209 2 -209 3 -98 160 c-75 122 -98 169 -99 195 0 32 68
157 196 358 14 22 18 22 217 22 l203 0 107 -166z m659 -286 c19 -24 38 -48 42
-55 3 -7 9 -131 13 -276 l6 -265 -44 -56 c-24 -31 -53 -59 -64 -62 -11 -2
-103 -1 -204 3 l-184 8 -94 145 -94 145 4 61 c4 55 13 75 84 195 44 74 88 149
97 167 l17 32 193 0 194 0 34 -42z m-1414 -131 c133 -198 133 -184 11 -389
-51 -84 -97 -158 -103 -165 -8 -8 -70 -13 -200 -16 l-190 -4 -40 37 -40 38 -7
148 c-4 82 -11 201 -14 264 l-7 116 73 62 73 62 170 0 171 0 103 -153z m648
-284 c7 -2 58 -84 113 -182 l101 -177 -91 -180 c-50 -98 -100 -187 -111 -197
-18 -15 -43 -17 -202 -17 -141 0 -186 3 -202 14 -11 8 -62 86 -112 174 -68
117 -92 168 -92 194 0 32 54 140 167 336 l24 43 196 -1 c108 -1 201 -4 209 -7z
m-734 -442 c4 -3 47 -79 97 -167 119 -212 120 -216 18 -346 l-73 -93 -225 -3
-225 -2 -32 33 -33 34 -2 224 -2 225 49 58 50 58 185 -7 c102 -4 189 -10 193
-14z m1532 -33 l36 -43 -6 -235 -5 -235 -27 -27 -26 -28 -246 0 -246 0 -62 91
c-88 130 -88 140 24 329 48 80 93 155 100 168 14 22 18 22 218 22 l204 0 36
-42z m-695 -552 l84 -158 -17 -34 -16 -34 -360 0 -360 0 0 41 c0 34 16 68 93
195 l92 154 200 -2 200 -3 84 -159z m-987 -136 c25 -26 29 -36 24 -63 -13 -65
-85 -89 -131 -42 -52 51 -16 132 58 134 10 1 32 -13 49 -29z m1493 -5 c14 -13
25 -36 25 -50 0 -29 -49 -85 -74 -85 -45 0 -86 43 -86 91 0 31 44 69 80 69 19
0 40 -9 55 -25z"/>
</g>
</svg>
