<?xml version="1.0" standalone="no"?>
<!DOCTYPE svg PUBLIC "-//W3C//DTD SVG 20010904//EN"
 "http://www.w3.org/TR/2001/REC-SVG-20010904/DTD/svg10.dtd">
<svg version="1.0" xmlns="http://www.w3.org/2000/svg"
 width="223.000000pt" height="241.000000pt" viewBox="0 0 223.000000 241.000000"
 preserveAspectRatio="xMidYMid meet">

<g transform="translate(0.000000,241.000000) scale(0.100000,-0.100000)"
fill="#000000" stroke="none">
<path d="M757 2404 c-1 -1 -36 -4 -77 -8 -92 -7 -134 -18 -226 -61 -93 -44
-166 -103 -201 -162 l-28 -48 -2 -625 c-2 -529 -5 -637 -18 -705 -9 -44 -21
-85 -26 -91 -5 -7 -11 -20 -13 -31 -4 -18 -65 -123 -78 -133 -23 -18 -50 -112
-64 -225 -12 -103 -15 -239 -4 -264 22 -55 116 -53 143 2 19 37 59 129 76 173
7 17 22 36 34 41 12 6 80 11 151 12 70 1 132 3 136 6 5 3 11 1 15 -5 4 -6 11
-8 16 -5 13 9 46 -3 52 -19 3 -7 -5 -29 -17 -47 -69 -101 -86 -133 -86 -158 0
-16 6 -31 13 -34 12 -4 326 -10 562 -9 355 1 469 4 489 12 39 15 39 38 1 76
-19 18 -35 38 -35 44 0 5 -4 10 -8 10 -16 0 -102 92 -102 109 0 21 -12 20 186
22 177 2 188 -1 231 -59 15 -20 30 -39 33 -42 4 -3 16 -21 28 -40 11 -20 31
-47 42 -60 66 -77 54 -71 136 -67 97 4 109 15 108 100 -1 140 -23 305 -51 377
-4 8 -7 18 -7 22 -1 3 -10 17 -22 31 -18 20 -44 66 -87 152 -37 73 -39 109
-44 780 -6 720 -3 686 -64 746 -17 16 -66 50 -110 76 -43 25 -79 50 -79 56 0
6 -2 8 -5 5 -3 -3 -34 3 -68 14 -34 11 -75 22 -92 26 -25 6 -832 11 -838 6z
m-299 -230 c40 -28 19 -94 -30 -94 -29 0 -58 28 -58 56 0 22 33 54 55 54 6 0
21 -7 33 -16z m1396 -26 c8 -22 6 -32 -9 -48 -23 -25 -49 -26 -75 0 -33 33 -5
83 44 78 23 -2 33 -10 40 -30z m-229 -180 c53 -34 75 -59 130 -148 65 -107 96
-210 102 -345 7 -133 -14 -232 -77 -361 -217 -449 -826 -548 -1180 -194 -233
234 -285 584 -132 876 36 70 120 168 158 184 29 13 108 15 497 15 l462 -1 40
-26z m-1373 -1505 c20 -18 24 -63 6 -81 -33 -33 -98 0 -98 49 0 45 56 65 92
32z m1806 1 c40 -28 17 -94 -33 -94 -44 0 -67 58 -36 89 25 25 39 26 69 5z"/>
</g>
</svg>
