<?xml version="1.0" standalone="no"?>
<!DOCTYPE svg PUBLIC "-//W3C//DTD SVG 20010904//EN"
 "http://www.w3.org/TR/2001/REC-SVG-20010904/DTD/svg10.dtd">
<svg version="1.0" xmlns="http://www.w3.org/2000/svg"
 width="194.000000pt" height="174.000000pt" viewBox="0 0 194.000000 174.000000"
 preserveAspectRatio="xMidYMid meet">

<g transform="translate(0.000000,174.000000) scale(0.100000,-0.100000)"
fill="#000000" stroke="none">
<path d="M171 1732 c-37 -4 -76 -25 -103 -57 -44 -51 -47 -90 -55 -710 -9
-852 -10 -837 63 -905 24 -22 52 -40 63 -40 11 0 22 -4 25 -9 3 -5 107 -9 231
-9 l224 0 41 29 c22 16 41 37 41 47 1 9 3 33 5 52 2 19 4 72 5 117 1 46 5 83
9 83 11 0 22 -47 26 -114 5 -88 12 -112 47 -151 56 -63 63 -64 560 -65 411 0
449 1 475 17 49 32 64 51 81 105 19 57 22 192 25 1078 1 391 0 406 -20 444
-34 66 -70 78 -247 82 -84 3 -173 6 -200 7 -26 2 -49 2 -51 0 -6 -6 -160 -7
-172 -2 -9 5 -47 5 -269 -2 -114 -3 -140 -11 -177 -54 -10 -11 -17 -28 -18
-37 0 -9 -5 -20 -10 -23 -6 -4 -10 -12 -8 -18 4 -26 -15 -217 -22 -217 -12 0
-17 48 -15 144 4 141 -16 188 -83 202 -37 7 -406 12 -471 6z m247 -294 c9 -9
12 -141 11 -537 0 -290 -3 -544 -7 -566 l-7 -40 -58 -3 -59 -3 4 468 c4 652 5
681 26 686 34 9 78 7 90 -5z m1219 -13 c13 -18 15 -88 10 -564 -5 -484 -7
-545 -22 -560 -13 -13 -43 -16 -188 -16 -95 0 -195 1 -224 3 l-51 4 4 526 c3
290 7 546 10 570 4 32 11 45 27 51 12 5 111 8 220 7 186 -1 200 -3 214 -21z
m-633 -547 c-3 -266 -7 -493 -10 -505 -2 -13 -9 -23 -14 -23 -6 0 -11 181 -12
488 -3 412 -5 487 -17 487 -8 0 -16 5 -18 12 -4 10 12 15 65 22 10 1 11 -97 6
-481z"/>
</g>
</svg>
