<?xml version="1.0" standalone="no"?>
<!DOCTYPE svg PUBLIC "-//W3C//DTD SVG 20010904//EN"
 "http://www.w3.org/TR/2001/REC-SVG-20010904/DTD/svg10.dtd">
<svg version="1.0" xmlns="http://www.w3.org/2000/svg"
 width="582.000000pt" height="396.000000pt" viewBox="0 0 582.000000 396.000000"
 preserveAspectRatio="xMidYMid meet">

<g transform="translate(0.000000,396.000000) scale(0.100000,-0.100000)"
fill="#000000" stroke="none">
<path d="M760 3939 c-36 -3 -96 -7 -134 -8 -77 -1 -191 -31 -251 -66 -40 -23
-109 -93 -193 -193 -51 -61 -88 -138 -102 -210 -5 -29 -18 -83 -29 -120 -30
-104 -44 -266 -36 -410 9 -178 48 -388 89 -487 19 -44 46 -118 61 -165 15 -47
33 -92 40 -100 7 -8 24 -37 38 -65 28 -57 61 -99 148 -194 117 -128 234 -241
259 -250 14 -5 234 -84 490 -177 479 -172 683 -246 1115 -402 403 -146 462
-168 825 -299 190 -68 384 -140 432 -159 49 -19 92 -34 96 -34 5 0 111 -38
238 -84 126 -46 294 -107 374 -136 559 -201 838 -304 857 -316 12 -8 33 -14
45 -14 13 0 45 -7 73 -15 67 -21 181 -22 225 -2 59 25 124 98 149 165 26 70
38 82 103 106 26 10 57 29 67 42 27 34 61 187 61 272 0 67 -2 72 -44 129 -24
32 -55 68 -68 79 -46 42 -199 132 -236 139 -20 3 -134 35 -252 69 -118 35
-289 84 -380 110 -91 26 -169 48 -175 50 -5 1 -23 6 -40 11 -16 4 -79 22 -140
41 -60 18 -139 40 -175 49 -36 9 -69 20 -75 25 -5 4 -26 10 -45 13 -19 4 -73
18 -120 31 -47 14 -139 40 -205 59 -66 19 -199 57 -295 85 -96 28 -224 64
-285 82 -60 17 -211 60 -335 96 -124 36 -281 81 -350 100 -69 19 -177 51 -240
70 -63 19 -144 44 -180 55 -36 11 -105 30 -155 43 -49 13 -144 40 -210 59 -66
20 -217 63 -335 97 -118 34 -221 67 -230 74 -8 8 -40 21 -70 30 -68 19 -160
78 -216 137 -96 102 -190 305 -205 439 -26 241 -20 381 23 500 30 81 64 103
153 97 33 -3 434 -60 890 -126 824 -121 1352 -198 1410 -206 17 -2 50 -7 75
-10 25 -3 68 -10 95 -15 51 -9 159 -25 420 -60 83 -11 180 -28 217 -36 89 -21
119 -13 188 51 l57 52 99 7 c118 9 168 29 236 97 62 62 88 116 95 199 5 64 3
74 -29 142 -38 80 -100 148 -162 180 -30 15 -64 21 -136 24 -76 3 -1077 79
-2355 179 -99 8 -268 21 -375 30 -107 8 -283 22 -390 31 -233 18 -401 23 -490
13z m1280 -95 c465 -36 904 -70 975 -75 72 -5 200 -15 285 -23 85 -8 186 -15
224 -15 39 -1 73 -4 76 -6 7 -5 225 -22 440 -35 278 -17 401 -32 456 -55 96
-42 177 -175 176 -288 -1 -75 -28 -131 -93 -192 -73 -69 -116 -85 -227 -85
l-94 0 -63 -61 -64 -61 -78 7 c-43 3 -123 13 -178 21 -55 8 -363 53 -685 100
-322 46 -592 86 -600 89 -8 2 -51 9 -95 14 -44 6 -129 17 -190 26 -166 24
-246 36 -285 40 -19 3 -62 9 -95 15 -33 5 -204 30 -380 55 -176 25 -376 55
-445 67 -235 38 -230 38 -270 22 -50 -20 -96 -72 -103 -115 -2 -19 -10 -63
-17 -99 -16 -88 -15 -273 3 -395 42 -286 234 -551 437 -605 25 -7 50 -16 56
-21 6 -5 224 -70 485 -144 261 -75 524 -151 584 -169 61 -19 146 -43 190 -55
88 -24 251 -71 540 -156 105 -31 215 -62 245 -70 30 -8 267 -75 525 -150 259
-75 493 -143 520 -150 28 -8 302 -86 610 -175 544 -157 563 -163 653 -216 68
-41 108 -74 151 -124 33 -38 62 -78 66 -89 13 -42 -29 -289 -53 -313 -4 -4
-35 -18 -68 -31 -58 -22 -59 -23 -100 -105 -50 -101 -72 -125 -142 -158 -48
-23 -60 -24 -96 -15 -22 5 -86 17 -141 25 -78 12 -161 37 -380 117 -154 56
-302 110 -330 120 -88 30 -966 348 -1075 389 -58 22 -188 69 -290 105 -102 36
-196 70 -210 76 -14 6 -124 46 -245 89 -121 43 -328 118 -460 166 -428 155
-539 195 -595 215 -30 11 -64 24 -75 29 -11 5 -58 22 -105 38 -47 17 -128 46
-180 65 -52 19 -160 58 -240 86 -80 29 -153 56 -162 61 -10 6 -23 10 -29 10
-6 0 -45 14 -87 32 -68 28 -88 43 -177 133 -222 225 -289 326 -365 545 -18 52
-40 111 -50 130 -19 39 -28 70 -41 150 -6 30 -15 80 -21 110 -17 89 -18 374
-2 450 8 36 12 70 9 77 -5 15 61 257 82 298 9 17 28 44 42 62 14 18 35 45 46
60 11 15 49 57 85 93 60 61 72 68 153 94 83 25 106 28 345 35 141 5 284 7 317
4 33 -2 440 -33 905 -69z"/>
<path d="M653 3872 c-24 -2 -43 -5 -43 -8 0 -3 8 -19 17 -37 13 -25 17 -58 18
-147 0 -126 -14 -209 -39 -225 -12 -8 3 -13 61 -20 43 -6 82 -8 88 -5 5 3 37
14 69 25 56 19 60 22 72 65 8 25 14 81 14 125 0 68 -5 88 -29 135 l-28 55 -72
10 c-40 6 -75 15 -79 20 -4 6 -26 9 -49 7z m175 -178 c32 -22 30 -71 -3 -86
-36 -16 -75 3 -75 37 0 59 34 80 78 49z"/>
<path d="M1635 3850 c28 -5 68 -8 90 -8 35 1 33 2 -15 8 -30 5 -71 8 -90 8
-28 -1 -25 -2 15 -8z"/>
<path d="M421 3803 c-40 -21 -84 -52 -97 -69 l-25 -32 43 -63 c41 -62 78 -153
78 -191 0 -18 4 -17 38 9 20 16 49 36 63 45 70 44 60 322 -12 336 -8 1 -47
-14 -88 -35z m109 -73 c24 -24 25 -38 4 -68 -28 -41 -94 -16 -94 36 0 48 55
67 90 32z"/>
<path d="M960 3826 c0 -2 7 -21 16 -42 13 -30 15 -63 12 -159 -3 -66 -8 -127
-12 -136 -6 -13 7 -19 76 -33 46 -9 104 -16 130 -16 46 0 47 1 57 38 6 20 13
73 17 118 7 91 -1 117 -59 173 -31 29 -47 35 -119 47 -85 14 -118 17 -118 10z
m210 -142 c0 -9 11 -25 25 -36 31 -25 33 -63 3 -82 -31 -20 -52 -15 -83 18
-23 25 -24 31 -15 66 6 21 16 41 23 43 25 11 47 6 47 -9z"/>
<path d="M2035 3821 c-3 -6 9 -12 27 -15 18 -3 49 -8 68 -11 19 -3 73 -9 120
-14 47 -5 104 -12 128 -16 25 -5 42 -4 42 2 0 14 -70 33 -124 33 -26 0 -55 4
-64 9 -26 13 -190 23 -197 12z"/>
<path d="M1300 3797 c0 -3 9 -21 20 -40 18 -30 21 -50 19 -138 -1 -57 -7 -124
-15 -148 -7 -25 -12 -46 -11 -46 24 -15 159 -48 208 -52 l65 -6 33 41 c73 93
68 190 -17 304 l-39 53 -96 13 c-52 7 -111 16 -131 19 -20 3 -36 3 -36 0z
m274 -177 c25 -25 28 -34 21 -67 -10 -57 -22 -73 -54 -73 -43 0 -60 26 -60 92
0 44 5 60 17 68 28 16 45 11 76 -20z"/>
<path d="M2663 3755 c-7 -8 -9 -16 -4 -19 18 -12 204 -27 210 -18 3 5 40 13
81 18 l75 8 -50 7 c-27 4 -106 9 -175 12 -98 4 -128 2 -137 -8z"/>
<path d="M1698 3727 c50 -80 65 -199 38 -291 -8 -27 -22 -56 -30 -65 -15 -17
-11 -19 66 -34 46 -9 110 -18 143 -21 33 -2 68 -7 78 -11 12 -5 17 -2 17 11 0
11 16 51 35 89 41 82 42 95 14 189 -42 143 -53 150 -258 162 l-124 7 21 -36z
m298 -158 c22 -35 25 -49 19 -86 -5 -33 -12 -47 -31 -55 -50 -23 -108 40 -100
109 3 21 5 42 5 46 1 9 40 25 63 26 10 1 29 -17 44 -40z"/>
<path d="M3238 3733 c-24 -3 -38 -9 -38 -18 0 -9 -14 -15 -37 -18 -21 -2 0 -5
47 -6 47 -2 124 -6 173 -9 48 -4 87 -4 87 0 0 5 15 8 33 9 30 0 84 17 62 19
-5 0 -66 5 -134 10 -69 5 -132 11 -140 13 -9 2 -33 2 -53 0z"/>
<path d="M2110 3712 c0 -4 12 -38 25 -77 37 -104 34 -172 -10 -264 -20 -41
-34 -76 -31 -78 11 -11 243 -52 305 -54 68 -2 68 -2 105 38 39 44 66 115 66
178 0 30 -12 61 -49 124 -27 46 -53 87 -58 92 -4 4 -73 15 -153 23 -80 9 -157
18 -172 21 -16 2 -28 1 -28 -3z m330 -171 c0 -10 3 -21 7 -25 13 -13 28 -80
25 -109 -2 -16 -14 -34 -28 -43 -23 -15 -26 -15 -59 7 -36 25 -55 62 -55 110
0 42 10 60 43 74 36 15 67 9 67 -14z"/>
<path d="M3820 3669 c0 -5 -15 -9 -32 -10 -53 -2 61 -27 157 -35 61 -5 94 -2
139 11 39 11 54 20 45 25 -21 11 -309 20 -309 9z"/>
<path d="M2590 3636 c48 -77 54 -99 54 -196 -1 -92 -11 -128 -61 -221 -9 -16
225 -59 318 -59 57 0 69 3 74 19 3 10 26 44 50 76 l45 57 0 87 c0 69 -5 96
-24 137 -35 74 -64 94 -145 95 -36 0 -126 8 -198 18 l-133 17 20 -30z m358
-150 c30 -50 46 -135 33 -168 -9 -23 -17 -28 -46 -28 -47 0 -78 22 -100 70
-22 48 -15 95 20 133 36 38 68 35 93 -7z"/>
<path d="M4360 3632 c0 -11 -58 -28 -121 -37 l-45 -7 64 -61 c35 -34 71 -75
79 -91 l15 -28 19 31 c17 29 22 31 77 31 52 0 61 -3 88 -31 26 -27 29 -37 29
-99 0 -94 -17 -113 -97 -108 -56 3 -58 2 -58 -22 0 -14 -3 -35 -6 -47 -6 -21
-3 -23 33 -23 27 0 46 6 57 19 10 11 39 29 66 40 59 26 73 59 71 170 -2 66 -6
82 -33 124 -36 56 -72 86 -148 121 -56 26 -90 33 -90 18z"/>
<path d="M215 3593 c-34 -38 -55 -84 -55 -126 0 -20 -10 -49 -24 -70 -32 -47
-25 -71 31 -98 24 -12 64 -41 88 -66 24 -24 46 -40 48 -36 3 4 12 36 21 71 19
74 20 150 5 207 -12 42 -69 144 -81 145 -4 0 -19 -12 -33 -27z m76 -85 c15
-28 3 -67 -24 -77 -43 -17 -85 28 -68 73 15 39 72 42 92 4z"/>
<path d="M3124 3580 c18 -29 22 -56 24 -161 4 -139 2 -149 -62 -229 l-36 -45
28 -7 c15 -5 68 -12 117 -17 50 -5 146 -19 215 -31 95 -17 125 -19 128 -10 3
7 14 21 26 32 11 10 29 26 38 35 32 29 49 84 55 171 6 96 -8 156 -52 223 -23
35 -27 37 -107 48 -46 6 -153 15 -239 19 l-155 7 20 -35z m381 -138 c14 -10
45 -79 45 -100 0 -10 5 -23 10 -28 16 -16 -14 -78 -45 -92 -39 -18 -57 -15
-91 16 -42 37 -54 63 -54 114 0 46 11 68 45 86 23 13 75 15 90 4z"/>
<path d="M3717 3508 c24 -58 25 -72 21 -183 -5 -130 -24 -194 -74 -246 l-25
-26 58 -11 c103 -20 357 -43 392 -37 39 7 126 49 136 65 4 6 24 22 46 36 24
15 39 32 39 44 0 11 6 29 12 40 10 16 10 26 -1 52 -7 18 -17 51 -22 72 -5 21
-18 51 -28 65 -38 52 -131 140 -153 145 -40 8 -372 46 -400 46 l-27 0 26 -62z
m414 -175 c34 -20 41 -39 41 -105 0 -54 -5 -63 -42 -71 -75 -18 -148 105 -100
166 25 32 59 35 101 10z"/>
<path d="M535 3410 c-11 -4 -42 -31 -69 -58 -38 -40 -51 -62 -62 -108 -22 -88
-35 -155 -38 -194 -2 -19 -11 -73 -21 -120 -34 -170 -33 -187 26 -365 54 -165
64 -184 188 -350 51 -68 97 -104 134 -105 12 0 17 6 15 18 -2 13 15 23 87 46
49 16 96 35 103 43 7 7 24 13 38 13 20 0 24 -5 24 -28 0 -28 -3 -30 -111 -58
l-111 -30 41 -27 c22 -15 48 -27 56 -27 9 0 68 -21 132 -46 64 -25 150 -53
192 -61 42 -8 103 -28 136 -45 65 -33 208 -71 234 -63 9 2 35 -9 59 -25 50
-33 227 -92 289 -95 24 -1 48 -7 55 -13 7 -5 54 -24 103 -40 50 -17 119 -42
155 -57 53 -21 75 -24 117 -19 45 5 52 4 62 -15 7 -12 16 -21 22 -21 5 0 39
-14 75 -31 37 -17 98 -37 138 -44 39 -8 87 -19 106 -25 19 -5 46 -10 60 -10
25 0 161 -48 170 -60 3 -4 39 -19 80 -33 41 -14 108 -37 147 -51 48 -17 94
-26 135 -26 35 0 92 -9 127 -20 35 -11 66 -18 69 -15 5 4 -18 15 -87 39 l-35
13 107 57 c59 31 107 61 107 66 0 4 -24 14 -52 20 -29 7 -82 23 -118 36 -36
13 -76 25 -90 28 -14 2 -38 9 -53 15 -35 14 -48 14 -24 0 9 -5 17 -15 17 -22
0 -7 -52 -38 -115 -70 l-115 -57 -46 30 c-26 16 -63 35 -82 41 l-35 12 99 49
c54 27 103 53 107 57 5 5 -24 18 -65 30 -40 12 -95 30 -123 40 -27 10 -68 21
-90 25 -37 6 -39 5 -21 -9 18 -14 16 -16 -35 -39 -30 -13 -85 -37 -122 -54
l-67 -31 -51 35 c-28 19 -58 34 -67 34 -26 0 -5 12 94 56 l95 41 -68 33 c-114
54 -193 74 -193 47 0 -7 -28 -23 -62 -36 -35 -13 -85 -32 -112 -42 -27 -10
-54 -19 -60 -19 -22 0 -137 53 -129 60 4 4 54 25 111 46 56 21 102 44 102 50
0 16 -186 82 -249 88 -51 5 -53 5 -33 -10 12 -8 22 -19 22 -23 0 -11 -60 -36
-158 -66 l-73 -23 -44 25 c-50 28 -50 38 -2 48 17 4 41 13 52 19 11 7 44 21
73 30 28 10 52 19 52 21 0 2 -64 24 -141 49 -78 26 -156 53 -173 61 -34 16
-208 60 -270 69 l-39 5 23 -21 23 -22 -29 -8 c-16 -5 -42 -10 -59 -12 -16 -2
-60 -12 -96 -24 -56 -17 -72 -19 -110 -9 -41 11 -58 22 -59 39 0 4 26 15 58
24 31 9 88 25 126 36 l69 21 -49 23 c-27 12 -69 32 -94 43 -53 25 -127 93
-191 176 -59 76 -73 104 -122 245 -38 112 -45 144 -66 300 -25 193 -25 194 -1
271 25 85 53 144 83 176 11 13 19 25 16 27 -10 8 -206 14 -224 6z m135 -57 c0
-4 -12 -20 -27 -35 -23 -24 -34 -28 -85 -28 -64 0 -71 9 -36 47 18 19 32 23
85 23 35 0 63 -3 63 -7z m-82 -261 c8 -5 10 -19 6 -39 -6 -29 -11 -32 -76 -47
-98 -22 -99 -22 -93 17 8 43 21 54 80 65 66 13 68 13 83 4z m26 -374 c3 -17 3
-35 -1 -39 -9 -9 -136 -39 -164 -39 -13 0 -25 11 -34 33 l-13 32 70 17 c39 10
74 20 76 23 3 3 18 5 32 5 23 0 29 -5 34 -32z m142 -304 c4 -14 3 -29 -2 -34
-14 -14 -227 -61 -235 -53 -4 5 -10 17 -13 29 -6 19 3 23 106 51 141 38 136
38 144 7z m822 -401 c13 -10 24 -22 24 -27 -1 -10 -60 -33 -102 -40 -14 -2
-51 -12 -83 -22 -47 -14 -62 -16 -77 -6 -11 7 -28 12 -39 12 -17 0 -49 27 -40
33 2 2 54 20 114 40 118 39 161 41 203 10z"/>
<path d="M95 3187 c-3 -23 -9 -104 -11 -180 -4 -108 -3 -138 8 -141 7 -3 45
-6 84 -9 l72 -4 6 36 c25 138 26 161 9 189 -10 15 -29 39 -43 53 -14 14 -33
37 -42 51 -10 14 -30 30 -47 36 -29 10 -29 10 -36 -31z m80 -43 c24 -25 15
-66 -19 -83 -25 -12 -30 -11 -48 7 -16 16 -19 28 -14 54 5 28 11 34 35 36 17
1 37 -5 46 -14z"/>
<path d="M99 2763 c-6 -87 6 -157 43 -269 l41 -121 29 33 c16 18 45 38 63 44
19 6 35 17 35 25 0 7 -16 57 -35 111 -19 55 -35 115 -35 134 0 32 -4 37 -33
48 -52 19 -107 16 -108 -5z m99 -82 c19 -2 34 -49 22 -72 -15 -28 -57 -35 -80
-14 -23 21 -25 34 -9 68 7 16 18 23 32 22 12 -1 28 -3 35 -4z"/>
<path d="M309 2369 c-21 -10 -43 -32 -52 -52 -16 -32 -15 -37 7 -98 13 -35 35
-85 50 -110 28 -50 106 -120 106 -95 0 7 14 40 30 71 34 64 38 106 13 126 -24
21 -93 116 -106 148 l-12 29 -36 -19z m69 -111 c7 -7 12 -24 12 -38 0 -33 -17
-50 -50 -50 -33 0 -50 17 -50 50 0 33 17 50 50 50 14 0 31 -5 38 -12z"/>
<path d="M529 2048 c-12 -16 -24 -51 -27 -76 -2 -26 -9 -52 -14 -59 -16 -20
186 -201 225 -203 5 0 6 33 2 73 -5 56 -3 88 10 136 10 34 22 64 27 67 16 10
-13 34 -41 34 -15 0 -44 9 -65 19 -81 42 -93 43 -117 9z m106 -88 c41 -46 -29
-116 -75 -75 -22 20 -25 46 -10 76 14 25 62 25 85 -1z"/>
<path d="M820 1929 c-18 -35 -22 -58 -21 -130 1 -49 4 -95 7 -103 3 -9 35 -21
77 -31 40 -9 96 -27 126 -41 29 -13 55 -24 56 -24 1 0 -2 24 -7 53 -6 28 -8
95 -6 148 l5 97 -96 33 c-53 18 -101 34 -108 36 -6 3 -21 -14 -33 -38z m138
-65 c27 -31 28 -58 2 -84 -28 -28 -75 -26 -105 5 -27 26 -31 46 -14 76 23 44
78 45 117 3z"/>
<path d="M1162 1857 c-30 -14 -36 -44 -27 -141 4 -44 8 -94 9 -111 1 -29 4
-31 136 -75 l135 -46 -3 84 c-2 46 0 91 4 100 4 9 8 31 9 47 1 17 5 37 9 47 6
13 -2 18 -44 27 -28 6 -77 23 -108 37 -87 40 -95 42 -120 31z m136 -103 c44
-50 14 -104 -58 -104 -38 0 -80 26 -80 49 0 21 22 67 38 79 24 19 73 7 100
-24z"/>
<path d="M1523 1728 c-20 -23 -36 -168 -27 -228 l9 -55 60 -18 c33 -10 98 -34
144 -52 80 -32 83 -33 76 -12 -18 54 -16 172 3 233 l19 61 -121 38 c-67 20
-128 40 -137 42 -8 2 -20 -2 -26 -9z m138 -97 c34 -35 38 -72 9 -101 -55 -55
-159 16 -135 91 15 45 85 50 126 10z"/>
<path d="M1879 1603 c-30 -79 -33 -128 -12 -214 l20 -83 64 -22 c35 -12 108
-41 162 -63 55 -23 100 -41 102 -41 2 0 -3 21 -11 47 -16 54 -18 171 -3 228 5
22 11 46 12 53 2 15 -78 49 -208 88 -44 13 -88 27 -97 30 -13 4 -21 -3 -29
-23z m175 -96 c9 -7 22 -32 27 -57 9 -37 7 -48 -9 -69 -12 -16 -31 -27 -50
-29 -68 -7 -128 97 -86 147 21 24 89 29 118 8z"/>
<path d="M2293 1467 c-24 -47 -29 -155 -9 -213 9 -26 16 -60 16 -74 0 -24 8
-30 63 -53 34 -14 87 -32 117 -40 30 -8 85 -26 123 -40 37 -14 67 -25 67 -23
0 2 -9 32 -20 66 -32 102 -23 237 20 272 11 9 20 18 20 21 0 2 -39 12 -87 22
-49 9 -119 30 -158 45 -134 53 -133 53 -152 17z m162 -102 c38 -37 35 -95 -6
-129 -34 -29 -41 -31 -72 -15 -34 17 -57 51 -57 84 0 72 86 110 135 60z"/>
<path d="M3708 1393 c7 -3 16 -2 19 1 4 3 -2 6 -13 5 -11 0 -14 -3 -6 -6z"/>
<path d="M3740 1381 c0 -5 15 -14 33 -21 l32 -12 -28 -21 c-15 -11 -62 -40
-104 -63 -43 -23 -79 -46 -80 -51 -2 -6 32 -22 77 -37 44 -15 111 -43 150 -62
39 -19 75 -34 81 -34 5 0 36 -11 68 -24 32 -14 88 -30 125 -36 59 -11 133 -35
336 -108 30 -11 78 -25 105 -32 28 -7 90 -23 139 -36 50 -13 92 -22 93 -20 5
5 -104 76 -116 76 -9 0 -33 11 -60 28 -5 2 3 10 102 96 l69 60 68 -23 c38 -13
71 -30 74 -37 3 -8 14 -14 25 -14 10 0 29 -9 42 -19 l24 -19 -28 -22 c-15 -12
-51 -42 -78 -65 -28 -24 -64 -50 -80 -57 l-29 -14 68 -22 c67 -21 305 -83 331
-85 8 -1 35 25 60 58 25 33 69 83 97 111 l51 52 -121 40 c-66 22 -143 45 -171
51 -27 6 -70 15 -95 21 -25 6 -70 17 -100 24 -30 7 -82 22 -115 34 -33 12
-132 42 -220 68 -88 26 -187 57 -220 69 -68 26 -282 85 -306 85 -9 0 -42 9
-75 21 -51 18 -188 49 -215 49 -5 0 -9 -4 -9 -9z m532 -158 c31 -14 64 -33 73
-43 15 -17 13 -20 -32 -52 -26 -18 -75 -50 -107 -70 -56 -35 -62 -36 -81 -23
-51 39 -81 54 -132 70 l-55 17 64 40 c34 22 81 53 103 69 47 34 76 33 167 -8z"/>
<path d="M2751 1316 c-47 -49 -52 -107 -18 -212 14 -44 27 -90 29 -103 2 -17
12 -27 33 -34 17 -5 105 -40 198 -78 92 -38 169 -69 172 -69 2 0 -5 25 -16 57
-14 42 -19 83 -19 161 0 93 3 110 23 139 12 18 27 33 32 33 6 1 -62 27 -150
59 -88 32 -173 63 -188 70 -44 17 -61 13 -96 -23z m164 -110 c46 -30 53 -143
10 -160 -63 -24 -123 14 -132 83 -5 40 -3 47 20 66 33 25 73 30 102 11z"/>
<path d="M3281 1170 c-24 -16 -50 -38 -57 -47 -21 -28 -18 -158 6 -221 11 -29
20 -65 20 -80 0 -27 5 -30 93 -60 110 -38 242 -72 274 -72 13 0 39 -7 58 -14
l35 -15 -14 27 c-18 35 -21 197 -6 273 6 32 21 67 32 79 11 12 18 24 15 26 -6
6 -172 67 -247 91 -25 7 -65 21 -90 29 -61 19 -68 18 -119 -16z m155 -153 c23
-20 27 -31 28 -82 1 -56 0 -60 -27 -69 -74 -27 -175 101 -126 160 19 23 93 18
125 -9z"/>
<path d="M3822 997 c-27 -8 -34 -18 -47 -60 -22 -74 -20 -188 4 -218 10 -13
30 -46 44 -74 l25 -50 232 -78 c128 -42 235 -75 237 -73 3 2 -3 25 -11 50 -18
51 -21 178 -7 240 6 22 25 54 46 76 32 33 34 38 18 43 -10 3 -63 21 -118 40
-55 19 -136 42 -180 52 -44 9 -102 25 -130 35 -27 10 -57 20 -65 23 -8 3 -30
0 -48 -6z m172 -155 c30 -27 44 -65 39 -102 -7 -45 -26 -60 -80 -60 -63 0 -93
32 -93 98 0 26 6 55 13 64 24 31 86 31 121 0z"/>
<path d="M5450 886 c0 -9 -25 -34 -55 -57 -30 -23 -55 -47 -55 -54 0 -7 -9
-24 -21 -39 -19 -25 -19 -26 -2 -26 31 0 176 -95 211 -139 33 -41 82 -155 82
-191 0 -24 3 -24 40 -5 38 20 50 64 50 188 l0 98 -39 52 c-44 59 -142 152
-183 173 -25 13 -28 13 -28 0z"/>
<path d="M4439 775 c-52 -43 -68 -79 -68 -160 -1 -47 6 -75 33 -133 19 -41 38
-78 43 -83 5 -5 121 -47 257 -93 186 -64 246 -80 240 -68 -13 31 -16 206 -5
249 7 24 34 72 61 108 31 41 45 67 37 70 -6 2 -56 13 -110 25 -55 12 -131 33
-170 45 -40 13 -110 33 -157 44 -47 12 -92 24 -101 26 -10 3 -35 -10 -60 -30z
m182 -155 c45 -25 65 -122 32 -152 -46 -40 -99 -28 -135 31 -24 41 -25 87 -1
113 18 20 73 24 104 8z"/>
<path d="M5192 630 c-53 -8 -124 -73 -158 -145 -29 -61 -32 -156 -8 -213 9
-20 19 -50 23 -66 5 -25 16 -33 66 -52 92 -34 210 -49 265 -32 40 12 48 20 81
81 19 38 45 77 56 89 20 19 20 23 7 79 -28 119 -68 172 -171 226 -67 35 -101
42 -161 33z m156 -226 c42 -29 64 -101 46 -149 -9 -23 -58 -45 -102 -45 -31 0
-46 7 -75 35 -32 31 -37 43 -37 80 0 36 5 47 31 69 36 30 101 35 137 10z"/>
</g>
</svg>
