<?xml version="1.0" standalone="no"?>
<!DOCTYPE svg PUBLIC "-//W3C//DTD SVG 20010904//EN"
 "http://www.w3.org/TR/2001/REC-SVG-20010904/DTD/svg10.dtd">
<svg version="1.0" xmlns="http://www.w3.org/2000/svg"
 width="640.000000pt" height="603.000000pt" viewBox="0 0 640.000000 603.000000"
 preserveAspectRatio="xMidYMid meet">

<g transform="translate(0.000000,603.000000) scale(0.100000,-0.100000)"
fill="#000000" stroke="none">
<path d="M4002 6018 c-7 -7 -12 -38 -12 -70 0 -51 2 -58 20 -58 15 0 20 7 20
25 0 32 20 32 49 1 45 -48 23 -166 -31 -166 -13 0 -18 7 -18 26 0 18 -5 24
-16 22 -14 -3 -15 -239 -14 -2405 l1 -2403 -1446 0 -1445 0 0 -125 0 -125
-555 0 -555 0 2 -367 3 -368 3198 -3 3197 -2 0 370 c0 203 -3 369 -7 369 -5
-1 -254 -1 -555 0 l-548 1 0 125 0 125 -460 0 -460 0 0 2405 c0 2131 -2 2405
-15 2405 -9 0 -15 -9 -15 -25 0 -33 -29 -33 -59 -1 -19 20 -22 33 -19 86 2 40
8 66 18 73 13 11 13 10 0 -8 -13 -18 -13 -18 10 1 36 31 57 28 52 -8 -3 -21 0
-28 12 -28 14 0 16 10 14 68 l-3 67 -67 3 c-56 2 -68 0 -68 -13 0 -9 9 -15 25
-15 32 0 33 -29 2 -58 -34 -32 -115 -31 -147 2 -26 28 -21 56 10 56 11 0 20 7
20 15 0 12 -14 15 -63 15 -36 0 -68 -5 -75 -12z m61 -27 c-3 -10 -15 -21 -28
-23 -17 -4 -21 -1 -18 13 3 10 15 20 27 22 11 2 22 5 23 6 0 0 -1 -8 -4 -18z
m277 -5 c0 -19 -17 -29 -25 -16 -4 6 -12 7 -18 3 -7 -4 -6 0 2 10 17 21 41 22
41 3z m-116 -118 c4 3 2 -6 -3 -22 -6 -15 -9 -31 -6 -36 3 -4 -11 -4 -30 0
-19 4 -36 5 -39 3 -2 -3 -2 6 1 19 8 32 32 49 53 38 10 -5 20 -6 24 -2z m34
-131 c29 -27 28 -47 -2 -47 -13 0 -26 -7 -30 -15 -3 -10 -19 -15 -46 -15 -29
0 -40 4 -40 15 0 9 -9 15 -24 15 -28 0 -41 41 -20 62 21 21 134 11 162 -15z
m84 -44 c4 -13 -1 -18 -18 -18 -12 0 -21 2 -20 5 2 3 6 13 9 23 8 21 22 16 29
-10z m-284 -1 c2 -7 -3 -12 -12 -12 -9 0 -16 7 -16 16 0 17 22 14 28 -4z
m-2734 -5124 c8 -14 7 -21 -6 -34 -30 -30 -75 9 -48 42 16 18 39 15 54 -8z
m3810 0 c8 -14 7 -21 -6 -34 -30 -30 -75 9 -48 42 16 18 39 15 54 -8z"/>
<path d="M4099 5743 c-13 -16 -12 -17 4 -4 9 7 17 15 17 17 0 8 -8 3 -21 -13z"/>
<path d="M3640 2071 c0 -39 4 -51 15 -51 9 0 15 9 15 22 0 20 1 21 20 3 32
-29 23 -115 -12 -115 -4 0 -8 7 -8 15 0 8 -7 15 -16 15 -12 0 -14 -10 -12 -47
l3 -48 44 0 c48 0 69 22 32 32 -21 5 -21 7 -5 24 23 25 76 25 99 -1 16 -18 16
-20 2 -20 -10 0 -17 -8 -17 -20 0 -17 7 -20 39 -20 47 0 63 18 59 62 -3 34
-38 56 -38 24 0 -9 -4 -16 -8 -16 -35 0 -44 86 -12 115 19 18 20 17 20 -4 0
-16 5 -21 18 -19 19 4 27 37 18 74 -6 21 -12 24 -51 24 -38 0 -45 -3 -45 -20
0 -12 7 -20 16 -20 14 0 14 -3 4 -15 -16 -19 -93 -20 -109 -1 -9 11 -7 15 10
19 37 10 15 32 -34 35 l-47 3 0 -50z m141 -74 c-4 -10 -11 -18 -16 -18 -5 0
-12 8 -16 18 -5 14 -2 18 16 18 18 0 21 -4 16 -18z"/>
</g>
</svg>
