<?xml version="1.0" standalone="no"?>
<!DOCTYPE svg PUBLIC "-//W3C//DTD SVG 20010904//EN"
 "http://www.w3.org/TR/2001/REC-SVG-20010904/DTD/svg10.dtd">
<svg version="1.0" xmlns="http://www.w3.org/2000/svg"
 width="546.000000pt" height="384.000000pt" viewBox="0 0 546.000000 384.000000"
 preserveAspectRatio="xMidYMid meet">

<g transform="translate(0.000000,384.000000) scale(0.100000,-0.100000)"
fill="#000000" stroke="none">
<path d="M330 3795 c0 -32 -3 -35 -28 -35 -16 0 -37 9 -47 20 -16 17 -31 20
-116 20 -53 0 -104 -3 -113 -6 -14 -6 -16 -65 -16 -568 0 -524 1 -568 19 -638
37 -144 88 -225 250 -391 137 -141 192 -183 272 -208 58 -18 110 -19 1044 -19
918 0 985 1 1014 18 17 9 34 25 37 34 3 10 6 91 8 180 1 90 6 172 10 183 5 14
0 31 -16 54 -49 72 -20 67 -638 121 -311 28 -592 56 -625 64 -193 47 -321 151
-450 368 -109 184 -134 234 -146 302 -16 88 -3 146 57 265 46 90 54 113 54
161 0 31 -5 61 -12 68 -8 8 -47 12 -111 12 -84 0 -103 -3 -124 -20 -14 -11
-36 -20 -49 -20 -18 0 -23 6 -26 33 l-3 32 -122 3 -123 3 0 -36z"/>
<path d="M4887 3823 c-4 -3 -7 -19 -7 -35 0 -23 -4 -28 -24 -28 -13 0 -35 9
-49 20 -21 17 -40 20 -124 20 -64 0 -103 -4 -111 -12 -7 -7 -12 -37 -12 -68 0
-48 8 -71 54 -161 60 -119 73 -177 57 -265 -12 -68 -37 -118 -146 -302 -129
-217 -257 -321 -450 -368 -33 -8 -314 -36 -625 -64 -618 -54 -589 -49 -638
-121 -16 -23 -21 -40 -16 -54 4 -11 9 -93 10 -183 2 -89 5 -170 8 -180 3 -9
20 -25 37 -34 29 -17 96 -18 1014 -18 934 0 986 1 1044 19 80 25 135 67 272
208 162 166 213 247 250 391 18 70 19 114 19 638 0 503 -2 562 -16 568 -9 3
-60 6 -113 6 -85 0 -100 -3 -116 -20 -10 -11 -31 -20 -47 -20 -25 0 -28 3 -28
35 l0 35 -118 0 c-65 0 -122 -3 -125 -7z"/>
<path d="M1950 1756 c-55 -15 -1270 -594 -1395 -665 -49 -28 -137 -69 -195
-92 -162 -65 -232 -103 -276 -151 -67 -73 -75 -111 -72 -354 l3 -209 425 -3
c385 -2 426 -4 438 -19 8 -11 12 -53 12 -118 0 -131 4 -135 122 -135 67 0 90
4 106 17 11 10 114 148 228 307 115 160 235 316 268 347 36 36 115 91 210 147
270 161 275 162 546 162 219 0 247 7 284 70 17 28 18 38 7 82 -15 65 -15 444
0 504 15 58 1 90 -46 110 -46 19 -596 19 -665 0z m18 -326 c10 -11 12 -11 6
-1 -4 8 -3 12 2 8 6 -3 11 -22 12 -43 2 -20 5 -40 7 -44 2 -4 -2 -16 -9 -26
-24 -32 -150 -25 -130 7 3 5 1 9 -3 9 -14 0 -9 64 7 78 11 10 11 12 1 6 -9 -5
-12 -3 -7 5 4 6 11 9 15 7 4 -3 13 -1 21 4 21 13 63 8 78 -10z m555 -12 c24
-29 21 -65 -8 -94 -46 -46 -123 -20 -119 41 4 52 10 68 28 71 10 1 21 5 24 9
11 11 56 -5 75 -27z m-998 -219 c12 -3 39 -29 30 -29 -3 0 -3 -5 1 -11 5 -9 8
-94 5 -124 -1 -3 -1 -8 0 -11 0 -4 -3 -10 -8 -13 -15 -11 -38 -45 -25 -37 20
12 14 1 -15 -25 -14 -13 -23 -18 -18 -10 5 9 -1 7 -19 -4 -14 -10 -26 -22 -26
-28 0 -6 -3 -7 -7 -4 -3 4 -12 -1 -20 -11 -10 -11 -12 -12 -8 -2 4 10 2 9 -8
-2 -8 -10 -17 -15 -20 -11 -4 3 -7 1 -7 -6 0 -7 -5 -9 -10 -6 -6 3 -13 -1 -16
-9 -3 -9 -10 -13 -15 -10 -5 3 -9 0 -9 -7 0 -7 -3 -9 -7 -6 -3 4 -12 -1 -20
-11 -10 -11 -12 -12 -8 -2 4 8 -1 6 -9 -4 -9 -11 -16 -16 -16 -11 0 5 -7 0
-16 -11 -8 -10 -13 -12 -9 -4 4 10 2 9 -8 -2 -8 -10 -17 -15 -20 -11 -4 3 -7
1 -7 -6 0 -7 -5 -9 -10 -6 -6 3 -13 -1 -16 -9 -3 -9 -10 -13 -15 -10 -5 3 -9
0 -9 -6 0 -6 -4 -9 -10 -5 -5 3 -18 -3 -30 -15 -11 -11 -20 -17 -20 -13 0 4
-7 -2 -16 -13 -8 -10 -13 -12 -9 -4 4 8 -1 6 -9 -4 -9 -11 -16 -17 -16 -13 0
4 -14 0 -31 -8 -17 -9 -36 -14 -42 -12 -7 2 -15 5 -19 6 -14 2 -45 36 -41 44
2 4 0 7 -5 7 -8 0 -10 174 -3 188 0 1 1 5 0 8 0 4 4 10 10 13 6 4 23 23 36 42
14 19 27 32 28 31 3 -6 58 20 88 40 14 9 29 15 33 11 3 -3 6 -1 6 6 0 7 5 9
10 6 6 -3 10 -1 10 5 0 6 5 8 10 5 6 -3 10 -1 10 5 0 6 5 8 10 5 6 -3 10 -1
10 5 0 6 5 8 10 5 6 -3 10 -1 10 5 0 6 5 8 10 5 6 -3 10 -1 10 6 0 7 3 10 6 6
4 -3 26 5 49 18 24 13 46 21 49 18 3 -4 6 -1 6 6 0 7 5 9 10 6 6 -3 10 -1 10
5 0 6 5 8 10 5 6 -3 10 -1 10 5 0 6 5 8 10 5 6 -3 10 -1 10 5 0 6 5 8 10 5 6
-3 10 -1 10 5 0 6 5 8 10 5 6 -3 10 -2 10 3 0 7 72 8 105 1z"/>
<path d="M2843 1755 c-46 -20 -59 -52 -44 -109 15 -60 15 -439 0 -504 -11 -44
-10 -54 7 -82 37 -63 65 -70 284 -70 271 0 276 -1 546 -162 95 -56 174 -111
210 -147 33 -31 153 -187 268 -347 114 -159 217 -297 228 -306 16 -14 39 -18
108 -18 116 0 120 4 120 136 0 65 4 106 13 117 11 15 52 17 437 19 l425 3 3
209 c3 243 -5 281 -72 354 -44 48 -114 86 -276 151 -58 23 -146 64 -195 92
-135 76 -1359 658 -1408 669 -23 5 -172 9 -332 9 -228 0 -297 -3 -322 -14z
m196 -319 c26 -5 34 -94 11 -116 -27 -26 -76 -25 -105 4 -14 14 -25 35 -25 46
0 48 42 85 85 74 11 -3 26 -6 34 -8z m543 2 c10 -2 21 -8 25 -13 4 -4 1 -5 -7
-1 -13 7 -13 6 0 -6 16 -14 21 -78 7 -78 -4 0 -6 -4 -3 -9 20 -32 -106 -39
-130 -7 -7 10 -11 22 -9 26 2 4 5 24 7 44 1 21 6 40 12 43 5 4 6 0 2 -8 -4 -8
-2 -7 5 2 11 14 46 17 91 7z m458 -241 c0 -5 5 -5 10 -2 6 3 10 1 10 -5 0 -6
5 -8 10 -5 6 3 10 1 10 -5 0 -6 5 -8 10 -5 6 3 10 1 10 -5 0 -6 5 -8 10 -5 6
3 10 1 10 -5 0 -6 5 -8 10 -5 6 3 10 1 10 -6 0 -7 3 -10 6 -6 3 3 25 -5 49
-18 23 -13 45 -21 49 -18 3 4 6 1 6 -6 0 -7 5 -9 10 -6 6 3 10 1 10 -5 0 -6 5
-8 10 -5 6 3 10 1 10 -5 0 -6 5 -8 10 -5 6 3 10 1 10 -5 0 -6 5 -8 10 -5 6 3
10 1 10 -5 0 -6 5 -8 10 -5 6 3 10 1 10 -6 0 -7 3 -9 6 -6 4 4 19 -2 33 -11
24 -16 79 -43 91 -44 3 -1 15 -15 27 -31 13 -17 29 -34 35 -39 7 -4 9 -8 5 -8
-5 0 -5 -6 0 -12 12 -19 13 -188 1 -188 -5 0 -7 -3 -5 -7 4 -8 -27 -42 -40
-44 -5 -1 -13 -4 -20 -6 -6 -2 -25 3 -42 12 -17 8 -31 12 -31 8 0 -4 -7 2 -16
13 -8 10 -13 12 -9 4 4 -8 -1 -6 -9 4 -9 11 -16 17 -16 13 0 -4 -9 2 -20 13
-12 12 -25 18 -30 15 -6 -4 -10 -1 -10 5 0 6 -4 9 -9 6 -5 -3 -12 1 -15 10 -3
8 -10 12 -16 9 -5 -3 -10 -1 -10 6 0 7 -3 9 -7 6 -3 -4 -12 1 -20 11 -10 11
-12 12 -8 2 4 -8 -1 -6 -9 4 -9 11 -16 16 -16 11 0 -5 -7 0 -16 11 -8 10 -13
12 -9 4 4 -10 2 -9 -8 2 -8 10 -17 15 -20 11 -4 -3 -7 -1 -7 6 0 7 -4 10 -9 7
-5 -3 -12 1 -15 10 -3 8 -10 12 -16 9 -5 -3 -10 -1 -10 6 0 7 -3 9 -7 6 -3 -4
-12 1 -20 11 -10 11 -12 12 -8 2 4 -10 2 -9 -8 2 -8 10 -17 15 -20 11 -4 -3
-7 -2 -7 4 0 6 -12 18 -26 28 -15 9 -23 12 -20 6 12 -19 0 -12 -25 16 -13 14
-17 22 -9 18 13 -8 13 -7 0 11 -8 10 -19 22 -25 26 -5 4 -6 8 -2 8 5 0 5 5 1
11 -7 12 -9 111 -2 137 3 12 23 30 28 27 3 -2 12 0 20 6 18 10 90 8 90 -4z"/>
</g>
</svg>
