<?xml version="1.0" standalone="no"?>
<!DOCTYPE svg PUBLIC "-//W3C//DTD SVG 20010904//EN"
 "http://www.w3.org/TR/2001/REC-SVG-20010904/DTD/svg10.dtd">
<svg version="1.0" xmlns="http://www.w3.org/2000/svg"
 width="324.000000pt" height="620.000000pt" viewBox="0 0 324.000000 620.000000"
 preserveAspectRatio="xMidYMid meet">

<g transform="translate(0.000000,620.000000) scale(0.100000,-0.100000)"
fill="#000000" stroke="none">
<path d="M1100 6179 c-56 -25 -86 -53 -113 -104 -22 -40 -22 -46 -27 -790 l-5
-750 -22 -41 c-41 -76 -91 -108 -221 -143 -226 -61 -393 -142 -532 -259 -85
-72 -116 -106 -148 -167 l-27 -50 0 -1645 0 -1645 23 -57 c27 -66 96 -134 146
-143 17 -4 69 -1 116 4 92 12 329 15 379 5 l31 -6 0 -170 c0 -166 0 -169 25
-193 l24 -25 874 0 874 0 27 26 26 27 0 168 0 168 47 7 c25 4 126 3 222 -1
266 -12 274 -11 308 13 36 26 80 88 99 139 11 31 13 323 14 1671 0 1585 -1
1634 -19 1687 -23 65 -54 104 -143 179 -142 120 -310 205 -505 256 -172 45
-217 73 -266 164 l-22 41 -5 750 c-5 743 -5 750 -26 790 -27 50 -48 69 -104
94 -43 20 -64 21 -525 21 -462 0 -482 -1 -525 -21z m179 -173 c8 -9 11 -51 9
-121 -3 -118 -11 -134 -61 -121 l-27 6 0 109 c0 60 3 116 6 125 8 20 57 21 73
2z m760 0 c8 -9 11 -51 9 -121 -3 -118 -11 -134 -61 -121 l-27 6 0 119 c0 65
3 121 7 124 12 12 60 7 72 -7z m-765 -842 c13 -12 16 -39 16 -123 0 -112 -6
-131 -45 -131 -39 0 -45 18 -45 137 0 96 2 113 18 122 24 15 38 13 56 -5z
m760 0 c13 -12 16 -39 16 -123 0 -112 -6 -131 -45 -131 -39 0 -45 18 -45 137
0 96 2 113 18 122 24 15 38 13 56 -5z m456 -1042 c178 -43 352 -133 474 -246
l48 -45 -3 -120 c-4 -134 -15 -161 -80 -193 -32 -17 -115 -18 -1302 -18 -1374
0 -1304 -3 -1357 54 -24 26 -25 35 -28 155 l-4 128 64 55 c160 139 364 228
573 248 44 4 406 7 805 5 695 -2 729 -3 810 -23z m450 -1667 c72 -42 71 -36
68 -545 -3 -422 -4 -458 -22 -490 -26 -49 -45 -69 -91 -94 l-40 -21 -1230 0
-1230 0 -40 22 c-50 27 -80 58 -100 105 -21 52 -23 910 -1 961 17 41 47 67 88
77 18 5 602 7 1298 7 1252 -2 1265 -2 1300 -22z m-2444 -1621 c84 -40 85 -167
2 -210 -96 -50 -206 50 -165 149 17 40 68 77 105 77 13 0 39 -7 58 -16z m2357
2 c107 -44 85 -207 -29 -223 -76 -10 -137 42 -136 116 1 49 26 89 67 107 39
17 58 17 98 0z"/>
</g>
</svg>
