<?xml version="1.0" standalone="no"?>
<!DOCTYPE svg PUBLIC "-//W3C//DTD SVG 20010904//EN"
 "http://www.w3.org/TR/2001/REC-SVG-20010904/DTD/svg10.dtd">
<svg version="1.0" xmlns="http://www.w3.org/2000/svg"
 width="876.000000pt" height="556.000000pt" viewBox="0 0 876.000000 556.000000"
 preserveAspectRatio="xMidYMid meet">

<g transform="translate(0.000000,556.000000) scale(0.100000,-0.100000)"
fill="#000000" stroke="none">
<path d="M41 5524 l-31 -26 0 -2433 c0 -2380 0 -2433 19 -2456 l19 -24 2016
-5 2015 -5 268 -266 c216 -214 277 -269 313 -283 42 -15 196 -16 1995 -14
1850 3 1952 4 1983 21 40 22 89 87 102 137 7 25 9 918 8 2631 l-3 2594 -25 45
c-14 24 -45 58 -68 75 l-44 30 -4268 3 -4268 2 -31 -26z m846 -315 c87 -50
168 -102 181 -115 21 -24 22 -32 22 -227 0 -140 -4 -209 -13 -226 -16 -33
-341 -221 -382 -221 -40 0 -244 118 -256 148 -15 39 -11 575 4 596 7 10 58 44
112 76 138 81 138 81 332 -31z m1019 -10 c96 -56 179 -110 185 -120 6 -11 9
-106 9 -234 l-1 -215 -35 -16 c-19 -9 -34 -21 -34 -26 0 -5 -4 -6 -10 -3 -5 3
-10 1 -10 -5 0 -6 -4 -9 -8 -6 -5 3 -18 -3 -29 -14 -12 -10 -24 -16 -27 -13
-3 4 -6 1 -6 -6 0 -7 -5 -9 -10 -6 -6 3 -13 -1 -16 -9 -3 -9 -10 -13 -15 -10
-5 3 -9 0 -9 -6 0 -6 -4 -9 -8 -6 -5 3 -18 -3 -29 -14 -12 -10 -24 -16 -27
-13 -3 4 -6 1 -6 -6 0 -7 -4 -10 -8 -7 -5 3 -19 -4 -30 -15 -12 -10 -25 -19
-29 -19 -5 0 -16 -3 -26 -6 -18 -6 -127 34 -127 47 0 4 -11 10 -25 13 -14 4
-25 10 -25 15 0 5 -16 15 -35 21 -19 6 -35 15 -35 20 0 5 -16 14 -35 20 -19 6
-35 15 -35 19 0 4 -16 13 -36 20 -21 8 -39 22 -45 38 -15 39 -12 426 4 447 18
25 348 215 375 215 13 1 102 -44 198 -100z m1010 5 c93 -53 177 -106 187 -117
16 -18 18 -42 17 -234 -1 -133 -5 -213 -11 -213 -6 0 -7 -5 -3 -12 4 -7 3 -8
-5 -4 -6 4 -14 0 -17 -8 -3 -9 -9 -14 -14 -11 -4 2 -16 -4 -27 -15 -12 -10
-24 -16 -27 -13 -3 4 -6 1 -6 -6 0 -7 -4 -10 -8 -7 -5 3 -18 -3 -29 -14 -12
-10 -24 -16 -27 -13 -3 4 -6 1 -6 -6 0 -7 -5 -9 -10 -6 -6 3 -13 -1 -16 -9 -3
-9 -10 -13 -15 -10 -5 3 -9 0 -9 -6 0 -6 -4 -9 -8 -6 -5 3 -18 -3 -29 -14 -12
-10 -24 -16 -27 -13 -3 4 -6 1 -6 -5 0 -7 -3 -11 -7 -10 -5 1 -23 -6 -42 -16
-34 -18 -101 -16 -101 4 0 5 -16 14 -35 20 -19 6 -35 15 -35 19 0 3 -12 12
-27 19 -45 20 -87 44 -101 59 -7 7 -20 13 -27 13 -7 0 -20 6 -27 14 -8 7 -28
21 -46 30 l-32 17 0 218 c0 194 2 221 18 239 23 29 342 211 368 212 11 0 97
-43 190 -96z m898 74 c125 -67 284 -164 304 -185 21 -23 22 -30 22 -231 0
-165 -3 -212 -14 -228 -23 -32 -346 -214 -380 -214 -31 0 -334 168 -373 207
-22 22 -23 28 -23 231 0 185 2 212 18 231 9 12 89 64 177 116 176 103 200 109
269 73z m1120 -65 c83 -47 166 -97 184 -110 l33 -24 -1 -223 -1 -223 -25 -11
c-13 -7 -24 -16 -24 -22 0 -6 -4 -8 -10 -5 -5 3 -10 1 -10 -5 0 -6 -4 -9 -8
-6 -5 3 -18 -3 -29 -14 -12 -10 -24 -16 -27 -13 -3 4 -6 1 -6 -6 0 -7 -4 -10
-8 -7 -5 3 -18 -3 -29 -14 -12 -10 -24 -16 -27 -13 -3 4 -6 1 -6 -6 0 -7 -5
-9 -10 -6 -6 3 -13 -1 -16 -9 -3 -9 -10 -13 -15 -10 -5 3 -9 0 -9 -6 0 -6 -4
-8 -10 -5 -5 3 -10 1 -10 -5 0 -6 -5 -8 -10 -5 -6 3 -13 -1 -16 -9 -3 -9 -10
-13 -15 -10 -5 3 -9 0 -9 -5 0 -6 -3 -10 -7 -9 -5 1 -18 -2 -31 -6 -23 -8
-112 19 -112 35 0 4 -16 13 -35 19 -19 6 -35 15 -35 20 0 5 -16 14 -35 20 -19
6 -35 15 -35 20 0 4 -11 11 -25 14 -14 4 -25 10 -25 15 0 5 -16 15 -35 21 -19
6 -35 16 -35 21 0 5 -6 9 -14 9 -8 0 -16 6 -19 14 -3 7 -6 105 -6 217 -1 146
2 210 11 227 16 27 343 220 377 221 13 1 91 -38 175 -86z m1046 -17 c91 -53
171 -104 178 -113 9 -12 12 -75 12 -228 0 -177 -3 -214 -16 -231 -8 -10 -13
-12 -9 -4 4 10 2 9 -8 -2 -8 -10 -17 -15 -20 -11 -4 3 -9 -2 -13 -11 -3 -9
-10 -13 -15 -10 -5 3 -9 0 -9 -6 0 -6 -4 -8 -10 -5 -5 3 -10 1 -10 -5 0 -6 -5
-8 -10 -5 -6 3 -13 -1 -16 -9 -3 -9 -10 -13 -15 -10 -5 3 -9 0 -9 -6 0 -6 -4
-9 -8 -6 -5 3 -18 -3 -29 -14 -12 -10 -24 -16 -27 -13 -3 4 -6 1 -6 -6 0 -7
-4 -10 -8 -7 -5 3 -18 -3 -29 -14 -12 -10 -24 -16 -27 -13 -3 4 -6 1 -6 -6 0
-7 -5 -9 -10 -6 -6 3 -13 0 -16 -8 -5 -15 -20 -19 -79 -19 -22 0 -41 5 -43 11
-2 6 -9 11 -16 11 -7 0 -23 9 -36 20 -13 11 -28 20 -35 20 -7 0 -22 9 -35 20
-13 11 -29 20 -36 20 -7 0 -19 6 -26 13 -14 12 -49 33 -105 62 -17 9 -34 27
-37 41 -4 14 -6 119 -6 233 l1 208 182 107 c147 85 188 105 212 102 17 -2 104
-47 195 -100z m1018 8 c92 -53 173 -103 180 -112 9 -12 12 -74 12 -232 0 -212
0 -217 -22 -237 -13 -11 -95 -61 -182 -112 -109 -62 -169 -91 -190 -91 -41 1
-366 188 -383 221 -9 17 -13 85 -13 225 0 178 2 204 18 223 9 12 89 64 177
115 122 72 169 94 198 95 31 1 70 -17 205 -95z m1008 5 c87 -50 169 -102 182
-115 21 -24 22 -32 22 -227 0 -141 -4 -209 -13 -226 -16 -32 -342 -221 -381
-221 -35 0 -359 182 -382 214 -11 16 -14 64 -14 233 0 202 1 214 20 231 11 9
91 58 178 109 116 68 166 92 193 92 27 1 73 -20 195 -90z m-6601 -887 c109
-63 174 -107 182 -122 18 -35 18 -405 0 -439 -17 -34 -341 -221 -383 -221 -20
0 -84 31 -193 93 -89 52 -171 101 -182 110 -18 16 -19 31 -19 237 0 208 1 221
20 237 11 10 91 59 177 109 114 67 168 93 193 93 27 1 74 -22 205 -97z m1018
-9 l186 -106 1 -208 c1 -214 -3 -259 -24 -259 -7 0 -22 -9 -33 -19 -12 -11
-24 -17 -27 -14 -3 4 -6 1 -6 -6 0 -7 -4 -10 -8 -7 -5 3 -18 -3 -29 -14 -12
-10 -24 -16 -27 -13 -3 4 -6 1 -6 -6 0 -7 -5 -9 -10 -6 -6 3 -13 -1 -16 -9 -3
-9 -10 -13 -15 -10 -5 3 -9 0 -9 -6 0 -6 -4 -9 -8 -6 -5 3 -18 -3 -29 -14 -12
-10 -24 -16 -27 -13 -3 4 -6 1 -6 -6 0 -7 -4 -10 -8 -7 -5 3 -18 -2 -28 -12
-25 -22 -40 -26 -85 -26 -21 0 -44 7 -53 17 -10 9 -24 17 -31 17 -7 0 -20 6
-27 13 -18 16 -66 44 -100 58 -16 6 -28 15 -28 19 0 5 -16 14 -35 20 -19 6
-35 15 -35 20 0 5 -9 12 -20 15 -48 15 -50 23 -50 249 0 156 3 217 13 230 17
24 347 215 373 215 11 1 104 -47 207 -106z m1015 11 c92 -53 173 -104 180
-112 14 -18 18 -438 4 -459 -4 -7 -85 -57 -180 -113 -122 -71 -182 -100 -205
-100 -42 0 -367 187 -384 221 -18 33 -18 404 0 438 18 36 341 221 385 221 24
0 81 -28 200 -96z m999 8 c83 -48 164 -96 180 -108 l28 -21 3 -209 c2 -155 -1
-215 -10 -234 -18 -33 -342 -220 -383 -220 -35 0 -357 181 -380 213 -12 17
-15 63 -15 233 0 201 1 212 21 230 11 10 91 60 177 110 113 66 167 92 192 93
27 1 71 -20 187 -87z m1033 -16 c91 -53 171 -104 178 -113 9 -13 12 -73 12
-234 l-1 -216 -25 -11 c-13 -7 -24 -16 -24 -22 0 -6 -4 -8 -10 -5 -5 3 -10 1
-10 -5 0 -6 -4 -9 -8 -6 -5 3 -18 -3 -29 -14 -12 -10 -24 -16 -27 -13 -3 4 -6
1 -6 -6 0 -7 -4 -10 -8 -7 -5 3 -18 -3 -29 -14 -12 -10 -24 -16 -27 -13 -3 4
-6 1 -6 -6 0 -7 -4 -10 -8 -7 -5 3 -18 -3 -29 -14 -12 -10 -24 -16 -27 -13 -3
4 -6 1 -6 -6 0 -7 -5 -9 -10 -6 -6 3 -13 -1 -16 -9 -3 -9 -10 -13 -15 -10 -5
3 -9 0 -9 -5 0 -6 -3 -10 -7 -9 -5 1 -20 -2 -34 -6 -28 -8 -108 22 -136 50 -8
8 -20 14 -27 14 -7 0 -23 9 -36 20 -13 11 -29 20 -36 20 -7 0 -19 6 -26 13 -7
7 -24 18 -38 25 -80 42 -94 51 -101 68 -4 11 -8 112 -8 225 -1 183 1 209 17
227 9 11 94 63 187 116 127 73 176 96 195 92 14 -2 99 -48 190 -100z m1915 75
c237 -133 300 -174 309 -197 3 -8 6 -107 6 -219 0 -197 -1 -205 -22 -229 -37
-39 -336 -206 -371 -206 -36 0 -360 181 -383 214 -11 16 -14 63 -14 227 0 182
2 209 18 228 9 12 89 64 177 115 182 107 202 112 280 67z m1030 -14 l70 -42 0
-355 0 -355 -75 -42 c-41 -24 -82 -43 -91 -43 -21 0 -350 187 -371 212 -16 18
-18 44 -18 219 0 124 4 207 11 223 13 27 350 226 384 226 11 0 52 -20 90 -43z
m-2141 -129 c-4 -7 -45 -70 -91 -140 l-82 -128 -66 0 c-50 0 -64 3 -59 13 5 6
45 69 91 140 l83 127 66 0 c49 0 63 -3 58 -12z m256 7 c0 -7 -339 -526 -355
-543 -8 -9 -32 -12 -73 -10 l-62 3 182 278 182 277 63 0 c35 0 63 -2 63 -5z
m68 -283 c-1 -5 -41 -68 -88 -140 l-85 -132 -67 0 -67 0 90 140 91 140 65 0
c36 0 63 -4 61 -8z m-5712 -533 c87 -50 167 -98 177 -107 15 -13 17 -38 17
-232 0 -194 -2 -219 -17 -232 -34 -29 -352 -208 -370 -208 -32 0 -236 123
-250 150 -18 35 -17 533 0 574 17 39 220 159 258 152 14 -3 97 -46 185 -97z
m1014 0 c96 -55 181 -108 188 -116 9 -12 12 -73 12 -223 0 -149 -3 -211 -12
-223 -16 -20 -357 -217 -377 -217 -22 0 -343 188 -368 216 -22 24 -23 32 -23
222 0 160 3 202 15 219 19 27 353 223 380 223 6 0 89 -45 185 -101z m1009 6
c91 -53 176 -107 189 -121 21 -24 22 -32 22 -219 0 -114 -4 -203 -11 -217 -10
-23 -352 -228 -380 -228 -20 0 -361 197 -376 217 -10 12 -13 73 -13 223 0 150
3 211 13 222 15 20 357 218 376 218 7 0 88 -43 180 -95z m881 77 c111 -60 308
-176 325 -193 19 -18 20 -33 20 -229 0 -196 -1 -211 -20 -229 -30 -29 -350
-211 -372 -211 -21 0 -363 194 -375 213 -4 7 -8 109 -8 228 0 193 2 218 18
232 17 15 314 189 342 200 25 9 34 8 70 -11z m1160 -82 c96 -56 181 -108 188
-117 9 -12 12 -74 12 -223 0 -149 -3 -211 -12 -223 -15 -20 -356 -217 -376
-217 -17 0 -341 186 -367 211 -18 18 -20 35 -23 217 -2 146 1 203 11 222 14
28 350 230 382 230 6 0 89 -45 185 -100z m1012 3 c93 -54 178 -106 189 -116
18 -16 19 -33 19 -217 0 -109 -4 -209 -9 -222 -6 -16 -65 -55 -188 -125 -99
-57 -185 -103 -193 -103 -19 0 -362 198 -377 218 -15 19 -18 418 -4 441 11 17
361 220 380 221 8 0 90 -44 183 -97z m1028 -6 c114 -66 179 -111 187 -127 18
-35 18 -385 0 -420 -13 -25 -347 -229 -376 -230 -13 0 -150 69 -161 81 -3 3
-47 29 -99 59 -142 81 -131 55 -131 298 0 151 3 213 13 225 16 21 357 217 377
217 8 -1 94 -47 190 -103z m1007 5 c94 -54 178 -104 187 -111 14 -12 16 -43
16 -231 0 -194 -2 -218 -17 -232 -10 -8 -94 -59 -188 -112 -123 -70 -176 -95
-192 -91 -12 3 -49 21 -82 40 -33 19 -62 35 -66 35 -3 0 -11 5 -18 11 -7 6
-52 34 -102 62 -52 30 -95 63 -102 77 -18 35 -18 385 0 420 8 17 73 59 191
128 99 56 184 102 190 102 7 0 89 -44 183 -98z m-6607 -883 c96 -55 181 -108
188 -116 9 -12 12 -75 12 -228 0 -189 -2 -214 -17 -227 -27 -23 -334 -198
-360 -204 -16 -4 -47 8 -102 40 -44 25 -83 46 -86 46 -3 0 -11 5 -18 11 -7 5
-48 31 -92 57 -44 26 -85 58 -92 72 -18 35 -18 385 0 420 8 16 74 60 191 127
99 57 184 103 190 103 6 0 90 -45 186 -101z m1012 4 c93 -54 178 -106 189
-116 18 -16 19 -33 19 -217 0 -109 -4 -209 -9 -222 -6 -16 -65 -55 -187 -125
-99 -57 -186 -103 -194 -103 -20 0 -362 197 -377 217 -20 26 -18 426 2 446 24
25 360 217 378 217 5 0 85 -44 179 -97z m1033 -10 c110 -63 174 -107 182 -123
10 -19 13 -76 11 -223 -3 -198 -3 -199 -28 -220 -14 -12 -99 -64 -188 -116
-110 -63 -169 -91 -183 -88 -11 3 -98 50 -194 104 -113 64 -175 105 -179 118
-3 11 -6 110 -6 221 0 145 3 205 13 216 23 30 361 218 382 213 12 -2 97 -48
190 -102z m1005 7 c96 -56 180 -106 187 -112 10 -8 13 -62 13 -228 0 -194 -2
-219 -17 -232 -10 -9 -94 -59 -186 -113 -148 -85 -173 -96 -202 -91 -19 4 -35
10 -37 14 -3 8 -233 142 -243 142 -3 0 -11 5 -18 10 -7 6 -24 19 -39 31 l-28
20 0 219 0 219 28 19 c47 33 345 202 357 202 6 0 89 -45 185 -100z m1012 3
c93 -54 178 -106 189 -116 18 -16 19 -33 19 -225 0 -151 -3 -213 -12 -225 -15
-21 -356 -217 -376 -217 -22 0 -334 181 -364 211 l-28 27 0 199 c0 159 3 203
15 220 17 25 354 223 379 223 5 0 85 -44 178 -97z m1027 -5 c86 -49 166 -101
179 -114 21 -24 22 -32 22 -219 0 -118 -4 -203 -11 -218 -7 -15 -71 -58 -188
-125 -97 -56 -183 -102 -191 -102 -18 0 -347 187 -371 211 -17 17 -19 38 -19
227 0 152 3 212 13 224 11 14 322 198 357 211 24 9 45 -1 209 -95z m1008 4
c94 -54 178 -104 187 -111 14 -12 16 -43 16 -231 0 -194 -2 -219 -17 -232 -32
-28 -350 -208 -367 -208 -10 0 -48 18 -86 40 -38 22 -73 40 -78 40 -6 0 -12 4
-14 8 -1 4 -41 30 -88 56 -132 75 -120 46 -120 296 0 166 3 220 13 228 24 20
361 212 372 212 6 0 88 -44 182 -98z m926 53 l77 -46 -2 -352 -3 -352 -75 -42
c-41 -24 -81 -43 -89 -43 -23 0 -344 188 -368 216 -22 24 -23 32 -23 224 0
192 1 200 23 224 22 25 351 216 371 216 6 0 46 -20 89 -45z m-7537 -932 c93
-53 177 -103 187 -111 15 -14 17 -38 17 -233 l0 -218 -32 -24 c-62 -46 -335
-197 -357 -197 -24 0 -204 100 -236 131 -19 18 -20 35 -23 282 -2 169 1 275 8
299 9 32 22 43 98 87 114 65 145 81 158 81 6 0 87 -43 180 -97z m1016 0 c93
-54 178 -106 189 -116 18 -16 19 -33 19 -225 0 -151 -3 -213 -12 -225 -15 -20
-331 -205 -365 -213 -32 -9 -381 190 -394 224 -5 13 -9 110 -9 217 0 169 2
195 18 214 16 21 356 221 375 221 5 0 85 -44 179 -97z m1025 -4 c87 -50 168
-102 181 -115 21 -24 22 -32 22 -219 0 -106 -4 -204 -9 -217 -6 -16 -65 -55
-187 -125 -99 -57 -186 -103 -195 -103 -21 0 -350 188 -371 212 -16 18 -18 44
-18 228 0 172 3 211 15 223 14 14 236 146 330 196 22 11 47 19 56 16 10 -3 88
-47 176 -96z m863 87 c14 -7 75 -42 135 -77 61 -35 122 -70 136 -77 14 -8 39
-24 55 -37 l29 -23 0 -210 c0 -189 -2 -212 -18 -230 -30 -33 -350 -212 -377
-211 -14 0 -104 46 -200 102 l-175 102 -3 224 c-2 156 1 228 9 237 13 16 323
195 354 206 29 9 28 9 55 -6z m1162 -83 c93 -54 178 -106 189 -116 18 -16 19
-33 19 -231 0 -190 -2 -215 -17 -228 -32 -28 -351 -208 -369 -208 -24 0 -333
178 -367 212 l-28 28 3 206 3 207 28 21 c39 29 349 206 361 206 5 0 85 -44
178 -97z m1027 -5 c86 -50 166 -100 179 -111 21 -20 22 -26 22 -218 0 -109 -4
-208 -9 -221 -6 -17 -60 -54 -180 -122 -94 -54 -180 -100 -191 -103 -14 -4
-75 26 -192 92 -94 54 -179 106 -189 116 -17 17 -19 38 -19 227 0 114 4 212 8
219 7 11 330 203 363 216 23 9 45 -1 208 -95z m1016 -1 c118 -67 184 -111 192
-127 16 -31 18 -373 3 -416 -9 -25 -42 -48 -188 -132 -98 -56 -186 -102 -196
-102 -10 0 -48 18 -86 40 -38 22 -73 40 -78 40 -6 0 -12 4 -14 8 -1 4 -41 30
-88 56 -132 75 -120 47 -120 291 0 154 3 215 13 227 17 21 350 213 377 217 3
1 87 -45 185 -102z m1015 2 c96 -55 181 -108 188 -117 9 -11 12 -73 12 -227 0
-189 -2 -214 -17 -227 -33 -29 -350 -208 -368 -208 -10 0 -53 20 -96 45 -43
25 -81 45 -84 45 -3 0 -11 5 -18 11 -7 5 -48 31 -92 57 -44 26 -85 58 -92 72
-18 35 -18 385 0 419 11 22 356 231 382 231 5 0 89 -45 185 -101z m-2541 -881
c86 -50 166 -100 179 -111 22 -21 22 -24 20 -216 l-3 -196 -385 0 -385 0 -3
193 -2 194 27 25 c52 46 356 214 376 207 11 -3 90 -47 176 -96z m1025 -5 c92
-53 174 -107 182 -118 12 -18 14 -61 12 -211 l-3 -189 -385 0 -385 0 -2 195
c-2 107 1 200 5 207 7 11 330 203 363 216 21 8 30 4 213 -100z m1005 8 c96
-55 181 -107 190 -116 13 -13 17 -46 19 -191 2 -97 1 -187 -2 -200 l-6 -24
-385 -2 -385 -3 0 206 c0 184 2 208 18 221 25 22 353 208 367 208 6 0 89 -45
184 -99z m934 46 l67 -39 -2 -267 -3 -266 -275 0 -275 0 -2 185 c-2 133 1 192
10 209 17 34 364 233 392 225 11 -4 50 -25 88 -47z"/>
</g>
</svg>
