<?xml version="1.0" standalone="no"?>
<!DOCTYPE svg PUBLIC "-//W3C//DTD SVG 20010904//EN"
 "http://www.w3.org/TR/2001/REC-SVG-20010904/DTD/svg10.dtd">
<svg version="1.0" xmlns="http://www.w3.org/2000/svg"
 width="504.000000pt" height="1085.000000pt" viewBox="0 0 504.000000 1085.000000"
 preserveAspectRatio="xMidYMid meet">

<g transform="translate(0.000000,1085.000000) scale(0.100000,-0.100000)"
fill="#000000" stroke="none">
<path d="M1100 10842 c-49 -6 -77 -24 -96 -60 -16 -33 -19 -66 -21 -322 -2
-238 0 -292 13 -327 22 -60 55 -80 145 -88 40 -4 81 -12 89 -19 8 -7 27 -17
43 -24 15 -6 27 -15 27 -20 0 -5 11 -22 24 -37 14 -16 23 -32 20 -36 -2 -4 1
-20 7 -36 16 -42 13 -7862 -3 -7918 -15 -50 -70 -119 -107 -135 -16 -6 -44
-13 -62 -15 -19 -2 -34 -4 -34 -6 0 -1 -232 -3 -515 -4 -283 -2 -525 -5 -537
-8 -32 -8 -61 -41 -72 -85 -12 -44 -17 -1562 -5 -1608 9 -37 43 -73 74 -80 36
-8 837 -6 863 2 40 12 76 54 82 98 3 23 7 126 9 230 2 106 7 191 13 195 5 3
18 21 29 39 21 36 73 71 119 80 36 7 2599 8 2635 1 26 -5 80 -36 92 -54 5 -6
8 -6 8 0 0 25 50 -74 55 -110 3 -22 7 -126 8 -230 2 -184 3 -191 26 -214 13
-13 37 -28 54 -33 32 -11 796 -20 849 -10 36 6 87 52 97 89 5 17 9 386 9 820
l1 791 -34 39 c-18 22 -40 40 -47 41 -7 1 -256 4 -553 5 -297 2 -547 5 -555 8
-8 2 -21 10 -28 17 -7 6 -20 12 -28 12 -8 0 -14 5 -14 11 0 5 -4 8 -9 5 -4 -3
-13 6 -19 19 -7 14 -16 25 -21 25 -11 0 -27 43 -36 95 -4 22 -7 807 -6 1745 1
6029 2 6106 16 6154 24 81 82 139 146 148 13 2 29 6 34 9 6 3 30 7 55 8 56 4
92 24 115 66 15 30 17 65 17 337 1 293 -4 354 -22 343 -5 -3 -12 4 -15 16 -4
11 -9 18 -12 15 -3 -3 -15 0 -26 6 -15 8 -422 11 -1447 12 -784 1 -1436 0
-1450 -2z m1780 -804 c44 -15 80 -33 80 -41 0 -4 4 -6 8 -3 14 9 81 -62 111
-116 16 -29 32 -75 36 -103 8 -54 9 -1598 1 -1653 -7 -51 -54 -133 -99 -174
-22 -21 -44 -39 -49 -39 -18 -3 -24 -5 -47 -18 -13 -7 -43 -16 -65 -18 -55 -7
-610 -6 -664 1 -82 10 -174 80 -228 171 l-29 50 0 855 0 855 27 55 c15 30 37
67 51 81 21 23 147 104 147 95 0 -3 12 -1 28 3 29 8 667 7 692 -1z m-10 -2803
c8 -5 24 -11 34 -12 11 -2 25 -8 31 -13 7 -5 15 -7 18 -3 4 3 7 1 7 -5 0 -7 3
-11 8 -10 13 4 78 -66 110 -117 23 -40 31 -67 37 -130 9 -101 9 -1574 0 -1618
-12 -55 -48 -131 -75 -159 -35 -35 -122 -88 -157 -95 -15 -3 -49 -6 -75 -7
-26 -1 -50 -5 -54 -9 -4 -3 -12 -3 -18 0 -15 10 -117 10 -122 1 -3 -5 -11 -5
-17 -1 -17 11 -50 11 -64 1 -6 -5 -14 -5 -17 1 -4 5 -18 7 -32 5 -35 -6 -38
-7 -44 -4 -15 6 -122 4 -126 -2 -3 -5 -11 -5 -17 -1 -6 4 -32 8 -57 10 -71 4
-91 8 -101 24 -5 8 -9 11 -9 6 0 -11 -80 32 -80 44 0 6 -4 7 -10 4 -5 -3 -10
-2 -10 4 0 5 -6 16 -13 23 -25 25 -57 86 -72 134 -13 42 -15 167 -16 846 0
438 3 814 7 835 4 21 16 56 27 78 23 46 108 135 129 135 7 0 24 7 37 16 13 10
42 19 65 22 22 2 42 5 43 6 8 7 622 -2 633 -9z m-542 -2819 c6 1 14 3 17 4 14
7 31 5 44 -4 17 -13 15 -14 34 2 9 8 18 9 21 3 6 -9 50 -6 67 5 4 2 10 0 13
-5 5 -8 34 -8 44 -1 6 6 28 6 37 1 15 -9 29 -8 42 1 6 5 14 5 17 -1 4 -5 18
-7 32 -5 35 6 38 7 44 4 3 -1 30 -3 60 -5 30 -2 66 -6 80 -10 14 -4 31 -7 38
-7 6 -1 12 -5 12 -10 0 -4 7 -8 15 -8 8 0 15 -5 15 -11 0 -5 4 -8 9 -4 13 8
76 -59 105 -111 13 -24 29 -67 36 -96 12 -56 16 -1807 4 -1877 -9 -54 -48
-133 -86 -172 -21 -23 -128 -84 -128 -74 0 4 -7 1 -16 -6 -24 -20 -694 -20
-718 0 -9 7 -16 10 -16 6 0 -11 -92 45 -121 74 -42 42 -86 132 -94 191 -10 69
-9 1817 0 1862 18 82 82 171 157 217 39 23 60 29 116 33 20 1 39 10 45 19 10
17 12 17 36 0 15 -9 32 -16 39 -15z"/>
</g>
</svg>
