<?xml version="1.0" standalone="no"?>
<!DOCTYPE svg PUBLIC "-//W3C//DTD SVG 20010904//EN"
 "http://www.w3.org/TR/2001/REC-SVG-20010904/DTD/svg10.dtd">
<svg version="1.0" xmlns="http://www.w3.org/2000/svg"
 width="1760.000000pt" height="1597.000000pt" viewBox="0 0 1760.000000 1597.000000"
 preserveAspectRatio="xMidYMid meet">

<g transform="translate(0.000000,1597.000000) scale(0.100000,-0.100000)"
fill="#000000" stroke="none">
<path d="M5077 15963 c-1 -1 -29 -4 -62 -6 -33 -3 -60 -6 -60 -7 0 -1 -16 -3
-37 -5 -20 -2 -45 -8 -57 -14 -12 -7 -21 -10 -21 -7 0 3 -28 -5 -62 -18 -35
-12 -66 -23 -71 -24 -23 -5 -197 -95 -197 -103 0 -5 -15 -16 -32 -25 -49 -25
-153 -124 -258 -243 -65 -75 -86 -98 -150 -171 -53 -61 -69 -78 -150 -170 -30
-35 -64 -73 -75 -84 -11 -12 -45 -51 -75 -86 -30 -36 -65 -76 -77 -90 -12 -14
-30 -34 -40 -46 -10 -12 -49 -55 -86 -96 -37 -42 -77 -87 -88 -99 -30 -35
-113 -129 -151 -171 -18 -21 -46 -54 -63 -74 -16 -21 -49 -58 -71 -83 -98
-108 -114 -126 -114 -133 0 -5 -7 -8 -17 -8 -9 0 -14 -3 -10 -6 6 -6 -22 -39
-114 -136 -20 -20 -34 -40 -31 -43 3 -3 -2 -5 -12 -5 -9 0 -15 -4 -11 -9 3 -5
-6 -18 -20 -29 -13 -11 -21 -22 -18 -26 3 -3 -2 -6 -12 -6 -10 0 -16 -3 -12
-6 6 -6 -1 -14 -81 -101 -22 -24 -38 -43 -36 -43 3 0 -11 -15 -30 -34 -20 -18
-32 -36 -29 -40 4 -3 -1 -6 -10 -6 -9 0 -17 -5 -17 -10 0 -6 -10 -21 -22 -34
-13 -13 -50 -54 -83 -91 -33 -37 -75 -82 -93 -101 -17 -18 -32 -36 -32 -39 0
-3 -22 -28 -48 -55 -27 -27 -57 -61 -68 -76 -21 -29 -40 -51 -129 -150 -101
-112 -109 -121 -145 -164 -19 -22 -53 -60 -75 -84 -22 -23 -60 -66 -85 -95
-25 -29 -63 -73 -85 -98 -22 -25 -48 -55 -58 -67 -35 -42 -107 -123 -197 -223
-25 -27 -58 -66 -75 -86 -16 -21 -40 -50 -53 -65 -13 -15 -33 -40 -45 -55 -12
-16 -34 -43 -49 -60 -15 -18 -28 -35 -28 -39 0 -4 -6 -13 -13 -20 -14 -15 -95
-138 -121 -183 -9 -16 -26 -46 -38 -65 -40 -66 -135 -255 -167 -335 -18 -44
-36 -89 -41 -100 -5 -11 -19 -49 -30 -85 -12 -36 -26 -74 -31 -85 -15 -35 -77
-286 -93 -375 -16 -88 -31 -189 -42 -275 -9 -71 -16 -1415 -19 -3790 -1 -1133
-5 -2071 -7 -2085 -3 -14 -9 -63 -12 -110 -4 -47 -9 -94 -12 -105 -2 -11 -6
-36 -8 -55 -2 -19 -7 -46 -10 -60 -3 -14 -8 -43 -10 -65 -9 -76 -28 -171 -81
-385 -41 -166 -71 -298 -85 -370 -6 -30 -15 -80 -21 -110 -6 -30 -16 -68 -22
-83 -5 -15 -11 -38 -13 -50 -2 -12 -14 -92 -28 -177 -13 -85 -27 -180 -30
-210 -4 -30 -8 -71 -11 -90 -5 -34 -11 -80 -20 -165 -3 -22 -7 -78 -11 -125
-3 -47 -7 -98 -9 -115 -13 -109 -19 -453 -19 -1155 0 -641 3 -816 13 -859 14
-56 85 -190 108 -204 7 -4 13 -15 13 -24 0 -9 3 -14 6 -10 3 3 17 -5 30 -18
13 -13 33 -26 44 -30 11 -3 20 -10 20 -14 0 -5 34 -18 76 -31 l76 -22 5346 -4
c6905 -5 11001 -5 11010 0 4 2 22 7 41 11 87 19 220 130 265 222 10 21 22 45
26 54 26 51 29 172 25 999 -2 476 -6 890 -9 920 -3 30 -8 96 -11 145 -9 137
-34 393 -45 460 -5 33 -12 83 -15 110 -12 100 -15 121 -25 170 -5 28 -12 69
-14 93 -3 23 -7 46 -10 51 -3 4 -6 31 -7 60 -1 28 -5 51 -8 51 -4 0 -6 12 -5
28 1 15 -3 37 -7 49 -4 12 -10 40 -13 63 -3 22 -7 44 -11 49 -3 5 -7 22 -9 38
-3 32 -26 130 -34 153 -3 8 -6 20 -7 25 -1 6 -7 33 -14 61 -7 29 -13 58 -14
65 -2 8 -5 19 -9 24 -3 6 -9 28 -12 50 -4 22 -11 58 -17 80 -6 22 -12 49 -14
60 -1 11 -5 31 -8 45 -4 14 -9 42 -12 64 -3 21 -7 41 -9 45 -2 3 -7 33 -10 66
-3 33 -8 71 -10 85 -5 29 -13 101 -21 180 -3 30 -8 73 -11 95 -4 22 -7 1338
-9 2925 -1 1587 -5 2903 -8 2925 -9 69 -17 129 -23 155 -2 14 -6 39 -8 55 -8
54 -17 100 -26 130 -5 17 -11 41 -14 55 -13 77 -19 101 -27 106 -5 3 -7 9 -4
14 3 4 -6 41 -20 82 -14 40 -28 80 -30 88 -10 38 -48 136 -57 148 -6 6 -7 12
-3 12 4 0 -3 16 -14 36 -12 20 -20 39 -17 41 3 3 -6 23 -20 45 -14 22 -23 42
-20 45 3 3 -5 22 -18 42 -13 20 -49 89 -80 154 -32 64 -61 117 -66 117 -4 0
-24 28 -43 63 -19 34 -45 73 -57 87 -12 14 -28 37 -36 53 -8 15 -19 27 -24 27
-5 0 -11 8 -15 19 -3 10 -16 30 -28 43 -12 14 -38 44 -57 67 -19 24 -45 55
-57 69 -13 13 -23 29 -23 34 0 5 -4 6 -10 3 -5 -3 -10 -2 -10 3 0 5 -17 28
-37 50 -21 23 -54 60 -73 82 -19 22 -59 66 -87 98 -29 31 -53 63 -53 70 0 7
-5 10 -10 7 -6 -3 -10 -3 -10 2 0 4 -18 28 -40 52 -22 25 -40 48 -40 53 0 5
-4 6 -10 3 -5 -3 -10 -2 -10 3 0 5 -11 21 -25 36 -14 15 -25 32 -25 37 0 6 -5
7 -10 4 -6 -3 -10 -2 -10 3 0 5 -17 28 -37 50 -21 23 -54 60 -73 83 -19 22
-43 49 -52 57 -10 9 -18 23 -18 31 0 8 -3 11 -6 8 -4 -4 -18 8 -33 26 -31 39
-43 53 -93 108 -21 23 -38 46 -38 51 0 5 -5 6 -10 3 -5 -3 -10 -2 -10 3 0 5
-17 28 -37 50 -21 22 -54 60 -73 83 -19 24 -43 50 -52 58 -10 9 -18 22 -18 30
0 8 -3 11 -6 8 -4 -4 -18 8 -33 26 -31 39 -43 53 -93 108 -21 23 -38 46 -38
51 0 5 -4 6 -10 3 -5 -3 -10 -2 -10 3 0 5 -10 20 -23 34 -19 21 -60 68 -136
157 -12 13 -21 28 -21 33 0 5 -5 6 -10 3 -5 -3 -10 -2 -10 3 0 5 -17 28 -37
51 -95 103 -113 124 -113 133 0 5 -4 6 -10 3 -5 -3 -10 -2 -10 3 0 5 -10 20
-22 34 -13 14 -50 56 -83 93 -33 38 -70 79 -82 93 -13 14 -23 29 -23 34 0 5
-4 6 -10 3 -5 -3 -10 -2 -10 3 0 5 -10 20 -22 34 -82 92 -123 143 -120 150 1
4 -4 8 -10 8 -7 1 -22 12 -33 26 -11 14 -44 51 -72 82 -29 31 -53 60 -53 64 0
6 -44 57 -125 144 -22 23 -47 52 -55 64 -8 12 -39 47 -67 78 -29 31 -53 60
-53 64 0 5 -7 8 -15 8 -8 0 -15 5 -15 12 0 12 -5 17 -64 78 -18 19 -45 53 -60
74 -14 21 -26 36 -26 33 0 -3 -11 5 -25 19 -14 14 -25 28 -25 32 0 4 -8 15
-17 24 -10 9 -34 35 -53 57 -19 22 -74 81 -122 131 -49 51 -88 96 -88 101 0 6
-4 7 -10 4 -5 -3 -10 -2 -10 4 0 5 -8 12 -17 15 -10 3 -30 17 -45 31 -16 14
-28 22 -28 18 0 -4 -4 -3 -8 3 -4 6 -32 24 -62 40 -30 16 -57 32 -60 35 -3 4
-24 12 -47 19 -24 7 -43 17 -43 22 0 5 -4 7 -8 4 -5 -3 -49 6 -98 20 -49 14
-107 27 -129 30 -22 3 -49 8 -60 11 -11 4 -1584 8 -3495 10 -1911 1 -3600 4
-3753 5 -153 2 -279 2 -280 1z m1068 -212 c5 -5 22 -11 37 -15 41 -10 96 -63
109 -106 34 -114 -90 -209 -260 -197 -119 8 -194 54 -219 134 -33 106 103 210
258 197 35 -3 69 -9 75 -13z m5555 -18 c56 -26 88 -60 105 -109 36 -104 -73
-197 -235 -198 -63 -1 -150 19 -150 35 0 4 -9 11 -20 14 -30 9 -69 66 -76 109
-8 56 30 109 105 145 76 36 201 38 271 4z m-1113 -821 c23 -13 166 -113 195
-137 10 -8 37 -27 60 -42 24 -15 45 -30 48 -33 3 -3 21 -17 40 -30 39 -27 44
-31 81 -63 15 -12 42 -33 60 -47 88 -66 290 -278 349 -367 8 -12 43 -62 76
-111 34 -49 80 -129 103 -178 23 -49 48 -102 56 -119 7 -16 19 -48 26 -70 6
-22 16 -51 21 -64 19 -51 48 -194 48 -239 -1 -95 -69 -307 -150 -467 -53 -106
-147 -255 -187 -301 -10 -10 -35 -41 -57 -67 -76 -96 -241 -252 -351 -335 -22
-17 -54 -42 -71 -56 -18 -14 -36 -26 -40 -26 -5 0 -23 -12 -41 -28 -55 -46
-361 -216 -438 -242 -5 -2 -44 -19 -85 -38 -41 -18 -77 -34 -80 -34 -3 0 -16
-5 -30 -11 -49 -19 -65 -25 -95 -35 -16 -6 -39 -13 -50 -18 -11 -4 -24 -8 -30
-9 -5 0 -17 -4 -25 -8 -38 -16 -141 -47 -158 -47 -11 0 -35 -7 -55 -15 -19 -8
-59 -19 -88 -24 -30 -5 -99 -18 -154 -29 -130 -26 -225 -40 -305 -47 -36 -3
-108 -9 -160 -15 -121 -12 -399 -12 -555 0 -253 20 -277 22 -460 56 -49 9 -97
17 -105 18 -8 1 -45 9 -82 19 -38 9 -98 24 -135 33 -162 40 -506 165 -598 218
-22 13 -51 27 -65 31 -23 6 -299 162 -310 175 -3 3 -25 18 -50 35 -25 16 -57
39 -71 50 -14 11 -38 29 -53 40 -15 11 -37 28 -49 38 -12 10 -37 30 -55 45
-64 53 -195 189 -277 287 -22 26 -48 57 -57 68 -10 11 -18 23 -18 27 0 4 -9
18 -21 31 -31 35 -124 196 -160 275 -51 115 -95 257 -115 374 -18 100 34 293
133 499 94 198 213 359 399 545 73 74 236 212 308 261 16 11 50 35 75 52 25
18 64 45 85 59 22 15 49 35 60 45 11 11 23 19 26 19 4 0 26 15 49 33 l42 33
1762 -1 c1358 -1 1767 -4 1784 -13z m-4409 -3072 c42 -21 111 -93 113 -119 3
-37 -4 -67 -18 -90 -24 -38 -64 -71 -92 -78 -14 -3 -31 -9 -37 -14 -5 -5 -53
-7 -105 -6 -88 2 -99 4 -151 36 -85 52 -108 117 -67 190 22 40 100 90 159 102
52 11 154 0 198 -21z m5485 3 c15 -7 27 -11 27 -8 0 8 51 -26 77 -51 26 -26
48 -94 40 -126 -20 -80 -140 -143 -257 -135 -219 14 -310 196 -145 292 88 52
189 63 258 28z m-4883 -1144 c0 -3 16 -3 36 0 20 3 71 4 114 1 43 -3 94 -2
114 1 20 3 36 2 36 -3 0 -5 5 -6 11 -3 5 4 54 6 107 5 53 -1 104 -2 112 -2 8
0 1059 0 2335 0 5771 0 5907 0 5971 -14 103 -21 223 -86 276 -149 5 -5 19 -22
33 -38 67 -75 113 -188 123 -302 4 -44 6 -375 5 -735 -1 -360 -2 -1701 -3
-2980 0 -2274 -1 -2327 -20 -2393 -53 -188 -187 -318 -390 -382 -51 -16 -233
-17 -2860 -16 -8508 5 -10766 8 -10777 14 -6 4 -28 9 -49 13 -22 3 -49 12 -61
20 -12 8 -28 14 -36 14 -25 0 -183 119 -159 120 4 0 -1 5 -10 11 -33 19 -97
149 -125 254 -10 37 -11 5835 -1 6027 7 136 7 138 52 230 53 110 124 188 219
240 82 44 123 57 207 67 70 8 4740 8 4740 0z m2132 -7239 c23 -12 53 -33 65
-47 31 -33 60 -94 55 -115 -2 -10 1 -18 6 -18 5 0 4 -30 -2 -73 -14 -88 -46
-135 -120 -178 -84 -48 -205 -37 -270 23 -11 10 -23 18 -26 18 -16 0 -60 101
-64 146 -8 80 10 136 59 189 74 81 202 105 297 55z m-2 -1549 c24 -14 58 -46
75 -69 25 -37 30 -55 33 -116 5 -83 -7 -114 -64 -171 -110 -110 -292 -79 -363
62 -29 58 -29 155 0 203 44 73 86 105 162 120 58 11 104 3 157 -29z"/>
</g>
</svg>
