<?xml version="1.0" standalone="no"?>
<!DOCTYPE svg PUBLIC "-//W3C//DTD SVG 20010904//EN"
 "http://www.w3.org/TR/2001/REC-SVG-20010904/DTD/svg10.dtd">
<svg version="1.0" xmlns="http://www.w3.org/2000/svg"
 width="1710.000000pt" height="419.000000pt" viewBox="0 0 1710.000000 419.000000"
 preserveAspectRatio="xMidYMid meet">

<g transform="translate(0.000000,419.000000) scale(0.100000,-0.100000)"
fill="#000000" stroke="none">
<path d="M379 4185 c-2 -2 -16 -6 -29 -8 -14 -2 -42 -11 -62 -21 -21 -9 -40
-16 -44 -16 -10 0 -85 -62 -126 -105 -48 -49 -91 -140 -106 -220 -12 -70 -13
-1584 -1 -1785 14 -225 31 -455 35 -475 2 -11 6 -49 9 -85 2 -36 12 -110 20
-165 9 -55 23 -145 31 -200 9 -55 18 -111 20 -125 17 -93 45 -243 54 -285 6
-27 12 -57 13 -65 1 -8 5 -19 9 -25 3 -5 9 -37 13 -70 4 -33 11 -65 16 -71 5
-6 11 -28 14 -50 6 -51 34 -130 61 -174 30 -49 106 -126 132 -134 12 -4 22
-11 22 -15 0 -8 103 -50 140 -59 8 -2 42 -4 75 -5 33 -2 65 -6 71 -9 6 -4 14
-4 18 -1 10 10 197 10 202 1 3 -5 11 -5 17 -1 17 11 57 11 63 1 3 -4 11 -5 17
-1 17 11 57 11 63 1 3 -5 13 -3 21 4 19 16 17 16 36 0 8 -7 18 -9 21 -4 6 10
46 10 63 -1 6 -4 14 -3 17 1 6 10 46 10 63 -1 6 -4 14 -4 17 1 6 9 107 9 123
-1 6 -4 14 -3 17 1 6 10 46 10 63 -1 6 -4 14 -3 17 1 6 10 46 10 63 -1 6 -4
14 -4 17 1 6 9 107 9 123 -1 6 -4 14 -3 17 1 6 10 46 10 63 -1 6 -4 14 -3 17
1 6 10 46 10 63 -1 6 -4 14 -4 17 1 6 9 107 9 123 -1 6 -4 14 -3 17 1 6 10 46
10 63 -1 6 -4 14 -4 17 1 4 6 111 8 126 2 6 -3 9 -2 44 4 14 2 28 0 32 -5 3
-6 11 -6 17 -1 14 10 47 10 64 -1 6 -4 14 -4 17 1 3 6 121 9 121 3 0 -1 2635
-3 5856 -4 3220 -2 5860 -7 5866 -10 7 -4 14 -3 17 1 6 10 46 10 62 -1 6 -3
14 -3 18 0 10 10 197 10 203 0 2 -4 10 -4 16 1 14 10 47 10 64 -1 6 -4 14 -4
17 1 6 9 107 9 123 -1 6 -4 14 -3 17 1 6 10 46 10 63 -1 6 -4 14 -3 17 1 6 10
46 10 63 -1 6 -4 14 -4 17 1 6 9 107 9 123 -1 6 -4 14 -3 17 1 6 10 46 10 63
-1 6 -4 14 -3 17 1 6 10 46 10 63 -1 6 -4 14 -4 17 1 6 9 107 9 123 -1 6 -4
14 -3 17 1 6 10 46 10 63 -1 6 -4 14 -3 17 1 6 10 46 10 63 -1 6 -4 14 -3 17
2 5 8 27 8 46 1 6 -3 9 -2 44 4 14 2 28 0 32 -5 3 -6 11 -6 17 -1 14 10 47 10
64 -1 6 -4 14 -4 17 1 4 6 111 8 126 2 6 -3 9 -2 44 4 14 2 28 0 32 -5 3 -6
11 -6 17 -1 14 10 47 10 64 -1 6 -4 14 -4 17 1 3 5 29 7 58 5 105 -7 283 -2
283 7 0 1 13 4 28 6 38 6 128 47 157 70 43 36 100 98 106 116 3 10 9 18 13 18
11 0 46 97 69 195 11 44 28 112 37 150 10 39 19 84 21 100 2 17 7 37 10 45 3
8 8 33 10 55 3 22 8 49 11 60 3 11 8 29 9 40 2 11 11 63 19 115 20 120 23 136
30 185 3 22 8 54 10 70 8 49 26 197 31 240 2 22 6 60 9 85 8 81 18 188 32 380
10 124 14 1862 4 1874 -5 6 -12 27 -16 46 -8 38 -49 115 -74 141 -9 9 -25 27
-37 40 -28 32 -64 61 -64 51 0 -4 -4 -2 -8 3 -8 11 -77 45 -104 51 -10 2 -28
6 -40 9 -13 3 -36 8 -53 10 -37 6 -16310 16 -16316 10z m3183 -204 c37 -14 67
-65 62 -104 -2 -17 -15 -42 -30 -55 -38 -36 -903 -532 -930 -534 -13 -1 -24
-6 -24 -10 0 -12 -82 -10 -119 3 -17 6 -31 15 -31 20 0 5 -5 9 -12 9 -14 0
-242 131 -246 142 -2 4 -9 8 -14 8 -14 0 -172 92 -176 102 -2 4 -9 8 -15 8
-14 0 -241 131 -245 142 -2 4 -8 8 -14 8 -6 0 -48 21 -93 48 -55 31 -89 57
-100 78 -23 43 -14 92 24 124 l30 26 953 -2 c651 -1 962 -5 980 -13z m2418
-21 c37 -37 39 -97 6 -134 -21 -24 -842 -502 -924 -538 -68 -30 -173 -16 -225
30 -10 9 -25 17 -34 18 -9 2 -19 6 -22 11 -3 5 -17 14 -31 21 -14 7 -43 23
-65 37 -22 13 -50 29 -63 34 -12 6 -32 20 -44 31 -11 10 -24 17 -29 15 -4 -3
-13 1 -21 8 -7 7 -24 18 -38 25 -68 35 -86 46 -103 60 -10 9 -25 17 -34 18 -9
2 -19 6 -22 11 -3 5 -17 14 -31 21 -14 7 -43 23 -65 37 -22 13 -50 29 -63 34
-12 6 -32 20 -44 31 -11 10 -25 17 -29 14 -4 -2 -10 0 -14 6 -3 6 -21 16 -38
24 -18 8 -49 30 -70 49 -32 30 -37 40 -34 71 4 35 17 60 46 83 11 10 228 13
988 13 l974 0 29 -30z m2367 12 c55 -43 60 -112 11 -158 -32 -30 -914 -534
-946 -541 -62 -13 -101 -5 -172 36 -30 17 -75 41 -100 53 -25 13 -47 26 -50
29 -3 3 -77 47 -165 98 -88 50 -167 96 -175 101 -8 5 -98 57 -200 116 -102 59
-193 114 -202 124 -9 10 -19 33 -22 52 -4 29 0 41 26 71 l32 37 970 0 c903 -1
973 -2 993 -18z m2379 1 c33 -19 46 -40 50 -81 3 -30 -2 -45 -19 -64 -22 -24
-886 -527 -949 -552 -31 -12 -84 -14 -117 -5 -34 10 -948 543 -963 562 -18 22
-22 68 -10 100 4 10 21 26 37 36 29 17 77 18 990 17 701 -2 966 -5 981 -13z
m2355 8 c9 0 31 -14 48 -30 33 -31 40 -70 20 -113 -7 -16 -164 -111 -487 -297
-451 -259 -478 -274 -526 -274 -28 0 -60 3 -71 6 -27 7 -928 529 -948 549 -38
38 -29 111 19 143 30 20 42 20 980 19 522 -1 956 -2 965 -3z m2397 -9 c12 -7
22 -10 22 -6 0 10 36 -38 43 -58 3 -9 1 -32 -4 -51 -12 -46 -28 -56 -509 -332
-217 -125 -399 -230 -405 -233 -5 -4 -14 -7 -20 -9 -5 -1 -23 -6 -40 -11 -33
-10 -63 -9 -115 3 -34 7 -851 472 -918 522 -30 23 -59 66 -58 88 1 6 7 24 14
40 26 63 -31 60 1014 60 739 -1 958 -4 976 -13z m-11635 -317 c40 -12 82 -33
104 -54 12 -12 27 -21 33 -21 10 0 50 -20 60 -30 3 -3 19 -12 35 -20 17 -8 32
-17 35 -20 3 -3 22 -14 43 -25 21 -11 47 -28 57 -37 11 -10 24 -18 30 -18 10
0 50 -20 60 -30 3 -3 19 -12 35 -20 17 -8 44 -24 60 -35 17 -12 44 -28 60 -35
17 -8 32 -17 35 -20 3 -3 19 -12 35 -20 17 -8 32 -18 35 -21 3 -3 29 -18 58
-34 28 -15 52 -32 52 -37 0 -4 6 -8 13 -8 18 0 67 -24 67 -32 0 -5 6 -8 14 -8
23 0 95 -89 105 -129 12 -47 12 -1119 0 -1127 -5 -3 -7 -9 -4 -14 6 -9 -23
-56 -55 -90 -19 -21 -924 -541 -965 -556 -28 -9 -71 -10 -115 -1 -18 4 -67 29
-140 72 -30 18 -116 68 -190 111 -440 253 -634 367 -647 380 -7 6 -23 32 -37
56 l-25 45 0 558 c0 604 -1 590 55 651 37 41 947 566 986 569 16 2 32 5 35 9
6 6 35 3 76 -9z m2439 -26 c15 -10 29 -19 32 -19 3 0 56 -30 118 -66 62 -37
138 -80 168 -97 30 -17 72 -41 93 -54 21 -13 53 -32 70 -42 51 -28 166 -94
200 -115 18 -10 57 -33 87 -49 122 -67 148 -88 183 -149 l28 -48 -1 -532 c0
-293 -2 -549 -4 -569 -4 -42 -26 -86 -58 -115 -28 -26 -941 -553 -971 -561
-36 -9 -130 -4 -137 8 -4 6 -10 10 -14 9 -8 -2 -391 216 -409 234 -7 6 -17 12
-23 13 -13 2 -237 132 -244 142 -3 3 -11 7 -17 8 -26 6 -214 123 -251 158 -26
23 -44 51 -51 78 -8 29 -10 212 -9 592 l3 550 25 40 c13 22 28 42 33 44 4 1
16 11 25 20 28 28 924 539 956 545 16 3 30 7 32 9 10 10 111 -16 136 -34z
m2796 -240 c240 -139 451 -262 468 -273 18 -11 47 -42 65 -69 l34 -50 -2 -551
c0 -303 -3 -562 -5 -576 -6 -30 -25 -67 -47 -91 -9 -9 -234 -142 -500 -295
-455 -263 -487 -279 -537 -281 -29 -1 -56 2 -59 7 -4 6 -15 10 -26 10 -10 0
-19 5 -19 10 0 6 -5 10 -12 10 -14 0 -242 131 -246 142 -2 4 -8 8 -14 8 -14 0
-432 241 -436 252 -2 4 -9 8 -14 8 -17 0 -170 90 -200 118 -34 31 -71 100 -64
118 3 8 2 14 -2 14 -4 0 -6 245 -6 545 2 608 0 587 72 651 19 18 229 143 466
280 506 291 471 272 526 281 13 2 26 6 28 8 14 14 149 -56 530 -276z m2393 -9
c261 -150 481 -280 489 -289 9 -9 27 -36 41 -61 l26 -45 1 -555 c0 -533 0
-557 -19 -597 -11 -23 -39 -57 -62 -75 -39 -32 -887 -525 -932 -542 -63 -25
-162 -12 -212 27 -15 12 -33 22 -41 24 -8 1 -18 5 -21 10 -3 5 -17 14 -31 21
-14 7 -43 23 -65 37 -22 13 -53 30 -70 38 -16 8 -36 21 -44 30 -7 9 -17 15
-21 12 -5 -3 -11 -1 -15 5 -3 6 -21 17 -38 25 -18 8 -50 26 -72 40 -22 13 -50
29 -63 34 -12 6 -32 20 -44 31 -11 10 -25 17 -29 14 -4 -2 -10 0 -14 6 -3 6
-21 17 -38 26 -62 29 -92 47 -113 65 -11 11 -23 17 -26 14 -3 -3 -11 1 -18 10
-7 8 -17 15 -23 15 -23 0 -121 77 -146 115 l-26 40 -3 540 c-1 297 0 559 3
581 13 93 17 96 526 389 257 149 483 275 501 281 18 6 53 11 79 10 40 -2 103
-35 520 -276z m2386 -5 c468 -270 541 -319 544 -365 0 -8 3 -24 5 -35 9 -43 4
-1104 -6 -1129 -10 -27 -13 -32 -53 -76 -18 -21 -937 -559 -944 -553 -2 1 -18
-4 -37 -12 -18 -8 -36 -11 -40 -8 -4 4 -22 8 -42 10 -19 1 -58 16 -87 33 -29
16 -72 40 -97 52 -25 13 -47 26 -50 29 -3 4 -75 47 -160 96 -669 385 -637 363
-658 449 -13 51 -14 1052 -1 1119 6 33 21 62 42 86 21 24 187 125 502 306 259
149 480 273 490 275 11 2 41 3 67 2 41 -3 106 -37 525 -279z m-12248 201 c9
-9 21 -16 25 -16 4 0 59 -30 122 -67 63 -38 127 -75 142 -83 15 -8 74 -42 130
-75 57 -33 115 -67 130 -75 15 -8 58 -33 95 -55 38 -22 84 -48 103 -58 38 -19
128 -106 119 -115 -2 -3 1 -12 7 -20 10 -11 13 -144 13 -556 1 -605 0 -611
-63 -674 -34 -34 -761 -462 -837 -493 -52 -21 -135 -19 -175 5 -56 33 -98 81
-110 126 -11 41 -13 439 -7 1591 l2 456 35 46 c52 68 96 88 188 83 40 -2 69
-9 81 -20z m14093 -21 c31 -19 56 -46 73 -77 l26 -48 -1 -983 c-1 -540 -2
-993 -4 -1007 -2 -14 -4 -32 -5 -41 -2 -27 -73 -101 -115 -120 -27 -12 -59
-17 -96 -15 -52 3 -81 18 -473 245 -230 133 -426 250 -435 259 -31 31 -64 92
-58 107 3 8 2 15 -2 15 -4 0 -6 244 -5 542 2 592 2 594 61 651 15 15 214 134
442 266 l415 239 65 -2 c52 -1 74 -7 112 -31z m-14692 -963 c68 -43 93 -90 88
-166 -4 -73 -24 -105 -88 -139 -147 -80 -310 65 -246 218 22 51 74 97 121 107
33 7 98 -4 125 -20z m15219 0 c36 -5 99 -61 112 -100 6 -19 11 -55 11 -79 -2
-57 -50 -125 -105 -148 -42 -17 -113 -20 -122 -5 -4 6 -11 8 -16 5 -5 -4 -30
16 -56 42 -44 44 -48 52 -51 102 -1 30 2 69 8 87 14 42 80 94 124 97 20 2 39
6 42 10 4 3 12 3 18 -1 6 -3 22 -8 35 -10z m-13587 -1000 c38 -10 934 -525
959 -551 40 -42 22 -129 -32 -151 -21 -9 -182 -12 -629 -12 -331 0 -603 2
-606 5 -3 2 -21 1 -40 -3 -19 -4 -36 -4 -39 1 -3 4 -17 4 -30 -1 -13 -5 -27
-6 -29 -1 -6 10 -46 8 -63 -2 -6 -4 -14 -3 -17 2 -6 9 -50 6 -67 -5 -4 -2 -10
0 -13 5 -5 8 -34 8 -43 1 -7 -6 -29 -6 -38 0 -13 8 -27 7 -42 -3 -6 -4 -14 -3
-17 1 -6 10 -46 10 -63 -1 -6 -4 -14 -3 -17 1 -6 10 -46 10 -63 -1 -6 -4 -14
-3 -17 2 -4 5 -19 7 -34 4 -40 -8 -47 -7 -80 6 -65 27 -85 105 -39 154 21 24
904 538 933 544 8 2 21 4 29 6 8 2 17 6 21 9 6 7 23 5 76 -10z m2450 -29 c29
-16 71 -41 93 -55 22 -13 65 -38 95 -55 82 -45 125 -69 167 -96 21 -13 63 -37
93 -54 30 -17 106 -60 168 -97 62 -36 115 -66 117 -66 8 0 144 -88 160 -103 9
-10 19 -35 22 -57 5 -34 1 -43 -25 -70 -24 -24 -39 -30 -74 -31 -66 -1 -1850
0 -1878 1 -35 1 -81 45 -87 81 -6 38 11 79 40 100 36 26 872 507 909 522 52
23 137 14 200 -20z m2373 4 c28 -14 67 -37 88 -51 21 -14 40 -26 43 -26 4 0
146 -81 244 -140 62 -37 446 -258 469 -270 56 -29 81 -58 81 -94 0 -47 -16
-78 -48 -96 -24 -13 -150 -15 -977 -13 -522 1 -957 4 -965 6 -49 10 -85 63
-76 111 4 18 14 40 24 48 23 20 930 541 956 550 39 12 111 1 161 -25z m2325
21 c45 -12 119 -52 132 -72 4 -6 8 -7 8 -3 0 7 57 -20 70 -33 3 -3 21 -14 41
-25 100 -54 139 -79 139 -87 0 -4 7 -8 15 -8 14 0 53 -18 65 -30 3 -3 22 -14
43 -25 21 -11 47 -28 58 -38 10 -10 19 -15 19 -12 0 6 59 -24 70 -35 7 -7 52
-33 123 -71 31 -18 57 -36 57 -40 0 -5 7 -9 15 -9 38 0 135 -85 135 -119 0
-36 -18 -68 -49 -88 -31 -19 -53 -19 -989 -19 -994 1 -975 0 -1016 42 -18 18
-21 72 -5 107 7 16 151 104 476 291 256 148 472 269 479 270 7 1 16 4 18 7 10
10 53 9 96 -3z m2395 -4 c17 -4 42 -15 57 -25 14 -11 29 -19 32 -19 3 0 40
-21 83 -46 43 -26 103 -60 133 -77 30 -17 95 -54 144 -84 49 -29 90 -53 92
-53 2 0 54 -30 116 -66 62 -37 129 -76 148 -86 112 -63 141 -85 155 -114 22
-46 19 -70 -14 -106 l-29 -33 -964 -1 c-1052 -1 -1002 -4 -1032 57 -22 44 -20
71 7 102 29 33 923 548 962 554 17 3 32 6 33 8 4 3 20 1 77 -11z m2861 -270
c247 -143 458 -269 471 -282 52 -52 16 -150 -57 -155 -19 -2 -40 -6 -47 -10
-6 -4 -14 -3 -17 2 -4 5 -18 7 -32 5 -35 -6 -38 -7 -44 -4 -19 7 -41 7 -46 -1
-3 -5 -11 -6 -17 -2 -17 11 -57 11 -63 1 -3 -4 -11 -5 -17 -1 -17 11 -57 11
-63 1 -3 -4 -11 -5 -17 -1 -16 10 -117 10 -123 1 -3 -5 -11 -5 -17 -1 -17 11
-57 11 -63 1 -3 -4 -10 -5 -17 -1 -15 9 -198 10 -204 0 -2 -4 -10 -4 -16 0
-17 11 -57 11 -63 1 -3 -4 -10 -5 -17 -1 -15 9 -198 10 -204 0 -2 -4 -10 -4
-16 0 -16 10 -28 11 -53 2 -12 -4 -25 -5 -28 -2 -9 9 -197 9 -203 0 -2 -4 -10
-4 -16 0 -16 10 -28 11 -54 1 -12 -4 -24 -4 -27 0 -2 4 -98 7 -213 6 -119 0
-218 4 -231 9 -57 26 -74 104 -34 153 16 19 897 533 925 538 7 2 19 6 27 9 31
12 66 13 107 1 23 -6 243 -128 489 -270z"/>
</g>
</svg>
