<?xml version="1.0" standalone="no"?>
<!DOCTYPE svg PUBLIC "-//W3C//DTD SVG 20010904//EN"
 "http://www.w3.org/TR/2001/REC-SVG-20010904/DTD/svg10.dtd">
<svg version="1.0" xmlns="http://www.w3.org/2000/svg"
 width="336.000000pt" height="203.000000pt" viewBox="0 0 336.000000 203.000000"
 preserveAspectRatio="xMidYMid meet">

<g transform="translate(0.000000,203.000000) scale(0.100000,-0.100000)"
fill="#000000" stroke="none">
<path d="M140 2020 c-114 -14 -133 -46 -132 -222 1 -77 6 -127 15 -150 9 -19
155 -172 353 -369 336 -334 339 -337 394 -349 85 -18 777 -10 807 10 48 31 48
34 48 524 0 422 -1 464 -18 493 -36 66 -8 64 -745 66 -367 2 -692 0 -722 -3z
m540 -682 l0 -131 -22 19 c-157 140 -236 210 -253 225 -19 19 -16 19 128 19
l147 0 0 -132z"/>
<path d="M1980 2020 c-180 -5 -199 -11 -227 -63 -16 -29 -18 -72 -18 -493 0
-490 0 -493 48 -524 30 -20 722 -28 807 -10 55 12 58 15 394 349 198 197 344
350 353 369 21 49 21 255 0 305 -30 71 -21 70 -642 71 -302 1 -624 -1 -715 -4z
m975 -569 c-17 -15 -96 -85 -252 -225 l-23 -19 0 131 0 132 147 0 c144 0 147
0 128 -19z"/>
<path d="M1215 832 c-123 -3 -132 -5 -170 -30 -70 -48 -79 -80 -78 -287 1 -99
3 -187 5 -195 10 -38 38 -73 144 -177 100 -98 120 -114 162 -124 58 -13 745
-12 792 1 18 5 42 16 55 24 47 31 222 218 243 260 22 42 23 54 18 205 -6 184
-16 232 -56 271 -16 15 -26 31 -22 36 4 4 0 5 -9 1 -9 -3 -22 0 -28 6 -11 11
-714 17 -1056 9z m501 -383 c17 -19 17 -23 3 -47 -29 -52 -108 -29 -94 27 12
45 59 56 91 20z"/>
</g>
</svg>
